M48
; DRILL file {KiCad (6.0.11)} date Sat Feb  4 12:28:35 2023
; FORMAT={-:-/ absolute / inch / decimal}
; #@! TF.CreationDate,2023-02-04T12:28:35-08:00
; #@! TF.GenerationSoftware,Kicad,Pcbnew,(6.0.11)
; #@! TF.FileFunction,NonPlated,1,2,NPTH
FMAT,2
INCH
; #@! TA.AperFunction,NonPlated,NPTH,ComponentDrill
T1C0.0689
; #@! TA.AperFunction,NonPlated,NPTH,ComponentDrill
T2C0.1200
; #@! TA.AperFunction,NonPlated,NPTH,ComponentDrill
T3C0.1570
%
G90
G05
T1
X-13.0761Y-2.1885
X-13.0761Y-3.3135
X-13.0761Y-4.0635
X-13.0761Y-4.8135
X-13.0761Y-5.5635
X-13.0761Y-6.6885
X-13.0761Y-7.626
X-13.0761Y-8.5635
X-13.0761Y-9.6885
X-12.6761Y-2.1885
X-12.6761Y-3.3135
X-12.6761Y-4.0635
X-12.6761Y-4.8135
X-12.6761Y-5.5635
X-12.6761Y-6.6885
X-12.6761Y-7.626
X-12.6761Y-8.5635
X-12.6761Y-9.6885
X-12.3261Y-2.1885
X-12.3261Y-3.3135
X-12.3261Y-4.0635
X-12.3261Y-4.8135
X-12.3261Y-5.5635
X-12.1386Y-6.6885
X-12.1386Y-7.626
X-12.1386Y-8.5635
X-11.9261Y-2.1885
X-11.9261Y-3.3135
X-11.9261Y-4.0635
X-11.9261Y-4.8135
X-11.9261Y-5.5635
X-11.7386Y-6.6885
X-11.7386Y-7.626
X-11.7386Y-8.5635
X-11.5761Y-2.1885
X-11.5761Y-3.3135
X-11.5761Y-4.0635
X-11.5761Y-4.8135
X-11.5761Y-5.5635
X-11.2011Y-6.6885
X-11.2011Y-7.4385
X-11.2011Y-8.1885
X-11.2011Y-8.9385
X-11.2011Y-9.6885
X-11.1761Y-2.1885
X-11.1761Y-3.3135
X-11.1761Y-4.0635
X-11.1761Y-4.8135
X-11.1761Y-5.5635
X-10.8011Y-6.6885
X-10.8011Y-7.4385
X-10.8011Y-8.1885
X-10.8011Y-8.9385
X-10.8011Y-9.6885
X-10.4511Y-2.1885
X-10.4511Y-3.3135
X-10.4511Y-4.0635
X-10.4511Y-4.8135
X-10.4511Y-5.5635
X-10.4511Y-6.6885
X-10.4511Y-7.4385
X-10.4511Y-8.1885
X-10.4511Y-8.9385
X-10.0511Y-2.1885
X-10.0511Y-3.3135
X-10.0511Y-4.0635
X-10.0511Y-4.8135
X-10.0511Y-5.5635
X-10.0511Y-6.6885
X-10.0511Y-7.4385
X-10.0511Y-8.1885
X-10.0511Y-8.9385
X-9.7011Y-2.1885
X-9.7011Y-3.3135
X-9.7011Y-4.0635
X-9.7011Y-4.8135
X-9.7011Y-5.5635
X-9.7011Y-6.6885
X-9.7011Y-7.4385
X-9.7011Y-8.1885
X-9.7011Y-8.9385
X-9.3261Y-9.6885
X-9.3011Y-2.1885
X-9.3011Y-3.3135
X-9.3011Y-4.0635
X-9.3011Y-4.8135
X-9.3011Y-5.5635
X-9.3011Y-6.6885
X-9.3011Y-7.4385
X-9.3011Y-8.1885
X-9.3011Y-8.9385
X-8.9511Y-2.1885
X-8.9511Y-3.3135
X-8.9511Y-4.0635
X-8.9511Y-4.8135
X-8.9511Y-5.5635
X-8.9511Y-6.6885
X-8.9511Y-7.4385
X-8.9511Y-8.1885
X-8.9511Y-8.9385
X-8.9261Y-9.6885
X-8.5511Y-2.1885
X-8.5511Y-3.3135
X-8.5511Y-4.0635
X-8.5511Y-4.8135
X-8.5511Y-5.5635
X-8.5511Y-6.6885
X-8.5511Y-7.4385
X-8.5511Y-8.1885
X-8.5511Y-8.9385
X-7.8261Y-2.1885
X-7.8261Y-3.3135
X-7.8261Y-4.4385
X-7.8261Y-5.5635
X-7.8261Y-6.6885
X-7.6386Y-8.9385
X-7.4261Y-2.1885
X-7.4261Y-3.3135
X-7.4261Y-4.4385
X-7.4261Y-5.5635
X-7.4261Y-6.6885
X-7.2386Y-8.9385
X-6.9824Y-2.1885
X-6.8886Y-3.3135
X-6.8886Y-4.0635
X-6.8886Y-4.8135
X-6.8886Y-5.5635
X-6.8886Y-6.6885
X-6.8886Y-8.1885
X-6.8886Y-8.9385
X-6.8886Y-9.6885
X-6.5824Y-2.1885
X-6.4886Y-3.3135
X-6.4886Y-4.0635
X-6.4886Y-4.8135
X-6.4886Y-5.5635
X-6.4886Y-6.6885
X-6.4886Y-8.1885
X-6.4886Y-8.9385
X-6.4886Y-9.6885
X-6.1386Y-2.1885
X-6.1386Y-5.5635
X-6.1386Y-6.6885
X-6.1386Y-8.9385
X-5.7386Y-2.1885
X-5.7386Y-5.5635
X-5.7386Y-6.6885
X-5.7386Y-8.9385
T2
X-9.5949Y-9.4135
X-8.6574Y-9.4135
T3
X-12.8761Y-2.1885
X-12.8761Y-3.3135
X-12.8761Y-4.0635
X-12.8761Y-4.8135
X-12.8761Y-5.5635
X-12.8761Y-6.6885
X-12.8761Y-7.626
X-12.8761Y-8.5635
X-12.8761Y-9.6885
X-12.1261Y-2.1885
X-12.1261Y-3.3135
X-12.1261Y-4.0635
X-12.1261Y-4.8135
X-12.1261Y-5.5635
X-11.9386Y-6.6885
X-11.9386Y-7.626
X-11.9386Y-8.5635
X-11.3761Y-2.1885
X-11.3761Y-3.3135
X-11.3761Y-4.0635
X-11.3761Y-4.8135
X-11.3761Y-5.5635
X-11.0011Y-6.6885
X-11.0011Y-7.4385
X-11.0011Y-8.1885
X-11.0011Y-8.9385
X-11.0011Y-9.6885
X-10.2511Y-2.1885
X-10.2511Y-3.3135
X-10.2511Y-4.0635
X-10.2511Y-4.8135
X-10.2511Y-5.5635
X-10.2511Y-6.6885
X-10.2511Y-7.4385
X-10.2511Y-8.1885
X-10.2511Y-8.9385
X-9.5949Y-10.0135
X-9.5011Y-2.1885
X-9.5011Y-3.3135
X-9.5011Y-4.0635
X-9.5011Y-4.8135
X-9.5011Y-5.5635
X-9.5011Y-6.6885
X-9.5011Y-7.4385
X-9.5011Y-8.1885
X-9.5011Y-8.9385
X-9.1261Y-9.6885
X-8.7511Y-2.1885
X-8.7511Y-3.3135
X-8.7511Y-4.0635
X-8.7511Y-4.8135
X-8.7511Y-5.5635
X-8.7511Y-6.6885
X-8.7511Y-7.4385
X-8.7511Y-8.1885
X-8.7511Y-8.9385
X-8.6574Y-10.0135
X-7.6261Y-2.1885
X-7.6261Y-3.3135
X-7.6261Y-4.4385
X-7.6261Y-5.5635
X-7.6261Y-6.6885
X-7.4386Y-8.9385
X-6.7824Y-2.1885
X-6.6886Y-3.3135
X-6.6886Y-4.0635
X-6.6886Y-4.8135
X-6.6886Y-5.5635
X-6.6886Y-6.6885
X-6.6886Y-8.1885
X-6.6886Y-8.9385
X-6.6886Y-9.6885
X-5.9386Y-2.1885
X-5.9386Y-5.5635
X-5.9386Y-6.6885
X-5.9386Y-8.9385
T0
M30
