%TF.GenerationSoftware,KiCad,Pcbnew,(6.0.11)*%
%TF.CreationDate,2023-02-04T12:28:33-08:00*%
%TF.ProjectId,MA Command Keyboard changed footprint,4d412043-6f6d-46d6-916e-64204b657962,rev?*%
%TF.SameCoordinates,Original*%
%TF.FileFunction,Copper,L2,Bot*%
%TF.FilePolarity,Positive*%
%FSLAX46Y46*%
G04 Gerber Fmt 4.6, Leading zero omitted, Abs format (unit mm)*
G04 Created by KiCad (PCBNEW (6.0.11)) date 2023-02-04 12:28:33*
%MOMM*%
%LPD*%
G01*
G04 APERTURE LIST*
G04 Aperture macros list*
%AMRoundRect*
0 Rectangle with rounded corners*
0 $1 Rounding radius*
0 $2 $3 $4 $5 $6 $7 $8 $9 X,Y pos of 4 corners*
0 Add a 4 corners polygon primitive as box body*
4,1,4,$2,$3,$4,$5,$6,$7,$8,$9,$2,$3,0*
0 Add four circle primitives for the rounded corners*
1,1,$1+$1,$2,$3*
1,1,$1+$1,$4,$5*
1,1,$1+$1,$6,$7*
1,1,$1+$1,$8,$9*
0 Add four rect primitives between the rounded corners*
20,1,$1+$1,$2,$3,$4,$5,0*
20,1,$1+$1,$4,$5,$6,$7,0*
20,1,$1+$1,$6,$7,$8,$9,0*
20,1,$1+$1,$8,$9,$2,$3,0*%
G04 Aperture macros list end*
%TA.AperFunction,SMDPad,CuDef*%
%ADD10RoundRect,0.250000X-0.450000X0.262500X-0.450000X-0.262500X0.450000X-0.262500X0.450000X0.262500X0*%
%TD*%
%TA.AperFunction,SMDPad,CuDef*%
%ADD11R,4.500000X2.500000*%
%TD*%
%TA.AperFunction,ComponentPad*%
%ADD12C,0.800000*%
%TD*%
%TA.AperFunction,ComponentPad*%
%ADD13C,4.000000*%
%TD*%
%TA.AperFunction,SMDPad,CuDef*%
%ADD14R,0.900000X1.200000*%
%TD*%
%TA.AperFunction,SMDPad,CuDef*%
%ADD15RoundRect,0.250000X-0.475000X0.250000X-0.475000X-0.250000X0.475000X-0.250000X0.475000X0.250000X0*%
%TD*%
%TA.AperFunction,SMDPad,CuDef*%
%ADD16RoundRect,0.250000X0.475000X-0.250000X0.475000X0.250000X-0.475000X0.250000X-0.475000X-0.250000X0*%
%TD*%
%TA.AperFunction,SMDPad,CuDef*%
%ADD17R,1.400000X1.200000*%
%TD*%
%TA.AperFunction,SMDPad,CuDef*%
%ADD18RoundRect,0.250000X-0.250000X-0.475000X0.250000X-0.475000X0.250000X0.475000X-0.250000X0.475000X0*%
%TD*%
%TA.AperFunction,SMDPad,CuDef*%
%ADD19RoundRect,0.250000X0.450000X-0.262500X0.450000X0.262500X-0.450000X0.262500X-0.450000X-0.262500X0*%
%TD*%
%TA.AperFunction,SMDPad,CuDef*%
%ADD20R,0.500000X2.250000*%
%TD*%
%TA.AperFunction,ComponentPad*%
%ADD21O,1.700000X2.700000*%
%TD*%
%TA.AperFunction,SMDPad,CuDef*%
%ADD22RoundRect,0.250000X0.250000X0.475000X-0.250000X0.475000X-0.250000X-0.475000X0.250000X-0.475000X0*%
%TD*%
%TA.AperFunction,SMDPad,CuDef*%
%ADD23RoundRect,0.250000X-0.625000X0.375000X-0.625000X-0.375000X0.625000X-0.375000X0.625000X0.375000X0*%
%TD*%
%TA.AperFunction,SMDPad,CuDef*%
%ADD24R,1.500000X0.550000*%
%TD*%
%TA.AperFunction,SMDPad,CuDef*%
%ADD25R,0.550000X1.500000*%
%TD*%
%TA.AperFunction,SMDPad,CuDef*%
%ADD26R,1.800000X1.100000*%
%TD*%
%TA.AperFunction,ViaPad*%
%ADD27C,0.800000*%
%TD*%
%TA.AperFunction,Conductor*%
%ADD28C,0.200000*%
%TD*%
%TA.AperFunction,Conductor*%
%ADD29C,0.250000*%
%TD*%
%TA.AperFunction,Conductor*%
%ADD30C,0.381000*%
%TD*%
G04 APERTURE END LIST*
D10*
%TO.P,R1,1*%
%TO.N,D-*%
X-209300000Y-59220000D03*
%TO.P,R1,2*%
%TO.N,P-*%
X-209300000Y-61045000D03*
%TD*%
%TO.P,R2,2*%
%TO.N,P+*%
X-207370000Y-61025000D03*
%TO.P,R2,1*%
%TO.N,D+*%
X-207370000Y-59200000D03*
%TD*%
D11*
%TO.P,MX74,1,COL*%
%TO.N,COL8*%
X-176976100Y-224497900D03*
D12*
X-178781100Y-225259900D03*
D13*
X-173701100Y-224497900D03*
D12*
X-178781100Y-223735900D03*
%TO.P,MX74,2,ROW*%
%TO.N,Net-(D74-Pad2)*%
X-162271100Y-221195900D03*
D13*
X-167351100Y-221957900D03*
D12*
X-162271100Y-222719900D03*
D11*
X-164049100Y-221957900D03*
%TD*%
%TO.P,MX73,1,COL*%
%TO.N,COL7*%
X-176976100Y-243547900D03*
D12*
X-178781100Y-244309900D03*
D13*
X-173701100Y-243547900D03*
D12*
X-178781100Y-242785900D03*
%TO.P,MX73,2,ROW*%
%TO.N,Net-(D73-Pad2)*%
X-162271100Y-240245900D03*
D13*
X-167351100Y-241007900D03*
D12*
X-162271100Y-241769900D03*
D11*
X-164049100Y-241007900D03*
%TD*%
%TO.P,MX72,1,COL*%
%TO.N,COL6*%
X-229363600Y-224497900D03*
D12*
X-231168600Y-225259900D03*
D13*
X-226088600Y-224497900D03*
D12*
X-231168600Y-223735900D03*
%TO.P,MX72,2,ROW*%
%TO.N,Net-(D72-Pad2)*%
X-214658600Y-221195900D03*
D13*
X-219738600Y-221957900D03*
D12*
X-214658600Y-222719900D03*
D11*
X-216436600Y-221957900D03*
%TD*%
%TO.P,MX71,1,COL*%
%TO.N,COL5*%
X-238888600Y-243547900D03*
D12*
X-240693600Y-244309900D03*
D13*
X-235613600Y-243547900D03*
D12*
X-240693600Y-242785900D03*
%TO.P,MX71,2,ROW*%
%TO.N,Net-(D71-Pad2)*%
X-224183600Y-240245900D03*
D13*
X-229263600Y-241007900D03*
D12*
X-224183600Y-241769900D03*
D11*
X-225961600Y-241007900D03*
%TD*%
%TO.P,MX70,1,COL*%
%TO.N,COL4*%
X-248413600Y-224497900D03*
D12*
X-250218600Y-225259900D03*
D13*
X-245138600Y-224497900D03*
D12*
X-250218600Y-223735900D03*
%TO.P,MX70,2,ROW*%
%TO.N,Net-(D70-Pad2)*%
X-233708600Y-221195900D03*
D13*
X-238788600Y-221957900D03*
D12*
X-233708600Y-222719900D03*
D11*
X-235486600Y-221957900D03*
%TD*%
%TO.P,MX69,1,COL*%
%TO.N,COL3*%
X-267463600Y-224497900D03*
D12*
X-269268600Y-225259900D03*
D13*
X-264188600Y-224497900D03*
D12*
X-269268600Y-223735900D03*
%TO.P,MX69,2,ROW*%
%TO.N,Net-(D69-Pad2)*%
X-252758600Y-221195900D03*
D13*
X-257838600Y-221957900D03*
D12*
X-252758600Y-222719900D03*
D11*
X-254536600Y-221957900D03*
%TD*%
%TO.P,MX68,1,COL*%
%TO.N,COL2*%
X-286513600Y-224497900D03*
D12*
X-288318600Y-225259900D03*
D13*
X-283238600Y-224497900D03*
D12*
X-288318600Y-223735900D03*
%TO.P,MX68,2,ROW*%
%TO.N,Net-(D68-Pad2)*%
X-271808600Y-221195900D03*
D13*
X-276888600Y-221957900D03*
D12*
X-271808600Y-222719900D03*
D11*
X-273586600Y-221957900D03*
%TD*%
%TO.P,MX67,1,COL*%
%TO.N,cOL1*%
X-286513600Y-243547900D03*
D12*
X-288318600Y-244309900D03*
D13*
X-283238600Y-243547900D03*
D12*
X-288318600Y-242785900D03*
%TO.P,MX67,2,ROW*%
%TO.N,Net-(D67-Pad2)*%
X-271808600Y-240245900D03*
D13*
X-276888600Y-241007900D03*
D12*
X-271808600Y-241769900D03*
D11*
X-273586600Y-241007900D03*
%TD*%
%TO.P,MX66,1,COL*%
%TO.N,COL0*%
X-334138600Y-243547900D03*
D12*
X-335943600Y-244309900D03*
D13*
X-330863600Y-243547900D03*
D12*
X-335943600Y-242785900D03*
%TO.P,MX66,2,ROW*%
%TO.N,Net-(D66-Pad2)*%
X-319433600Y-240245900D03*
D13*
X-324513600Y-241007900D03*
D12*
X-319433600Y-241769900D03*
D11*
X-321211600Y-241007900D03*
%TD*%
%TO.P,MX65,1,COL*%
%TO.N,COL8*%
X-157926100Y-224497900D03*
D12*
X-159731100Y-225259900D03*
D13*
X-154651100Y-224497900D03*
D12*
X-159731100Y-223735900D03*
%TO.P,MX65,2,ROW*%
%TO.N,Net-(D65-Pad2)*%
X-143221100Y-221195900D03*
D13*
X-148301100Y-221957900D03*
D12*
X-143221100Y-222719900D03*
D11*
X-144999100Y-221957900D03*
%TD*%
%TO.P,MX64,1,COL*%
%TO.N,COL7*%
X-176976100Y-205447900D03*
D12*
X-178781100Y-206209900D03*
D13*
X-173701100Y-205447900D03*
D12*
X-178781100Y-204685900D03*
%TO.P,MX64,2,ROW*%
%TO.N,Net-(D64-Pad2)*%
X-162271100Y-202145900D03*
D13*
X-167351100Y-202907900D03*
D12*
X-162271100Y-203669900D03*
D11*
X-164049100Y-202907900D03*
%TD*%
%TO.P,MX63,1,COL*%
%TO.N,COL6*%
X-196026100Y-224497900D03*
D12*
X-197831100Y-225259900D03*
D13*
X-192751100Y-224497900D03*
D12*
X-197831100Y-223735900D03*
%TO.P,MX63,2,ROW*%
%TO.N,Net-(D63-Pad2)*%
X-181321100Y-221195900D03*
D13*
X-186401100Y-221957900D03*
D12*
X-181321100Y-222719900D03*
D11*
X-183099100Y-221957900D03*
%TD*%
%TO.P,MX62,1,COL*%
%TO.N,COL5*%
X-229363600Y-205447900D03*
D12*
X-231168600Y-206209900D03*
D13*
X-226088600Y-205447900D03*
D12*
X-231168600Y-204685900D03*
%TO.P,MX62,2,ROW*%
%TO.N,Net-(D62-Pad2)*%
X-214658600Y-202145900D03*
D13*
X-219738600Y-202907900D03*
D12*
X-214658600Y-203669900D03*
D11*
X-216436600Y-202907900D03*
%TD*%
%TO.P,MX61,1,COL*%
%TO.N,COL4*%
X-248413600Y-205447900D03*
D12*
X-250218600Y-206209900D03*
D13*
X-245138600Y-205447900D03*
D12*
X-250218600Y-204685900D03*
%TO.P,MX61,2,ROW*%
%TO.N,Net-(D61-Pad2)*%
X-233708600Y-202145900D03*
D13*
X-238788600Y-202907900D03*
D12*
X-233708600Y-203669900D03*
D11*
X-235486600Y-202907900D03*
%TD*%
%TO.P,MX60,1,COL*%
%TO.N,COL3*%
X-267463600Y-205447900D03*
D12*
X-269268600Y-206209900D03*
D13*
X-264188600Y-205447900D03*
D12*
X-269268600Y-204685900D03*
%TO.P,MX60,2,ROW*%
%TO.N,Net-(D60-Pad2)*%
X-252758600Y-202145900D03*
D13*
X-257838600Y-202907900D03*
D12*
X-252758600Y-203669900D03*
D11*
X-254536600Y-202907900D03*
%TD*%
%TO.P,MX59,1,COL*%
%TO.N,COL2*%
X-286513600Y-205447900D03*
D12*
X-288318600Y-206209900D03*
D13*
X-283238600Y-205447900D03*
D12*
X-288318600Y-204685900D03*
%TO.P,MX59,2,ROW*%
%TO.N,Net-(D59-Pad2)*%
X-271808600Y-202145900D03*
D13*
X-276888600Y-202907900D03*
D12*
X-271808600Y-203669900D03*
D11*
X-273586600Y-202907900D03*
%TD*%
%TO.P,MX58,1,COL*%
%TO.N,cOL1*%
X-310326100Y-214972900D03*
D12*
X-312131100Y-215734900D03*
D13*
X-307051100Y-214972900D03*
D12*
X-312131100Y-214210900D03*
%TO.P,MX58,2,ROW*%
%TO.N,Net-(D58-Pad2)*%
X-295621100Y-211670900D03*
D13*
X-300701100Y-212432900D03*
D12*
X-295621100Y-213194900D03*
D11*
X-297399100Y-212432900D03*
%TD*%
%TO.P,MX57,1,COL*%
%TO.N,COL0*%
X-334138600Y-214972900D03*
D12*
X-335943600Y-215734900D03*
D13*
X-330863600Y-214972900D03*
D12*
X-335943600Y-214210900D03*
%TO.P,MX57,2,ROW*%
%TO.N,Net-(D57-Pad2)*%
X-319433600Y-211670900D03*
D13*
X-324513600Y-212432900D03*
D12*
X-319433600Y-213194900D03*
D11*
X-321211600Y-212432900D03*
%TD*%
%TO.P,MX56,1,COL*%
%TO.N,COL5*%
X-229363600Y-186397900D03*
D12*
X-231168600Y-187159900D03*
D13*
X-226088600Y-186397900D03*
D12*
X-231168600Y-185635900D03*
%TO.P,MX56,2,ROW*%
%TO.N,Net-(D56-Pad2)*%
X-214658600Y-183095900D03*
D13*
X-219738600Y-183857900D03*
D12*
X-214658600Y-184619900D03*
D11*
X-216436600Y-183857900D03*
%TD*%
%TO.P,MX55,1,COL*%
%TO.N,COL4*%
X-248413600Y-186397900D03*
D12*
X-250218600Y-187159900D03*
D13*
X-245138600Y-186397900D03*
D12*
X-250218600Y-185635900D03*
%TO.P,MX55,2,ROW*%
%TO.N,Net-(D55-Pad2)*%
X-233708600Y-183095900D03*
D13*
X-238788600Y-183857900D03*
D12*
X-233708600Y-184619900D03*
D11*
X-235486600Y-183857900D03*
%TD*%
%TO.P,MX54,1,COL*%
%TO.N,COL3*%
X-267463600Y-186397900D03*
D12*
X-269268600Y-187159900D03*
D13*
X-264188600Y-186397900D03*
D12*
X-269268600Y-185635900D03*
%TO.P,MX54,2,ROW*%
%TO.N,Net-(D54-Pad2)*%
X-252758600Y-183095900D03*
D13*
X-257838600Y-183857900D03*
D12*
X-252758600Y-184619900D03*
D11*
X-254536600Y-183857900D03*
%TD*%
%TO.P,MX53,1,COL*%
%TO.N,COL2*%
X-286513600Y-186397900D03*
D12*
X-288318600Y-187159900D03*
D13*
X-283238600Y-186397900D03*
D12*
X-288318600Y-185635900D03*
%TO.P,MX53,2,ROW*%
%TO.N,Net-(D53-Pad2)*%
X-271808600Y-183095900D03*
D13*
X-276888600Y-183857900D03*
D12*
X-271808600Y-184619900D03*
D11*
X-273586600Y-183857900D03*
%TD*%
%TO.P,MX52,1,COL*%
%TO.N,cOL1*%
X-310326100Y-191160400D03*
D12*
X-312131100Y-191922400D03*
D13*
X-307051100Y-191160400D03*
D12*
X-312131100Y-190398400D03*
%TO.P,MX52,2,ROW*%
%TO.N,Net-(D52-Pad2)*%
X-295621100Y-187858400D03*
D13*
X-300701100Y-188620400D03*
D12*
X-295621100Y-189382400D03*
D11*
X-297399100Y-188620400D03*
%TD*%
%TO.P,MX51,1,COL*%
%TO.N,COL0*%
X-334138600Y-191160400D03*
D12*
X-335943600Y-191922400D03*
D13*
X-330863600Y-191160400D03*
D12*
X-335943600Y-190398400D03*
%TO.P,MX51,2,ROW*%
%TO.N,Net-(D51-Pad2)*%
X-319433600Y-187858400D03*
D13*
X-324513600Y-188620400D03*
D12*
X-319433600Y-189382400D03*
D11*
X-321211600Y-188620400D03*
%TD*%
%TO.P,MX50,1,COL*%
%TO.N,COL8*%
X-157926100Y-167347900D03*
D12*
X-159731100Y-168109900D03*
D13*
X-154651100Y-167347900D03*
D12*
X-159731100Y-166585900D03*
%TO.P,MX50,2,ROW*%
%TO.N,Net-(D50-Pad2)*%
X-143221100Y-164045900D03*
D13*
X-148301100Y-164807900D03*
D12*
X-143221100Y-165569900D03*
D11*
X-144999100Y-164807900D03*
%TD*%
%TO.P,MX49,1,COL*%
%TO.N,COL7*%
X-176976100Y-167347900D03*
D12*
X-178781100Y-168109900D03*
D13*
X-173701100Y-167347900D03*
D12*
X-178781100Y-166585900D03*
%TO.P,MX49,2,ROW*%
%TO.N,Net-(D49-Pad2)*%
X-162271100Y-164045900D03*
D13*
X-167351100Y-164807900D03*
D12*
X-162271100Y-165569900D03*
D11*
X-164049100Y-164807900D03*
%TD*%
%TO.P,MX48,1,COL*%
%TO.N,COL6*%
X-200788600Y-167347900D03*
D12*
X-202593600Y-168109900D03*
D13*
X-197513600Y-167347900D03*
D12*
X-202593600Y-166585900D03*
%TO.P,MX48,2,ROW*%
%TO.N,Net-(D48-Pad2)*%
X-186083600Y-164045900D03*
D13*
X-191163600Y-164807900D03*
D12*
X-186083600Y-165569900D03*
D11*
X-187861600Y-164807900D03*
%TD*%
%TO.P,MX47,1,COL*%
%TO.N,COL5*%
X-229363600Y-167347900D03*
D12*
X-231168600Y-168109900D03*
D13*
X-226088600Y-167347900D03*
D12*
X-231168600Y-166585900D03*
%TO.P,MX47,2,ROW*%
%TO.N,Net-(D47-Pad2)*%
X-214658600Y-164045900D03*
D13*
X-219738600Y-164807900D03*
D12*
X-214658600Y-165569900D03*
D11*
X-216436600Y-164807900D03*
%TD*%
%TO.P,MX46,1,COL*%
%TO.N,COL4*%
X-248413600Y-167347900D03*
D12*
X-250218600Y-168109900D03*
D13*
X-245138600Y-167347900D03*
D12*
X-250218600Y-166585900D03*
%TO.P,MX46,2,ROW*%
%TO.N,Net-(D46-Pad2)*%
X-233708600Y-164045900D03*
D13*
X-238788600Y-164807900D03*
D12*
X-233708600Y-165569900D03*
D11*
X-235486600Y-164807900D03*
%TD*%
%TO.P,MX45,1,COL*%
%TO.N,COL3*%
X-267463600Y-167347900D03*
D12*
X-269268600Y-168109900D03*
D13*
X-264188600Y-167347900D03*
D12*
X-269268600Y-166585900D03*
%TO.P,MX45,2,ROW*%
%TO.N,Net-(D45-Pad2)*%
X-252758600Y-164045900D03*
D13*
X-257838600Y-164807900D03*
D12*
X-252758600Y-165569900D03*
D11*
X-254536600Y-164807900D03*
%TD*%
%TO.P,MX44,1,COL*%
%TO.N,COL2*%
X-286513600Y-167347900D03*
D12*
X-288318600Y-168109900D03*
D13*
X-283238600Y-167347900D03*
D12*
X-288318600Y-166585900D03*
%TO.P,MX44,2,ROW*%
%TO.N,Net-(D44-Pad2)*%
X-271808600Y-164045900D03*
D13*
X-276888600Y-164807900D03*
D12*
X-271808600Y-165569900D03*
D11*
X-273586600Y-164807900D03*
%TD*%
%TO.P,MX43,1,COL*%
%TO.N,cOL1*%
X-310326100Y-167347900D03*
D12*
X-312131100Y-168109900D03*
D13*
X-307051100Y-167347900D03*
D12*
X-312131100Y-166585900D03*
%TO.P,MX43,2,ROW*%
%TO.N,Net-(D43-Pad2)*%
X-295621100Y-164045900D03*
D13*
X-300701100Y-164807900D03*
D12*
X-295621100Y-165569900D03*
D11*
X-297399100Y-164807900D03*
%TD*%
%TO.P,MX42,1,COL*%
%TO.N,COL0*%
X-334138600Y-167347900D03*
D12*
X-335943600Y-168109900D03*
D13*
X-330863600Y-167347900D03*
D12*
X-335943600Y-166585900D03*
%TO.P,MX42,2,ROW*%
%TO.N,Net-(D42-Pad2)*%
X-319433600Y-164045900D03*
D13*
X-324513600Y-164807900D03*
D12*
X-319433600Y-165569900D03*
D11*
X-321211600Y-164807900D03*
%TD*%
%TO.P,MX41,1,COL*%
%TO.N,COL8*%
X-157926100Y-138772900D03*
D12*
X-159731100Y-139534900D03*
D13*
X-154651100Y-138772900D03*
D12*
X-159731100Y-138010900D03*
%TO.P,MX41,2,ROW*%
%TO.N,Net-(D41-Pad2)*%
X-143221100Y-135470900D03*
D13*
X-148301100Y-136232900D03*
D12*
X-143221100Y-136994900D03*
D11*
X-144999100Y-136232900D03*
%TD*%
%TO.P,MX40,1,COL*%
%TO.N,COL7*%
X-176976100Y-138772900D03*
D12*
X-178781100Y-139534900D03*
D13*
X-173701100Y-138772900D03*
D12*
X-178781100Y-138010900D03*
%TO.P,MX40,2,ROW*%
%TO.N,Net-(D40-Pad2)*%
X-162271100Y-135470900D03*
D13*
X-167351100Y-136232900D03*
D12*
X-162271100Y-136994900D03*
D11*
X-164049100Y-136232900D03*
%TD*%
%TO.P,MX39,1,COL*%
%TO.N,COL6*%
X-200788600Y-138772900D03*
D12*
X-202593600Y-139534900D03*
D13*
X-197513600Y-138772900D03*
D12*
X-202593600Y-138010900D03*
%TO.P,MX39,2,ROW*%
%TO.N,Net-(D39-Pad2)*%
X-186083600Y-135470900D03*
D13*
X-191163600Y-136232900D03*
D12*
X-186083600Y-136994900D03*
D11*
X-187861600Y-136232900D03*
%TD*%
%TO.P,MX38,1,COL*%
%TO.N,COL5*%
X-229363600Y-138772900D03*
D12*
X-231168600Y-139534900D03*
D13*
X-226088600Y-138772900D03*
D12*
X-231168600Y-138010900D03*
%TO.P,MX38,2,ROW*%
%TO.N,Net-(D38-Pad2)*%
X-214658600Y-135470900D03*
D13*
X-219738600Y-136232900D03*
D12*
X-214658600Y-136994900D03*
D11*
X-216436600Y-136232900D03*
%TD*%
%TO.P,MX37,1,COL*%
%TO.N,COL4*%
X-248413600Y-138772900D03*
D12*
X-250218600Y-139534900D03*
D13*
X-245138600Y-138772900D03*
D12*
X-250218600Y-138010900D03*
%TO.P,MX37,2,ROW*%
%TO.N,Net-(D37-Pad2)*%
X-233708600Y-135470900D03*
D13*
X-238788600Y-136232900D03*
D12*
X-233708600Y-136994900D03*
D11*
X-235486600Y-136232900D03*
%TD*%
%TO.P,MX36,1,COL*%
%TO.N,COL3*%
X-267463600Y-138772900D03*
D12*
X-269268600Y-139534900D03*
D13*
X-264188600Y-138772900D03*
D12*
X-269268600Y-138010900D03*
%TO.P,MX36,2,ROW*%
%TO.N,Net-(D36-Pad2)*%
X-252758600Y-135470900D03*
D13*
X-257838600Y-136232900D03*
D12*
X-252758600Y-136994900D03*
D11*
X-254536600Y-136232900D03*
%TD*%
%TO.P,MX35,1,COL*%
%TO.N,COL2*%
X-296038600Y-138772900D03*
D12*
X-297843600Y-139534900D03*
D13*
X-292763600Y-138772900D03*
D12*
X-297843600Y-138010900D03*
%TO.P,MX35,2,ROW*%
%TO.N,Net-(D35-Pad2)*%
X-281333600Y-135470900D03*
D13*
X-286413600Y-136232900D03*
D12*
X-281333600Y-136994900D03*
D11*
X-283111600Y-136232900D03*
%TD*%
%TO.P,MX34,1,COL*%
%TO.N,cOL1*%
X-315088600Y-138772900D03*
D12*
X-316893600Y-139534900D03*
D13*
X-311813600Y-138772900D03*
D12*
X-316893600Y-138010900D03*
%TO.P,MX34,2,ROW*%
%TO.N,Net-(D34-Pad2)*%
X-300383600Y-135470900D03*
D13*
X-305463600Y-136232900D03*
D12*
X-300383600Y-136994900D03*
D11*
X-302161600Y-136232900D03*
%TD*%
%TO.P,MX33,1,COL*%
%TO.N,COL0*%
X-334138600Y-138772900D03*
D12*
X-335943600Y-139534900D03*
D13*
X-330863600Y-138772900D03*
D12*
X-335943600Y-138010900D03*
%TO.P,MX33,2,ROW*%
%TO.N,Net-(D33-Pad2)*%
X-319433600Y-135470900D03*
D13*
X-324513600Y-136232900D03*
D12*
X-319433600Y-136994900D03*
D11*
X-321211600Y-136232900D03*
%TD*%
%TO.P,MX32,1,COL*%
%TO.N,COL7*%
X-176976100Y-119722900D03*
D12*
X-178781100Y-120484900D03*
D13*
X-173701100Y-119722900D03*
D12*
X-178781100Y-118960900D03*
%TO.P,MX32,2,ROW*%
%TO.N,Net-(D32-Pad2)*%
X-162271100Y-116420900D03*
D13*
X-167351100Y-117182900D03*
D12*
X-162271100Y-117944900D03*
D11*
X-164049100Y-117182900D03*
%TD*%
%TO.P,MX31,1,COL*%
%TO.N,COL6*%
X-200788600Y-110197900D03*
D12*
X-202593600Y-110959900D03*
D13*
X-197513600Y-110197900D03*
D12*
X-202593600Y-109435900D03*
%TO.P,MX31,2,ROW*%
%TO.N,Net-(D31-Pad2)*%
X-186083600Y-106895900D03*
D13*
X-191163600Y-107657900D03*
D12*
X-186083600Y-108419900D03*
D11*
X-187861600Y-107657900D03*
%TD*%
%TO.P,MX30,1,COL*%
%TO.N,COL5*%
X-229363600Y-119722900D03*
D12*
X-231168600Y-120484900D03*
D13*
X-226088600Y-119722900D03*
D12*
X-231168600Y-118960900D03*
%TO.P,MX30,2,ROW*%
%TO.N,Net-(D30-Pad2)*%
X-214658600Y-116420900D03*
D13*
X-219738600Y-117182900D03*
D12*
X-214658600Y-117944900D03*
D11*
X-216436600Y-117182900D03*
%TD*%
%TO.P,MX29,1,COL*%
%TO.N,COL4*%
X-248413600Y-119722900D03*
D12*
X-250218600Y-120484900D03*
D13*
X-245138600Y-119722900D03*
D12*
X-250218600Y-118960900D03*
%TO.P,MX29,2,ROW*%
%TO.N,Net-(D29-Pad2)*%
X-233708600Y-116420900D03*
D13*
X-238788600Y-117182900D03*
D12*
X-233708600Y-117944900D03*
D11*
X-235486600Y-117182900D03*
%TD*%
%TO.P,MX28,1,COL*%
%TO.N,COL3*%
X-267463600Y-119722900D03*
D12*
X-269268600Y-120484900D03*
D13*
X-264188600Y-119722900D03*
D12*
X-269268600Y-118960900D03*
%TO.P,MX28,2,ROW*%
%TO.N,Net-(D28-Pad2)*%
X-252758600Y-116420900D03*
D13*
X-257838600Y-117182900D03*
D12*
X-252758600Y-117944900D03*
D11*
X-254536600Y-117182900D03*
%TD*%
%TO.P,MX27,1,COL*%
%TO.N,COL2*%
X-296038600Y-119722900D03*
D12*
X-297843600Y-120484900D03*
D13*
X-292763600Y-119722900D03*
D12*
X-297843600Y-118960900D03*
%TO.P,MX27,2,ROW*%
%TO.N,Net-(D27-Pad2)*%
X-281333600Y-116420900D03*
D13*
X-286413600Y-117182900D03*
D12*
X-281333600Y-117944900D03*
D11*
X-283111600Y-117182900D03*
%TD*%
%TO.P,MX26,1,COL*%
%TO.N,cOL1*%
X-315088600Y-119722900D03*
D12*
X-316893600Y-120484900D03*
D13*
X-311813600Y-119722900D03*
D12*
X-316893600Y-118960900D03*
%TO.P,MX26,2,ROW*%
%TO.N,Net-(D26-Pad2)*%
X-300383600Y-116420900D03*
D13*
X-305463600Y-117182900D03*
D12*
X-300383600Y-117944900D03*
D11*
X-302161600Y-117182900D03*
%TD*%
%TO.P,MX25,1,COL*%
%TO.N,COL0*%
X-334138600Y-119722900D03*
D12*
X-335943600Y-120484900D03*
D13*
X-330863600Y-119722900D03*
D12*
X-335943600Y-118960900D03*
%TO.P,MX25,2,ROW*%
%TO.N,Net-(D25-Pad2)*%
X-319433600Y-116420900D03*
D13*
X-324513600Y-117182900D03*
D12*
X-319433600Y-117944900D03*
D11*
X-321211600Y-117182900D03*
%TD*%
%TO.P,MX24,1,COL*%
%TO.N,COL7*%
X-176976100Y-100672900D03*
D12*
X-178781100Y-101434900D03*
D13*
X-173701100Y-100672900D03*
D12*
X-178781100Y-99910900D03*
%TO.P,MX24,2,ROW*%
%TO.N,Net-(D24-Pad2)*%
X-162271100Y-97370900D03*
D13*
X-167351100Y-98132900D03*
D12*
X-162271100Y-98894900D03*
D11*
X-164049100Y-98132900D03*
%TD*%
%TO.P,MX23,1,COL*%
%TO.N,COL5*%
X-229363600Y-100672900D03*
D12*
X-231168600Y-101434900D03*
D13*
X-226088600Y-100672900D03*
D12*
X-231168600Y-99910900D03*
%TO.P,MX23,2,ROW*%
%TO.N,Net-(D23-Pad2)*%
X-214658600Y-97370900D03*
D13*
X-219738600Y-98132900D03*
D12*
X-214658600Y-98894900D03*
D11*
X-216436600Y-98132900D03*
%TD*%
%TO.P,MX22,1,COL*%
%TO.N,COL4*%
X-248413600Y-100672900D03*
D12*
X-250218600Y-101434900D03*
D13*
X-245138600Y-100672900D03*
D12*
X-250218600Y-99910900D03*
%TO.P,MX22,2,ROW*%
%TO.N,Net-(D22-Pad2)*%
X-233708600Y-97370900D03*
D13*
X-238788600Y-98132900D03*
D12*
X-233708600Y-98894900D03*
D11*
X-235486600Y-98132900D03*
%TD*%
%TO.P,MX21,1,COL*%
%TO.N,COL3*%
X-267463600Y-100672900D03*
D12*
X-269268600Y-101434900D03*
D13*
X-264188600Y-100672900D03*
D12*
X-269268600Y-99910900D03*
%TO.P,MX21,2,ROW*%
%TO.N,Net-(D21-Pad2)*%
X-252758600Y-97370900D03*
D13*
X-257838600Y-98132900D03*
D12*
X-252758600Y-98894900D03*
D11*
X-254536600Y-98132900D03*
%TD*%
%TO.P,MX20,1,COL*%
%TO.N,COL2*%
X-296038600Y-100672900D03*
D12*
X-297843600Y-101434900D03*
D13*
X-292763600Y-100672900D03*
D12*
X-297843600Y-99910900D03*
%TO.P,MX20,2,ROW*%
%TO.N,Net-(D20-Pad2)*%
X-281333600Y-97370900D03*
D13*
X-286413600Y-98132900D03*
D12*
X-281333600Y-98894900D03*
D11*
X-283111600Y-98132900D03*
%TD*%
%TO.P,MX19,1,COL*%
%TO.N,cOL1*%
X-315088600Y-100672900D03*
D12*
X-316893600Y-101434900D03*
D13*
X-311813600Y-100672900D03*
D12*
X-316893600Y-99910900D03*
%TO.P,MX19,2,ROW*%
%TO.N,Net-(D19-Pad2)*%
X-300383600Y-97370900D03*
D13*
X-305463600Y-98132900D03*
D12*
X-300383600Y-98894900D03*
D11*
X-302161600Y-98132900D03*
%TD*%
%TO.P,MX18,1,COL*%
%TO.N,COL0*%
X-334138600Y-100672900D03*
D12*
X-335943600Y-101434900D03*
D13*
X-330863600Y-100672900D03*
D12*
X-335943600Y-99910900D03*
%TO.P,MX18,2,ROW*%
%TO.N,Net-(D18-Pad2)*%
X-319433600Y-97370900D03*
D13*
X-324513600Y-98132900D03*
D12*
X-319433600Y-98894900D03*
D11*
X-321211600Y-98132900D03*
%TD*%
%TO.P,MX17,1,COL*%
%TO.N,COL7*%
X-176976100Y-81622900D03*
D12*
X-178781100Y-82384900D03*
D13*
X-173701100Y-81622900D03*
D12*
X-178781100Y-80860900D03*
%TO.P,MX17,2,ROW*%
%TO.N,Net-(D17-Pad2)*%
X-162271100Y-78320900D03*
D13*
X-167351100Y-79082900D03*
D12*
X-162271100Y-79844900D03*
D11*
X-164049100Y-79082900D03*
%TD*%
%TO.P,MX16,1,COL*%
%TO.N,COL6*%
X-200788600Y-81622900D03*
D12*
X-202593600Y-82384900D03*
D13*
X-197513600Y-81622900D03*
D12*
X-202593600Y-80860900D03*
%TO.P,MX16,2,ROW*%
%TO.N,Net-(D16-Pad2)*%
X-186083600Y-78320900D03*
D13*
X-191163600Y-79082900D03*
D12*
X-186083600Y-79844900D03*
D11*
X-187861600Y-79082900D03*
%TD*%
%TO.P,MX15,1,COL*%
%TO.N,COL5*%
X-229363600Y-81622900D03*
D12*
X-231168600Y-82384900D03*
D13*
X-226088600Y-81622900D03*
D12*
X-231168600Y-80860900D03*
%TO.P,MX15,2,ROW*%
%TO.N,Net-(D15-Pad2)*%
X-214658600Y-78320900D03*
D13*
X-219738600Y-79082900D03*
D12*
X-214658600Y-79844900D03*
D11*
X-216436600Y-79082900D03*
%TD*%
%TO.P,MX14,1,COL*%
%TO.N,COL4*%
X-248413600Y-81622900D03*
D12*
X-250218600Y-82384900D03*
D13*
X-245138600Y-81622900D03*
D12*
X-250218600Y-80860900D03*
%TO.P,MX14,2,ROW*%
%TO.N,Net-(D14-Pad2)*%
X-233708600Y-78320900D03*
D13*
X-238788600Y-79082900D03*
D12*
X-233708600Y-79844900D03*
D11*
X-235486600Y-79082900D03*
%TD*%
%TO.P,MX13,1,COL*%
%TO.N,COL3*%
X-267463600Y-81622900D03*
D12*
X-269268600Y-82384900D03*
D13*
X-264188600Y-81622900D03*
D12*
X-269268600Y-80860900D03*
%TO.P,MX13,2,ROW*%
%TO.N,Net-(D13-Pad2)*%
X-252758600Y-78320900D03*
D13*
X-257838600Y-79082900D03*
D12*
X-252758600Y-79844900D03*
D11*
X-254536600Y-79082900D03*
%TD*%
%TO.P,MX12,1,COL*%
%TO.N,COL2*%
X-296038600Y-81622900D03*
D12*
X-297843600Y-82384900D03*
D13*
X-292763600Y-81622900D03*
D12*
X-297843600Y-80860900D03*
%TO.P,MX12,2,ROW*%
%TO.N,Net-(D12-Pad2)*%
X-281333600Y-78320900D03*
D13*
X-286413600Y-79082900D03*
D12*
X-281333600Y-79844900D03*
D11*
X-283111600Y-79082900D03*
%TD*%
%TO.P,MX11,1,COL*%
%TO.N,cOL1*%
X-315088600Y-81622900D03*
D12*
X-316893600Y-82384900D03*
D13*
X-311813600Y-81622900D03*
D12*
X-316893600Y-80860900D03*
%TO.P,MX11,2,ROW*%
%TO.N,Net-(D11-Pad2)*%
X-300383600Y-78320900D03*
D13*
X-305463600Y-79082900D03*
D12*
X-300383600Y-79844900D03*
D11*
X-302161600Y-79082900D03*
%TD*%
%TO.P,MX10,1,COL*%
%TO.N,COL0*%
X-334138600Y-81622900D03*
D12*
X-335943600Y-82384900D03*
D13*
X-330863600Y-81622900D03*
D12*
X-335943600Y-80860900D03*
%TO.P,MX10,2,ROW*%
%TO.N,Net-(D10-Pad2)*%
X-319433600Y-78320900D03*
D13*
X-324513600Y-79082900D03*
D12*
X-319433600Y-79844900D03*
D11*
X-321211600Y-79082900D03*
%TD*%
%TO.P,MX9,1,COL*%
%TO.N,COL8*%
X-157926100Y-53047900D03*
D12*
X-159731100Y-53809900D03*
D13*
X-154651100Y-53047900D03*
D12*
X-159731100Y-52285900D03*
%TO.P,MX9,2,ROW*%
%TO.N,Net-(D9-Pad2)*%
X-143221100Y-49745900D03*
D13*
X-148301100Y-50507900D03*
D12*
X-143221100Y-51269900D03*
D11*
X-144999100Y-50507900D03*
%TD*%
%TO.P,MX8,1,COL*%
%TO.N,COL7*%
X-179357350Y-53047900D03*
D12*
X-181162350Y-53809900D03*
D13*
X-176082350Y-53047900D03*
D12*
X-181162350Y-52285900D03*
%TO.P,MX8,2,ROW*%
%TO.N,Net-(D8-Pad2)*%
X-164652350Y-49745900D03*
D13*
X-169732350Y-50507900D03*
D12*
X-164652350Y-51269900D03*
D11*
X-166430350Y-50507900D03*
%TD*%
%TO.P,MX7,1,COL*%
%TO.N,COL6*%
X-200788600Y-53047900D03*
D12*
X-202593600Y-53809900D03*
D13*
X-197513600Y-53047900D03*
D12*
X-202593600Y-52285900D03*
%TO.P,MX7,2,ROW*%
%TO.N,Net-(D7-Pad2)*%
X-186083600Y-49745900D03*
D13*
X-191163600Y-50507900D03*
D12*
X-186083600Y-51269900D03*
D11*
X-187861600Y-50507900D03*
%TD*%
%TO.P,MX6,1,COL*%
%TO.N,COL5*%
X-229363600Y-53047900D03*
D12*
X-231168600Y-53809900D03*
D13*
X-226088600Y-53047900D03*
D12*
X-231168600Y-52285900D03*
%TO.P,MX6,2,ROW*%
%TO.N,Net-(D6-Pad2)*%
X-214658600Y-49745900D03*
D13*
X-219738600Y-50507900D03*
D12*
X-214658600Y-51269900D03*
D11*
X-216436600Y-50507900D03*
%TD*%
%TO.P,MX5,1,COL*%
%TO.N,COL4*%
X-248413600Y-53047900D03*
D12*
X-250218600Y-53809900D03*
D13*
X-245138600Y-53047900D03*
D12*
X-250218600Y-52285900D03*
%TO.P,MX5,2,ROW*%
%TO.N,Net-(D5-Pad2)*%
X-233708600Y-49745900D03*
D13*
X-238788600Y-50507900D03*
D12*
X-233708600Y-51269900D03*
D11*
X-235486600Y-50507900D03*
%TD*%
%TO.P,MX4,1,COL*%
%TO.N,COL3*%
X-267463600Y-53047900D03*
D12*
X-269268600Y-53809900D03*
D13*
X-264188600Y-53047900D03*
D12*
X-269268600Y-52285900D03*
%TO.P,MX4,2,ROW*%
%TO.N,Net-(D4-Pad2)*%
X-252758600Y-49745900D03*
D13*
X-257838600Y-50507900D03*
D12*
X-252758600Y-51269900D03*
D11*
X-254536600Y-50507900D03*
%TD*%
%TO.P,MX3,1,COL*%
%TO.N,COL2*%
X-296038600Y-53047900D03*
D12*
X-297843600Y-53809900D03*
D13*
X-292763600Y-53047900D03*
D12*
X-297843600Y-52285900D03*
%TO.P,MX3,2,ROW*%
%TO.N,Net-(D3-Pad2)*%
X-281333600Y-49745900D03*
D13*
X-286413600Y-50507900D03*
D12*
X-281333600Y-51269900D03*
D11*
X-283111600Y-50507900D03*
%TD*%
%TO.P,MX2,1,COL*%
%TO.N,cOL1*%
X-315088600Y-53047900D03*
D12*
X-316893600Y-53809900D03*
D13*
X-311813600Y-53047900D03*
D12*
X-316893600Y-52285900D03*
%TO.P,MX2,2,ROW*%
%TO.N,Net-(D2-Pad2)*%
X-300383600Y-49745900D03*
D13*
X-305463600Y-50507900D03*
D12*
X-300383600Y-51269900D03*
D11*
X-302161600Y-50507900D03*
%TD*%
%TO.P,MX1,1,COL*%
%TO.N,COL0*%
X-334138600Y-53047900D03*
D12*
X-335943600Y-53809900D03*
D13*
X-330863600Y-53047900D03*
D12*
X-335943600Y-52285900D03*
%TO.P,MX1,2,ROW*%
%TO.N,Net-(D1-Pad2)*%
X-319433600Y-49745900D03*
D13*
X-324513600Y-50507900D03*
D12*
X-319433600Y-51269900D03*
D11*
X-321211600Y-50507900D03*
%TD*%
D14*
%TO.P,D24,1,K*%
%TO.N,ROW2*%
X-171566500Y-108204000D03*
%TO.P,D24,2,A*%
%TO.N,Net-(D24-Pad2)*%
X-168266500Y-108204000D03*
%TD*%
%TO.P,D53,1,K*%
%TO.N,ROW6*%
X-281104000Y-193929000D03*
%TO.P,D53,2,A*%
%TO.N,Net-(D53-Pad2)*%
X-277804000Y-193929000D03*
%TD*%
%TO.P,D29,1,K*%
%TO.N,ROW3*%
X-243004000Y-127254000D03*
%TO.P,D29,2,A*%
%TO.N,Net-(D29-Pad2)*%
X-239704000Y-127254000D03*
%TD*%
D15*
%TO.P,C5,1*%
%TO.N,+5V*%
X-208131250Y-200662500D03*
%TO.P,C5,2*%
%TO.N,GND*%
X-208131250Y-202562500D03*
%TD*%
D14*
%TO.P,D6,1,K*%
%TO.N,ROW0*%
X-223954000Y-60579000D03*
%TO.P,D6,2,A*%
%TO.N,Net-(D6-Pad2)*%
X-220654000Y-60579000D03*
%TD*%
D16*
%TO.P,C1,1*%
%TO.N,GND*%
X-202680000Y-210480000D03*
%TO.P,C1,2*%
%TO.N,Net-(C1-Pad2)*%
X-202680000Y-208580000D03*
%TD*%
D17*
%TO.P,Y1,1,1*%
%TO.N,Net-(C1-Pad2)*%
X-200641500Y-208700000D03*
%TO.P,Y1,2,2*%
%TO.N,GND*%
X-198441500Y-208700000D03*
%TO.P,Y1,3,3*%
%TO.N,Net-(C2-Pad2)*%
X-198441500Y-210400000D03*
%TO.P,Y1,4,4*%
%TO.N,GND*%
X-200641500Y-210400000D03*
%TD*%
D14*
%TO.P,D33,1,K*%
%TO.N,ROW4*%
X-328729000Y-146304000D03*
%TO.P,D33,2,A*%
%TO.N,Net-(D33-Pad2)*%
X-325429000Y-146304000D03*
%TD*%
%TO.P,D13,1,K*%
%TO.N,ROW1*%
X-262054000Y-89154000D03*
%TO.P,D13,2,A*%
%TO.N,Net-(D13-Pad2)*%
X-258754000Y-89154000D03*
%TD*%
%TO.P,D11,1,K*%
%TO.N,ROW1*%
X-309679000Y-89154000D03*
%TO.P,D11,2,A*%
%TO.N,Net-(D11-Pad2)*%
X-306379000Y-89154000D03*
%TD*%
%TO.P,D9,1,K*%
%TO.N,ROW0*%
X-152516500Y-60579000D03*
%TO.P,D9,2,A*%
%TO.N,Net-(D9-Pad2)*%
X-149216500Y-60579000D03*
%TD*%
%TO.P,D19,1,K*%
%TO.N,ROW2*%
X-309679000Y-108204000D03*
%TO.P,D19,2,A*%
%TO.N,Net-(D19-Pad2)*%
X-306379000Y-108204000D03*
%TD*%
%TO.P,D52,1,K*%
%TO.N,ROW6*%
X-304916500Y-198691500D03*
%TO.P,D52,2,A*%
%TO.N,Net-(D52-Pad2)*%
X-301616500Y-198691500D03*
%TD*%
D18*
%TO.P,C4,1*%
%TO.N,+5V*%
X-204786252Y-188060000D03*
%TO.P,C4,2*%
%TO.N,GND*%
X-202886252Y-188060000D03*
%TD*%
D19*
%TO.P,R3,1*%
%TO.N,+5V*%
X-186531250Y-206493750D03*
%TO.P,R3,2*%
%TO.N,Net-(R3-Pad2)*%
X-186531250Y-204668750D03*
%TD*%
D14*
%TO.P,D8,1,K*%
%TO.N,ROW0*%
X-173947750Y-60579000D03*
%TO.P,D8,2,A*%
%TO.N,Net-(D8-Pad2)*%
X-170647750Y-60579000D03*
%TD*%
%TO.P,D73,1,K*%
%TO.N,ROW8*%
X-171566500Y-251079000D03*
%TO.P,D73,2,A*%
%TO.N,Net-(D73-Pad2)*%
X-168266500Y-251079000D03*
%TD*%
%TO.P,D39,1,K*%
%TO.N,ROW4*%
X-195379000Y-146304000D03*
%TO.P,D39,2,A*%
%TO.N,Net-(D39-Pad2)*%
X-192079000Y-146304000D03*
%TD*%
%TO.P,D59,1,K*%
%TO.N,ROW7*%
X-281104000Y-212979000D03*
%TO.P,D59,2,A*%
%TO.N,Net-(D59-Pad2)*%
X-277804000Y-212979000D03*
%TD*%
%TO.P,D34,1,K*%
%TO.N,ROW4*%
X-309679000Y-146304000D03*
%TO.P,D34,2,A*%
%TO.N,Net-(D34-Pad2)*%
X-306379000Y-146304000D03*
%TD*%
%TO.P,D54,1,K*%
%TO.N,ROW6*%
X-262054000Y-193929000D03*
%TO.P,D54,2,A*%
%TO.N,Net-(D54-Pad2)*%
X-258754000Y-193929000D03*
%TD*%
%TO.P,D15,1,K*%
%TO.N,ROW1*%
X-223954000Y-89154000D03*
%TO.P,D15,2,A*%
%TO.N,Net-(D15-Pad2)*%
X-220654000Y-89154000D03*
%TD*%
%TO.P,D63,1,K*%
%TO.N,ROW7*%
X-190616500Y-232029000D03*
%TO.P,D63,2,A*%
%TO.N,Net-(D63-Pad2)*%
X-187316500Y-232029000D03*
%TD*%
%TO.P,D36,1,K*%
%TO.N,ROW4*%
X-262054000Y-146304000D03*
%TO.P,D36,2,A*%
%TO.N,Net-(D36-Pad2)*%
X-258754000Y-146304000D03*
%TD*%
%TO.P,D62,1,K*%
%TO.N,ROW7*%
X-223954000Y-212979000D03*
%TO.P,D62,2,A*%
%TO.N,Net-(D62-Pad2)*%
X-220654000Y-212979000D03*
%TD*%
D20*
%TO.P,USB1,1,GND*%
%TO.N,GND*%
X-206362500Y-52125000D03*
%TO.P,USB1,2,ID*%
%TO.N,unconnected-(USB1-Pad2)*%
X-207162500Y-52125000D03*
%TO.P,USB1,3,D+*%
%TO.N,D+*%
X-207962500Y-52125000D03*
%TO.P,USB1,4,D-*%
%TO.N,D-*%
X-208762500Y-52125000D03*
%TO.P,USB1,5,VBUS*%
%TO.N,VCC*%
X-209562500Y-52125000D03*
D21*
%TO.P,USB1,6,SHIELD*%
%TO.N,GND*%
X-204312500Y-47625000D03*
X-211612500Y-52125000D03*
X-211612500Y-47625000D03*
X-204312500Y-52125000D03*
%TD*%
D14*
%TO.P,D31,1,K*%
%TO.N,ROW3*%
X-195379000Y-117729000D03*
%TO.P,D31,2,A*%
%TO.N,Net-(D31-Pad2)*%
X-192079000Y-117729000D03*
%TD*%
%TO.P,D22,1,K*%
%TO.N,ROW2*%
X-243004000Y-108204000D03*
%TO.P,D22,2,A*%
%TO.N,Net-(D22-Pad2)*%
X-239704000Y-108204000D03*
%TD*%
%TO.P,D17,1,K*%
%TO.N,ROW1*%
X-171566500Y-89154000D03*
%TO.P,D17,2,A*%
%TO.N,Net-(D17-Pad2)*%
X-168266500Y-89154000D03*
%TD*%
%TO.P,D14,1,K*%
%TO.N,ROW1*%
X-243004000Y-89154000D03*
%TO.P,D14,2,A*%
%TO.N,Net-(D14-Pad2)*%
X-239704000Y-89154000D03*
%TD*%
%TO.P,D4,1,K*%
%TO.N,ROW0*%
X-262054000Y-60579000D03*
%TO.P,D4,2,A*%
%TO.N,Net-(D4-Pad2)*%
X-258754000Y-60579000D03*
%TD*%
D15*
%TO.P,C2,2*%
%TO.N,Net-(C2-Pad2)*%
X-195800000Y-210500000D03*
%TO.P,C2,1*%
%TO.N,GND*%
X-195800000Y-208600000D03*
%TD*%
D14*
%TO.P,D3,1,K*%
%TO.N,ROW0*%
X-290629000Y-60579000D03*
%TO.P,D3,2,A*%
%TO.N,Net-(D3-Pad2)*%
X-287329000Y-60579000D03*
%TD*%
%TO.P,D23,1,K*%
%TO.N,ROW2*%
X-223954000Y-108204000D03*
%TO.P,D23,2,A*%
%TO.N,Net-(D23-Pad2)*%
X-220654000Y-108204000D03*
%TD*%
%TO.P,D43,1,K*%
%TO.N,ROW5*%
X-304916500Y-174879000D03*
%TO.P,D43,2,A*%
%TO.N,Net-(D43-Pad2)*%
X-301616500Y-174879000D03*
%TD*%
%TO.P,D51,1,K*%
%TO.N,ROW6*%
X-328729000Y-198691500D03*
%TO.P,D51,2,A*%
%TO.N,Net-(D51-Pad2)*%
X-325429000Y-198691500D03*
%TD*%
%TO.P,D64,1,K*%
%TO.N,ROW7*%
X-171566500Y-212979000D03*
%TO.P,D64,2,A*%
%TO.N,Net-(D64-Pad2)*%
X-168266500Y-212979000D03*
%TD*%
%TO.P,D55,1,K*%
%TO.N,ROW6*%
X-243004000Y-193929000D03*
%TO.P,D55,2,A*%
%TO.N,Net-(D55-Pad2)*%
X-239704000Y-193929000D03*
%TD*%
%TO.P,D61,1,K*%
%TO.N,ROW7*%
X-243004000Y-212979000D03*
%TO.P,D61,2,A*%
%TO.N,Net-(D61-Pad2)*%
X-239704000Y-212979000D03*
%TD*%
%TO.P,D70,1,K*%
%TO.N,ROW8*%
X-243004000Y-232029000D03*
%TO.P,D70,2,A*%
%TO.N,Net-(D70-Pad2)*%
X-239704000Y-232029000D03*
%TD*%
%TO.P,D28,1,K*%
%TO.N,ROW3*%
X-262054000Y-127254000D03*
%TO.P,D28,2,A*%
%TO.N,Net-(D28-Pad2)*%
X-258754000Y-127254000D03*
%TD*%
%TO.P,D21,1,K*%
%TO.N,ROW2*%
X-262054000Y-108204000D03*
%TO.P,D21,2,A*%
%TO.N,Net-(D21-Pad2)*%
X-258754000Y-108204000D03*
%TD*%
%TO.P,D44,1,K*%
%TO.N,ROW5*%
X-281104000Y-174879000D03*
%TO.P,D44,2,A*%
%TO.N,Net-(D44-Pad2)*%
X-277804000Y-174879000D03*
%TD*%
%TO.P,D40,1,K*%
%TO.N,ROW4*%
X-171566500Y-146304000D03*
%TO.P,D40,2,A*%
%TO.N,Net-(D40-Pad2)*%
X-168266500Y-146304000D03*
%TD*%
%TO.P,D41,1,K*%
%TO.N,ROW4*%
X-152516500Y-146304000D03*
%TO.P,D41,2,A*%
%TO.N,Net-(D41-Pad2)*%
X-149216500Y-146304000D03*
%TD*%
%TO.P,D7,1,K*%
%TO.N,ROW0*%
X-195379000Y-60579000D03*
%TO.P,D7,2,A*%
%TO.N,Net-(D7-Pad2)*%
X-192079000Y-60579000D03*
%TD*%
%TO.P,D65,1,K*%
%TO.N,ROW7*%
X-152516500Y-232029000D03*
%TO.P,D65,2,A*%
%TO.N,Net-(D65-Pad2)*%
X-149216500Y-232029000D03*
%TD*%
%TO.P,D69,1,K*%
%TO.N,ROW8*%
X-262054000Y-232029000D03*
%TO.P,D69,2,A*%
%TO.N,Net-(D69-Pad2)*%
X-258754000Y-232029000D03*
%TD*%
%TO.P,D18,1,K*%
%TO.N,ROW2*%
X-328729000Y-108204000D03*
%TO.P,D18,2,A*%
%TO.N,Net-(D18-Pad2)*%
X-325429000Y-108204000D03*
%TD*%
%TO.P,D26,1,K*%
%TO.N,ROW3*%
X-309679000Y-127254000D03*
%TO.P,D26,2,A*%
%TO.N,Net-(D26-Pad2)*%
X-306379000Y-127254000D03*
%TD*%
D15*
%TO.P,C6,1*%
%TO.N,+5V*%
X-189875000Y-204631250D03*
%TO.P,C6,2*%
%TO.N,GND*%
X-189875000Y-206531250D03*
%TD*%
D14*
%TO.P,D71,1,K*%
%TO.N,ROW8*%
X-233479000Y-251079000D03*
%TO.P,D71,2,A*%
%TO.N,Net-(D71-Pad2)*%
X-230179000Y-251079000D03*
%TD*%
%TO.P,D47,1,K*%
%TO.N,ROW5*%
X-223954000Y-174879000D03*
%TO.P,D47,2,A*%
%TO.N,Net-(D47-Pad2)*%
X-220654000Y-174879000D03*
%TD*%
%TO.P,D25,1,K*%
%TO.N,ROW3*%
X-328729000Y-127254000D03*
%TO.P,D25,2,A*%
%TO.N,Net-(D25-Pad2)*%
X-325429000Y-127254000D03*
%TD*%
%TO.P,D5,1,K*%
%TO.N,ROW0*%
X-243004000Y-60579000D03*
%TO.P,D5,2,A*%
%TO.N,Net-(D5-Pad2)*%
X-239704000Y-60579000D03*
%TD*%
%TO.P,D20,1,K*%
%TO.N,ROW2*%
X-290629000Y-108204000D03*
%TO.P,D20,2,A*%
%TO.N,Net-(D20-Pad2)*%
X-287329000Y-108204000D03*
%TD*%
D22*
%TO.P,C7,1*%
%TO.N,+5V*%
X-194051248Y-188060000D03*
%TO.P,C7,2*%
%TO.N,GND*%
X-195951248Y-188060000D03*
%TD*%
D14*
%TO.P,D42,1,K*%
%TO.N,ROW5*%
X-328729000Y-174879000D03*
%TO.P,D42,2,A*%
%TO.N,Net-(D42-Pad2)*%
X-325429000Y-174879000D03*
%TD*%
D23*
%TO.P,F1,2*%
%TO.N,+5V*%
X-212344000Y-58737500D03*
%TO.P,F1,1*%
%TO.N,VCC*%
X-212344000Y-55937500D03*
%TD*%
D14*
%TO.P,D66,1,K*%
%TO.N,ROW8*%
X-328729000Y-251079000D03*
%TO.P,D66,2,A*%
%TO.N,Net-(D66-Pad2)*%
X-325429000Y-251079000D03*
%TD*%
%TO.P,D46,1,K*%
%TO.N,ROW5*%
X-243004000Y-174879000D03*
%TO.P,D46,2,A*%
%TO.N,Net-(D46-Pad2)*%
X-239704000Y-174879000D03*
%TD*%
%TO.P,D50,1,K*%
%TO.N,ROW5*%
X-152516500Y-174879000D03*
%TO.P,D50,2,A*%
%TO.N,Net-(D50-Pad2)*%
X-149216500Y-174879000D03*
%TD*%
%TO.P,D58,1,K*%
%TO.N,ROW7*%
X-304916500Y-222504000D03*
%TO.P,D58,2,A*%
%TO.N,Net-(D58-Pad2)*%
X-301616500Y-222504000D03*
%TD*%
%TO.P,D45,1,K*%
%TO.N,ROW5*%
X-262054000Y-174879000D03*
%TO.P,D45,2,A*%
%TO.N,Net-(D45-Pad2)*%
X-258754000Y-174879000D03*
%TD*%
%TO.P,D74,1,K*%
%TO.N,ROW8*%
X-171566500Y-232029000D03*
%TO.P,D74,2,A*%
%TO.N,Net-(D74-Pad2)*%
X-168266500Y-232029000D03*
%TD*%
%TO.P,D72,1,K*%
%TO.N,ROW8*%
X-223954000Y-232029000D03*
%TO.P,D72,2,A*%
%TO.N,Net-(D72-Pad2)*%
X-220654000Y-232029000D03*
%TD*%
D19*
%TO.P,R4,2*%
%TO.N,GND*%
X-208280000Y-191111500D03*
%TO.P,R4,1*%
%TO.N,Net-(R4-Pad1)*%
X-208280000Y-192936500D03*
%TD*%
D14*
%TO.P,D37,1,K*%
%TO.N,ROW4*%
X-243004000Y-146304000D03*
%TO.P,D37,2,A*%
%TO.N,Net-(D37-Pad2)*%
X-239704000Y-146304000D03*
%TD*%
%TO.P,D1,1,K*%
%TO.N,ROW0*%
X-328729000Y-60579000D03*
%TO.P,D1,2,A*%
%TO.N,Net-(D1-Pad2)*%
X-325429000Y-60579000D03*
%TD*%
%TO.P,D48,1,K*%
%TO.N,ROW5*%
X-195379000Y-174879000D03*
%TO.P,D48,2,A*%
%TO.N,Net-(D48-Pad2)*%
X-192079000Y-174879000D03*
%TD*%
D24*
%TO.P,U1,1,PE6*%
%TO.N,unconnected-(U1-Pad1)*%
X-193531250Y-192850000D03*
%TO.P,U1,2,UVCC*%
%TO.N,+5V*%
X-193531250Y-193650000D03*
%TO.P,U1,3,D-*%
%TO.N,P-*%
X-193531250Y-194450000D03*
%TO.P,U1,4,D+*%
%TO.N,P+*%
X-193531250Y-195250000D03*
%TO.P,U1,5,UGND*%
%TO.N,GND*%
X-193531250Y-196050000D03*
%TO.P,U1,6,UCAP*%
%TO.N,Net-(C3-Pad1)*%
X-193531250Y-196850000D03*
%TO.P,U1,7,VBUS*%
%TO.N,+5V*%
X-193531250Y-197650000D03*
%TO.P,U1,8,PB0*%
%TO.N,unconnected-(U1-Pad8)*%
X-193531250Y-198450000D03*
%TO.P,U1,9,PB1*%
%TO.N,unconnected-(U1-Pad9)*%
X-193531250Y-199250000D03*
%TO.P,U1,10,PB2*%
%TO.N,unconnected-(U1-Pad10)*%
X-193531250Y-200050000D03*
%TO.P,U1,11,PB3*%
%TO.N,unconnected-(U1-Pad11)*%
X-193531250Y-200850000D03*
D25*
%TO.P,U1,12,PB7*%
%TO.N,unconnected-(U1-Pad12)*%
X-195231250Y-202550000D03*
%TO.P,U1,13,~{RESET}*%
%TO.N,Net-(R3-Pad2)*%
X-196031250Y-202550000D03*
%TO.P,U1,14,VCC*%
%TO.N,+5V*%
X-196831250Y-202550000D03*
%TO.P,U1,15,GND*%
%TO.N,GND*%
X-197631250Y-202550000D03*
%TO.P,U1,16,XTAL2*%
%TO.N,Net-(C2-Pad2)*%
X-198431250Y-202550000D03*
%TO.P,U1,17,XTAL1*%
%TO.N,Net-(C1-Pad2)*%
X-199231250Y-202550000D03*
%TO.P,U1,18,PD0*%
%TO.N,unconnected-(U1-Pad18)*%
X-200031250Y-202550000D03*
%TO.P,U1,19,PD1*%
%TO.N,unconnected-(U1-Pad19)*%
X-200831250Y-202550000D03*
%TO.P,U1,20,PD2*%
%TO.N,unconnected-(U1-Pad20)*%
X-201631250Y-202550000D03*
%TO.P,U1,21,PD3*%
%TO.N,unconnected-(U1-Pad21)*%
X-202431250Y-202550000D03*
%TO.P,U1,22,PD5*%
%TO.N,unconnected-(U1-Pad22)*%
X-203231250Y-202550000D03*
D24*
%TO.P,U1,23,GND*%
%TO.N,GND*%
X-204931250Y-200850000D03*
%TO.P,U1,24,AVCC*%
%TO.N,+5V*%
X-204931250Y-200050000D03*
%TO.P,U1,25,PD4*%
%TO.N,unconnected-(U1-Pad25)*%
X-204931250Y-199250000D03*
%TO.P,U1,26,PD6*%
%TO.N,unconnected-(U1-Pad26)*%
X-204931250Y-198450000D03*
%TO.P,U1,27,PD7*%
%TO.N,unconnected-(U1-Pad27)*%
X-204931250Y-197650000D03*
%TO.P,U1,28,PB4*%
%TO.N,unconnected-(U1-Pad28)*%
X-204931250Y-196850000D03*
%TO.P,U1,29,PB5*%
%TO.N,unconnected-(U1-Pad29)*%
X-204931250Y-196050000D03*
%TO.P,U1,30,PB6*%
%TO.N,unconnected-(U1-Pad30)*%
X-204931250Y-195250000D03*
%TO.P,U1,31,PC6*%
%TO.N,unconnected-(U1-Pad31)*%
X-204931250Y-194450000D03*
%TO.P,U1,32,PC7*%
%TO.N,unconnected-(U1-Pad32)*%
X-204931250Y-193650000D03*
%TO.P,U1,33,~{HWB}/PE2*%
%TO.N,Net-(R4-Pad1)*%
X-204931250Y-192850000D03*
D25*
%TO.P,U1,34,VCC*%
%TO.N,+5V*%
X-203231250Y-191150000D03*
%TO.P,U1,35,GND*%
%TO.N,GND*%
X-202431250Y-191150000D03*
%TO.P,U1,36,PF7*%
%TO.N,unconnected-(U1-Pad36)*%
X-201631250Y-191150000D03*
%TO.P,U1,37,PF6*%
%TO.N,unconnected-(U1-Pad37)*%
X-200831250Y-191150000D03*
%TO.P,U1,38,PF5*%
%TO.N,unconnected-(U1-Pad38)*%
X-200031250Y-191150000D03*
%TO.P,U1,39,PF4*%
%TO.N,unconnected-(U1-Pad39)*%
X-199231250Y-191150000D03*
%TO.P,U1,40,PF1*%
%TO.N,unconnected-(U1-Pad40)*%
X-198431250Y-191150000D03*
%TO.P,U1,41,PF0*%
%TO.N,unconnected-(U1-Pad41)*%
X-197631250Y-191150000D03*
%TO.P,U1,42,AREF*%
%TO.N,unconnected-(U1-Pad42)*%
X-196831250Y-191150000D03*
%TO.P,U1,43,GND*%
%TO.N,GND*%
X-196031250Y-191150000D03*
%TO.P,U1,44,AVCC*%
%TO.N,+5V*%
X-195231250Y-191150000D03*
%TD*%
D14*
%TO.P,D30,1,K*%
%TO.N,ROW3*%
X-223954000Y-127254000D03*
%TO.P,D30,2,A*%
%TO.N,Net-(D30-Pad2)*%
X-220654000Y-127254000D03*
%TD*%
%TO.P,D56,1,K*%
%TO.N,ROW6*%
X-223954000Y-193929000D03*
%TO.P,D56,2,A*%
%TO.N,Net-(D56-Pad2)*%
X-220654000Y-193929000D03*
%TD*%
%TO.P,D49,1,K*%
%TO.N,ROW5*%
X-171566500Y-174879000D03*
%TO.P,D49,2,A*%
%TO.N,Net-(D49-Pad2)*%
X-168266500Y-174879000D03*
%TD*%
%TO.P,D27,1,K*%
%TO.N,ROW3*%
X-290629000Y-127254000D03*
%TO.P,D27,2,A*%
%TO.N,Net-(D27-Pad2)*%
X-287329000Y-127254000D03*
%TD*%
%TO.P,D2,1,K*%
%TO.N,ROW0*%
X-309679000Y-60579000D03*
%TO.P,D2,2,A*%
%TO.N,Net-(D2-Pad2)*%
X-306379000Y-60579000D03*
%TD*%
%TO.P,D38,1,K*%
%TO.N,ROW4*%
X-223954000Y-146304000D03*
%TO.P,D38,2,A*%
%TO.N,Net-(D38-Pad2)*%
X-220654000Y-146304000D03*
%TD*%
%TO.P,D32,1,K*%
%TO.N,ROW3*%
X-171566500Y-127254000D03*
%TO.P,D32,2,A*%
%TO.N,Net-(D32-Pad2)*%
X-168266500Y-127254000D03*
%TD*%
%TO.P,D67,1,K*%
%TO.N,ROW8*%
X-281104000Y-251079000D03*
%TO.P,D67,2,A*%
%TO.N,Net-(D67-Pad2)*%
X-277804000Y-251079000D03*
%TD*%
D18*
%TO.P,C3,1*%
%TO.N,Net-(C3-Pad1)*%
X-189068750Y-198437500D03*
%TO.P,C3,2*%
%TO.N,GND*%
X-187168750Y-198437500D03*
%TD*%
D26*
%TO.P,SW1,1,1*%
%TO.N,GND*%
X-188660000Y-214200000D03*
%TO.P,SW1,2,2*%
%TO.N,Net-(R3-Pad2)*%
X-182460000Y-210500000D03*
%TO.P,SW1,3*%
%TO.N,N/C*%
X-188660000Y-210500000D03*
%TO.P,SW1,4*%
X-182460000Y-214200000D03*
%TD*%
D14*
%TO.P,D12,1,K*%
%TO.N,ROW1*%
X-290629000Y-89154000D03*
%TO.P,D12,2,A*%
%TO.N,Net-(D12-Pad2)*%
X-287329000Y-89154000D03*
%TD*%
%TO.P,D10,1,K*%
%TO.N,ROW1*%
X-328729000Y-89154000D03*
%TO.P,D10,2,A*%
%TO.N,Net-(D10-Pad2)*%
X-325429000Y-89154000D03*
%TD*%
%TO.P,D60,1,K*%
%TO.N,ROW7*%
X-262054000Y-212979000D03*
%TO.P,D60,2,A*%
%TO.N,Net-(D60-Pad2)*%
X-258754000Y-212979000D03*
%TD*%
%TO.P,D35,1,K*%
%TO.N,ROW4*%
X-290629000Y-146304000D03*
%TO.P,D35,2,A*%
%TO.N,Net-(D35-Pad2)*%
X-287329000Y-146304000D03*
%TD*%
%TO.P,D57,1,K*%
%TO.N,ROW7*%
X-328729000Y-222504000D03*
%TO.P,D57,2,A*%
%TO.N,Net-(D57-Pad2)*%
X-325429000Y-222504000D03*
%TD*%
%TO.P,D16,1,K*%
%TO.N,ROW1*%
X-195379000Y-89154000D03*
%TO.P,D16,2,A*%
%TO.N,Net-(D16-Pad2)*%
X-192079000Y-89154000D03*
%TD*%
%TO.P,D68,1,K*%
%TO.N,ROW8*%
X-281104000Y-232029000D03*
%TO.P,D68,2,A*%
%TO.N,Net-(D68-Pad2)*%
X-277804000Y-232029000D03*
%TD*%
D27*
%TO.N,GND*%
X-200750000Y-176220000D03*
X-206310000Y-65680000D03*
X-204170000Y-172800000D03*
X-185770000Y-198500000D03*
%TO.N,+5V*%
X-194056000Y-186436000D03*
X-194051248Y-189481248D03*
X-203410000Y-178091500D03*
X-206520000Y-175090000D03*
X-210810000Y-65770000D03*
%TO.N,P-*%
X-185530000Y-194365000D03*
%TO.N,P+*%
X-185530000Y-195415000D03*
%TO.N,+5V*%
X-191200000Y-193370000D03*
%TO.N,P-*%
X-202321232Y-177711232D03*
%TO.N,P+*%
X-201578768Y-176968768D03*
%TO.N,P-*%
X-205741232Y-174291232D03*
%TO.N,P+*%
X-204998768Y-173548768D03*
%TO.N,P-*%
X-209285625Y-65680000D03*
%TO.N,P+*%
X-208235625Y-65680000D03*
%TO.N,ROW0*%
X-202796000Y-64516000D03*
X-212946000Y-64516000D03*
%TO.N,+5V*%
X-192024000Y-197612000D03*
X-204724000Y-186436000D03*
X-209296000Y-200660000D03*
X-188468000Y-204724000D03*
%TD*%
D28*
%TO.N,D+*%
X-208137500Y-58432500D02*
X-207370000Y-59200000D01*
X-208137500Y-53987501D02*
X-208137500Y-58432500D01*
X-207962500Y-53812501D02*
X-208137500Y-53987501D01*
X-207962500Y-52125000D02*
X-207962500Y-53812501D01*
%TO.N,D-*%
X-208587500Y-53987501D02*
X-208587500Y-58507500D01*
X-208762500Y-53812501D02*
X-208587500Y-53987501D01*
X-208762500Y-52125000D02*
X-208762500Y-53812501D01*
X-208587500Y-58507500D02*
X-209300000Y-59220000D01*
X-208762500Y-52125000D02*
X-208762500Y-52288603D01*
D29*
%TO.N,ROW8*%
X-307340000Y-254508000D02*
X-288544000Y-235712000D01*
D30*
%TO.N,GND*%
X-194684500Y-211264500D02*
X-195020000Y-211600000D01*
X-194684500Y-209715500D02*
X-194684500Y-211264500D01*
X-199441500Y-211600000D02*
X-200641500Y-210400000D01*
X-195800000Y-208600000D02*
X-194684500Y-209715500D01*
X-195020000Y-211600000D02*
X-199441500Y-211600000D01*
D29*
%TO.N,Net-(C2-Pad2)*%
X-195900000Y-210400000D02*
X-198441500Y-210400000D01*
X-195800000Y-210500000D02*
X-195900000Y-210400000D01*
X-198431250Y-206444750D02*
X-198431250Y-202550000D01*
X-197192000Y-207684000D02*
X-198431250Y-206444750D01*
X-197930000Y-210400000D02*
X-197192000Y-209662000D01*
X-197192000Y-209662000D02*
X-197192000Y-207684000D01*
X-198441500Y-210400000D02*
X-197930000Y-210400000D01*
D30*
%TO.N,GND*%
X-200721500Y-210480000D02*
X-200641500Y-210400000D01*
X-202680000Y-210480000D02*
X-200721500Y-210480000D01*
D29*
%TO.N,Net-(C1-Pad2)*%
X-200761500Y-208580000D02*
X-200641500Y-208700000D01*
X-202680000Y-208580000D02*
X-200761500Y-208580000D01*
%TO.N,GND*%
X-191285000Y-205121250D02*
X-197631250Y-205121250D01*
D30*
X-197631250Y-205121250D02*
X-197631250Y-205747750D01*
X-197631250Y-202550000D02*
X-197631250Y-205121250D01*
D29*
X-189875000Y-206531250D02*
X-191285000Y-205121250D01*
D30*
X-204312500Y-52125000D02*
X-206362500Y-52125000D01*
%TO.N,VCC*%
X-209562500Y-53156000D02*
X-212344000Y-55937500D01*
X-209562500Y-52125000D02*
X-209562500Y-53156000D01*
D29*
X-211918500Y-55937500D02*
X-212344000Y-55937500D01*
D30*
%TO.N,GND*%
X-211612500Y-47625000D02*
X-211612500Y-52125000D01*
X-204312500Y-47625000D02*
X-211612500Y-47625000D01*
X-204312500Y-52125000D02*
X-204312500Y-47625000D01*
D29*
%TO.N,Net-(C1-Pad2)*%
X-199231250Y-207289750D02*
X-200641500Y-208700000D01*
X-199231250Y-202550000D02*
X-199231250Y-207289750D01*
X-202580000Y-208680000D02*
X-202680000Y-208580000D01*
X-199136000Y-202645250D02*
X-199231250Y-202550000D01*
X-199136000Y-203200000D02*
X-199136000Y-202645250D01*
%TO.N,ROW3*%
X-195379000Y-130721000D02*
X-195379000Y-117729000D01*
X-195036000Y-131064000D02*
X-195379000Y-130721000D01*
X-195036000Y-131064000D02*
X-172720000Y-131064000D01*
X-241808000Y-131064000D02*
X-195036000Y-131064000D01*
D30*
%TO.N,GND*%
X-185770000Y-198500000D02*
X-187106250Y-198500000D01*
X-204170000Y-172800000D02*
X-200750000Y-176220000D01*
X-206362500Y-65627500D02*
X-206310000Y-65680000D01*
X-187106250Y-198500000D02*
X-187168750Y-198437500D01*
D29*
%TO.N,Net-(R3-Pad2)*%
X-182460000Y-206970000D02*
X-182460000Y-210500000D01*
X-184761250Y-204668750D02*
X-182460000Y-206970000D01*
X-186531250Y-204668750D02*
X-184761250Y-204668750D01*
%TO.N,GND*%
X-189885000Y-212975000D02*
X-188660000Y-214200000D01*
X-189875000Y-206531250D02*
X-189885000Y-206541250D01*
X-189885000Y-206541250D02*
X-189885000Y-212975000D01*
D30*
%TO.N,+5V*%
X-194051248Y-189481248D02*
X-194051248Y-189969998D01*
X-203518500Y-178091500D02*
X-203410000Y-178091500D01*
X-206520000Y-175090000D02*
X-203518500Y-178091500D01*
X-210200000Y-64120000D02*
X-210200000Y-65160000D01*
X-210200000Y-65160000D02*
X-210810000Y-65770000D01*
X-212344000Y-61976000D02*
X-210200000Y-64120000D01*
X-212344000Y-58737500D02*
X-212344000Y-61976000D01*
D28*
%TO.N,P-*%
X-185829999Y-194664999D02*
X-192770000Y-194665000D01*
%TO.N,P+*%
X-185829999Y-195115001D02*
X-192770000Y-195115000D01*
%TO.N,P-*%
X-185530000Y-194365000D02*
X-185829999Y-194664999D01*
%TO.N,P+*%
X-185530000Y-195415000D02*
X-185829999Y-195115001D01*
D30*
%TO.N,+5V*%
X-191480000Y-193650000D02*
X-191200000Y-193370000D01*
X-193531250Y-193650000D02*
X-191480000Y-193650000D01*
D28*
%TO.N,P-*%
X-205316967Y-174291232D02*
X-202321232Y-177286967D01*
X-205741232Y-174291232D02*
X-205316967Y-174291232D01*
%TO.N,P+*%
X-202003033Y-176968768D02*
X-201578768Y-176968768D01*
%TO.N,P-*%
X-202321232Y-177286967D02*
X-202321232Y-177711232D01*
%TO.N,P+*%
X-204998768Y-173548768D02*
X-204998768Y-173973033D01*
X-204998768Y-173973033D02*
X-202003033Y-176968768D01*
X-208535624Y-65380001D02*
X-208235625Y-65680000D01*
%TO.N,P-*%
X-208985626Y-65380001D02*
X-209285625Y-65680000D01*
D29*
%TO.N,ROW0*%
X-222504000Y-64516000D02*
X-212946000Y-64516000D01*
X-202796000Y-64516000D02*
X-194056000Y-64516000D01*
%TO.N,ROW1*%
X-241808000Y-92964000D02*
X-194056000Y-92964000D01*
X-194056000Y-92964000D02*
X-172720000Y-92964000D01*
%TO.N,ROW2*%
X-213868000Y-112268000D02*
X-203200000Y-101092000D01*
%TO.N,ROW4*%
X-223012000Y-149860000D02*
X-194564000Y-149860000D01*
%TO.N,ROW5*%
X-222504000Y-178816000D02*
X-153924000Y-178816000D01*
X-152516500Y-177408500D02*
X-153924000Y-178816000D01*
X-152516500Y-174879000D02*
X-152516500Y-177408500D01*
%TO.N,+5V*%
X-192062000Y-197650000D02*
X-192024000Y-197612000D01*
X-193531250Y-197650000D02*
X-192062000Y-197650000D01*
D30*
X-194051248Y-186440752D02*
X-194056000Y-186436000D01*
X-194051248Y-188060000D02*
X-194051248Y-186440752D01*
X-204786252Y-186498252D02*
X-204724000Y-186436000D01*
X-204786252Y-188060000D02*
X-204786252Y-186498252D01*
D29*
%TO.N,GND*%
X-189556250Y-196050000D02*
X-193531250Y-196050000D01*
X-187168750Y-198437500D02*
X-189556250Y-196050000D01*
%TO.N,Net-(C3-Pad1)*%
X-190656250Y-196850000D02*
X-193531250Y-196850000D01*
X-189068750Y-198437500D02*
X-190656250Y-196850000D01*
D30*
%TO.N,GND*%
X-205075750Y-191111500D02*
X-208280000Y-191111500D01*
X-203657125Y-192530125D02*
X-205075750Y-191111500D01*
X-202182125Y-192530125D02*
X-200656250Y-194056000D01*
X-202431250Y-192281000D02*
X-202182125Y-192530125D01*
X-202182125Y-192530125D02*
X-203657125Y-192530125D01*
X-199462250Y-200850000D02*
X-197172125Y-198559875D01*
X-204931250Y-200850000D02*
X-199462250Y-200850000D01*
X-197172125Y-198559875D02*
X-197631250Y-199019000D01*
X-194662250Y-196050000D02*
X-197172125Y-198559875D01*
X-197631250Y-199019000D02*
X-197631250Y-202550000D01*
X-193531250Y-196050000D02*
X-194662250Y-196050000D01*
X-194602000Y-196050000D02*
X-193531250Y-196050000D01*
X-196088000Y-194564000D02*
X-194602000Y-196050000D01*
X-196088000Y-194056000D02*
X-196088000Y-194564000D01*
X-196031250Y-193999250D02*
X-196031250Y-191150000D01*
X-196088000Y-194056000D02*
X-196031250Y-193999250D01*
X-200656250Y-194056000D02*
X-196088000Y-194056000D01*
X-202431250Y-191150000D02*
X-202431250Y-192281000D01*
%TO.N,+5V*%
X-209293500Y-200662500D02*
X-209296000Y-200660000D01*
X-208131250Y-200662500D02*
X-209293500Y-200662500D01*
D29*
X-186698250Y-206493750D02*
X-186531250Y-206493750D01*
X-188468000Y-204724000D02*
X-186698250Y-206493750D01*
X-188560750Y-204631250D02*
X-188468000Y-204724000D01*
X-189875000Y-204631250D02*
X-188560750Y-204631250D01*
%TO.N,Net-(R3-Pad2)*%
X-196031250Y-203256750D02*
X-196031250Y-202550000D01*
X-187575000Y-203625000D02*
X-195663000Y-203625000D01*
X-186531250Y-204668750D02*
X-187575000Y-203625000D01*
X-195663000Y-203625000D02*
X-196031250Y-203256750D01*
%TO.N,+5V*%
X-196831250Y-203550000D02*
X-195750000Y-204631250D01*
X-195750000Y-204631250D02*
X-189875000Y-204631250D01*
X-196831250Y-202550000D02*
X-196831250Y-203550000D01*
%TO.N,GND*%
X-200328000Y-210400000D02*
X-200641500Y-210400000D01*
X-198628000Y-208700000D02*
X-200328000Y-210400000D01*
X-198441500Y-208700000D02*
X-198628000Y-208700000D01*
D30*
X-198341500Y-208600000D02*
X-198441500Y-208700000D01*
X-202580000Y-210380000D02*
X-202680000Y-210480000D01*
X-206418750Y-200850000D02*
X-204931250Y-200850000D01*
X-208131250Y-202562500D02*
X-206418750Y-200850000D01*
%TO.N,+5V*%
X-207518750Y-200050000D02*
X-204931250Y-200050000D01*
X-208131250Y-200662500D02*
X-207518750Y-200050000D01*
D29*
%TO.N,Net-(R4-Pad1)*%
X-208193500Y-192850000D02*
X-204931250Y-192850000D01*
X-208280000Y-192936500D02*
X-208193500Y-192850000D01*
D30*
%TO.N,+5V*%
X-203200000Y-189484000D02*
X-203231250Y-189515250D01*
X-204624000Y-188060000D02*
X-203200000Y-189484000D01*
X-203231250Y-189515250D02*
X-203231250Y-191150000D01*
X-204786252Y-188060000D02*
X-204624000Y-188060000D01*
%TO.N,GND*%
X-202431250Y-188515002D02*
X-202431250Y-191150000D01*
X-202886252Y-188060000D02*
X-202431250Y-188515002D01*
%TO.N,+5V*%
X-194051248Y-189969998D02*
X-195231250Y-191150000D01*
X-194051248Y-188060000D02*
X-194051248Y-189481248D01*
%TO.N,GND*%
X-195951248Y-191069998D02*
X-196031250Y-191150000D01*
X-195951248Y-188060000D02*
X-195951248Y-191069998D01*
D29*
%TO.N,ROW8*%
X-223954000Y-234770000D02*
X-223012000Y-235712000D01*
X-223012000Y-235712000D02*
X-189484000Y-235712000D01*
X-251968000Y-235712000D02*
X-223012000Y-235712000D01*
X-223954000Y-232029000D02*
X-223954000Y-234770000D01*
X-243004000Y-235024000D02*
X-243004000Y-232029000D01*
X-242316000Y-235712000D02*
X-243004000Y-235024000D01*
X-240284000Y-235712000D02*
X-242316000Y-235712000D01*
X-262054000Y-234770000D02*
X-261112000Y-235712000D01*
X-261112000Y-235712000D02*
X-251968000Y-235712000D01*
X-262054000Y-232029000D02*
X-262054000Y-234770000D01*
X-278892000Y-235712000D02*
X-261112000Y-235712000D01*
X-279908000Y-235712000D02*
X-278892000Y-235712000D01*
X-281104000Y-234516000D02*
X-279908000Y-235712000D01*
X-288544000Y-235712000D02*
X-278892000Y-235712000D01*
X-281104000Y-232029000D02*
X-281104000Y-234516000D01*
X-281104000Y-252656000D02*
X-281104000Y-251079000D01*
X-282956000Y-254508000D02*
X-281104000Y-252656000D01*
X-307340000Y-254508000D02*
X-282956000Y-254508000D01*
X-251968000Y-235712000D02*
X-236601000Y-251079000D01*
X-236601000Y-251079000D02*
X-233479000Y-251079000D01*
X-174117000Y-251079000D02*
X-171566500Y-251079000D01*
X-189484000Y-235712000D02*
X-173228000Y-235712000D01*
X-189484000Y-235712000D02*
X-174117000Y-251079000D01*
X-171566500Y-234050500D02*
X-173228000Y-235712000D01*
X-171566500Y-232029000D02*
X-171566500Y-234050500D01*
X-327660000Y-254508000D02*
X-307340000Y-254508000D01*
X-328729000Y-253439000D02*
X-327660000Y-254508000D01*
X-328729000Y-251079000D02*
X-328729000Y-253439000D01*
%TO.N,ROW7*%
X-223954000Y-212979000D02*
X-223954000Y-215974000D01*
X-223954000Y-215974000D02*
X-223012000Y-216916000D01*
X-223012000Y-216916000D02*
X-199644000Y-216916000D01*
X-241808000Y-216916000D02*
X-223012000Y-216916000D01*
X-243004000Y-215720000D02*
X-241808000Y-216916000D01*
X-243004000Y-212979000D02*
X-243004000Y-215720000D01*
X-261112000Y-216916000D02*
X-241808000Y-216916000D01*
X-262054000Y-215974000D02*
X-261112000Y-216916000D01*
X-262054000Y-212979000D02*
X-262054000Y-215974000D01*
X-287528000Y-216916000D02*
X-261112000Y-216916000D01*
X-281104000Y-215720000D02*
X-279908000Y-216916000D01*
X-281104000Y-212979000D02*
X-281104000Y-215720000D01*
X-303276000Y-226568000D02*
X-297180000Y-226568000D01*
X-327152000Y-226568000D02*
X-303276000Y-226568000D01*
X-304916500Y-222504000D02*
X-304916500Y-224927500D01*
X-304916500Y-224927500D02*
X-303276000Y-226568000D01*
X-161036000Y-216916000D02*
X-142240000Y-216916000D01*
X-170688000Y-216916000D02*
X-161036000Y-216916000D01*
X-158623000Y-232029000D02*
X-161036000Y-229616000D01*
X-161036000Y-229616000D02*
X-161036000Y-216916000D01*
X-152516500Y-232029000D02*
X-158623000Y-232029000D01*
X-199644000Y-228092000D02*
X-199644000Y-216916000D01*
X-195707000Y-232029000D02*
X-199644000Y-228092000D01*
X-190616500Y-232029000D02*
X-195707000Y-232029000D01*
X-199644000Y-216916000D02*
X-170688000Y-216916000D01*
X-171566500Y-216037500D02*
X-170688000Y-216916000D01*
X-171566500Y-212979000D02*
X-171566500Y-216037500D01*
X-297180000Y-226568000D02*
X-287528000Y-216916000D01*
X-328729000Y-224991000D02*
X-327152000Y-226568000D01*
X-328729000Y-222504000D02*
X-328729000Y-224991000D01*
%TO.N,ROW6*%
X-223954000Y-196162000D02*
X-222504000Y-197612000D01*
X-222504000Y-197612000D02*
X-213360000Y-197612000D01*
X-241808000Y-197612000D02*
X-222504000Y-197612000D01*
X-223954000Y-193929000D02*
X-223954000Y-196162000D01*
X-243004000Y-196416000D02*
X-241808000Y-197612000D01*
X-261112000Y-197612000D02*
X-241808000Y-197612000D01*
X-243004000Y-193929000D02*
X-243004000Y-196416000D01*
X-262054000Y-193929000D02*
X-262054000Y-196670000D01*
X-262054000Y-196670000D02*
X-261112000Y-197612000D01*
X-288544000Y-197612000D02*
X-261112000Y-197612000D01*
X-281104000Y-196416000D02*
X-279908000Y-197612000D01*
X-281104000Y-193929000D02*
X-281104000Y-196416000D01*
X-304916500Y-201051500D02*
X-303276000Y-202692000D01*
X-303276000Y-202692000D02*
X-293624000Y-202692000D01*
X-304916500Y-198691500D02*
X-304916500Y-201051500D01*
X-327152000Y-202692000D02*
X-303276000Y-202692000D01*
X-328729000Y-201115000D02*
X-327152000Y-202692000D01*
X-328729000Y-198691500D02*
X-328729000Y-201115000D01*
X-293624000Y-202692000D02*
X-288544000Y-197612000D01*
%TO.N,ROW5*%
X-171566500Y-177429500D02*
X-170180000Y-178816000D01*
X-171566500Y-174879000D02*
X-171566500Y-177429500D01*
X-195379000Y-177493000D02*
X-194056000Y-178816000D01*
X-195379000Y-174879000D02*
X-195379000Y-177493000D01*
X-223954000Y-177366000D02*
X-222504000Y-178816000D01*
X-241808000Y-178816000D02*
X-222504000Y-178816000D01*
X-223954000Y-174879000D02*
X-223954000Y-177366000D01*
X-243004000Y-177620000D02*
X-241808000Y-178816000D01*
X-261112000Y-178816000D02*
X-241808000Y-178816000D01*
X-243004000Y-174879000D02*
X-243004000Y-177620000D01*
X-262054000Y-177874000D02*
X-261112000Y-178816000D01*
X-262054000Y-174879000D02*
X-262054000Y-177874000D01*
X-303784000Y-178816000D02*
X-261112000Y-178816000D01*
X-281104000Y-177620000D02*
X-279908000Y-178816000D01*
X-281104000Y-174879000D02*
X-281104000Y-177620000D01*
X-304916500Y-174879000D02*
X-304916500Y-177683500D01*
X-304916500Y-177683500D02*
X-303784000Y-178816000D01*
X-328676000Y-178816000D02*
X-303784000Y-178816000D01*
X-328729000Y-177239000D02*
X-327152000Y-178816000D01*
X-328729000Y-174879000D02*
X-328729000Y-177239000D01*
%TO.N,ROW4*%
X-152516500Y-148452500D02*
X-153924000Y-149860000D01*
X-170180000Y-149860000D02*
X-153924000Y-149860000D01*
X-152516500Y-146304000D02*
X-152516500Y-148452500D01*
X-170688000Y-149860000D02*
X-170180000Y-149860000D01*
X-194564000Y-149860000D02*
X-170180000Y-149860000D01*
X-171566500Y-148981500D02*
X-170688000Y-149860000D01*
X-171566500Y-146304000D02*
X-171566500Y-148981500D01*
X-195379000Y-146304000D02*
X-195379000Y-149045000D01*
X-195379000Y-149045000D02*
X-194564000Y-149860000D01*
X-223954000Y-148918000D02*
X-223012000Y-149860000D01*
X-223954000Y-146304000D02*
X-223954000Y-148918000D01*
X-241808000Y-149860000D02*
X-223012000Y-149860000D01*
X-243004000Y-148664000D02*
X-241808000Y-149860000D01*
X-243004000Y-146304000D02*
X-243004000Y-148664000D01*
X-261112000Y-149860000D02*
X-241808000Y-149860000D01*
X-262054000Y-146304000D02*
X-262054000Y-148918000D01*
X-289560000Y-149860000D02*
X-261112000Y-149860000D01*
X-262054000Y-148918000D02*
X-261112000Y-149860000D01*
X-290629000Y-148791000D02*
X-289560000Y-149860000D01*
X-290629000Y-146304000D02*
X-290629000Y-148791000D01*
X-328168000Y-149860000D02*
X-289560000Y-149860000D01*
X-309679000Y-148537000D02*
X-308356000Y-149860000D01*
X-309679000Y-146304000D02*
X-309679000Y-148537000D01*
X-327660000Y-149860000D02*
X-327152000Y-149860000D01*
X-328729000Y-146304000D02*
X-328729000Y-148791000D01*
X-328729000Y-148791000D02*
X-327660000Y-149860000D01*
%TO.N,ROW3*%
X-171566500Y-129910500D02*
X-172720000Y-131064000D01*
X-171566500Y-127254000D02*
X-171566500Y-129910500D01*
X-223954000Y-129614000D02*
X-222504000Y-131064000D01*
X-223954000Y-127254000D02*
X-223954000Y-129614000D01*
X-243004000Y-129868000D02*
X-241808000Y-131064000D01*
X-243004000Y-127254000D02*
X-243004000Y-129868000D01*
X-260096000Y-131064000D02*
X-241808000Y-131064000D01*
X-260604000Y-131064000D02*
X-260096000Y-131064000D01*
X-289052000Y-131064000D02*
X-260096000Y-131064000D01*
X-262054000Y-129614000D02*
X-260604000Y-131064000D01*
X-262054000Y-127254000D02*
X-262054000Y-129614000D01*
X-290629000Y-127254000D02*
X-290629000Y-129487000D01*
X-290629000Y-129487000D02*
X-289052000Y-131064000D01*
X-307848000Y-131064000D02*
X-289052000Y-131064000D01*
X-309679000Y-129233000D02*
X-307848000Y-131064000D01*
X-309679000Y-127254000D02*
X-309679000Y-129233000D01*
X-328676000Y-131064000D02*
X-307848000Y-131064000D01*
X-327152000Y-131064000D02*
X-326136000Y-131064000D01*
X-328729000Y-127254000D02*
X-328729000Y-129487000D01*
X-328729000Y-129487000D02*
X-327152000Y-131064000D01*
%TO.N,ROW2*%
X-171566500Y-108204000D02*
X-177495200Y-108204000D01*
X-177495200Y-108204000D02*
X-177901600Y-107797600D01*
X-184150000Y-101092000D02*
X-177901600Y-107797600D01*
X-223954000Y-110310000D02*
X-221996000Y-112268000D01*
X-221996000Y-112268000D02*
X-213868000Y-112268000D01*
X-260604000Y-112268000D02*
X-221996000Y-112268000D01*
X-223954000Y-108204000D02*
X-223954000Y-110310000D01*
X-243004000Y-110564000D02*
X-241300000Y-112268000D01*
X-243004000Y-108204000D02*
X-243004000Y-110564000D01*
X-262054000Y-110818000D02*
X-260604000Y-112268000D01*
X-262054000Y-108204000D02*
X-262054000Y-110818000D01*
X-289052000Y-112268000D02*
X-260604000Y-112268000D01*
X-290629000Y-110691000D02*
X-289052000Y-112268000D01*
X-290629000Y-108204000D02*
X-290629000Y-110691000D01*
X-307848000Y-112268000D02*
X-289052000Y-112268000D01*
X-309679000Y-108204000D02*
X-309679000Y-110437000D01*
X-309679000Y-110437000D02*
X-307848000Y-112268000D01*
X-326644000Y-112268000D02*
X-307848000Y-112268000D01*
X-328729000Y-110183000D02*
X-326644000Y-112268000D01*
X-328676000Y-112268000D02*
X-326644000Y-112268000D01*
X-328729000Y-108204000D02*
X-328729000Y-110183000D01*
X-203200000Y-101092000D02*
X-184150000Y-101092000D01*
%TO.N,ROW0*%
X-195379000Y-63193000D02*
X-194056000Y-64516000D01*
X-260604000Y-64516000D02*
X-241808000Y-64516000D01*
X-309679000Y-63193000D02*
X-308356000Y-64516000D01*
X-223954000Y-60579000D02*
X-223954000Y-63066000D01*
X-289052000Y-64516000D02*
X-260604000Y-64516000D01*
X-328729000Y-63447000D02*
X-327660000Y-64516000D01*
X-290629000Y-62939000D02*
X-289052000Y-64516000D01*
X-172720000Y-64516000D02*
X-153924000Y-64516000D01*
X-290629000Y-60579000D02*
X-290629000Y-62939000D01*
X-328729000Y-60579000D02*
X-328729000Y-63447000D01*
X-308356000Y-64516000D02*
X-289052000Y-64516000D01*
X-194056000Y-64516000D02*
X-172720000Y-64516000D01*
X-327660000Y-64516000D02*
X-308356000Y-64516000D01*
X-173947750Y-63288250D02*
X-172720000Y-64516000D01*
X-243004000Y-60579000D02*
X-243004000Y-63320000D01*
X-241808000Y-64516000D02*
X-222504000Y-64516000D01*
X-309679000Y-60579000D02*
X-309679000Y-63193000D01*
X-262054000Y-63066000D02*
X-260604000Y-64516000D01*
X-223954000Y-63066000D02*
X-222504000Y-64516000D01*
X-195379000Y-60579000D02*
X-195379000Y-63193000D01*
X-243004000Y-63320000D02*
X-241808000Y-64516000D01*
X-262054000Y-60579000D02*
X-262054000Y-63066000D01*
X-152516500Y-60579000D02*
X-152516500Y-63108500D01*
X-173947750Y-60579000D02*
X-173947750Y-63288250D01*
X-152516500Y-63108500D02*
X-153924000Y-64516000D01*
%TO.N,Net-(D1-Pad2)*%
X-324485000Y-59638200D02*
X-325400400Y-60553600D01*
X-324485000Y-50482500D02*
X-324485000Y-59638200D01*
%TO.N,Net-(D2-Pad2)*%
X-305463600Y-59663600D02*
X-306379000Y-60579000D01*
X-305463600Y-50507900D02*
X-305463600Y-59663600D01*
%TO.N,Net-(D3-Pad2)*%
X-286413600Y-59663600D02*
X-287329000Y-60579000D01*
X-286413600Y-50507900D02*
X-286413600Y-59663600D01*
%TO.N,Net-(D4-Pad2)*%
X-257838600Y-59663600D02*
X-258754000Y-60579000D01*
X-257838600Y-50507900D02*
X-257838600Y-59663600D01*
%TO.N,Net-(D5-Pad2)*%
X-238788600Y-50507900D02*
X-238788600Y-59663600D01*
X-238788600Y-59663600D02*
X-239704000Y-60579000D01*
%TO.N,Net-(D6-Pad2)*%
X-219738600Y-50507900D02*
X-219738600Y-59663600D01*
X-219738600Y-59663600D02*
X-220654000Y-60579000D01*
%TO.N,Net-(D7-Pad2)*%
X-191163600Y-59663600D02*
X-192079000Y-60579000D01*
X-191163600Y-50507900D02*
X-191163600Y-59663600D01*
%TO.N,Net-(D8-Pad2)*%
X-169732350Y-59663600D02*
X-170647750Y-60579000D01*
X-169732350Y-50507900D02*
X-169732350Y-59663600D01*
%TO.N,Net-(D9-Pad2)*%
X-148301100Y-59663600D02*
X-149216500Y-60579000D01*
X-148301100Y-50507900D02*
X-148301100Y-59663600D01*
%TO.N,ROW1*%
X-308356000Y-92964000D02*
X-289052000Y-92964000D01*
X-262054000Y-89154000D02*
X-262054000Y-91514000D01*
X-243004000Y-91768000D02*
X-241808000Y-92964000D01*
X-290629000Y-89154000D02*
X-290629000Y-91387000D01*
X-223954000Y-89154000D02*
X-223954000Y-91514000D01*
X-171566500Y-89154000D02*
X-171566500Y-91810500D01*
X-290629000Y-91387000D02*
X-289052000Y-92964000D01*
X-260604000Y-92964000D02*
X-241808000Y-92964000D01*
X-171566500Y-91810500D02*
X-172720000Y-92964000D01*
X-328729000Y-89154000D02*
X-328729000Y-91387000D01*
X-195379000Y-91641000D02*
X-194056000Y-92964000D01*
X-309679000Y-91641000D02*
X-308356000Y-92964000D01*
X-262054000Y-91514000D02*
X-260604000Y-92964000D01*
X-328729000Y-91387000D02*
X-327152000Y-92964000D01*
X-309679000Y-89154000D02*
X-309679000Y-91641000D01*
X-327152000Y-92964000D02*
X-308356000Y-92964000D01*
X-195379000Y-89154000D02*
X-195379000Y-91641000D01*
X-223954000Y-91514000D02*
X-222504000Y-92964000D01*
X-243004000Y-89154000D02*
X-243004000Y-91768000D01*
X-289052000Y-92964000D02*
X-260604000Y-92964000D01*
%TO.N,Net-(D10-Pad2)*%
X-324513600Y-88238600D02*
X-325429000Y-89154000D01*
X-324513600Y-79082900D02*
X-324513600Y-88238600D01*
%TO.N,Net-(D11-Pad2)*%
X-305463600Y-79082900D02*
X-305463600Y-88238600D01*
X-305463600Y-88238600D02*
X-306379000Y-89154000D01*
%TO.N,Net-(D12-Pad2)*%
X-286413600Y-88238600D02*
X-287329000Y-89154000D01*
X-286413600Y-79082900D02*
X-286413600Y-88238600D01*
%TO.N,Net-(D13-Pad2)*%
X-257838600Y-79082900D02*
X-257838600Y-88238600D01*
X-257838600Y-88238600D02*
X-258754000Y-89154000D01*
%TO.N,Net-(D14-Pad2)*%
X-238788600Y-88238600D02*
X-239704000Y-89154000D01*
X-238788600Y-79082900D02*
X-238788600Y-88238600D01*
%TO.N,Net-(D15-Pad2)*%
X-219738600Y-79082900D02*
X-219738600Y-88238600D01*
X-219738600Y-88238600D02*
X-220654000Y-89154000D01*
%TO.N,Net-(D16-Pad2)*%
X-191163600Y-88238600D02*
X-192079000Y-89154000D01*
X-191163600Y-79082900D02*
X-191163600Y-88238600D01*
%TO.N,Net-(D17-Pad2)*%
X-167351100Y-88238600D02*
X-168266500Y-89154000D01*
X-167351100Y-79082900D02*
X-167351100Y-88238600D01*
%TO.N,Net-(D18-Pad2)*%
X-324513600Y-107288600D02*
X-325429000Y-108204000D01*
X-324513600Y-98132900D02*
X-324513600Y-107288600D01*
%TO.N,Net-(D19-Pad2)*%
X-305463600Y-98132900D02*
X-305463600Y-107288600D01*
X-305463600Y-107288600D02*
X-306379000Y-108204000D01*
%TO.N,Net-(D20-Pad2)*%
X-286413600Y-98132900D02*
X-286413600Y-107288600D01*
X-286413600Y-107288600D02*
X-287329000Y-108204000D01*
%TO.N,Net-(D21-Pad2)*%
X-257838600Y-98132900D02*
X-257838600Y-107288600D01*
X-257838600Y-107288600D02*
X-258754000Y-108204000D01*
%TO.N,Net-(D22-Pad2)*%
X-238788600Y-107288600D02*
X-239704000Y-108204000D01*
X-238788600Y-98132900D02*
X-238788600Y-107288600D01*
%TO.N,Net-(D23-Pad2)*%
X-219738600Y-107288600D02*
X-220654000Y-108204000D01*
X-219738600Y-98132900D02*
X-219738600Y-107288600D01*
%TO.N,Net-(D24-Pad2)*%
X-167351100Y-98132900D02*
X-167522199Y-98303999D01*
X-167522199Y-107459699D02*
X-168266500Y-108204000D01*
X-167522199Y-98303999D02*
X-167522199Y-107459699D01*
%TO.N,Net-(D25-Pad2)*%
X-324513600Y-126338600D02*
X-325429000Y-127254000D01*
X-324513600Y-117182900D02*
X-324513600Y-126338600D01*
%TO.N,Net-(D26-Pad2)*%
X-305463600Y-126338600D02*
X-306379000Y-127254000D01*
X-305463600Y-117182900D02*
X-305463600Y-126338600D01*
%TO.N,Net-(D27-Pad2)*%
X-286413600Y-126338600D02*
X-287329000Y-127254000D01*
X-286413600Y-117182900D02*
X-286413600Y-126338600D01*
%TO.N,Net-(D28-Pad2)*%
X-257838600Y-126338600D02*
X-258754000Y-127254000D01*
X-257838600Y-117182900D02*
X-257838600Y-126338600D01*
%TO.N,Net-(D29-Pad2)*%
X-238788600Y-117182900D02*
X-238788600Y-126338600D01*
X-238788600Y-126338600D02*
X-239704000Y-127254000D01*
%TO.N,Net-(D30-Pad2)*%
X-219738600Y-117182900D02*
X-219738600Y-126338600D01*
X-219738600Y-126338600D02*
X-220654000Y-127254000D01*
%TO.N,Net-(D31-Pad2)*%
X-191163600Y-116813600D02*
X-192079000Y-117729000D01*
X-191163600Y-107657900D02*
X-191163600Y-116813600D01*
%TO.N,Net-(D32-Pad2)*%
X-167351100Y-126338600D02*
X-168266500Y-127254000D01*
X-167351100Y-117182900D02*
X-167351100Y-126338600D01*
%TO.N,Net-(D33-Pad2)*%
X-324513600Y-136232900D02*
X-324513600Y-145388600D01*
X-324513600Y-145388600D02*
X-325429000Y-146304000D01*
%TO.N,Net-(D34-Pad2)*%
X-305463600Y-145388600D02*
X-306379000Y-146304000D01*
X-305463600Y-136232900D02*
X-305463600Y-145388600D01*
%TO.N,Net-(D35-Pad2)*%
X-286413600Y-145388600D02*
X-287329000Y-146304000D01*
X-286413600Y-136232900D02*
X-286413600Y-145388600D01*
%TO.N,Net-(D36-Pad2)*%
X-257838600Y-145388600D02*
X-258754000Y-146304000D01*
X-257838600Y-136232900D02*
X-257838600Y-145388600D01*
%TO.N,Net-(D37-Pad2)*%
X-238788600Y-145388600D02*
X-239704000Y-146304000D01*
X-238788600Y-136232900D02*
X-238788600Y-145388600D01*
%TO.N,Net-(D38-Pad2)*%
X-219738600Y-145388600D02*
X-220654000Y-146304000D01*
X-219738600Y-136232900D02*
X-219738600Y-145388600D01*
%TO.N,Net-(D39-Pad2)*%
X-191163600Y-145388600D02*
X-192079000Y-146304000D01*
X-191163600Y-136232900D02*
X-191163600Y-145388600D01*
%TO.N,Net-(D40-Pad2)*%
X-167351100Y-145388600D02*
X-168266500Y-146304000D01*
X-167351100Y-136232900D02*
X-167351100Y-145388600D01*
%TO.N,Net-(D41-Pad2)*%
X-148301100Y-136232900D02*
X-148301100Y-145388600D01*
X-148301100Y-145388600D02*
X-149216500Y-146304000D01*
%TO.N,Net-(D42-Pad2)*%
X-324513600Y-173963600D02*
X-325429000Y-174879000D01*
X-324513600Y-164807900D02*
X-324513600Y-173963600D01*
%TO.N,Net-(D43-Pad2)*%
X-300701100Y-173963600D02*
X-301616500Y-174879000D01*
X-300701100Y-164807900D02*
X-300701100Y-173963600D01*
%TO.N,Net-(D44-Pad2)*%
X-276888600Y-173963600D02*
X-277804000Y-174879000D01*
X-276888600Y-164807900D02*
X-276888600Y-173963600D01*
%TO.N,Net-(D45-Pad2)*%
X-257838600Y-164807900D02*
X-257838600Y-173963600D01*
X-257838600Y-173963600D02*
X-258754000Y-174879000D01*
%TO.N,Net-(D46-Pad2)*%
X-238788600Y-164807900D02*
X-238788600Y-173963600D01*
X-238788600Y-173963600D02*
X-239704000Y-174879000D01*
%TO.N,Net-(D47-Pad2)*%
X-219738600Y-164807900D02*
X-219738600Y-173963600D01*
X-219738600Y-173963600D02*
X-220654000Y-174879000D01*
%TO.N,Net-(D48-Pad2)*%
X-191163600Y-164807900D02*
X-191163600Y-173963600D01*
X-191163600Y-173963600D02*
X-192079000Y-174879000D01*
%TO.N,Net-(D49-Pad2)*%
X-167351100Y-164807900D02*
X-167351100Y-173963600D01*
X-167351100Y-173963600D02*
X-168266500Y-174879000D01*
%TO.N,Net-(D50-Pad2)*%
X-148301100Y-164807900D02*
X-148301100Y-173963600D01*
X-148301100Y-173963600D02*
X-149216500Y-174879000D01*
%TO.N,Net-(D51-Pad2)*%
X-324513600Y-197776100D02*
X-325429000Y-198691500D01*
X-324513600Y-188620400D02*
X-324513600Y-197776100D01*
%TO.N,Net-(D52-Pad2)*%
X-300701100Y-197776100D02*
X-301616500Y-198691500D01*
X-300701100Y-188620400D02*
X-300701100Y-197776100D01*
%TO.N,Net-(D53-Pad2)*%
X-276888600Y-183857900D02*
X-276888600Y-193013600D01*
X-276888600Y-193013600D02*
X-277804000Y-193929000D01*
%TO.N,Net-(D54-Pad2)*%
X-257838600Y-193013600D02*
X-258754000Y-193929000D01*
X-257838600Y-183857900D02*
X-257838600Y-193013600D01*
%TO.N,Net-(D55-Pad2)*%
X-238788600Y-193013600D02*
X-239704000Y-193929000D01*
X-238788600Y-183857900D02*
X-238788600Y-193013600D01*
%TO.N,Net-(D56-Pad2)*%
X-219738600Y-193013600D02*
X-220654000Y-193929000D01*
X-219738600Y-183857900D02*
X-219738600Y-193013600D01*
%TO.N,Net-(D57-Pad2)*%
X-324513600Y-221588600D02*
X-325429000Y-222504000D01*
X-324513600Y-212432900D02*
X-324513600Y-221588600D01*
%TO.N,Net-(D58-Pad2)*%
X-300701100Y-221588600D02*
X-301616500Y-222504000D01*
X-300701100Y-212432900D02*
X-300701100Y-221588600D01*
%TO.N,Net-(D59-Pad2)*%
X-276888600Y-202907900D02*
X-276888600Y-212063600D01*
X-276888600Y-212063600D02*
X-277804000Y-212979000D01*
%TO.N,Net-(D60-Pad2)*%
X-257838600Y-212063600D02*
X-258754000Y-212979000D01*
X-257838600Y-202907900D02*
X-257838600Y-212063600D01*
%TO.N,Net-(D61-Pad2)*%
X-238788600Y-212063600D02*
X-239704000Y-212979000D01*
X-238788600Y-202907900D02*
X-238788600Y-212063600D01*
%TO.N,Net-(D62-Pad2)*%
X-219738600Y-202907900D02*
X-219738600Y-212063600D01*
X-219738600Y-212063600D02*
X-220654000Y-212979000D01*
%TO.N,Net-(D63-Pad2)*%
X-186401100Y-221957900D02*
X-186401100Y-231113600D01*
X-186401100Y-231113600D02*
X-187316500Y-232029000D01*
%TO.N,Net-(D64-Pad2)*%
X-167522199Y-212234699D02*
X-168266500Y-212979000D01*
X-167522199Y-204878999D02*
X-167522199Y-212234699D01*
X-165551100Y-202907900D02*
X-167522199Y-204878999D01*
%TO.N,Net-(D65-Pad2)*%
X-148301100Y-231113600D02*
X-149216500Y-232029000D01*
X-148301100Y-221957900D02*
X-148301100Y-231113600D01*
%TO.N,Net-(D66-Pad2)*%
X-324513600Y-241007900D02*
X-324513600Y-250163600D01*
X-324513600Y-250163600D02*
X-325429000Y-251079000D01*
%TO.N,Net-(D67-Pad2)*%
X-276888600Y-250163600D02*
X-277804000Y-251079000D01*
X-276888600Y-241007900D02*
X-276888600Y-250163600D01*
%TO.N,Net-(D68-Pad2)*%
X-276888600Y-221957900D02*
X-276888600Y-231113600D01*
X-276888600Y-231113600D02*
X-277804000Y-232029000D01*
%TO.N,Net-(D69-Pad2)*%
X-257838600Y-221957900D02*
X-257838600Y-231113600D01*
X-257838600Y-231113600D02*
X-258754000Y-232029000D01*
%TO.N,Net-(D70-Pad2)*%
X-238788600Y-231113600D02*
X-239704000Y-232029000D01*
X-238788600Y-221957900D02*
X-238788600Y-231113600D01*
%TO.N,Net-(D71-Pad2)*%
X-229263600Y-241007900D02*
X-229263600Y-250163600D01*
X-229263600Y-250163600D02*
X-230179000Y-251079000D01*
%TO.N,Net-(D72-Pad2)*%
X-219738600Y-231113600D02*
X-220654000Y-232029000D01*
X-219738600Y-221957900D02*
X-219738600Y-231113600D01*
%TO.N,Net-(D73-Pad2)*%
X-167351100Y-241007900D02*
X-167351100Y-250163600D01*
X-167351100Y-250163600D02*
X-168266500Y-251079000D01*
%TO.N,Net-(D74-Pad2)*%
X-167351100Y-231113600D02*
X-168266500Y-232029000D01*
X-167351100Y-221957900D02*
X-167351100Y-231113600D01*
%TD*%
M02*
