%TF.GenerationSoftware,KiCad,Pcbnew,(6.0.11)*%
%TF.CreationDate,2023-02-04T12:28:33-08:00*%
%TF.ProjectId,MA Command Keyboard changed footprint,4d412043-6f6d-46d6-916e-64204b657962,rev?*%
%TF.SameCoordinates,Original*%
%TF.FileFunction,Copper,L1,Top*%
%TF.FilePolarity,Positive*%
%FSLAX46Y46*%
G04 Gerber Fmt 4.6, Leading zero omitted, Abs format (unit mm)*
G04 Created by KiCad (PCBNEW (6.0.11)) date 2023-02-04 12:28:33*
%MOMM*%
%LPD*%
G01*
G04 APERTURE LIST*
%TA.AperFunction,ComponentPad*%
%ADD10C,0.800000*%
%TD*%
%TA.AperFunction,ComponentPad*%
%ADD11C,4.000000*%
%TD*%
%TA.AperFunction,ComponentPad*%
%ADD12O,1.700000X2.700000*%
%TD*%
%TA.AperFunction,ViaPad*%
%ADD13C,0.800000*%
%TD*%
%TA.AperFunction,Conductor*%
%ADD14C,0.381000*%
%TD*%
%TA.AperFunction,Conductor*%
%ADD15C,0.200000*%
%TD*%
%TA.AperFunction,Conductor*%
%ADD16C,0.250000*%
%TD*%
G04 APERTURE END LIST*
D10*
%TO.P,MX74,1,COL*%
%TO.N,COL8*%
X-178781100Y-225259900D03*
D11*
X-173701100Y-224497900D03*
D10*
X-178781100Y-223735900D03*
%TO.P,MX74,2,ROW*%
%TO.N,Net-(D74-Pad2)*%
X-162271100Y-221195900D03*
D11*
X-167351100Y-221957900D03*
D10*
X-162271100Y-222719900D03*
%TD*%
%TO.P,MX73,1,COL*%
%TO.N,COL7*%
X-178781100Y-244309900D03*
D11*
X-173701100Y-243547900D03*
D10*
X-178781100Y-242785900D03*
%TO.P,MX73,2,ROW*%
%TO.N,Net-(D73-Pad2)*%
X-162271100Y-240245900D03*
D11*
X-167351100Y-241007900D03*
D10*
X-162271100Y-241769900D03*
%TD*%
%TO.P,MX72,1,COL*%
%TO.N,COL6*%
X-231168600Y-225259900D03*
D11*
X-226088600Y-224497900D03*
D10*
X-231168600Y-223735900D03*
%TO.P,MX72,2,ROW*%
%TO.N,Net-(D72-Pad2)*%
X-214658600Y-221195900D03*
D11*
X-219738600Y-221957900D03*
D10*
X-214658600Y-222719900D03*
%TD*%
%TO.P,MX71,1,COL*%
%TO.N,COL5*%
X-240693600Y-244309900D03*
D11*
X-235613600Y-243547900D03*
D10*
X-240693600Y-242785900D03*
%TO.P,MX71,2,ROW*%
%TO.N,Net-(D71-Pad2)*%
X-224183600Y-240245900D03*
D11*
X-229263600Y-241007900D03*
D10*
X-224183600Y-241769900D03*
%TD*%
%TO.P,MX70,1,COL*%
%TO.N,COL4*%
X-250218600Y-225259900D03*
D11*
X-245138600Y-224497900D03*
D10*
X-250218600Y-223735900D03*
%TO.P,MX70,2,ROW*%
%TO.N,Net-(D70-Pad2)*%
X-233708600Y-221195900D03*
D11*
X-238788600Y-221957900D03*
D10*
X-233708600Y-222719900D03*
%TD*%
%TO.P,MX69,1,COL*%
%TO.N,COL3*%
X-269268600Y-225259900D03*
D11*
X-264188600Y-224497900D03*
D10*
X-269268600Y-223735900D03*
%TO.P,MX69,2,ROW*%
%TO.N,Net-(D69-Pad2)*%
X-252758600Y-221195900D03*
D11*
X-257838600Y-221957900D03*
D10*
X-252758600Y-222719900D03*
%TD*%
%TO.P,MX68,1,COL*%
%TO.N,COL2*%
X-288318600Y-225259900D03*
D11*
X-283238600Y-224497900D03*
D10*
X-288318600Y-223735900D03*
%TO.P,MX68,2,ROW*%
%TO.N,Net-(D68-Pad2)*%
X-271808600Y-221195900D03*
D11*
X-276888600Y-221957900D03*
D10*
X-271808600Y-222719900D03*
%TD*%
%TO.P,MX67,1,COL*%
%TO.N,cOL1*%
X-288318600Y-244309900D03*
D11*
X-283238600Y-243547900D03*
D10*
X-288318600Y-242785900D03*
%TO.P,MX67,2,ROW*%
%TO.N,Net-(D67-Pad2)*%
X-271808600Y-240245900D03*
D11*
X-276888600Y-241007900D03*
D10*
X-271808600Y-241769900D03*
%TD*%
%TO.P,MX66,1,COL*%
%TO.N,COL0*%
X-335943600Y-244309900D03*
D11*
X-330863600Y-243547900D03*
D10*
X-335943600Y-242785900D03*
%TO.P,MX66,2,ROW*%
%TO.N,Net-(D66-Pad2)*%
X-319433600Y-240245900D03*
D11*
X-324513600Y-241007900D03*
D10*
X-319433600Y-241769900D03*
%TD*%
%TO.P,MX65,1,COL*%
%TO.N,COL8*%
X-159731100Y-225259900D03*
D11*
X-154651100Y-224497900D03*
D10*
X-159731100Y-223735900D03*
%TO.P,MX65,2,ROW*%
%TO.N,Net-(D65-Pad2)*%
X-143221100Y-221195900D03*
D11*
X-148301100Y-221957900D03*
D10*
X-143221100Y-222719900D03*
%TD*%
%TO.P,MX64,1,COL*%
%TO.N,COL7*%
X-178781100Y-206209900D03*
D11*
X-173701100Y-205447900D03*
D10*
X-178781100Y-204685900D03*
%TO.P,MX64,2,ROW*%
%TO.N,Net-(D64-Pad2)*%
X-162271100Y-202145900D03*
D11*
X-167351100Y-202907900D03*
D10*
X-162271100Y-203669900D03*
%TD*%
%TO.P,MX63,1,COL*%
%TO.N,COL6*%
X-197831100Y-225259900D03*
D11*
X-192751100Y-224497900D03*
D10*
X-197831100Y-223735900D03*
%TO.P,MX63,2,ROW*%
%TO.N,Net-(D63-Pad2)*%
X-181321100Y-221195900D03*
D11*
X-186401100Y-221957900D03*
D10*
X-181321100Y-222719900D03*
%TD*%
%TO.P,MX62,1,COL*%
%TO.N,COL5*%
X-231168600Y-206209900D03*
D11*
X-226088600Y-205447900D03*
D10*
X-231168600Y-204685900D03*
%TO.P,MX62,2,ROW*%
%TO.N,Net-(D62-Pad2)*%
X-214658600Y-202145900D03*
D11*
X-219738600Y-202907900D03*
D10*
X-214658600Y-203669900D03*
%TD*%
%TO.P,MX61,1,COL*%
%TO.N,COL4*%
X-250218600Y-206209900D03*
D11*
X-245138600Y-205447900D03*
D10*
X-250218600Y-204685900D03*
%TO.P,MX61,2,ROW*%
%TO.N,Net-(D61-Pad2)*%
X-233708600Y-202145900D03*
D11*
X-238788600Y-202907900D03*
D10*
X-233708600Y-203669900D03*
%TD*%
%TO.P,MX60,1,COL*%
%TO.N,COL3*%
X-269268600Y-206209900D03*
D11*
X-264188600Y-205447900D03*
D10*
X-269268600Y-204685900D03*
%TO.P,MX60,2,ROW*%
%TO.N,Net-(D60-Pad2)*%
X-252758600Y-202145900D03*
D11*
X-257838600Y-202907900D03*
D10*
X-252758600Y-203669900D03*
%TD*%
%TO.P,MX59,1,COL*%
%TO.N,COL2*%
X-288318600Y-206209900D03*
D11*
X-283238600Y-205447900D03*
D10*
X-288318600Y-204685900D03*
%TO.P,MX59,2,ROW*%
%TO.N,Net-(D59-Pad2)*%
X-271808600Y-202145900D03*
D11*
X-276888600Y-202907900D03*
D10*
X-271808600Y-203669900D03*
%TD*%
%TO.P,MX58,1,COL*%
%TO.N,cOL1*%
X-312131100Y-215734900D03*
D11*
X-307051100Y-214972900D03*
D10*
X-312131100Y-214210900D03*
%TO.P,MX58,2,ROW*%
%TO.N,Net-(D58-Pad2)*%
X-295621100Y-211670900D03*
D11*
X-300701100Y-212432900D03*
D10*
X-295621100Y-213194900D03*
%TD*%
%TO.P,MX57,1,COL*%
%TO.N,COL0*%
X-335943600Y-215734900D03*
D11*
X-330863600Y-214972900D03*
D10*
X-335943600Y-214210900D03*
%TO.P,MX57,2,ROW*%
%TO.N,Net-(D57-Pad2)*%
X-319433600Y-211670900D03*
D11*
X-324513600Y-212432900D03*
D10*
X-319433600Y-213194900D03*
%TD*%
%TO.P,MX56,1,COL*%
%TO.N,COL5*%
X-231168600Y-187159900D03*
D11*
X-226088600Y-186397900D03*
D10*
X-231168600Y-185635900D03*
%TO.P,MX56,2,ROW*%
%TO.N,Net-(D56-Pad2)*%
X-214658600Y-183095900D03*
D11*
X-219738600Y-183857900D03*
D10*
X-214658600Y-184619900D03*
%TD*%
%TO.P,MX55,1,COL*%
%TO.N,COL4*%
X-250218600Y-187159900D03*
D11*
X-245138600Y-186397900D03*
D10*
X-250218600Y-185635900D03*
%TO.P,MX55,2,ROW*%
%TO.N,Net-(D55-Pad2)*%
X-233708600Y-183095900D03*
D11*
X-238788600Y-183857900D03*
D10*
X-233708600Y-184619900D03*
%TD*%
%TO.P,MX54,1,COL*%
%TO.N,COL3*%
X-269268600Y-187159900D03*
D11*
X-264188600Y-186397900D03*
D10*
X-269268600Y-185635900D03*
%TO.P,MX54,2,ROW*%
%TO.N,Net-(D54-Pad2)*%
X-252758600Y-183095900D03*
D11*
X-257838600Y-183857900D03*
D10*
X-252758600Y-184619900D03*
%TD*%
%TO.P,MX53,1,COL*%
%TO.N,COL2*%
X-288318600Y-187159900D03*
D11*
X-283238600Y-186397900D03*
D10*
X-288318600Y-185635900D03*
%TO.P,MX53,2,ROW*%
%TO.N,Net-(D53-Pad2)*%
X-271808600Y-183095900D03*
D11*
X-276888600Y-183857900D03*
D10*
X-271808600Y-184619900D03*
%TD*%
%TO.P,MX52,1,COL*%
%TO.N,cOL1*%
X-312131100Y-191922400D03*
D11*
X-307051100Y-191160400D03*
D10*
X-312131100Y-190398400D03*
%TO.P,MX52,2,ROW*%
%TO.N,Net-(D52-Pad2)*%
X-295621100Y-187858400D03*
D11*
X-300701100Y-188620400D03*
D10*
X-295621100Y-189382400D03*
%TD*%
%TO.P,MX51,1,COL*%
%TO.N,COL0*%
X-335943600Y-191922400D03*
D11*
X-330863600Y-191160400D03*
D10*
X-335943600Y-190398400D03*
%TO.P,MX51,2,ROW*%
%TO.N,Net-(D51-Pad2)*%
X-319433600Y-187858400D03*
D11*
X-324513600Y-188620400D03*
D10*
X-319433600Y-189382400D03*
%TD*%
%TO.P,MX50,1,COL*%
%TO.N,COL8*%
X-159731100Y-168109900D03*
D11*
X-154651100Y-167347900D03*
D10*
X-159731100Y-166585900D03*
%TO.P,MX50,2,ROW*%
%TO.N,Net-(D50-Pad2)*%
X-143221100Y-164045900D03*
D11*
X-148301100Y-164807900D03*
D10*
X-143221100Y-165569900D03*
%TD*%
%TO.P,MX49,1,COL*%
%TO.N,COL7*%
X-178781100Y-168109900D03*
D11*
X-173701100Y-167347900D03*
D10*
X-178781100Y-166585900D03*
%TO.P,MX49,2,ROW*%
%TO.N,Net-(D49-Pad2)*%
X-162271100Y-164045900D03*
D11*
X-167351100Y-164807900D03*
D10*
X-162271100Y-165569900D03*
%TD*%
%TO.P,MX48,1,COL*%
%TO.N,COL6*%
X-202593600Y-168109900D03*
D11*
X-197513600Y-167347900D03*
D10*
X-202593600Y-166585900D03*
%TO.P,MX48,2,ROW*%
%TO.N,Net-(D48-Pad2)*%
X-186083600Y-164045900D03*
D11*
X-191163600Y-164807900D03*
D10*
X-186083600Y-165569900D03*
%TD*%
%TO.P,MX47,1,COL*%
%TO.N,COL5*%
X-231168600Y-168109900D03*
D11*
X-226088600Y-167347900D03*
D10*
X-231168600Y-166585900D03*
%TO.P,MX47,2,ROW*%
%TO.N,Net-(D47-Pad2)*%
X-214658600Y-164045900D03*
D11*
X-219738600Y-164807900D03*
D10*
X-214658600Y-165569900D03*
%TD*%
%TO.P,MX46,1,COL*%
%TO.N,COL4*%
X-250218600Y-168109900D03*
D11*
X-245138600Y-167347900D03*
D10*
X-250218600Y-166585900D03*
%TO.P,MX46,2,ROW*%
%TO.N,Net-(D46-Pad2)*%
X-233708600Y-164045900D03*
D11*
X-238788600Y-164807900D03*
D10*
X-233708600Y-165569900D03*
%TD*%
%TO.P,MX45,1,COL*%
%TO.N,COL3*%
X-269268600Y-168109900D03*
D11*
X-264188600Y-167347900D03*
D10*
X-269268600Y-166585900D03*
%TO.P,MX45,2,ROW*%
%TO.N,Net-(D45-Pad2)*%
X-252758600Y-164045900D03*
D11*
X-257838600Y-164807900D03*
D10*
X-252758600Y-165569900D03*
%TD*%
%TO.P,MX44,1,COL*%
%TO.N,COL2*%
X-288318600Y-168109900D03*
D11*
X-283238600Y-167347900D03*
D10*
X-288318600Y-166585900D03*
%TO.P,MX44,2,ROW*%
%TO.N,Net-(D44-Pad2)*%
X-271808600Y-164045900D03*
D11*
X-276888600Y-164807900D03*
D10*
X-271808600Y-165569900D03*
%TD*%
%TO.P,MX43,1,COL*%
%TO.N,cOL1*%
X-312131100Y-168109900D03*
D11*
X-307051100Y-167347900D03*
D10*
X-312131100Y-166585900D03*
%TO.P,MX43,2,ROW*%
%TO.N,Net-(D43-Pad2)*%
X-295621100Y-164045900D03*
D11*
X-300701100Y-164807900D03*
D10*
X-295621100Y-165569900D03*
%TD*%
%TO.P,MX42,1,COL*%
%TO.N,COL0*%
X-335943600Y-168109900D03*
D11*
X-330863600Y-167347900D03*
D10*
X-335943600Y-166585900D03*
%TO.P,MX42,2,ROW*%
%TO.N,Net-(D42-Pad2)*%
X-319433600Y-164045900D03*
D11*
X-324513600Y-164807900D03*
D10*
X-319433600Y-165569900D03*
%TD*%
%TO.P,MX41,1,COL*%
%TO.N,COL8*%
X-159731100Y-139534900D03*
D11*
X-154651100Y-138772900D03*
D10*
X-159731100Y-138010900D03*
%TO.P,MX41,2,ROW*%
%TO.N,Net-(D41-Pad2)*%
X-143221100Y-135470900D03*
D11*
X-148301100Y-136232900D03*
D10*
X-143221100Y-136994900D03*
%TD*%
%TO.P,MX40,1,COL*%
%TO.N,COL7*%
X-178781100Y-139534900D03*
D11*
X-173701100Y-138772900D03*
D10*
X-178781100Y-138010900D03*
%TO.P,MX40,2,ROW*%
%TO.N,Net-(D40-Pad2)*%
X-162271100Y-135470900D03*
D11*
X-167351100Y-136232900D03*
D10*
X-162271100Y-136994900D03*
%TD*%
%TO.P,MX39,1,COL*%
%TO.N,COL6*%
X-202593600Y-139534900D03*
D11*
X-197513600Y-138772900D03*
D10*
X-202593600Y-138010900D03*
%TO.P,MX39,2,ROW*%
%TO.N,Net-(D39-Pad2)*%
X-186083600Y-135470900D03*
D11*
X-191163600Y-136232900D03*
D10*
X-186083600Y-136994900D03*
%TD*%
%TO.P,MX38,1,COL*%
%TO.N,COL5*%
X-231168600Y-139534900D03*
D11*
X-226088600Y-138772900D03*
D10*
X-231168600Y-138010900D03*
%TO.P,MX38,2,ROW*%
%TO.N,Net-(D38-Pad2)*%
X-214658600Y-135470900D03*
D11*
X-219738600Y-136232900D03*
D10*
X-214658600Y-136994900D03*
%TD*%
%TO.P,MX37,1,COL*%
%TO.N,COL4*%
X-250218600Y-139534900D03*
D11*
X-245138600Y-138772900D03*
D10*
X-250218600Y-138010900D03*
%TO.P,MX37,2,ROW*%
%TO.N,Net-(D37-Pad2)*%
X-233708600Y-135470900D03*
D11*
X-238788600Y-136232900D03*
D10*
X-233708600Y-136994900D03*
%TD*%
%TO.P,MX36,1,COL*%
%TO.N,COL3*%
X-269268600Y-139534900D03*
D11*
X-264188600Y-138772900D03*
D10*
X-269268600Y-138010900D03*
%TO.P,MX36,2,ROW*%
%TO.N,Net-(D36-Pad2)*%
X-252758600Y-135470900D03*
D11*
X-257838600Y-136232900D03*
D10*
X-252758600Y-136994900D03*
%TD*%
%TO.P,MX35,1,COL*%
%TO.N,COL2*%
X-297843600Y-139534900D03*
D11*
X-292763600Y-138772900D03*
D10*
X-297843600Y-138010900D03*
%TO.P,MX35,2,ROW*%
%TO.N,Net-(D35-Pad2)*%
X-281333600Y-135470900D03*
D11*
X-286413600Y-136232900D03*
D10*
X-281333600Y-136994900D03*
%TD*%
%TO.P,MX34,1,COL*%
%TO.N,cOL1*%
X-316893600Y-139534900D03*
D11*
X-311813600Y-138772900D03*
D10*
X-316893600Y-138010900D03*
%TO.P,MX34,2,ROW*%
%TO.N,Net-(D34-Pad2)*%
X-300383600Y-135470900D03*
D11*
X-305463600Y-136232900D03*
D10*
X-300383600Y-136994900D03*
%TD*%
%TO.P,MX33,1,COL*%
%TO.N,COL0*%
X-335943600Y-139534900D03*
D11*
X-330863600Y-138772900D03*
D10*
X-335943600Y-138010900D03*
%TO.P,MX33,2,ROW*%
%TO.N,Net-(D33-Pad2)*%
X-319433600Y-135470900D03*
D11*
X-324513600Y-136232900D03*
D10*
X-319433600Y-136994900D03*
%TD*%
%TO.P,MX32,1,COL*%
%TO.N,COL7*%
X-178781100Y-120484900D03*
D11*
X-173701100Y-119722900D03*
D10*
X-178781100Y-118960900D03*
%TO.P,MX32,2,ROW*%
%TO.N,Net-(D32-Pad2)*%
X-162271100Y-116420900D03*
D11*
X-167351100Y-117182900D03*
D10*
X-162271100Y-117944900D03*
%TD*%
%TO.P,MX31,1,COL*%
%TO.N,COL6*%
X-202593600Y-110959900D03*
D11*
X-197513600Y-110197900D03*
D10*
X-202593600Y-109435900D03*
%TO.P,MX31,2,ROW*%
%TO.N,Net-(D31-Pad2)*%
X-186083600Y-106895900D03*
D11*
X-191163600Y-107657900D03*
D10*
X-186083600Y-108419900D03*
%TD*%
%TO.P,MX30,1,COL*%
%TO.N,COL5*%
X-231168600Y-120484900D03*
D11*
X-226088600Y-119722900D03*
D10*
X-231168600Y-118960900D03*
%TO.P,MX30,2,ROW*%
%TO.N,Net-(D30-Pad2)*%
X-214658600Y-116420900D03*
D11*
X-219738600Y-117182900D03*
D10*
X-214658600Y-117944900D03*
%TD*%
%TO.P,MX29,1,COL*%
%TO.N,COL4*%
X-250218600Y-120484900D03*
D11*
X-245138600Y-119722900D03*
D10*
X-250218600Y-118960900D03*
%TO.P,MX29,2,ROW*%
%TO.N,Net-(D29-Pad2)*%
X-233708600Y-116420900D03*
D11*
X-238788600Y-117182900D03*
D10*
X-233708600Y-117944900D03*
%TD*%
%TO.P,MX28,1,COL*%
%TO.N,COL3*%
X-269268600Y-120484900D03*
D11*
X-264188600Y-119722900D03*
D10*
X-269268600Y-118960900D03*
%TO.P,MX28,2,ROW*%
%TO.N,Net-(D28-Pad2)*%
X-252758600Y-116420900D03*
D11*
X-257838600Y-117182900D03*
D10*
X-252758600Y-117944900D03*
%TD*%
%TO.P,MX27,1,COL*%
%TO.N,COL2*%
X-297843600Y-120484900D03*
D11*
X-292763600Y-119722900D03*
D10*
X-297843600Y-118960900D03*
%TO.P,MX27,2,ROW*%
%TO.N,Net-(D27-Pad2)*%
X-281333600Y-116420900D03*
D11*
X-286413600Y-117182900D03*
D10*
X-281333600Y-117944900D03*
%TD*%
%TO.P,MX26,1,COL*%
%TO.N,cOL1*%
X-316893600Y-120484900D03*
D11*
X-311813600Y-119722900D03*
D10*
X-316893600Y-118960900D03*
%TO.P,MX26,2,ROW*%
%TO.N,Net-(D26-Pad2)*%
X-300383600Y-116420900D03*
D11*
X-305463600Y-117182900D03*
D10*
X-300383600Y-117944900D03*
%TD*%
%TO.P,MX25,1,COL*%
%TO.N,COL0*%
X-335943600Y-120484900D03*
D11*
X-330863600Y-119722900D03*
D10*
X-335943600Y-118960900D03*
%TO.P,MX25,2,ROW*%
%TO.N,Net-(D25-Pad2)*%
X-319433600Y-116420900D03*
D11*
X-324513600Y-117182900D03*
D10*
X-319433600Y-117944900D03*
%TD*%
%TO.P,MX24,1,COL*%
%TO.N,COL7*%
X-178781100Y-101434900D03*
D11*
X-173701100Y-100672900D03*
D10*
X-178781100Y-99910900D03*
%TO.P,MX24,2,ROW*%
%TO.N,Net-(D24-Pad2)*%
X-162271100Y-97370900D03*
D11*
X-167351100Y-98132900D03*
D10*
X-162271100Y-98894900D03*
%TD*%
%TO.P,MX23,1,COL*%
%TO.N,COL5*%
X-231168600Y-101434900D03*
D11*
X-226088600Y-100672900D03*
D10*
X-231168600Y-99910900D03*
%TO.P,MX23,2,ROW*%
%TO.N,Net-(D23-Pad2)*%
X-214658600Y-97370900D03*
D11*
X-219738600Y-98132900D03*
D10*
X-214658600Y-98894900D03*
%TD*%
%TO.P,MX22,1,COL*%
%TO.N,COL4*%
X-250218600Y-101434900D03*
D11*
X-245138600Y-100672900D03*
D10*
X-250218600Y-99910900D03*
%TO.P,MX22,2,ROW*%
%TO.N,Net-(D22-Pad2)*%
X-233708600Y-97370900D03*
D11*
X-238788600Y-98132900D03*
D10*
X-233708600Y-98894900D03*
%TD*%
%TO.P,MX21,1,COL*%
%TO.N,COL3*%
X-269268600Y-101434900D03*
D11*
X-264188600Y-100672900D03*
D10*
X-269268600Y-99910900D03*
%TO.P,MX21,2,ROW*%
%TO.N,Net-(D21-Pad2)*%
X-252758600Y-97370900D03*
D11*
X-257838600Y-98132900D03*
D10*
X-252758600Y-98894900D03*
%TD*%
%TO.P,MX20,1,COL*%
%TO.N,COL2*%
X-297843600Y-101434900D03*
D11*
X-292763600Y-100672900D03*
D10*
X-297843600Y-99910900D03*
%TO.P,MX20,2,ROW*%
%TO.N,Net-(D20-Pad2)*%
X-281333600Y-97370900D03*
D11*
X-286413600Y-98132900D03*
D10*
X-281333600Y-98894900D03*
%TD*%
%TO.P,MX19,1,COL*%
%TO.N,cOL1*%
X-316893600Y-101434900D03*
D11*
X-311813600Y-100672900D03*
D10*
X-316893600Y-99910900D03*
%TO.P,MX19,2,ROW*%
%TO.N,Net-(D19-Pad2)*%
X-300383600Y-97370900D03*
D11*
X-305463600Y-98132900D03*
D10*
X-300383600Y-98894900D03*
%TD*%
%TO.P,MX18,1,COL*%
%TO.N,COL0*%
X-335943600Y-101434900D03*
D11*
X-330863600Y-100672900D03*
D10*
X-335943600Y-99910900D03*
%TO.P,MX18,2,ROW*%
%TO.N,Net-(D18-Pad2)*%
X-319433600Y-97370900D03*
D11*
X-324513600Y-98132900D03*
D10*
X-319433600Y-98894900D03*
%TD*%
%TO.P,MX17,1,COL*%
%TO.N,COL7*%
X-178781100Y-82384900D03*
D11*
X-173701100Y-81622900D03*
D10*
X-178781100Y-80860900D03*
%TO.P,MX17,2,ROW*%
%TO.N,Net-(D17-Pad2)*%
X-162271100Y-78320900D03*
D11*
X-167351100Y-79082900D03*
D10*
X-162271100Y-79844900D03*
%TD*%
%TO.P,MX16,1,COL*%
%TO.N,COL6*%
X-202593600Y-82384900D03*
D11*
X-197513600Y-81622900D03*
D10*
X-202593600Y-80860900D03*
%TO.P,MX16,2,ROW*%
%TO.N,Net-(D16-Pad2)*%
X-186083600Y-78320900D03*
D11*
X-191163600Y-79082900D03*
D10*
X-186083600Y-79844900D03*
%TD*%
%TO.P,MX15,1,COL*%
%TO.N,COL5*%
X-231168600Y-82384900D03*
D11*
X-226088600Y-81622900D03*
D10*
X-231168600Y-80860900D03*
%TO.P,MX15,2,ROW*%
%TO.N,Net-(D15-Pad2)*%
X-214658600Y-78320900D03*
D11*
X-219738600Y-79082900D03*
D10*
X-214658600Y-79844900D03*
%TD*%
%TO.P,MX14,1,COL*%
%TO.N,COL4*%
X-250218600Y-82384900D03*
D11*
X-245138600Y-81622900D03*
D10*
X-250218600Y-80860900D03*
%TO.P,MX14,2,ROW*%
%TO.N,Net-(D14-Pad2)*%
X-233708600Y-78320900D03*
D11*
X-238788600Y-79082900D03*
D10*
X-233708600Y-79844900D03*
%TD*%
%TO.P,MX13,1,COL*%
%TO.N,COL3*%
X-269268600Y-82384900D03*
D11*
X-264188600Y-81622900D03*
D10*
X-269268600Y-80860900D03*
%TO.P,MX13,2,ROW*%
%TO.N,Net-(D13-Pad2)*%
X-252758600Y-78320900D03*
D11*
X-257838600Y-79082900D03*
D10*
X-252758600Y-79844900D03*
%TD*%
%TO.P,MX12,1,COL*%
%TO.N,COL2*%
X-297843600Y-82384900D03*
D11*
X-292763600Y-81622900D03*
D10*
X-297843600Y-80860900D03*
%TO.P,MX12,2,ROW*%
%TO.N,Net-(D12-Pad2)*%
X-281333600Y-78320900D03*
D11*
X-286413600Y-79082900D03*
D10*
X-281333600Y-79844900D03*
%TD*%
%TO.P,MX11,1,COL*%
%TO.N,cOL1*%
X-316893600Y-82384900D03*
D11*
X-311813600Y-81622900D03*
D10*
X-316893600Y-80860900D03*
%TO.P,MX11,2,ROW*%
%TO.N,Net-(D11-Pad2)*%
X-300383600Y-78320900D03*
D11*
X-305463600Y-79082900D03*
D10*
X-300383600Y-79844900D03*
%TD*%
%TO.P,MX10,1,COL*%
%TO.N,COL0*%
X-335943600Y-82384900D03*
D11*
X-330863600Y-81622900D03*
D10*
X-335943600Y-80860900D03*
%TO.P,MX10,2,ROW*%
%TO.N,Net-(D10-Pad2)*%
X-319433600Y-78320900D03*
D11*
X-324513600Y-79082900D03*
D10*
X-319433600Y-79844900D03*
%TD*%
%TO.P,MX9,1,COL*%
%TO.N,COL8*%
X-159731100Y-53809900D03*
D11*
X-154651100Y-53047900D03*
D10*
X-159731100Y-52285900D03*
%TO.P,MX9,2,ROW*%
%TO.N,Net-(D9-Pad2)*%
X-143221100Y-49745900D03*
D11*
X-148301100Y-50507900D03*
D10*
X-143221100Y-51269900D03*
%TD*%
%TO.P,MX8,1,COL*%
%TO.N,COL7*%
X-181162350Y-53809900D03*
D11*
X-176082350Y-53047900D03*
D10*
X-181162350Y-52285900D03*
%TO.P,MX8,2,ROW*%
%TO.N,Net-(D8-Pad2)*%
X-164652350Y-49745900D03*
D11*
X-169732350Y-50507900D03*
D10*
X-164652350Y-51269900D03*
%TD*%
%TO.P,MX7,1,COL*%
%TO.N,COL6*%
X-202593600Y-53809900D03*
D11*
X-197513600Y-53047900D03*
D10*
X-202593600Y-52285900D03*
%TO.P,MX7,2,ROW*%
%TO.N,Net-(D7-Pad2)*%
X-186083600Y-49745900D03*
D11*
X-191163600Y-50507900D03*
D10*
X-186083600Y-51269900D03*
%TD*%
%TO.P,MX6,1,COL*%
%TO.N,COL5*%
X-231168600Y-53809900D03*
D11*
X-226088600Y-53047900D03*
D10*
X-231168600Y-52285900D03*
%TO.P,MX6,2,ROW*%
%TO.N,Net-(D6-Pad2)*%
X-214658600Y-49745900D03*
D11*
X-219738600Y-50507900D03*
D10*
X-214658600Y-51269900D03*
%TD*%
%TO.P,MX5,1,COL*%
%TO.N,COL4*%
X-250218600Y-53809900D03*
D11*
X-245138600Y-53047900D03*
D10*
X-250218600Y-52285900D03*
%TO.P,MX5,2,ROW*%
%TO.N,Net-(D5-Pad2)*%
X-233708600Y-49745900D03*
D11*
X-238788600Y-50507900D03*
D10*
X-233708600Y-51269900D03*
%TD*%
%TO.P,MX4,1,COL*%
%TO.N,COL3*%
X-269268600Y-53809900D03*
D11*
X-264188600Y-53047900D03*
D10*
X-269268600Y-52285900D03*
%TO.P,MX4,2,ROW*%
%TO.N,Net-(D4-Pad2)*%
X-252758600Y-49745900D03*
D11*
X-257838600Y-50507900D03*
D10*
X-252758600Y-51269900D03*
%TD*%
%TO.P,MX3,1,COL*%
%TO.N,COL2*%
X-297843600Y-53809900D03*
D11*
X-292763600Y-53047900D03*
D10*
X-297843600Y-52285900D03*
%TO.P,MX3,2,ROW*%
%TO.N,Net-(D3-Pad2)*%
X-281333600Y-49745900D03*
D11*
X-286413600Y-50507900D03*
D10*
X-281333600Y-51269900D03*
%TD*%
%TO.P,MX2,1,COL*%
%TO.N,cOL1*%
X-316893600Y-53809900D03*
D11*
X-311813600Y-53047900D03*
D10*
X-316893600Y-52285900D03*
%TO.P,MX2,2,ROW*%
%TO.N,Net-(D2-Pad2)*%
X-300383600Y-49745900D03*
D11*
X-305463600Y-50507900D03*
D10*
X-300383600Y-51269900D03*
%TD*%
%TO.P,MX1,1,COL*%
%TO.N,COL0*%
X-335943600Y-53809900D03*
D11*
X-330863600Y-53047900D03*
D10*
X-335943600Y-52285900D03*
%TO.P,MX1,2,ROW*%
%TO.N,Net-(D1-Pad2)*%
X-319433600Y-49745900D03*
D11*
X-324513600Y-50507900D03*
D10*
X-319433600Y-51269900D03*
%TD*%
D12*
%TO.P,USB1,6,SHIELD*%
%TO.N,GND*%
X-204312500Y-47625000D03*
X-211612500Y-52125000D03*
X-211612500Y-47625000D03*
X-204312500Y-52125000D03*
%TD*%
D13*
%TO.N,GND*%
X-200750000Y-176220000D03*
X-206310000Y-65680000D03*
X-204170000Y-172800000D03*
X-185770000Y-198500000D03*
%TO.N,+5V*%
X-194056000Y-186436000D03*
X-194051248Y-189481248D03*
X-203410000Y-178091500D03*
X-206520000Y-175090000D03*
X-210810000Y-65770000D03*
%TO.N,P-*%
X-185530000Y-194365000D03*
%TO.N,P+*%
X-185530000Y-195415000D03*
%TO.N,+5V*%
X-191200000Y-193370000D03*
%TO.N,P-*%
X-202321232Y-177711232D03*
%TO.N,P+*%
X-201578768Y-176968768D03*
%TO.N,P-*%
X-205741232Y-174291232D03*
%TO.N,P+*%
X-204998768Y-173548768D03*
%TO.N,P-*%
X-209285625Y-65680000D03*
%TO.N,P+*%
X-208235625Y-65680000D03*
%TO.N,ROW0*%
X-202796000Y-64516000D03*
X-212946000Y-64516000D03*
%TO.N,+5V*%
X-192024000Y-197612000D03*
X-204724000Y-186436000D03*
X-209296000Y-200660000D03*
X-188468000Y-204724000D03*
%TD*%
D14*
%TO.N,GND*%
X-212049064Y-164920936D02*
X-204170000Y-172800000D01*
X-206310000Y-72781872D02*
X-212049064Y-78520936D01*
X-206310000Y-65680000D02*
X-206310000Y-72781872D01*
X-212049064Y-78520936D02*
X-212049064Y-164920936D01*
D15*
%TO.N,P-*%
X-205741232Y-173866967D02*
X-205741232Y-174291232D01*
X-213000000Y-166608199D02*
X-205741232Y-173866967D01*
X-213000000Y-78141800D02*
X-213000000Y-166608199D01*
X-208985626Y-74127426D02*
X-213000000Y-78141800D01*
X-208985626Y-65979999D02*
X-208985626Y-74127426D01*
%TO.N,P+*%
X-212550000Y-78328200D02*
X-212550000Y-166421801D01*
X-208535624Y-74313824D02*
X-212550000Y-78328200D01*
X-208535624Y-65979999D02*
X-208535624Y-74313824D01*
X-208235625Y-65680000D02*
X-208535624Y-65979999D01*
X-212550000Y-166421801D02*
X-205423033Y-173548768D01*
X-205423033Y-173548768D02*
X-204998768Y-173548768D01*
%TO.N,P-*%
X-209285625Y-65680000D02*
X-208985626Y-65979999D01*
D14*
%TO.N,+5V*%
X-213490000Y-168120000D02*
X-206520000Y-175090000D01*
X-210810000Y-75110000D02*
X-213490000Y-77790000D01*
X-210810000Y-65770000D02*
X-210810000Y-75110000D01*
X-213490000Y-77790000D02*
X-213490000Y-168120000D01*
D16*
%TO.N,cOL1*%
X-311785000Y-53022500D02*
X-311785000Y-153543000D01*
%TO.N,COL2*%
X-292735000Y-53022500D02*
X-292735000Y-148869400D01*
%TO.N,COL3*%
X-264160000Y-53022500D02*
X-264160000Y-224472500D01*
%TO.N,COL4*%
X-245110000Y-53022500D02*
X-245110000Y-224472500D01*
%TO.N,COL5*%
X-226060000Y-53022500D02*
X-226060000Y-205422500D01*
X-226060000Y-205422500D02*
X-226557769Y-205422500D01*
%TO.N,COL8*%
X-154622500Y-53022500D02*
X-154622500Y-217614500D01*
%TO.N,COL7*%
X-176053750Y-53022500D02*
X-176053750Y-70326250D01*
%TO.N,COL6*%
X-197485000Y-53022500D02*
X-197485000Y-167322500D01*
%TO.N,COL0*%
X-330835000Y-81597500D02*
X-330835000Y-243522500D01*
X-330835000Y-53022500D02*
X-330835000Y-81597500D01*
D14*
%TO.N,GND*%
X-179864500Y-186225500D02*
X-179864500Y-194626372D01*
X-179864500Y-194626372D02*
X-183738128Y-198500000D01*
X-196860000Y-181100000D02*
X-184990000Y-181100000D01*
X-184990000Y-181100000D02*
X-179864500Y-186225500D01*
X-200750000Y-177210000D02*
X-196860000Y-181100000D01*
X-183738128Y-198500000D02*
X-185770000Y-198500000D01*
X-200750000Y-176220000D02*
X-200750000Y-177210000D01*
%TO.N,+5V*%
X-194056000Y-183404000D02*
X-194056000Y-186436000D01*
X-194060000Y-183400000D02*
X-194056000Y-183404000D01*
X-199110000Y-183400000D02*
X-194060000Y-183400000D01*
X-200540000Y-181970000D02*
X-199110000Y-183400000D01*
X-201678752Y-189481248D02*
X-204724000Y-186436000D01*
X-194051248Y-189481248D02*
X-201678752Y-189481248D01*
X-193862000Y-189292000D02*
X-194051248Y-189481248D01*
X-191200000Y-189292000D02*
X-193862000Y-189292000D01*
X-200540000Y-180961500D02*
X-200540000Y-181970000D01*
X-203410000Y-178091500D02*
X-200540000Y-180961500D01*
D15*
%TO.N,P-*%
X-185230001Y-194664999D02*
X-185530000Y-194365000D01*
X-181233199Y-194664999D02*
X-185230001Y-194664999D01*
X-180805000Y-194236800D02*
X-181233199Y-194664999D01*
X-180805000Y-186843200D02*
X-180805000Y-194236800D01*
X-185443200Y-182205000D02*
X-180805000Y-186843200D01*
X-197403199Y-182205000D02*
X-185443200Y-182205000D01*
X-201896967Y-177711232D02*
X-197403199Y-182205000D01*
X-202321232Y-177711232D02*
X-201896967Y-177711232D01*
%TO.N,P+*%
X-185230001Y-195115001D02*
X-185530000Y-195415000D01*
X-181046801Y-195115001D02*
X-185230001Y-195115001D01*
X-180355000Y-194423200D02*
X-181046801Y-195115001D01*
X-180355000Y-186656800D02*
X-180355000Y-194423200D01*
X-185256800Y-181755000D02*
X-180355000Y-186656800D01*
X-201578768Y-176968768D02*
X-201578768Y-177393033D01*
X-197216801Y-181755000D02*
X-185256800Y-181755000D01*
X-201578768Y-177393033D02*
X-197216801Y-181755000D01*
D14*
%TO.N,+5V*%
X-191200000Y-196788000D02*
X-192024000Y-197612000D01*
X-191200000Y-193370000D02*
X-191200000Y-196788000D01*
X-191200000Y-193370000D02*
X-191200000Y-189292000D01*
D16*
%TO.N,ROW0*%
X-212946000Y-64516000D02*
X-202796000Y-64516000D01*
%TO.N,COL6*%
X-197513600Y-170385669D02*
X-213106000Y-185978069D01*
X-197513600Y-167347900D02*
X-197513600Y-170385669D01*
X-213106000Y-185978069D02*
X-213106000Y-186182000D01*
X-213106000Y-186182000D02*
X-213106000Y-217424000D01*
%TO.N,+5V*%
X-192024000Y-201168000D02*
X-188468000Y-204724000D01*
X-192024000Y-197612000D02*
X-192024000Y-201168000D01*
D14*
X-209296000Y-191008000D02*
X-209296000Y-200660000D01*
X-204724000Y-186436000D02*
X-209296000Y-191008000D01*
D16*
%TO.N,COL7*%
X-173672500Y-213550500D02*
X-180086000Y-219964000D01*
X-173701100Y-240572900D02*
X-173701100Y-243547900D01*
X-173672500Y-209486500D02*
X-173672500Y-213550500D01*
X-180086000Y-219964000D02*
X-180086000Y-234188000D01*
X-180086000Y-234188000D02*
X-173701100Y-240572900D01*
X-173672500Y-209486500D02*
X-173672500Y-209740500D01*
X-173672500Y-205422500D02*
X-173672500Y-209486500D01*
X-176053750Y-70326250D02*
X-173672500Y-72707500D01*
X-173672500Y-72707500D02*
X-173672500Y-205422500D01*
%TO.N,COL6*%
X-213106000Y-217424000D02*
X-199771000Y-217424000D01*
X-214884000Y-217424000D02*
X-213106000Y-217424000D01*
%TO.N,COL5*%
X-232410000Y-211271531D02*
X-232410000Y-235458000D01*
X-226088600Y-205447900D02*
X-226586369Y-205447900D01*
X-226586369Y-205447900D02*
X-232410000Y-211271531D01*
X-235585000Y-238633000D02*
X-235585000Y-243522500D01*
X-232410000Y-235458000D02*
X-235585000Y-238633000D01*
%TO.N,cOL1*%
X-283238600Y-240357000D02*
X-283238600Y-243547900D01*
X-300431200Y-239268000D02*
X-284327600Y-239268000D01*
X-307022500Y-158686500D02*
X-307022500Y-232676700D01*
X-306832000Y-158496000D02*
X-307022500Y-158686500D01*
X-311785000Y-153543000D02*
X-306832000Y-158496000D01*
X-307022500Y-232676700D02*
X-300431200Y-239268000D01*
X-284327600Y-239268000D02*
X-283238600Y-240357000D01*
%TO.N,COL2*%
X-292735000Y-148869400D02*
X-283210000Y-158394400D01*
X-283210000Y-158394400D02*
X-283210000Y-224472500D01*
%TO.N,COL6*%
X-226060000Y-220980000D02*
X-222504000Y-217424000D01*
X-226060000Y-224472500D02*
X-226060000Y-220980000D01*
X-222504000Y-217424000D02*
X-214884000Y-217424000D01*
X-199771000Y-217424000D02*
X-192722500Y-224472500D01*
%TO.N,COL8*%
X-166814500Y-217614500D02*
X-154622500Y-217614500D01*
X-173672500Y-224472500D02*
X-166814500Y-217614500D01*
X-154622500Y-217614500D02*
X-154622500Y-224472500D01*
%TD*%
M02*
