M48
; DRILL file {KiCad (6.0.11)} date Sat Feb  4 13:18:20 2023
; FORMAT={-:-/ absolute / inch / decimal}
; #@! TF.CreationDate,2023-02-04T13:18:20-08:00
; #@! TF.GenerationSoftware,Kicad,Pcbnew,(6.0.11)
; #@! TF.FileFunction,Plated,1,2,PTH
FMAT,2
INCH
; #@! TA.AperFunction,Plated,PTH,ViaDrill
T1C0.0157
; #@! TA.AperFunction,Plated,PTH,ComponentDrill
T2C0.0157
; #@! TA.AperFunction,Plated,PTH,ComponentDrill
T3C0.0276
; #@! TA.AperFunction,Plated,PTH,ComponentDrill
T4C0.1181
%
G90
G05
T1
X-8.4202Y-7.5241
X-8.3837Y-2.54
X-8.3068Y-2.596
X-8.3068Y-7.135
X-8.2638Y-2.6053
X-8.2638Y-7.0987
X-8.24Y-7.9
X-8.06Y-7.34
X-7.9841Y-2.54
X-7.7309Y-3.3755
X-7.6398Y-7.4599
X-7.56Y-7.78
X-7.5276Y-7.613
X-7.4805Y-7.687
X-7.42Y-8.06
T2
X-13.2261Y-2.0585
X-13.2261Y-2.1185
X-13.2261Y-3.1835
X-13.2261Y-3.2435
X-13.2261Y-3.9335
X-13.2261Y-3.9935
X-13.2261Y-4.6835
X-13.2261Y-4.7435
X-13.2261Y-5.4335
X-13.2261Y-5.4935
X-13.2261Y-6.5585
X-13.2261Y-6.6185
X-13.2261Y-7.496
X-13.2261Y-7.556
X-13.2261Y-8.4335
X-13.2261Y-8.4935
X-13.2261Y-9.5585
X-13.2261Y-9.6185
X-12.5761Y-1.9585
X-12.5761Y-2.0185
X-12.5761Y-3.0835
X-12.5761Y-3.1435
X-12.5761Y-3.8335
X-12.5761Y-3.8935
X-12.5761Y-4.5835
X-12.5761Y-4.6435
X-12.5761Y-5.3335
X-12.5761Y-5.3935
X-12.5761Y-6.4585
X-12.5761Y-6.5185
X-12.5761Y-7.396
X-12.5761Y-7.456
X-12.5761Y-8.3335
X-12.5761Y-8.3935
X-12.5761Y-9.4585
X-12.5761Y-9.5185
X-12.4761Y-2.0585
X-12.4761Y-2.1185
X-12.4761Y-3.1835
X-12.4761Y-3.2435
X-12.4761Y-3.9335
X-12.4761Y-3.9935
X-12.4761Y-4.6835
X-12.4761Y-4.7435
X-12.4761Y-5.4335
X-12.4761Y-5.4935
X-12.2886Y-6.5585
X-12.2886Y-6.6185
X-12.2886Y-7.496
X-12.2886Y-7.556
X-12.2886Y-8.4335
X-12.2886Y-8.4935
X-11.8261Y-1.9585
X-11.8261Y-2.0185
X-11.8261Y-3.0835
X-11.8261Y-3.1435
X-11.8261Y-3.8335
X-11.8261Y-3.8935
X-11.8261Y-4.5835
X-11.8261Y-4.6435
X-11.8261Y-5.3335
X-11.8261Y-5.3935
X-11.7261Y-2.0585
X-11.7261Y-2.1185
X-11.7261Y-3.1835
X-11.7261Y-3.2435
X-11.7261Y-3.9335
X-11.7261Y-3.9935
X-11.7261Y-4.6835
X-11.7261Y-4.7435
X-11.7261Y-5.4335
X-11.7261Y-5.4935
X-11.6386Y-6.4585
X-11.6386Y-6.5185
X-11.6386Y-7.396
X-11.6386Y-7.456
X-11.6386Y-8.3335
X-11.6386Y-8.3935
X-11.3511Y-6.5585
X-11.3511Y-6.6185
X-11.3511Y-7.3085
X-11.3511Y-7.3685
X-11.3511Y-8.0585
X-11.3511Y-8.1185
X-11.3511Y-8.8085
X-11.3511Y-8.8685
X-11.3511Y-9.5585
X-11.3511Y-9.6185
X-11.0761Y-1.9585
X-11.0761Y-2.0185
X-11.0761Y-3.0835
X-11.0761Y-3.1435
X-11.0761Y-3.8335
X-11.0761Y-3.8935
X-11.0761Y-4.5835
X-11.0761Y-4.6435
X-11.0761Y-5.3335
X-11.0761Y-5.3935
X-10.7011Y-6.4585
X-10.7011Y-6.5185
X-10.7011Y-7.2085
X-10.7011Y-7.2685
X-10.7011Y-7.9585
X-10.7011Y-8.0185
X-10.7011Y-8.7085
X-10.7011Y-8.7685
X-10.7011Y-9.4585
X-10.7011Y-9.5185
X-10.6011Y-2.0585
X-10.6011Y-2.1185
X-10.6011Y-3.1835
X-10.6011Y-3.2435
X-10.6011Y-3.9335
X-10.6011Y-3.9935
X-10.6011Y-4.6835
X-10.6011Y-4.7435
X-10.6011Y-5.4335
X-10.6011Y-5.4935
X-10.6011Y-6.5585
X-10.6011Y-6.6185
X-10.6011Y-7.3085
X-10.6011Y-7.3685
X-10.6011Y-8.0585
X-10.6011Y-8.1185
X-10.6011Y-8.8085
X-10.6011Y-8.8685
X-9.9511Y-1.9585
X-9.9511Y-2.0185
X-9.9511Y-3.0835
X-9.9511Y-3.1435
X-9.9511Y-3.8335
X-9.9511Y-3.8935
X-9.9511Y-4.5835
X-9.9511Y-4.6435
X-9.9511Y-5.3335
X-9.9511Y-5.3935
X-9.9511Y-6.4585
X-9.9511Y-6.5185
X-9.9511Y-7.2085
X-9.9511Y-7.2685
X-9.9511Y-7.9585
X-9.9511Y-8.0185
X-9.9511Y-8.7085
X-9.9511Y-8.7685
X-9.8511Y-2.0585
X-9.8511Y-2.1185
X-9.8511Y-3.1835
X-9.8511Y-3.2435
X-9.8511Y-3.9335
X-9.8511Y-3.9935
X-9.8511Y-4.6835
X-9.8511Y-4.7435
X-9.8511Y-5.4335
X-9.8511Y-5.4935
X-9.8511Y-6.5585
X-9.8511Y-6.6185
X-9.8511Y-7.3085
X-9.8511Y-7.3685
X-9.8511Y-8.0585
X-9.8511Y-8.1185
X-9.8511Y-8.8085
X-9.8511Y-8.8685
X-9.4761Y-9.5585
X-9.4761Y-9.6185
X-9.2011Y-1.9585
X-9.2011Y-2.0185
X-9.2011Y-3.0835
X-9.2011Y-3.1435
X-9.2011Y-3.8335
X-9.2011Y-3.8935
X-9.2011Y-4.5835
X-9.2011Y-4.6435
X-9.2011Y-5.3335
X-9.2011Y-5.3935
X-9.2011Y-6.4585
X-9.2011Y-6.5185
X-9.2011Y-7.2085
X-9.2011Y-7.2685
X-9.2011Y-7.9585
X-9.2011Y-8.0185
X-9.2011Y-8.7085
X-9.2011Y-8.7685
X-9.1011Y-2.0585
X-9.1011Y-2.1185
X-9.1011Y-3.1835
X-9.1011Y-3.2435
X-9.1011Y-3.9335
X-9.1011Y-3.9935
X-9.1011Y-4.6835
X-9.1011Y-4.7435
X-9.1011Y-5.4335
X-9.1011Y-5.4935
X-9.1011Y-6.5585
X-9.1011Y-6.6185
X-9.1011Y-7.3085
X-9.1011Y-7.3685
X-9.1011Y-8.0585
X-9.1011Y-8.1185
X-9.1011Y-8.8085
X-9.1011Y-8.8685
X-8.8261Y-9.4585
X-8.8261Y-9.5185
X-8.4511Y-1.9585
X-8.4511Y-2.0185
X-8.4511Y-3.0835
X-8.4511Y-3.1435
X-8.4511Y-3.8335
X-8.4511Y-3.8935
X-8.4511Y-4.5835
X-8.4511Y-4.6435
X-8.4511Y-5.3335
X-8.4511Y-5.3935
X-8.4511Y-6.4585
X-8.4511Y-6.5185
X-8.4511Y-7.2085
X-8.4511Y-7.2685
X-8.4511Y-7.9585
X-8.4511Y-8.0185
X-8.4511Y-8.7085
X-8.4511Y-8.7685
X-7.9761Y-2.0585
X-7.9761Y-2.1185
X-7.9761Y-3.1835
X-7.9761Y-3.2435
X-7.9761Y-4.3085
X-7.9761Y-4.3685
X-7.9761Y-5.4335
X-7.9761Y-5.4935
X-7.9761Y-6.5585
X-7.9761Y-6.6185
X-7.7886Y-8.8085
X-7.7886Y-8.8685
X-7.3261Y-1.9585
X-7.3261Y-2.0185
X-7.3261Y-3.0835
X-7.3261Y-3.1435
X-7.3261Y-4.2085
X-7.3261Y-4.2685
X-7.3261Y-5.3335
X-7.3261Y-5.3935
X-7.3261Y-6.4585
X-7.3261Y-6.5185
X-7.1386Y-8.7085
X-7.1386Y-8.7685
X-7.1324Y-2.0585
X-7.1324Y-2.1185
X-7.0386Y-3.1835
X-7.0386Y-3.2435
X-7.0386Y-3.9335
X-7.0386Y-3.9935
X-7.0386Y-4.6835
X-7.0386Y-4.7435
X-7.0386Y-5.4335
X-7.0386Y-5.4935
X-7.0386Y-6.5585
X-7.0386Y-6.6185
X-7.0386Y-8.0585
X-7.0386Y-8.1185
X-7.0386Y-8.8085
X-7.0386Y-8.8685
X-7.0386Y-9.5585
X-7.0386Y-9.6185
X-6.4824Y-1.9585
X-6.4824Y-2.0185
X-6.3886Y-3.0835
X-6.3886Y-3.1435
X-6.3886Y-3.8335
X-6.3886Y-3.8935
X-6.3886Y-4.5835
X-6.3886Y-4.6435
X-6.3886Y-5.3335
X-6.3886Y-5.3935
X-6.3886Y-6.4585
X-6.3886Y-6.5185
X-6.3886Y-7.9585
X-6.3886Y-8.0185
X-6.3886Y-8.7085
X-6.3886Y-8.7685
X-6.3886Y-9.4585
X-6.3886Y-9.5185
X-6.2886Y-2.0585
X-6.2886Y-2.1185
X-6.2886Y-5.4335
X-6.2886Y-5.4935
X-6.2886Y-6.5585
X-6.2886Y-6.6185
X-6.2886Y-8.8085
X-6.2886Y-8.8685
X-5.6386Y-1.9585
X-5.6386Y-2.0185
X-5.6386Y-5.3335
X-5.6386Y-5.3935
X-5.6386Y-6.4585
X-5.6386Y-6.5185
X-5.6386Y-8.7085
X-5.6386Y-8.7685
T4
X-13.0261Y-2.0885
X-13.0261Y-3.2135
X-13.0261Y-3.9635
X-13.0261Y-4.7135
X-13.0261Y-5.4635
X-13.0261Y-6.5885
X-13.0261Y-7.526
X-13.0261Y-8.4635
X-13.0261Y-9.5885
X-12.7761Y-1.9885
X-12.7761Y-3.1135
X-12.7761Y-3.8635
X-12.7761Y-4.6135
X-12.7761Y-5.3635
X-12.7761Y-6.4885
X-12.7761Y-7.426
X-12.7761Y-8.3635
X-12.7761Y-9.4885
X-12.2761Y-2.0885
X-12.2761Y-3.2135
X-12.2761Y-3.9635
X-12.2761Y-4.7135
X-12.2761Y-5.4635
X-12.0886Y-6.5885
X-12.0886Y-7.526
X-12.0886Y-8.4635
X-12.0261Y-1.9885
X-12.0261Y-3.1135
X-12.0261Y-3.8635
X-12.0261Y-4.6135
X-12.0261Y-5.3635
X-11.8386Y-6.4885
X-11.8386Y-7.426
X-11.8386Y-8.3635
X-11.5261Y-2.0885
X-11.5261Y-3.2135
X-11.5261Y-3.9635
X-11.5261Y-4.7135
X-11.5261Y-5.4635
X-11.2761Y-1.9885
X-11.2761Y-3.1135
X-11.2761Y-3.8635
X-11.2761Y-4.6135
X-11.2761Y-5.3635
X-11.1511Y-6.5885
X-11.1511Y-7.3385
X-11.1511Y-8.0885
X-11.1511Y-8.8385
X-11.1511Y-9.5885
X-10.9011Y-6.4885
X-10.9011Y-7.2385
X-10.9011Y-7.9885
X-10.9011Y-8.7385
X-10.9011Y-9.4885
X-10.4011Y-2.0885
X-10.4011Y-3.2135
X-10.4011Y-3.9635
X-10.4011Y-4.7135
X-10.4011Y-5.4635
X-10.4011Y-6.5885
X-10.4011Y-7.3385
X-10.4011Y-8.0885
X-10.4011Y-8.8385
X-10.1511Y-1.9885
X-10.1511Y-3.1135
X-10.1511Y-3.8635
X-10.1511Y-4.6135
X-10.1511Y-5.3635
X-10.1511Y-6.4885
X-10.1511Y-7.2385
X-10.1511Y-7.9885
X-10.1511Y-8.7385
X-9.6511Y-2.0885
X-9.6511Y-3.2135
X-9.6511Y-3.9635
X-9.6511Y-4.7135
X-9.6511Y-5.4635
X-9.6511Y-6.5885
X-9.6511Y-7.3385
X-9.6511Y-8.0885
X-9.6511Y-8.8385
X-9.4011Y-1.9885
X-9.4011Y-3.1135
X-9.4011Y-3.8635
X-9.4011Y-4.6135
X-9.4011Y-5.3635
X-9.4011Y-6.4885
X-9.4011Y-7.2385
X-9.4011Y-7.9885
X-9.4011Y-8.7385
X-9.2761Y-9.5885
X-9.0261Y-9.4885
X-8.9011Y-2.0885
X-8.9011Y-3.2135
X-8.9011Y-3.9635
X-8.9011Y-4.7135
X-8.9011Y-5.4635
X-8.9011Y-6.5885
X-8.9011Y-7.3385
X-8.9011Y-8.0885
X-8.9011Y-8.8385
X-8.6511Y-1.9885
X-8.6511Y-3.1135
X-8.6511Y-3.8635
X-8.6511Y-4.6135
X-8.6511Y-5.3635
X-8.6511Y-6.4885
X-8.6511Y-7.2385
X-8.6511Y-7.9885
X-8.6511Y-8.7385
X-7.7761Y-2.0885
X-7.7761Y-3.2135
X-7.7761Y-4.3385
X-7.7761Y-5.4635
X-7.7761Y-6.5885
X-7.5886Y-8.8385
X-7.5261Y-1.9885
X-7.5261Y-3.1135
X-7.5261Y-4.2385
X-7.5261Y-5.3635
X-7.5261Y-6.4885
X-7.3386Y-8.7385
X-6.9324Y-2.0885
X-6.8386Y-3.2135
X-6.8386Y-3.9635
X-6.8386Y-4.7135
X-6.8386Y-5.4635
X-6.8386Y-6.5885
X-6.8386Y-8.0885
X-6.8386Y-8.8385
X-6.8386Y-9.5885
X-6.6824Y-1.9885
X-6.5886Y-3.1135
X-6.5886Y-3.8635
X-6.5886Y-4.6135
X-6.5886Y-5.3635
X-6.5886Y-6.4885
X-6.5886Y-7.9885
X-6.5886Y-8.7385
X-6.5886Y-9.4885
X-6.0886Y-2.0885
X-6.0886Y-5.4635
X-6.0886Y-6.5885
X-6.0886Y-8.8385
X-5.8386Y-1.9885
X-5.8386Y-5.3635
X-5.8386Y-6.4885
X-5.8386Y-8.7385
T3
G00X-8.3312Y-1.8514
M15
G01X-8.3312Y-1.8986
M16
G05
G00X-8.3312Y-2.0285
M15
G01X-8.3312Y-2.0758
M16
G05
G00X-8.0438Y-1.8514
M15
G01X-8.0438Y-1.8986
M16
G05
G00X-8.0438Y-2.0285
M15
G01X-8.0438Y-2.0758
M16
G05
T0
M30
