%TF.GenerationSoftware,KiCad,Pcbnew,(6.0.11)*%
%TF.CreationDate,2023-02-04T13:18:20-08:00*%
%TF.ProjectId,MA Command Keyboard changed footprint,4d412043-6f6d-46d6-916e-64204b657962,rev?*%
%TF.SameCoordinates,Original*%
%TF.FileFunction,Soldermask,Bot*%
%TF.FilePolarity,Negative*%
%FSLAX46Y46*%
G04 Gerber Fmt 4.6, Leading zero omitted, Abs format (unit mm)*
G04 Created by KiCad (PCBNEW (6.0.11)) date 2023-02-04 13:18:20*
%MOMM*%
%LPD*%
G01*
G04 APERTURE LIST*
G04 Aperture macros list*
%AMRoundRect*
0 Rectangle with rounded corners*
0 $1 Rounding radius*
0 $2 $3 $4 $5 $6 $7 $8 $9 X,Y pos of 4 corners*
0 Add a 4 corners polygon primitive as box body*
4,1,4,$2,$3,$4,$5,$6,$7,$8,$9,$2,$3,0*
0 Add four circle primitives for the rounded corners*
1,1,$1+$1,$2,$3*
1,1,$1+$1,$4,$5*
1,1,$1+$1,$6,$7*
1,1,$1+$1,$8,$9*
0 Add four rect primitives between the rounded corners*
20,1,$1+$1,$2,$3,$4,$5,0*
20,1,$1+$1,$4,$5,$6,$7,0*
20,1,$1+$1,$6,$7,$8,$9,0*
20,1,$1+$1,$8,$9,$2,$3,0*%
G04 Aperture macros list end*
%ADD10R,2.550000X2.500000*%
%ADD11C,1.750000*%
%ADD12C,3.987800*%
%ADD13C,4.000000*%
%ADD14C,3.048000*%
%ADD15R,0.900000X1.200000*%
%ADD16RoundRect,0.250000X-0.475000X0.250000X-0.475000X-0.250000X0.475000X-0.250000X0.475000X0.250000X0*%
%ADD17RoundRect,0.250000X0.475000X-0.250000X0.475000X0.250000X-0.475000X0.250000X-0.475000X-0.250000X0*%
%ADD18R,1.400000X1.200000*%
%ADD19RoundRect,0.250000X-0.250000X-0.475000X0.250000X-0.475000X0.250000X0.475000X-0.250000X0.475000X0*%
%ADD20RoundRect,0.250000X0.450000X-0.262500X0.450000X0.262500X-0.450000X0.262500X-0.450000X-0.262500X0*%
%ADD21R,0.500000X2.250000*%
%ADD22O,1.700000X2.700000*%
%ADD23RoundRect,0.250000X0.250000X0.475000X-0.250000X0.475000X-0.250000X-0.475000X0.250000X-0.475000X0*%
%ADD24RoundRect,0.250000X-0.625000X0.375000X-0.625000X-0.375000X0.625000X-0.375000X0.625000X0.375000X0*%
%ADD25R,1.500000X0.550000*%
%ADD26R,0.550000X1.500000*%
%ADD27RoundRect,0.250000X-0.450000X0.262500X-0.450000X-0.262500X0.450000X-0.262500X0.450000X0.262500X0*%
%ADD28R,1.800000X1.100000*%
%ADD29C,0.800000*%
G04 APERTURE END LIST*
D10*
%TO.C,MX11*%
X-315088600Y-81622900D03*
D11*
X-313083600Y-84162900D03*
X-302923600Y-84162900D03*
D12*
X-308003600Y-84162900D03*
D10*
X-302188600Y-79082900D03*
D13*
X-311813600Y-81622900D03*
X-305463600Y-79082900D03*
%TD*%
D10*
%TO.C,MX61*%
X-235513600Y-202907900D03*
D11*
X-236248600Y-207987900D03*
D12*
X-241328600Y-207987900D03*
D10*
X-248413600Y-205447900D03*
D11*
X-246408600Y-207987900D03*
D13*
X-245138600Y-205447900D03*
X-238788600Y-202907900D03*
%TD*%
D11*
%TO.C,MX25*%
X-332133600Y-122262900D03*
X-321973600Y-122262900D03*
D12*
X-327053600Y-122262900D03*
D10*
X-321238600Y-117182900D03*
X-334138600Y-119722900D03*
D13*
X-330863600Y-119722900D03*
X-324513600Y-117182900D03*
%TD*%
D12*
%TO.C,MX5*%
X-241328600Y-55587900D03*
D10*
X-235513600Y-50507900D03*
D11*
X-236248600Y-55587900D03*
X-246408600Y-55587900D03*
D10*
X-248413600Y-53047900D03*
D13*
X-245138600Y-53047900D03*
X-238788600Y-50507900D03*
%TD*%
D10*
%TO.C,MX6*%
X-229363600Y-53047900D03*
D11*
X-227358600Y-55587900D03*
D12*
X-222278600Y-55587900D03*
D10*
X-216463600Y-50507900D03*
D11*
X-217198600Y-55587900D03*
D13*
X-226088600Y-53047900D03*
X-219738600Y-50507900D03*
%TD*%
D10*
%TO.C,MX51*%
X-334138600Y-191160400D03*
D11*
X-321973600Y-193700400D03*
D10*
X-321238600Y-188620400D03*
D11*
X-332133600Y-193700400D03*
D12*
X-327053600Y-193700400D03*
D13*
X-330863600Y-191160400D03*
X-324513600Y-188620400D03*
%TD*%
D12*
%TO.C,MX46*%
X-241328600Y-169887900D03*
D10*
X-248413600Y-167347900D03*
D11*
X-236248600Y-169887900D03*
X-246408600Y-169887900D03*
D10*
X-235513600Y-164807900D03*
D13*
X-245138600Y-167347900D03*
X-238788600Y-164807900D03*
%TD*%
D11*
%TO.C,MX72*%
X-227358600Y-227037900D03*
X-217198600Y-227037900D03*
D10*
X-216463600Y-221957900D03*
D12*
X-222278600Y-227037900D03*
D10*
X-229363600Y-224497900D03*
D13*
X-226088600Y-224497900D03*
X-219738600Y-221957900D03*
%TD*%
D10*
%TO.C,MX57*%
X-334138600Y-214972900D03*
X-321238600Y-212432900D03*
D11*
X-332133600Y-217512900D03*
D12*
X-327053600Y-217512900D03*
D11*
X-321973600Y-217512900D03*
D13*
X-330863600Y-214972900D03*
X-324513600Y-212432900D03*
%TD*%
D11*
%TO.C,MX19*%
X-302923600Y-103212900D03*
D10*
X-315088600Y-100672900D03*
X-302188600Y-98132900D03*
D11*
X-313083600Y-103212900D03*
D12*
X-308003600Y-103212900D03*
D13*
X-311813600Y-100672900D03*
X-305463600Y-98132900D03*
%TD*%
D10*
%TO.C,MX69*%
X-254563600Y-221957900D03*
D12*
X-260378600Y-227037900D03*
D11*
X-255298600Y-227037900D03*
X-265458600Y-227037900D03*
D10*
X-267463600Y-224497900D03*
D13*
X-264188600Y-224497900D03*
X-257838600Y-221957900D03*
%TD*%
D10*
%TO.C,MX55*%
X-248413600Y-186397900D03*
D11*
X-236248600Y-188937900D03*
D12*
X-241328600Y-188937900D03*
D10*
X-235513600Y-183857900D03*
D11*
X-246408600Y-188937900D03*
D13*
X-245138600Y-186397900D03*
X-238788600Y-183857900D03*
%TD*%
D10*
%TO.C,MX22*%
X-235513600Y-98132900D03*
D12*
X-241328600Y-103212900D03*
D11*
X-246408600Y-103212900D03*
D10*
X-248413600Y-100672900D03*
D11*
X-236248600Y-103212900D03*
D13*
X-245138600Y-100672900D03*
X-238788600Y-98132900D03*
%TD*%
D10*
%TO.C,MX9*%
X-145026100Y-50507900D03*
D11*
X-155921100Y-55587900D03*
X-145761100Y-55587900D03*
D10*
X-157926100Y-53047900D03*
D12*
X-150841100Y-55587900D03*
D13*
X-154651100Y-53047900D03*
X-148301100Y-50507900D03*
%TD*%
D10*
%TO.C,MX67*%
X-273613600Y-241007900D03*
X-286513600Y-243547900D03*
D12*
X-279428600Y-246087900D03*
D11*
X-284508600Y-246087900D03*
X-274348600Y-246087900D03*
D13*
X-283238600Y-243547900D03*
X-276888600Y-241007900D03*
%TD*%
D10*
%TO.C,MX49*%
X-176976100Y-167347900D03*
D11*
X-174971100Y-169887900D03*
D10*
X-164076100Y-164807900D03*
D12*
X-169891100Y-169887900D03*
D11*
X-164811100Y-169887900D03*
D13*
X-173701100Y-167347900D03*
X-167351100Y-164807900D03*
%TD*%
D12*
%TO.C,MX35*%
X-288953600Y-141312900D03*
D10*
X-283138600Y-136232900D03*
X-296038600Y-138772900D03*
D11*
X-294033600Y-141312900D03*
X-283873600Y-141312900D03*
D13*
X-292763600Y-138772900D03*
X-286413600Y-136232900D03*
%TD*%
D10*
%TO.C,MX36*%
X-254563600Y-136232900D03*
D11*
X-265458600Y-141312900D03*
D10*
X-267463600Y-138772900D03*
D11*
X-255298600Y-141312900D03*
D12*
X-260378600Y-141312900D03*
D13*
X-264188600Y-138772900D03*
X-257838600Y-136232900D03*
%TD*%
D10*
%TO.C,MX12*%
X-296038600Y-81622900D03*
D11*
X-294033600Y-84162900D03*
D10*
X-283138600Y-79082900D03*
D11*
X-283873600Y-84162900D03*
D12*
X-288953600Y-84162900D03*
D13*
X-292763600Y-81622900D03*
X-286413600Y-79082900D03*
%TD*%
D12*
%TO.C,MX68*%
X-279428600Y-227037900D03*
D10*
X-286513600Y-224497900D03*
D11*
X-274348600Y-227037900D03*
X-284508600Y-227037900D03*
D10*
X-273613600Y-221957900D03*
D13*
X-283238600Y-224497900D03*
X-276888600Y-221957900D03*
%TD*%
D12*
%TO.C,MX42*%
X-327053600Y-169887900D03*
D10*
X-334138600Y-167347900D03*
D11*
X-321973600Y-169887900D03*
X-332133600Y-169887900D03*
D10*
X-321238600Y-164807900D03*
D13*
X-330863600Y-167347900D03*
X-324513600Y-164807900D03*
%TD*%
D11*
%TO.C,MX52*%
X-308321100Y-193700400D03*
D10*
X-297426100Y-188620400D03*
D11*
X-298161100Y-193700400D03*
D10*
X-310326100Y-191160400D03*
D12*
X-303241100Y-193700400D03*
D13*
X-307051100Y-191160400D03*
X-300701100Y-188620400D03*
%TD*%
D12*
%TO.C,S71*%
X-243709850Y-254342900D03*
D14*
X-219897350Y-239102900D03*
D12*
X-219897350Y-254342900D03*
D14*
X-243709850Y-239102900D03*
%TD*%
D11*
%TO.C,MX15*%
X-227358600Y-84162900D03*
X-217198600Y-84162900D03*
D12*
X-222278600Y-84162900D03*
D10*
X-229363600Y-81622900D03*
X-216463600Y-79082900D03*
D13*
X-226088600Y-81622900D03*
X-219738600Y-79082900D03*
%TD*%
D12*
%TO.C,MX14*%
X-241328600Y-84162900D03*
D10*
X-248413600Y-81622900D03*
X-235513600Y-79082900D03*
D11*
X-236248600Y-84162900D03*
X-246408600Y-84162900D03*
D13*
X-245138600Y-81622900D03*
X-238788600Y-79082900D03*
%TD*%
D11*
%TO.C,MX53*%
X-284508600Y-188937900D03*
D10*
X-273613600Y-183857900D03*
D12*
X-279428600Y-188937900D03*
D11*
X-274348600Y-188937900D03*
D10*
X-286513600Y-186397900D03*
D13*
X-283238600Y-186397900D03*
X-276888600Y-183857900D03*
%TD*%
D10*
%TO.C,MX40*%
X-176976100Y-138772900D03*
D12*
X-169891100Y-141312900D03*
D11*
X-174971100Y-141312900D03*
X-164811100Y-141312900D03*
D10*
X-164076100Y-136232900D03*
D13*
X-173701100Y-138772900D03*
X-167351100Y-136232900D03*
%TD*%
D11*
%TO.C,MX66*%
X-332133600Y-246087900D03*
X-321973600Y-246087900D03*
D12*
X-327053600Y-246087900D03*
D10*
X-334138600Y-243547900D03*
X-321238600Y-241007900D03*
D13*
X-330863600Y-243547900D03*
X-324513600Y-241007900D03*
%TD*%
D11*
%TO.C,MX10*%
X-332133600Y-84162900D03*
D10*
X-334138600Y-81622900D03*
X-321238600Y-79082900D03*
D12*
X-327053600Y-84162900D03*
D11*
X-321973600Y-84162900D03*
D13*
X-330863600Y-81622900D03*
X-324513600Y-79082900D03*
%TD*%
D10*
%TO.C,MX21*%
X-254563600Y-98132900D03*
D12*
X-260378600Y-103212900D03*
D10*
X-267463600Y-100672900D03*
D11*
X-255298600Y-103212900D03*
X-265458600Y-103212900D03*
D13*
X-264188600Y-100672900D03*
X-257838600Y-98132900D03*
%TD*%
D12*
%TO.C,MX62*%
X-222278600Y-207987900D03*
D10*
X-216463600Y-202907900D03*
D11*
X-217198600Y-207987900D03*
D10*
X-229363600Y-205447900D03*
D11*
X-227358600Y-207987900D03*
D13*
X-226088600Y-205447900D03*
X-219738600Y-202907900D03*
%TD*%
D11*
%TO.C,MX32*%
X-174971100Y-122262900D03*
D12*
X-169891100Y-122262900D03*
D11*
X-164811100Y-122262900D03*
D10*
X-176976100Y-119722900D03*
X-164076100Y-117182900D03*
D13*
X-173701100Y-119722900D03*
X-167351100Y-117182900D03*
%TD*%
D11*
%TO.C,MX56*%
X-217198600Y-188937900D03*
D10*
X-229363600Y-186397900D03*
D11*
X-227358600Y-188937900D03*
D12*
X-222278600Y-188937900D03*
D10*
X-216463600Y-183857900D03*
D13*
X-226088600Y-186397900D03*
X-219738600Y-183857900D03*
%TD*%
D12*
%TO.C,MX38*%
X-222278600Y-141312900D03*
D10*
X-216463600Y-136232900D03*
D11*
X-217198600Y-141312900D03*
X-227358600Y-141312900D03*
D10*
X-229363600Y-138772900D03*
D13*
X-226088600Y-138772900D03*
X-219738600Y-136232900D03*
%TD*%
D10*
%TO.C,MX44*%
X-286513600Y-167347900D03*
X-273613600Y-164807900D03*
D11*
X-284508600Y-169887900D03*
X-274348600Y-169887900D03*
D12*
X-279428600Y-169887900D03*
D13*
X-283238600Y-167347900D03*
X-276888600Y-164807900D03*
%TD*%
D10*
%TO.C,MX74*%
X-176976100Y-224497900D03*
D11*
X-164811100Y-227037900D03*
D12*
X-169891100Y-227037900D03*
D11*
X-174971100Y-227037900D03*
D10*
X-164076100Y-221957900D03*
D13*
X-173701100Y-224497900D03*
X-167351100Y-221957900D03*
%TD*%
D11*
%TO.C,MX28*%
X-265458600Y-122262900D03*
D10*
X-267463600Y-119722900D03*
X-254563600Y-117182900D03*
D11*
X-255298600Y-122262900D03*
D12*
X-260378600Y-122262900D03*
D13*
X-264188600Y-119722900D03*
X-257838600Y-117182900D03*
%TD*%
D10*
%TO.C,MX30*%
X-229363600Y-119722900D03*
X-216463600Y-117182900D03*
D12*
X-222278600Y-122262900D03*
D11*
X-217198600Y-122262900D03*
X-227358600Y-122262900D03*
D13*
X-226088600Y-119722900D03*
X-219738600Y-117182900D03*
%TD*%
D11*
%TO.C,MX63*%
X-194021100Y-227037900D03*
X-183861100Y-227037900D03*
D12*
X-188941100Y-227037900D03*
D10*
X-196026100Y-224497900D03*
X-183126100Y-221957900D03*
D13*
X-192751100Y-224497900D03*
X-186401100Y-221957900D03*
%TD*%
D10*
%TO.C,MX60*%
X-267463600Y-205447900D03*
D11*
X-265458600Y-207987900D03*
X-255298600Y-207987900D03*
D12*
X-260378600Y-207987900D03*
D10*
X-254563600Y-202907900D03*
D13*
X-264188600Y-205447900D03*
X-257838600Y-202907900D03*
%TD*%
D11*
%TO.C,MX45*%
X-265458600Y-169887900D03*
D12*
X-260378600Y-169887900D03*
D10*
X-267463600Y-167347900D03*
X-254563600Y-164807900D03*
D11*
X-255298600Y-169887900D03*
D13*
X-264188600Y-167347900D03*
X-257838600Y-164807900D03*
%TD*%
D10*
%TO.C,MX64*%
X-176976100Y-205447900D03*
X-164076100Y-202907900D03*
D11*
X-164811100Y-207987900D03*
D12*
X-169891100Y-207987900D03*
D11*
X-174971100Y-207987900D03*
D13*
X-173701100Y-205447900D03*
X-167351100Y-202907900D03*
%TD*%
D12*
%TO.C,MX26*%
X-308003600Y-122262900D03*
D11*
X-302923600Y-122262900D03*
D10*
X-302188600Y-117182900D03*
D11*
X-313083600Y-122262900D03*
D10*
X-315088600Y-119722900D03*
D13*
X-311813600Y-119722900D03*
X-305463600Y-117182900D03*
%TD*%
D11*
%TO.C,MX24*%
X-174971100Y-103212900D03*
D10*
X-164076100Y-98132900D03*
D11*
X-164811100Y-103212900D03*
D12*
X-169891100Y-103212900D03*
D10*
X-176976100Y-100672900D03*
D13*
X-173701100Y-100672900D03*
X-167351100Y-98132900D03*
%TD*%
D10*
%TO.C,MX13*%
X-267463600Y-81622900D03*
D11*
X-255298600Y-84162900D03*
D12*
X-260378600Y-84162900D03*
D10*
X-254563600Y-79082900D03*
D11*
X-265458600Y-84162900D03*
D13*
X-264188600Y-81622900D03*
X-257838600Y-79082900D03*
%TD*%
D11*
%TO.C,MX71*%
X-236883600Y-246087900D03*
X-226723600Y-246087900D03*
D10*
X-238888600Y-243547900D03*
X-225988600Y-241007900D03*
D12*
X-231803600Y-246087900D03*
D13*
X-235613600Y-243547900D03*
X-229263600Y-241007900D03*
%TD*%
D10*
%TO.C,MX37*%
X-248413600Y-138772900D03*
D12*
X-241328600Y-141312900D03*
D11*
X-236248600Y-141312900D03*
X-246408600Y-141312900D03*
D10*
X-235513600Y-136232900D03*
D13*
X-245138600Y-138772900D03*
X-238788600Y-136232900D03*
%TD*%
D11*
%TO.C,MX1*%
X-321973600Y-55587900D03*
D10*
X-321238600Y-50507900D03*
D11*
X-332133600Y-55587900D03*
D12*
X-327053600Y-55587900D03*
D10*
X-334138600Y-53047900D03*
D13*
X-330863600Y-53047900D03*
X-324513600Y-50507900D03*
%TD*%
D11*
%TO.C,MX23*%
X-217198600Y-103212900D03*
X-227358600Y-103212900D03*
D10*
X-229363600Y-100672900D03*
D12*
X-222278600Y-103212900D03*
D10*
X-216463600Y-98132900D03*
D13*
X-226088600Y-100672900D03*
X-219738600Y-98132900D03*
%TD*%
D10*
%TO.C,MX47*%
X-229363600Y-167347900D03*
D11*
X-227358600Y-169887900D03*
D10*
X-216463600Y-164807900D03*
D11*
X-217198600Y-169887900D03*
D12*
X-222278600Y-169887900D03*
D13*
X-226088600Y-167347900D03*
X-219738600Y-164807900D03*
%TD*%
D11*
%TO.C,MX3*%
X-283873600Y-55587900D03*
D10*
X-283138600Y-50507900D03*
X-296038600Y-53047900D03*
D12*
X-288953600Y-55587900D03*
D11*
X-294033600Y-55587900D03*
D13*
X-292763600Y-53047900D03*
X-286413600Y-50507900D03*
%TD*%
D10*
%TO.C,MX70*%
X-248413600Y-224497900D03*
D11*
X-236248600Y-227037900D03*
D10*
X-235513600Y-221957900D03*
D11*
X-246408600Y-227037900D03*
D12*
X-241328600Y-227037900D03*
D13*
X-245138600Y-224497900D03*
X-238788600Y-221957900D03*
%TD*%
D10*
%TO.C,MX16*%
X-187888600Y-79082900D03*
D11*
X-188623600Y-84162900D03*
X-198783600Y-84162900D03*
D10*
X-200788600Y-81622900D03*
D12*
X-193703600Y-84162900D03*
D13*
X-197513600Y-81622900D03*
X-191163600Y-79082900D03*
%TD*%
D10*
%TO.C,MX8*%
X-179357300Y-53047900D03*
D11*
X-177352300Y-55587900D03*
X-167192300Y-55587900D03*
D10*
X-166457300Y-50507900D03*
D12*
X-172272300Y-55587900D03*
D13*
X-176082300Y-53047900D03*
X-169732300Y-50507900D03*
%TD*%
D11*
%TO.C,MX33*%
X-321973600Y-141312900D03*
X-332133600Y-141312900D03*
D10*
X-334138600Y-138772900D03*
X-321238600Y-136232900D03*
D12*
X-327053600Y-141312900D03*
D13*
X-330863600Y-138772900D03*
X-324513600Y-136232900D03*
%TD*%
D11*
%TO.C,MX2*%
X-313083600Y-55587900D03*
D10*
X-315088600Y-53047900D03*
D12*
X-308003600Y-55587900D03*
D10*
X-302188600Y-50507900D03*
D11*
X-302923600Y-55587900D03*
D13*
X-311813600Y-53047900D03*
X-305463600Y-50507900D03*
%TD*%
D10*
%TO.C,MX27*%
X-296038600Y-119722900D03*
D11*
X-294033600Y-122262900D03*
X-283873600Y-122262900D03*
D12*
X-288953600Y-122262900D03*
D10*
X-283138600Y-117182900D03*
D13*
X-292763600Y-119722900D03*
X-286413600Y-117182900D03*
%TD*%
D10*
%TO.C,MX31*%
X-187888600Y-107657900D03*
D12*
X-193703600Y-112737900D03*
D11*
X-198783600Y-112737900D03*
D10*
X-200788600Y-110197900D03*
D11*
X-188623600Y-112737900D03*
D13*
X-197513600Y-110197900D03*
X-191163600Y-107657900D03*
%TD*%
D10*
%TO.C,MX50*%
X-145026100Y-164807900D03*
D12*
X-150841100Y-169887900D03*
D11*
X-155921100Y-169887900D03*
D10*
X-157926100Y-167347900D03*
D11*
X-145761100Y-169887900D03*
D13*
X-154651100Y-167347900D03*
X-148301100Y-164807900D03*
%TD*%
D10*
%TO.C,MX41*%
X-157926100Y-138772900D03*
D12*
X-150841100Y-141312900D03*
D10*
X-145026100Y-136232900D03*
D11*
X-155921100Y-141312900D03*
X-145761100Y-141312900D03*
D13*
X-154651100Y-138772900D03*
X-148301100Y-136232900D03*
%TD*%
D10*
%TO.C,MX59*%
X-286513600Y-205447900D03*
D11*
X-284508600Y-207987900D03*
X-274348600Y-207987900D03*
D12*
X-279428600Y-207987900D03*
D10*
X-273613600Y-202907900D03*
D13*
X-283238600Y-205447900D03*
X-276888600Y-202907900D03*
%TD*%
D12*
%TO.C,MX65*%
X-150841100Y-227037900D03*
D11*
X-155921100Y-227037900D03*
D10*
X-145026100Y-221957900D03*
D11*
X-145761100Y-227037900D03*
D10*
X-157926100Y-224497900D03*
D13*
X-154651100Y-224497900D03*
X-148301100Y-221957900D03*
%TD*%
D11*
%TO.C,MX48*%
X-198783600Y-169887900D03*
X-188623600Y-169887900D03*
D10*
X-187888600Y-164807900D03*
X-200788600Y-167347900D03*
D12*
X-193703600Y-169887900D03*
D13*
X-197513600Y-167347900D03*
X-191163600Y-164807900D03*
%TD*%
D10*
%TO.C,MX58*%
X-297426100Y-212432900D03*
D12*
X-303241100Y-217512900D03*
D10*
X-310326100Y-214972900D03*
D11*
X-308321100Y-217512900D03*
X-298161100Y-217512900D03*
D13*
X-307051100Y-214972900D03*
X-300701100Y-212432900D03*
%TD*%
D11*
%TO.C,MX73*%
X-164811100Y-246087900D03*
D10*
X-164076100Y-241007900D03*
X-176976100Y-243547900D03*
D12*
X-169891100Y-246087900D03*
D11*
X-174971100Y-246087900D03*
D13*
X-173701100Y-243547900D03*
X-167351100Y-241007900D03*
%TD*%
D11*
%TO.C,MX20*%
X-294033600Y-103212900D03*
D10*
X-283138600Y-98132900D03*
D12*
X-288953600Y-103212900D03*
D10*
X-296038600Y-100672900D03*
D11*
X-283873600Y-103212900D03*
D13*
X-292763600Y-100672900D03*
X-286413600Y-98132900D03*
%TD*%
D10*
%TO.C,MX43*%
X-310326100Y-167347900D03*
D11*
X-308321100Y-169887900D03*
D12*
X-303241100Y-169887900D03*
D10*
X-297426100Y-164807900D03*
D11*
X-298161100Y-169887900D03*
D13*
X-307051100Y-167347900D03*
X-300701100Y-164807900D03*
%TD*%
D10*
%TO.C,MX34*%
X-302188600Y-136232900D03*
D11*
X-313083600Y-141312900D03*
D12*
X-308003600Y-141312900D03*
D11*
X-302923600Y-141312900D03*
D10*
X-315088600Y-138772900D03*
D13*
X-311813600Y-138772900D03*
X-305463600Y-136232900D03*
%TD*%
D11*
%TO.C,MX39*%
X-188623600Y-141312900D03*
D10*
X-200788600Y-138772900D03*
D12*
X-193703600Y-141312900D03*
D11*
X-198783600Y-141312900D03*
D10*
X-187888600Y-136232900D03*
D13*
X-197513600Y-138772900D03*
X-191163600Y-136232900D03*
%TD*%
D10*
%TO.C,MX17*%
X-164076100Y-79082900D03*
D11*
X-164811100Y-84162900D03*
D12*
X-169891100Y-84162900D03*
D10*
X-176976100Y-81622900D03*
D11*
X-174971100Y-84162900D03*
D13*
X-173701100Y-81622900D03*
X-167351100Y-79082900D03*
%TD*%
D11*
%TO.C,MX4*%
X-255298600Y-55587900D03*
X-265458600Y-55587900D03*
D10*
X-267463600Y-53047900D03*
D12*
X-260378600Y-55587900D03*
D10*
X-254563600Y-50507900D03*
D13*
X-264188600Y-53047900D03*
X-257838600Y-50507900D03*
%TD*%
D10*
%TO.C,MX7*%
X-200788600Y-53047900D03*
D12*
X-193703600Y-55587900D03*
D10*
X-187888600Y-50507900D03*
D11*
X-188623600Y-55587900D03*
X-198783600Y-55587900D03*
D13*
X-197513600Y-53047900D03*
X-191163600Y-50507900D03*
%TD*%
D11*
%TO.C,MX18*%
X-321973600Y-103212900D03*
D12*
X-327053600Y-103212900D03*
D10*
X-334138600Y-100672900D03*
X-321238600Y-98132900D03*
D11*
X-332133600Y-103212900D03*
D13*
X-330863600Y-100672900D03*
X-324513600Y-98132900D03*
%TD*%
D10*
%TO.C,MX54*%
X-254563600Y-183857900D03*
D11*
X-265458600Y-188937900D03*
D10*
X-267463600Y-186397900D03*
D11*
X-255298600Y-188937900D03*
D12*
X-260378600Y-188937900D03*
D13*
X-264188600Y-186397900D03*
X-257838600Y-183857900D03*
%TD*%
D11*
%TO.C,MX29*%
X-246408600Y-122262900D03*
D12*
X-241328600Y-122262900D03*
D10*
X-248413600Y-119722900D03*
D11*
X-236248600Y-122262900D03*
D10*
X-235513600Y-117182900D03*
D13*
X-245138600Y-119722900D03*
X-238788600Y-117182900D03*
%TD*%
D15*
%TO.C,D24*%
X-171566500Y-108204000D03*
X-168266500Y-108204000D03*
%TD*%
%TO.C,D53*%
X-281104000Y-193929000D03*
X-277804000Y-193929000D03*
%TD*%
%TO.C,D29*%
X-243004000Y-127254000D03*
X-239704000Y-127254000D03*
%TD*%
D16*
%TO.C,C5*%
X-208131200Y-200662500D03*
X-208131200Y-202562500D03*
%TD*%
D15*
%TO.C,D6*%
X-223954000Y-60579000D03*
X-220654000Y-60579000D03*
%TD*%
D17*
%TO.C,C1*%
X-202680000Y-210480000D03*
X-202680000Y-208580000D03*
%TD*%
D18*
%TO.C,Y1*%
X-200641500Y-208700000D03*
X-198441500Y-208700000D03*
X-198441500Y-210400000D03*
X-200641500Y-210400000D03*
%TD*%
D15*
%TO.C,D33*%
X-328729000Y-146304000D03*
X-325429000Y-146304000D03*
%TD*%
%TO.C,D13*%
X-262054000Y-89154000D03*
X-258754000Y-89154000D03*
%TD*%
%TO.C,D11*%
X-309679000Y-89154000D03*
X-306379000Y-89154000D03*
%TD*%
%TO.C,D9*%
X-152516500Y-60579000D03*
X-149216500Y-60579000D03*
%TD*%
%TO.C,D19*%
X-309679000Y-108204000D03*
X-306379000Y-108204000D03*
%TD*%
%TO.C,D52*%
X-304916500Y-198691500D03*
X-301616500Y-198691500D03*
%TD*%
D19*
%TO.C,C4*%
X-204786300Y-188060000D03*
X-202886300Y-188060000D03*
%TD*%
D20*
%TO.C,R3*%
X-186531200Y-206493700D03*
X-186531200Y-204668700D03*
%TD*%
D15*
%TO.C,D8*%
X-173947700Y-60579000D03*
X-170647700Y-60579000D03*
%TD*%
%TO.C,D73*%
X-171566500Y-251079000D03*
X-168266500Y-251079000D03*
%TD*%
%TO.C,D39*%
X-195379000Y-146304000D03*
X-192079000Y-146304000D03*
%TD*%
%TO.C,D59*%
X-281104000Y-212979000D03*
X-277804000Y-212979000D03*
%TD*%
%TO.C,D34*%
X-309679000Y-146304000D03*
X-306379000Y-146304000D03*
%TD*%
%TO.C,D54*%
X-262054000Y-193929000D03*
X-258754000Y-193929000D03*
%TD*%
%TO.C,D15*%
X-223954000Y-89154000D03*
X-220654000Y-89154000D03*
%TD*%
%TO.C,D63*%
X-190616500Y-232029000D03*
X-187316500Y-232029000D03*
%TD*%
%TO.C,D36*%
X-262054000Y-146304000D03*
X-258754000Y-146304000D03*
%TD*%
%TO.C,D62*%
X-223954000Y-212979000D03*
X-220654000Y-212979000D03*
%TD*%
D21*
%TO.C,USB1*%
X-206362500Y-52125000D03*
X-207162500Y-52125000D03*
X-207962500Y-52125000D03*
X-208762500Y-52125000D03*
X-209562500Y-52125000D03*
D22*
X-204312500Y-47625000D03*
X-211612500Y-52125000D03*
X-211612500Y-47625000D03*
X-204312500Y-52125000D03*
%TD*%
D15*
%TO.C,D31*%
X-195379000Y-117729000D03*
X-192079000Y-117729000D03*
%TD*%
%TO.C,D22*%
X-243004000Y-108204000D03*
X-239704000Y-108204000D03*
%TD*%
%TO.C,D17*%
X-171566500Y-89154000D03*
X-168266500Y-89154000D03*
%TD*%
%TO.C,D14*%
X-243004000Y-89154000D03*
X-239704000Y-89154000D03*
%TD*%
%TO.C,D4*%
X-262054000Y-60579000D03*
X-258754000Y-60579000D03*
%TD*%
D16*
%TO.C,C2*%
X-195800000Y-208600000D03*
X-195800000Y-210500000D03*
%TD*%
D15*
%TO.C,D3*%
X-290629000Y-60579000D03*
X-287329000Y-60579000D03*
%TD*%
%TO.C,D23*%
X-223954000Y-108204000D03*
X-220654000Y-108204000D03*
%TD*%
%TO.C,D43*%
X-304916500Y-174879000D03*
X-301616500Y-174879000D03*
%TD*%
%TO.C,D51*%
X-328729000Y-198691500D03*
X-325429000Y-198691500D03*
%TD*%
%TO.C,D64*%
X-171566500Y-212979000D03*
X-168266500Y-212979000D03*
%TD*%
%TO.C,D55*%
X-243004000Y-193929000D03*
X-239704000Y-193929000D03*
%TD*%
%TO.C,D61*%
X-243004000Y-212979000D03*
X-239704000Y-212979000D03*
%TD*%
%TO.C,D70*%
X-243004000Y-232029000D03*
X-239704000Y-232029000D03*
%TD*%
%TO.C,D28*%
X-262054000Y-127254000D03*
X-258754000Y-127254000D03*
%TD*%
%TO.C,D21*%
X-262054000Y-108204000D03*
X-258754000Y-108204000D03*
%TD*%
%TO.C,D44*%
X-281104000Y-174879000D03*
X-277804000Y-174879000D03*
%TD*%
%TO.C,D40*%
X-171566500Y-146304000D03*
X-168266500Y-146304000D03*
%TD*%
%TO.C,D41*%
X-152516500Y-146304000D03*
X-149216500Y-146304000D03*
%TD*%
%TO.C,D7*%
X-195379000Y-60579000D03*
X-192079000Y-60579000D03*
%TD*%
%TO.C,D65*%
X-152516500Y-232029000D03*
X-149216500Y-232029000D03*
%TD*%
%TO.C,D69*%
X-262054000Y-232029000D03*
X-258754000Y-232029000D03*
%TD*%
%TO.C,D18*%
X-328729000Y-108204000D03*
X-325429000Y-108204000D03*
%TD*%
%TO.C,D26*%
X-309679000Y-127254000D03*
X-306379000Y-127254000D03*
%TD*%
D16*
%TO.C,C6*%
X-189875000Y-204631200D03*
X-189875000Y-206531200D03*
%TD*%
D15*
%TO.C,D71*%
X-233479000Y-251079000D03*
X-230179000Y-251079000D03*
%TD*%
%TO.C,D47*%
X-223954000Y-174879000D03*
X-220654000Y-174879000D03*
%TD*%
%TO.C,D25*%
X-328729000Y-127254000D03*
X-325429000Y-127254000D03*
%TD*%
%TO.C,D5*%
X-243004000Y-60579000D03*
X-239704000Y-60579000D03*
%TD*%
%TO.C,D20*%
X-290629000Y-108204000D03*
X-287329000Y-108204000D03*
%TD*%
D23*
%TO.C,C7*%
X-194051200Y-188060000D03*
X-195951200Y-188060000D03*
%TD*%
D15*
%TO.C,D42*%
X-328729000Y-174879000D03*
X-325429000Y-174879000D03*
%TD*%
D24*
%TO.C,F1*%
X-212344000Y-55937500D03*
X-212344000Y-58737500D03*
%TD*%
D15*
%TO.C,D66*%
X-328729000Y-251079000D03*
X-325429000Y-251079000D03*
%TD*%
%TO.C,D46*%
X-243004000Y-174879000D03*
X-239704000Y-174879000D03*
%TD*%
%TO.C,D50*%
X-152516500Y-174879000D03*
X-149216500Y-174879000D03*
%TD*%
%TO.C,D58*%
X-304916500Y-222504000D03*
X-301616500Y-222504000D03*
%TD*%
%TO.C,D45*%
X-262054000Y-174879000D03*
X-258754000Y-174879000D03*
%TD*%
%TO.C,D74*%
X-171566500Y-232029000D03*
X-168266500Y-232029000D03*
%TD*%
%TO.C,D72*%
X-223954000Y-232029000D03*
X-220654000Y-232029000D03*
%TD*%
D20*
%TO.C,R4*%
X-208280000Y-192936500D03*
X-208280000Y-191111500D03*
%TD*%
D15*
%TO.C,D37*%
X-243004000Y-146304000D03*
X-239704000Y-146304000D03*
%TD*%
%TO.C,D1*%
X-328729000Y-60579000D03*
X-325429000Y-60579000D03*
%TD*%
%TO.C,D48*%
X-195379000Y-174879000D03*
X-192079000Y-174879000D03*
%TD*%
D25*
%TO.C,U1*%
X-193531200Y-192850000D03*
X-193531200Y-193650000D03*
X-193531200Y-194450000D03*
X-193531200Y-195250000D03*
X-193531200Y-196050000D03*
X-193531200Y-196850000D03*
X-193531200Y-197650000D03*
X-193531200Y-198450000D03*
X-193531200Y-199250000D03*
X-193531200Y-200050000D03*
X-193531200Y-200850000D03*
D26*
X-195231200Y-202550000D03*
X-196031200Y-202550000D03*
X-196831200Y-202550000D03*
X-197631200Y-202550000D03*
X-198431200Y-202550000D03*
X-199231200Y-202550000D03*
X-200031200Y-202550000D03*
X-200831200Y-202550000D03*
X-201631200Y-202550000D03*
X-202431200Y-202550000D03*
X-203231200Y-202550000D03*
D25*
X-204931200Y-200850000D03*
X-204931200Y-200050000D03*
X-204931200Y-199250000D03*
X-204931200Y-198450000D03*
X-204931200Y-197650000D03*
X-204931200Y-196850000D03*
X-204931200Y-196050000D03*
X-204931200Y-195250000D03*
X-204931200Y-194450000D03*
X-204931200Y-193650000D03*
X-204931200Y-192850000D03*
D26*
X-203231200Y-191150000D03*
X-202431200Y-191150000D03*
X-201631200Y-191150000D03*
X-200831200Y-191150000D03*
X-200031200Y-191150000D03*
X-199231200Y-191150000D03*
X-198431200Y-191150000D03*
X-197631200Y-191150000D03*
X-196831200Y-191150000D03*
X-196031200Y-191150000D03*
X-195231200Y-191150000D03*
%TD*%
D15*
%TO.C,D30*%
X-223954000Y-127254000D03*
X-220654000Y-127254000D03*
%TD*%
%TO.C,D56*%
X-223954000Y-193929000D03*
X-220654000Y-193929000D03*
%TD*%
%TO.C,D49*%
X-171566500Y-174879000D03*
X-168266500Y-174879000D03*
%TD*%
%TO.C,D27*%
X-290629000Y-127254000D03*
X-287329000Y-127254000D03*
%TD*%
D27*
%TO.C,R2*%
X-207370000Y-59200000D03*
X-207370000Y-61025000D03*
%TD*%
D15*
%TO.C,D2*%
X-309679000Y-60579000D03*
X-306379000Y-60579000D03*
%TD*%
%TO.C,D38*%
X-223954000Y-146304000D03*
X-220654000Y-146304000D03*
%TD*%
%TO.C,D32*%
X-171566500Y-127254000D03*
X-168266500Y-127254000D03*
%TD*%
%TO.C,D67*%
X-281104000Y-251079000D03*
X-277804000Y-251079000D03*
%TD*%
D19*
%TO.C,C3*%
X-189068700Y-198437500D03*
X-187168700Y-198437500D03*
%TD*%
D27*
%TO.C,R1*%
X-209300000Y-59220000D03*
X-209300000Y-61045000D03*
%TD*%
D28*
%TO.C,SW1*%
X-188660000Y-214200000D03*
X-182460000Y-210500000D03*
X-188660000Y-210500000D03*
X-182460000Y-214200000D03*
%TD*%
D15*
%TO.C,D12*%
X-290629000Y-89154000D03*
X-287329000Y-89154000D03*
%TD*%
%TO.C,D10*%
X-328729000Y-89154000D03*
X-325429000Y-89154000D03*
%TD*%
%TO.C,D60*%
X-262054000Y-212979000D03*
X-258754000Y-212979000D03*
%TD*%
%TO.C,D35*%
X-290629000Y-146304000D03*
X-287329000Y-146304000D03*
%TD*%
%TO.C,D57*%
X-328729000Y-222504000D03*
X-325429000Y-222504000D03*
%TD*%
%TO.C,D16*%
X-195379000Y-89154000D03*
X-192079000Y-89154000D03*
%TD*%
%TO.C,D68*%
X-281104000Y-232029000D03*
X-277804000Y-232029000D03*
%TD*%
D29*
X-196364000Y-85737100D03*
X-190005000Y-195250000D03*
X-209901000Y-66175400D03*
X-209901000Y-180307000D03*
X-202796000Y-64516000D03*
X-212946000Y-64516000D03*
X-209296000Y-200660000D03*
X-194051000Y-189481000D03*
X-188468000Y-204724000D03*
X-204724000Y-186436000D03*
X-192024000Y-197612000D03*
X-191200000Y-193370000D03*
X-210993000Y-65937400D03*
X-210993000Y-181228000D03*
X-213874000Y-191112000D03*
M02*
