%TF.GenerationSoftware,KiCad,Pcbnew,(6.0.11)*%
%TF.CreationDate,2023-02-04T13:18:20-08:00*%
%TF.ProjectId,MA Command Keyboard changed footprint,4d412043-6f6d-46d6-916e-64204b657962,rev?*%
%TF.SameCoordinates,Original*%
%TF.FileFunction,Legend,Top*%
%TF.FilePolarity,Positive*%
%FSLAX46Y46*%
G04 Gerber Fmt 4.6, Leading zero omitted, Abs format (unit mm)*
G04 Created by KiCad (PCBNEW (6.0.11)) date 2023-02-04 13:18:20*
%MOMM*%
%LPD*%
G01*
G04 APERTURE LIST*
%ADD10C,1.750000*%
%ADD11C,3.987800*%
%ADD12C,4.000000*%
%ADD13C,3.048000*%
%ADD14O,1.700000X2.700000*%
%ADD15C,0.800000*%
G04 APERTURE END LIST*
%LPC*%
D10*
%TO.C,MX11*%
X-313083600Y-84162900D03*
X-302923600Y-84162900D03*
D11*
X-308003600Y-84162900D03*
D12*
X-311813600Y-81622900D03*
X-305463600Y-79082900D03*
%TD*%
D10*
%TO.C,MX61*%
X-236248600Y-207987900D03*
D11*
X-241328600Y-207987900D03*
D10*
X-246408600Y-207987900D03*
D12*
X-245138600Y-205447900D03*
X-238788600Y-202907900D03*
%TD*%
D10*
%TO.C,MX25*%
X-332133600Y-122262900D03*
X-321973600Y-122262900D03*
D11*
X-327053600Y-122262900D03*
D12*
X-330863600Y-119722900D03*
X-324513600Y-117182900D03*
%TD*%
D11*
%TO.C,MX5*%
X-241328600Y-55587900D03*
D10*
X-236248600Y-55587900D03*
X-246408600Y-55587900D03*
D12*
X-245138600Y-53047900D03*
X-238788600Y-50507900D03*
%TD*%
D10*
%TO.C,MX6*%
X-227358600Y-55587900D03*
D11*
X-222278600Y-55587900D03*
D10*
X-217198600Y-55587900D03*
D12*
X-226088600Y-53047900D03*
X-219738600Y-50507900D03*
%TD*%
D10*
%TO.C,MX51*%
X-321973600Y-193700400D03*
X-332133600Y-193700400D03*
D11*
X-327053600Y-193700400D03*
D12*
X-330863600Y-191160400D03*
X-324513600Y-188620400D03*
%TD*%
D11*
%TO.C,MX46*%
X-241328600Y-169887900D03*
D10*
X-236248600Y-169887900D03*
X-246408600Y-169887900D03*
D12*
X-245138600Y-167347900D03*
X-238788600Y-164807900D03*
%TD*%
D10*
%TO.C,MX72*%
X-227358600Y-227037900D03*
X-217198600Y-227037900D03*
D11*
X-222278600Y-227037900D03*
D12*
X-226088600Y-224497900D03*
X-219738600Y-221957900D03*
%TD*%
D10*
%TO.C,MX57*%
X-332133600Y-217512900D03*
D11*
X-327053600Y-217512900D03*
D10*
X-321973600Y-217512900D03*
D12*
X-330863600Y-214972900D03*
X-324513600Y-212432900D03*
%TD*%
D10*
%TO.C,MX19*%
X-302923600Y-103212900D03*
X-313083600Y-103212900D03*
D11*
X-308003600Y-103212900D03*
D12*
X-311813600Y-100672900D03*
X-305463600Y-98132900D03*
%TD*%
D11*
%TO.C,MX69*%
X-260378600Y-227037900D03*
D10*
X-255298600Y-227037900D03*
X-265458600Y-227037900D03*
D12*
X-264188600Y-224497900D03*
X-257838600Y-221957900D03*
%TD*%
D10*
%TO.C,MX55*%
X-236248600Y-188937900D03*
D11*
X-241328600Y-188937900D03*
D10*
X-246408600Y-188937900D03*
D12*
X-245138600Y-186397900D03*
X-238788600Y-183857900D03*
%TD*%
D11*
%TO.C,MX22*%
X-241328600Y-103212900D03*
D10*
X-246408600Y-103212900D03*
X-236248600Y-103212900D03*
D12*
X-245138600Y-100672900D03*
X-238788600Y-98132900D03*
%TD*%
D10*
%TO.C,MX9*%
X-155921100Y-55587900D03*
X-145761100Y-55587900D03*
D11*
X-150841100Y-55587900D03*
D12*
X-154651100Y-53047900D03*
X-148301100Y-50507900D03*
%TD*%
D11*
%TO.C,MX67*%
X-279428600Y-246087900D03*
D10*
X-284508600Y-246087900D03*
X-274348600Y-246087900D03*
D12*
X-283238600Y-243547900D03*
X-276888600Y-241007900D03*
%TD*%
D10*
%TO.C,MX49*%
X-174971100Y-169887900D03*
D11*
X-169891100Y-169887900D03*
D10*
X-164811100Y-169887900D03*
D12*
X-173701100Y-167347900D03*
X-167351100Y-164807900D03*
%TD*%
D11*
%TO.C,MX35*%
X-288953600Y-141312900D03*
D10*
X-294033600Y-141312900D03*
X-283873600Y-141312900D03*
D12*
X-292763600Y-138772900D03*
X-286413600Y-136232900D03*
%TD*%
D10*
%TO.C,MX36*%
X-265458600Y-141312900D03*
X-255298600Y-141312900D03*
D11*
X-260378600Y-141312900D03*
D12*
X-264188600Y-138772900D03*
X-257838600Y-136232900D03*
%TD*%
D10*
%TO.C,MX12*%
X-294033600Y-84162900D03*
X-283873600Y-84162900D03*
D11*
X-288953600Y-84162900D03*
D12*
X-292763600Y-81622900D03*
X-286413600Y-79082900D03*
%TD*%
D11*
%TO.C,MX68*%
X-279428600Y-227037900D03*
D10*
X-274348600Y-227037900D03*
X-284508600Y-227037900D03*
D12*
X-283238600Y-224497900D03*
X-276888600Y-221957900D03*
%TD*%
D11*
%TO.C,MX42*%
X-327053600Y-169887900D03*
D10*
X-321973600Y-169887900D03*
X-332133600Y-169887900D03*
D12*
X-330863600Y-167347900D03*
X-324513600Y-164807900D03*
%TD*%
D10*
%TO.C,MX52*%
X-308321100Y-193700400D03*
X-298161100Y-193700400D03*
D11*
X-303241100Y-193700400D03*
D12*
X-307051100Y-191160400D03*
X-300701100Y-188620400D03*
%TD*%
D11*
%TO.C,S71*%
X-243709850Y-254342900D03*
D13*
X-219897350Y-239102900D03*
D11*
X-219897350Y-254342900D03*
D13*
X-243709850Y-239102900D03*
%TD*%
D10*
%TO.C,MX15*%
X-227358600Y-84162900D03*
X-217198600Y-84162900D03*
D11*
X-222278600Y-84162900D03*
D12*
X-226088600Y-81622900D03*
X-219738600Y-79082900D03*
%TD*%
D11*
%TO.C,MX14*%
X-241328600Y-84162900D03*
D10*
X-236248600Y-84162900D03*
X-246408600Y-84162900D03*
D12*
X-245138600Y-81622900D03*
X-238788600Y-79082900D03*
%TD*%
D10*
%TO.C,MX53*%
X-284508600Y-188937900D03*
D11*
X-279428600Y-188937900D03*
D10*
X-274348600Y-188937900D03*
D12*
X-283238600Y-186397900D03*
X-276888600Y-183857900D03*
%TD*%
D11*
%TO.C,MX40*%
X-169891100Y-141312900D03*
D10*
X-174971100Y-141312900D03*
X-164811100Y-141312900D03*
D12*
X-173701100Y-138772900D03*
X-167351100Y-136232900D03*
%TD*%
D10*
%TO.C,MX66*%
X-332133600Y-246087900D03*
X-321973600Y-246087900D03*
D11*
X-327053600Y-246087900D03*
D12*
X-330863600Y-243547900D03*
X-324513600Y-241007900D03*
%TD*%
D10*
%TO.C,MX10*%
X-332133600Y-84162900D03*
D11*
X-327053600Y-84162900D03*
D10*
X-321973600Y-84162900D03*
D12*
X-330863600Y-81622900D03*
X-324513600Y-79082900D03*
%TD*%
D11*
%TO.C,MX21*%
X-260378600Y-103212900D03*
D10*
X-255298600Y-103212900D03*
X-265458600Y-103212900D03*
D12*
X-264188600Y-100672900D03*
X-257838600Y-98132900D03*
%TD*%
D11*
%TO.C,MX62*%
X-222278600Y-207987900D03*
D10*
X-217198600Y-207987900D03*
X-227358600Y-207987900D03*
D12*
X-226088600Y-205447900D03*
X-219738600Y-202907900D03*
%TD*%
D10*
%TO.C,MX32*%
X-174971100Y-122262900D03*
D11*
X-169891100Y-122262900D03*
D10*
X-164811100Y-122262900D03*
D12*
X-173701100Y-119722900D03*
X-167351100Y-117182900D03*
%TD*%
D10*
%TO.C,MX56*%
X-217198600Y-188937900D03*
X-227358600Y-188937900D03*
D11*
X-222278600Y-188937900D03*
D12*
X-226088600Y-186397900D03*
X-219738600Y-183857900D03*
%TD*%
D11*
%TO.C,MX38*%
X-222278600Y-141312900D03*
D10*
X-217198600Y-141312900D03*
X-227358600Y-141312900D03*
D12*
X-226088600Y-138772900D03*
X-219738600Y-136232900D03*
%TD*%
D10*
%TO.C,MX44*%
X-284508600Y-169887900D03*
X-274348600Y-169887900D03*
D11*
X-279428600Y-169887900D03*
D12*
X-283238600Y-167347900D03*
X-276888600Y-164807900D03*
%TD*%
D10*
%TO.C,MX74*%
X-164811100Y-227037900D03*
D11*
X-169891100Y-227037900D03*
D10*
X-174971100Y-227037900D03*
D12*
X-173701100Y-224497900D03*
X-167351100Y-221957900D03*
%TD*%
D10*
%TO.C,MX28*%
X-265458600Y-122262900D03*
X-255298600Y-122262900D03*
D11*
X-260378600Y-122262900D03*
D12*
X-264188600Y-119722900D03*
X-257838600Y-117182900D03*
%TD*%
D11*
%TO.C,MX30*%
X-222278600Y-122262900D03*
D10*
X-217198600Y-122262900D03*
X-227358600Y-122262900D03*
D12*
X-226088600Y-119722900D03*
X-219738600Y-117182900D03*
%TD*%
D10*
%TO.C,MX63*%
X-194021100Y-227037900D03*
X-183861100Y-227037900D03*
D11*
X-188941100Y-227037900D03*
D12*
X-192751100Y-224497900D03*
X-186401100Y-221957900D03*
%TD*%
D10*
%TO.C,MX60*%
X-265458600Y-207987900D03*
X-255298600Y-207987900D03*
D11*
X-260378600Y-207987900D03*
D12*
X-264188600Y-205447900D03*
X-257838600Y-202907900D03*
%TD*%
D10*
%TO.C,MX45*%
X-265458600Y-169887900D03*
D11*
X-260378600Y-169887900D03*
D10*
X-255298600Y-169887900D03*
D12*
X-264188600Y-167347900D03*
X-257838600Y-164807900D03*
%TD*%
D10*
%TO.C,MX64*%
X-164811100Y-207987900D03*
D11*
X-169891100Y-207987900D03*
D10*
X-174971100Y-207987900D03*
D12*
X-173701100Y-205447900D03*
X-167351100Y-202907900D03*
%TD*%
D11*
%TO.C,MX26*%
X-308003600Y-122262900D03*
D10*
X-302923600Y-122262900D03*
X-313083600Y-122262900D03*
D12*
X-311813600Y-119722900D03*
X-305463600Y-117182900D03*
%TD*%
D10*
%TO.C,MX24*%
X-174971100Y-103212900D03*
X-164811100Y-103212900D03*
D11*
X-169891100Y-103212900D03*
D12*
X-173701100Y-100672900D03*
X-167351100Y-98132900D03*
%TD*%
D10*
%TO.C,MX13*%
X-255298600Y-84162900D03*
D11*
X-260378600Y-84162900D03*
D10*
X-265458600Y-84162900D03*
D12*
X-264188600Y-81622900D03*
X-257838600Y-79082900D03*
%TD*%
D10*
%TO.C,MX71*%
X-236883600Y-246087900D03*
X-226723600Y-246087900D03*
D11*
X-231803600Y-246087900D03*
D12*
X-235613600Y-243547900D03*
X-229263600Y-241007900D03*
%TD*%
D11*
%TO.C,MX37*%
X-241328600Y-141312900D03*
D10*
X-236248600Y-141312900D03*
X-246408600Y-141312900D03*
D12*
X-245138600Y-138772900D03*
X-238788600Y-136232900D03*
%TD*%
D10*
%TO.C,MX1*%
X-321973600Y-55587900D03*
X-332133600Y-55587900D03*
D11*
X-327053600Y-55587900D03*
D12*
X-330863600Y-53047900D03*
X-324513600Y-50507900D03*
%TD*%
D10*
%TO.C,MX23*%
X-217198600Y-103212900D03*
X-227358600Y-103212900D03*
D11*
X-222278600Y-103212900D03*
D12*
X-226088600Y-100672900D03*
X-219738600Y-98132900D03*
%TD*%
D10*
%TO.C,MX47*%
X-227358600Y-169887900D03*
X-217198600Y-169887900D03*
D11*
X-222278600Y-169887900D03*
D12*
X-226088600Y-167347900D03*
X-219738600Y-164807900D03*
%TD*%
D10*
%TO.C,MX3*%
X-283873600Y-55587900D03*
D11*
X-288953600Y-55587900D03*
D10*
X-294033600Y-55587900D03*
D12*
X-292763600Y-53047900D03*
X-286413600Y-50507900D03*
%TD*%
D10*
%TO.C,MX70*%
X-236248600Y-227037900D03*
X-246408600Y-227037900D03*
D11*
X-241328600Y-227037900D03*
D12*
X-245138600Y-224497900D03*
X-238788600Y-221957900D03*
%TD*%
D10*
%TO.C,MX16*%
X-188623600Y-84162900D03*
X-198783600Y-84162900D03*
D11*
X-193703600Y-84162900D03*
D12*
X-197513600Y-81622900D03*
X-191163600Y-79082900D03*
%TD*%
D10*
%TO.C,MX8*%
X-177352300Y-55587900D03*
X-167192300Y-55587900D03*
D11*
X-172272300Y-55587900D03*
D12*
X-176082300Y-53047900D03*
X-169732300Y-50507900D03*
%TD*%
D10*
%TO.C,MX33*%
X-321973600Y-141312900D03*
X-332133600Y-141312900D03*
D11*
X-327053600Y-141312900D03*
D12*
X-330863600Y-138772900D03*
X-324513600Y-136232900D03*
%TD*%
D10*
%TO.C,MX2*%
X-313083600Y-55587900D03*
D11*
X-308003600Y-55587900D03*
D10*
X-302923600Y-55587900D03*
D12*
X-311813600Y-53047900D03*
X-305463600Y-50507900D03*
%TD*%
D10*
%TO.C,MX27*%
X-294033600Y-122262900D03*
X-283873600Y-122262900D03*
D11*
X-288953600Y-122262900D03*
D12*
X-292763600Y-119722900D03*
X-286413600Y-117182900D03*
%TD*%
D11*
%TO.C,MX31*%
X-193703600Y-112737900D03*
D10*
X-198783600Y-112737900D03*
X-188623600Y-112737900D03*
D12*
X-197513600Y-110197900D03*
X-191163600Y-107657900D03*
%TD*%
D11*
%TO.C,MX50*%
X-150841100Y-169887900D03*
D10*
X-155921100Y-169887900D03*
X-145761100Y-169887900D03*
D12*
X-154651100Y-167347900D03*
X-148301100Y-164807900D03*
%TD*%
D11*
%TO.C,MX41*%
X-150841100Y-141312900D03*
D10*
X-155921100Y-141312900D03*
X-145761100Y-141312900D03*
D12*
X-154651100Y-138772900D03*
X-148301100Y-136232900D03*
%TD*%
D10*
%TO.C,MX59*%
X-284508600Y-207987900D03*
X-274348600Y-207987900D03*
D11*
X-279428600Y-207987900D03*
D12*
X-283238600Y-205447900D03*
X-276888600Y-202907900D03*
%TD*%
D11*
%TO.C,MX65*%
X-150841100Y-227037900D03*
D10*
X-155921100Y-227037900D03*
X-145761100Y-227037900D03*
D12*
X-154651100Y-224497900D03*
X-148301100Y-221957900D03*
%TD*%
D10*
%TO.C,MX48*%
X-198783600Y-169887900D03*
X-188623600Y-169887900D03*
D11*
X-193703600Y-169887900D03*
D12*
X-197513600Y-167347900D03*
X-191163600Y-164807900D03*
%TD*%
D11*
%TO.C,MX58*%
X-303241100Y-217512900D03*
D10*
X-308321100Y-217512900D03*
X-298161100Y-217512900D03*
D12*
X-307051100Y-214972900D03*
X-300701100Y-212432900D03*
%TD*%
D10*
%TO.C,MX73*%
X-164811100Y-246087900D03*
D11*
X-169891100Y-246087900D03*
D10*
X-174971100Y-246087900D03*
D12*
X-173701100Y-243547900D03*
X-167351100Y-241007900D03*
%TD*%
D10*
%TO.C,MX20*%
X-294033600Y-103212900D03*
D11*
X-288953600Y-103212900D03*
D10*
X-283873600Y-103212900D03*
D12*
X-292763600Y-100672900D03*
X-286413600Y-98132900D03*
%TD*%
D10*
%TO.C,MX43*%
X-308321100Y-169887900D03*
D11*
X-303241100Y-169887900D03*
D10*
X-298161100Y-169887900D03*
D12*
X-307051100Y-167347900D03*
X-300701100Y-164807900D03*
%TD*%
D10*
%TO.C,MX34*%
X-313083600Y-141312900D03*
D11*
X-308003600Y-141312900D03*
D10*
X-302923600Y-141312900D03*
D12*
X-311813600Y-138772900D03*
X-305463600Y-136232900D03*
%TD*%
D10*
%TO.C,MX39*%
X-188623600Y-141312900D03*
D11*
X-193703600Y-141312900D03*
D10*
X-198783600Y-141312900D03*
D12*
X-197513600Y-138772900D03*
X-191163600Y-136232900D03*
%TD*%
D10*
%TO.C,MX17*%
X-164811100Y-84162900D03*
D11*
X-169891100Y-84162900D03*
D10*
X-174971100Y-84162900D03*
D12*
X-173701100Y-81622900D03*
X-167351100Y-79082900D03*
%TD*%
D10*
%TO.C,MX4*%
X-255298600Y-55587900D03*
X-265458600Y-55587900D03*
D11*
X-260378600Y-55587900D03*
D12*
X-264188600Y-53047900D03*
X-257838600Y-50507900D03*
%TD*%
D11*
%TO.C,MX7*%
X-193703600Y-55587900D03*
D10*
X-188623600Y-55587900D03*
X-198783600Y-55587900D03*
D12*
X-197513600Y-53047900D03*
X-191163600Y-50507900D03*
%TD*%
D10*
%TO.C,MX18*%
X-321973600Y-103212900D03*
D11*
X-327053600Y-103212900D03*
D10*
X-332133600Y-103212900D03*
D12*
X-330863600Y-100672900D03*
X-324513600Y-98132900D03*
%TD*%
D10*
%TO.C,MX54*%
X-265458600Y-188937900D03*
X-255298600Y-188937900D03*
D11*
X-260378600Y-188937900D03*
D12*
X-264188600Y-186397900D03*
X-257838600Y-183857900D03*
%TD*%
D10*
%TO.C,MX29*%
X-246408600Y-122262900D03*
D11*
X-241328600Y-122262900D03*
D10*
X-236248600Y-122262900D03*
D12*
X-245138600Y-119722900D03*
X-238788600Y-117182900D03*
%TD*%
D14*
%TO.C,USB1*%
X-204312500Y-47625000D03*
X-211612500Y-52125000D03*
X-211612500Y-47625000D03*
X-204312500Y-52125000D03*
%TD*%
D15*
X-196364000Y-85737100D03*
X-190005000Y-195250000D03*
X-209901000Y-66175400D03*
X-209901000Y-180307000D03*
X-202796000Y-64516000D03*
X-212946000Y-64516000D03*
X-209296000Y-200660000D03*
X-194051000Y-189481000D03*
X-188468000Y-204724000D03*
X-204724000Y-186436000D03*
X-192024000Y-197612000D03*
X-191200000Y-193370000D03*
X-210993000Y-65937400D03*
X-210993000Y-181228000D03*
X-213874000Y-191112000D03*
M02*
