%TF.GenerationSoftware,KiCad,Pcbnew,(6.0.11)*%
%TF.CreationDate,2023-02-04T13:18:20-08:00*%
%TF.ProjectId,MA Command Keyboard changed footprint,4d412043-6f6d-46d6-916e-64204b657962,rev?*%
%TF.SameCoordinates,Original*%
%TF.FileFunction,Copper,L2,Bot*%
%TF.FilePolarity,Positive*%
%FSLAX46Y46*%
G04 Gerber Fmt 4.6, Leading zero omitted, Abs format (unit mm)*
G04 Created by KiCad (PCBNEW (6.0.11)) date 2023-02-04 13:18:20*
%MOMM*%
%LPD*%
G01*
G04 APERTURE LIST*
G04 Aperture macros list*
%AMRoundRect*
0 Rectangle with rounded corners*
0 $1 Rounding radius*
0 $2 $3 $4 $5 $6 $7 $8 $9 X,Y pos of 4 corners*
0 Add a 4 corners polygon primitive as box body*
4,1,4,$2,$3,$4,$5,$6,$7,$8,$9,$2,$3,0*
0 Add four circle primitives for the rounded corners*
1,1,$1+$1,$2,$3*
1,1,$1+$1,$4,$5*
1,1,$1+$1,$6,$7*
1,1,$1+$1,$8,$9*
0 Add four rect primitives between the rounded corners*
20,1,$1+$1,$2,$3,$4,$5,0*
20,1,$1+$1,$4,$5,$6,$7,0*
20,1,$1+$1,$6,$7,$8,$9,0*
20,1,$1+$1,$8,$9,$2,$3,0*%
G04 Aperture macros list end*
%TA.AperFunction,ComponentPad*%
%ADD10C,0.800000*%
%TD*%
%TA.AperFunction,ComponentPad*%
%ADD11C,4.000000*%
%TD*%
%TA.AperFunction,SMDPad,CuDef*%
%ADD12R,4.500000X2.500000*%
%TD*%
%TA.AperFunction,SMDPad,CuDef*%
%ADD13R,0.900000X1.200000*%
%TD*%
%TA.AperFunction,SMDPad,CuDef*%
%ADD14RoundRect,0.250000X-0.475000X0.250000X-0.475000X-0.250000X0.475000X-0.250000X0.475000X0.250000X0*%
%TD*%
%TA.AperFunction,SMDPad,CuDef*%
%ADD15RoundRect,0.250000X0.475000X-0.250000X0.475000X0.250000X-0.475000X0.250000X-0.475000X-0.250000X0*%
%TD*%
%TA.AperFunction,SMDPad,CuDef*%
%ADD16R,1.400000X1.200000*%
%TD*%
%TA.AperFunction,SMDPad,CuDef*%
%ADD17RoundRect,0.250000X-0.250000X-0.475000X0.250000X-0.475000X0.250000X0.475000X-0.250000X0.475000X0*%
%TD*%
%TA.AperFunction,SMDPad,CuDef*%
%ADD18RoundRect,0.250000X0.450000X-0.262500X0.450000X0.262500X-0.450000X0.262500X-0.450000X-0.262500X0*%
%TD*%
%TA.AperFunction,SMDPad,CuDef*%
%ADD19R,0.500000X2.250000*%
%TD*%
%TA.AperFunction,ComponentPad*%
%ADD20O,1.700000X2.700000*%
%TD*%
%TA.AperFunction,SMDPad,CuDef*%
%ADD21RoundRect,0.250000X0.250000X0.475000X-0.250000X0.475000X-0.250000X-0.475000X0.250000X-0.475000X0*%
%TD*%
%TA.AperFunction,SMDPad,CuDef*%
%ADD22RoundRect,0.250000X-0.625000X0.375000X-0.625000X-0.375000X0.625000X-0.375000X0.625000X0.375000X0*%
%TD*%
%TA.AperFunction,SMDPad,CuDef*%
%ADD23R,1.500000X0.550000*%
%TD*%
%TA.AperFunction,SMDPad,CuDef*%
%ADD24R,0.550000X1.500000*%
%TD*%
%TA.AperFunction,SMDPad,CuDef*%
%ADD25RoundRect,0.250000X-0.450000X0.262500X-0.450000X-0.262500X0.450000X-0.262500X0.450000X0.262500X0*%
%TD*%
%TA.AperFunction,SMDPad,CuDef*%
%ADD26R,1.800000X1.100000*%
%TD*%
%TA.AperFunction,ViaPad*%
%ADD27C,0.800000*%
%TD*%
%TA.AperFunction,Conductor*%
%ADD28C,0.250000*%
%TD*%
%TA.AperFunction,Conductor*%
%ADD29C,0.200000*%
%TD*%
%TA.AperFunction,Conductor*%
%ADD30C,0.381000*%
%TD*%
G04 APERTURE END LIST*
D10*
%TO.P,MX11,1,COL*%
%TO.N,cOL1*%
X-316893600Y-80860900D03*
D11*
X-311813600Y-81622900D03*
D12*
X-315088600Y-81622900D03*
D10*
X-316893600Y-82384900D03*
D11*
%TO.P,MX11,2,ROW*%
%TO.N,Net-(D11-Pad2)*%
X-305463600Y-79082900D03*
D12*
X-302161600Y-79082900D03*
D10*
X-300383600Y-78320900D03*
X-300383600Y-79844900D03*
%TD*%
%TO.P,MX61,1,COL*%
%TO.N,COL4*%
X-250218600Y-204685900D03*
D12*
X-248413600Y-205447900D03*
D10*
X-250218600Y-206209900D03*
D11*
X-245138600Y-205447900D03*
D12*
%TO.P,MX61,2,ROW*%
%TO.N,Net-(D61-Pad2)*%
X-235486600Y-202907900D03*
D11*
X-238788600Y-202907900D03*
D10*
X-233708600Y-202145900D03*
X-233708600Y-203669900D03*
%TD*%
D11*
%TO.P,MX25,1,COL*%
%TO.N,COL0*%
X-330863600Y-119722900D03*
D12*
X-334138600Y-119722900D03*
D10*
X-335943600Y-120484900D03*
X-335943600Y-118960900D03*
%TO.P,MX25,2,ROW*%
%TO.N,Net-(D25-Pad2)*%
X-319433600Y-116420900D03*
D11*
X-324513600Y-117182900D03*
D10*
X-319433600Y-117944900D03*
D12*
X-321211600Y-117182900D03*
%TD*%
D10*
%TO.P,MX5,1,COL*%
%TO.N,COL4*%
X-250218600Y-53809900D03*
X-250218600Y-52285900D03*
D11*
X-245138600Y-53047900D03*
D12*
X-248413600Y-53047900D03*
D10*
%TO.P,MX5,2,ROW*%
%TO.N,Net-(D5-Pad2)*%
X-233708600Y-51269900D03*
D12*
X-235486600Y-50507900D03*
D10*
X-233708600Y-49745900D03*
D11*
X-238788600Y-50507900D03*
%TD*%
D10*
%TO.P,MX6,1,COL*%
%TO.N,COL5*%
X-231168600Y-53809900D03*
D12*
X-229363600Y-53047900D03*
D11*
X-226088600Y-53047900D03*
D10*
X-231168600Y-52285900D03*
%TO.P,MX6,2,ROW*%
%TO.N,Net-(D6-Pad2)*%
X-214658600Y-51269900D03*
X-214658600Y-49745900D03*
D12*
X-216436600Y-50507900D03*
D11*
X-219738600Y-50507900D03*
%TD*%
D12*
%TO.P,MX51,1,COL*%
%TO.N,COL0*%
X-334138600Y-191160400D03*
D11*
X-330863600Y-191160400D03*
D10*
X-335943600Y-191922400D03*
X-335943600Y-190398400D03*
%TO.P,MX51,2,ROW*%
%TO.N,Net-(D51-Pad2)*%
X-319433600Y-187858400D03*
D11*
X-324513600Y-188620400D03*
D10*
X-319433600Y-189382400D03*
D12*
X-321211600Y-188620400D03*
%TD*%
%TO.P,MX46,1,COL*%
%TO.N,COL4*%
X-248413600Y-167347900D03*
D10*
X-250218600Y-168109900D03*
X-250218600Y-166585900D03*
D11*
X-245138600Y-167347900D03*
D10*
%TO.P,MX46,2,ROW*%
%TO.N,Net-(D46-Pad2)*%
X-233708600Y-165569900D03*
X-233708600Y-164045900D03*
D12*
X-235486600Y-164807900D03*
D11*
X-238788600Y-164807900D03*
%TD*%
D10*
%TO.P,MX72,1,COL*%
%TO.N,COL6*%
X-231168600Y-223735900D03*
D12*
X-229363600Y-224497900D03*
D11*
X-226088600Y-224497900D03*
D10*
X-231168600Y-225259900D03*
%TO.P,MX72,2,ROW*%
%TO.N,Net-(D72-Pad2)*%
X-214658600Y-222719900D03*
D11*
X-219738600Y-221957900D03*
D10*
X-214658600Y-221195900D03*
D12*
X-216436600Y-221957900D03*
%TD*%
D10*
%TO.P,MX57,1,COL*%
%TO.N,COL0*%
X-335943600Y-214210900D03*
D11*
X-330863600Y-214972900D03*
D12*
X-334138600Y-214972900D03*
D10*
X-335943600Y-215734900D03*
%TO.P,MX57,2,ROW*%
%TO.N,Net-(D57-Pad2)*%
X-319433600Y-213194900D03*
X-319433600Y-211670900D03*
D11*
X-324513600Y-212432900D03*
D12*
X-321211600Y-212432900D03*
%TD*%
D11*
%TO.P,MX19,1,COL*%
%TO.N,cOL1*%
X-311813600Y-100672900D03*
D10*
X-316893600Y-99910900D03*
D12*
X-315088600Y-100672900D03*
D10*
X-316893600Y-101434900D03*
D12*
%TO.P,MX19,2,ROW*%
%TO.N,Net-(D19-Pad2)*%
X-302161600Y-98132900D03*
D11*
X-305463600Y-98132900D03*
D10*
X-300383600Y-97370900D03*
X-300383600Y-98894900D03*
%TD*%
%TO.P,MX69,1,COL*%
%TO.N,COL3*%
X-269268600Y-223735900D03*
X-269268600Y-225259900D03*
D11*
X-264188600Y-224497900D03*
D12*
X-267463600Y-224497900D03*
D11*
%TO.P,MX69,2,ROW*%
%TO.N,Net-(D69-Pad2)*%
X-257838600Y-221957900D03*
D10*
X-252758600Y-222719900D03*
D12*
X-254536600Y-221957900D03*
D10*
X-252758600Y-221195900D03*
%TD*%
%TO.P,MX55,1,COL*%
%TO.N,COL4*%
X-250218600Y-187159900D03*
D12*
X-248413600Y-186397900D03*
D11*
X-245138600Y-186397900D03*
D10*
X-250218600Y-185635900D03*
D12*
%TO.P,MX55,2,ROW*%
%TO.N,Net-(D55-Pad2)*%
X-235486600Y-183857900D03*
D10*
X-233708600Y-183095900D03*
X-233708600Y-184619900D03*
D11*
X-238788600Y-183857900D03*
%TD*%
D10*
%TO.P,MX22,1,COL*%
%TO.N,COL4*%
X-250218600Y-101434900D03*
D12*
X-248413600Y-100672900D03*
D11*
X-245138600Y-100672900D03*
D10*
X-250218600Y-99910900D03*
D11*
%TO.P,MX22,2,ROW*%
%TO.N,Net-(D22-Pad2)*%
X-238788600Y-98132900D03*
D10*
X-233708600Y-98894900D03*
D12*
X-235486600Y-98132900D03*
D10*
X-233708600Y-97370900D03*
%TD*%
D11*
%TO.P,MX9,1,COL*%
%TO.N,COL8*%
X-154651100Y-53047900D03*
D10*
X-159731100Y-52285900D03*
D12*
X-157926100Y-53047900D03*
D10*
X-159731100Y-53809900D03*
%TO.P,MX9,2,ROW*%
%TO.N,Net-(D9-Pad2)*%
X-143221100Y-49745900D03*
X-143221100Y-51269900D03*
D12*
X-144999100Y-50507900D03*
D11*
X-148301100Y-50507900D03*
%TD*%
D12*
%TO.P,MX67,1,COL*%
%TO.N,cOL1*%
X-286513600Y-243547900D03*
D10*
X-288318600Y-242785900D03*
D11*
X-283238600Y-243547900D03*
D10*
X-288318600Y-244309900D03*
D11*
%TO.P,MX67,2,ROW*%
%TO.N,Net-(D67-Pad2)*%
X-276888600Y-241007900D03*
D12*
X-273586600Y-241007900D03*
D10*
X-271808600Y-241769900D03*
X-271808600Y-240245900D03*
%TD*%
D11*
%TO.P,MX49,1,COL*%
%TO.N,COL7*%
X-173701100Y-167347900D03*
D12*
X-176976100Y-167347900D03*
D10*
X-178781100Y-166585900D03*
X-178781100Y-168109900D03*
%TO.P,MX49,2,ROW*%
%TO.N,Net-(D49-Pad2)*%
X-162271100Y-165569900D03*
X-162271100Y-164045900D03*
D11*
X-167351100Y-164807900D03*
D12*
X-164049100Y-164807900D03*
%TD*%
D10*
%TO.P,MX35,1,COL*%
%TO.N,COL2*%
X-297843600Y-139534900D03*
D11*
X-292763600Y-138772900D03*
D10*
X-297843600Y-138010900D03*
D12*
X-296038600Y-138772900D03*
D10*
%TO.P,MX35,2,ROW*%
%TO.N,Net-(D35-Pad2)*%
X-281333600Y-136994900D03*
D12*
X-283111600Y-136232900D03*
D10*
X-281333600Y-135470900D03*
D11*
X-286413600Y-136232900D03*
%TD*%
D12*
%TO.P,MX36,1,COL*%
%TO.N,COL3*%
X-267463600Y-138772900D03*
D10*
X-269268600Y-138010900D03*
X-269268600Y-139534900D03*
D11*
X-264188600Y-138772900D03*
D12*
%TO.P,MX36,2,ROW*%
%TO.N,Net-(D36-Pad2)*%
X-254536600Y-136232900D03*
D10*
X-252758600Y-136994900D03*
X-252758600Y-135470900D03*
D11*
X-257838600Y-136232900D03*
%TD*%
D10*
%TO.P,MX12,1,COL*%
%TO.N,COL2*%
X-297843600Y-82384900D03*
D11*
X-292763600Y-81622900D03*
D12*
X-296038600Y-81622900D03*
D10*
X-297843600Y-80860900D03*
%TO.P,MX12,2,ROW*%
%TO.N,Net-(D12-Pad2)*%
X-281333600Y-79844900D03*
D11*
X-286413600Y-79082900D03*
D12*
X-283111600Y-79082900D03*
D10*
X-281333600Y-78320900D03*
%TD*%
%TO.P,MX68,1,COL*%
%TO.N,COL2*%
X-288318600Y-223735900D03*
X-288318600Y-225259900D03*
D12*
X-286513600Y-224497900D03*
D11*
X-283238600Y-224497900D03*
D10*
%TO.P,MX68,2,ROW*%
%TO.N,Net-(D68-Pad2)*%
X-271808600Y-221195900D03*
D12*
X-273586600Y-221957900D03*
D11*
X-276888600Y-221957900D03*
D10*
X-271808600Y-222719900D03*
%TD*%
D11*
%TO.P,MX42,1,COL*%
%TO.N,COL0*%
X-330863600Y-167347900D03*
D10*
X-335943600Y-168109900D03*
X-335943600Y-166585900D03*
D12*
X-334138600Y-167347900D03*
D11*
%TO.P,MX42,2,ROW*%
%TO.N,Net-(D42-Pad2)*%
X-324513600Y-164807900D03*
D10*
X-319433600Y-165569900D03*
X-319433600Y-164045900D03*
D12*
X-321211600Y-164807900D03*
%TD*%
D10*
%TO.P,MX52,1,COL*%
%TO.N,cOL1*%
X-312131100Y-190398400D03*
D12*
X-310326100Y-191160400D03*
D10*
X-312131100Y-191922400D03*
D11*
X-307051100Y-191160400D03*
D12*
%TO.P,MX52,2,ROW*%
%TO.N,Net-(D52-Pad2)*%
X-297399100Y-188620400D03*
D10*
X-295621100Y-187858400D03*
X-295621100Y-189382400D03*
D11*
X-300701100Y-188620400D03*
%TD*%
D10*
%TO.P,MX15,1,COL*%
%TO.N,COL5*%
X-231168600Y-82384900D03*
D11*
X-226088600Y-81622900D03*
D12*
X-229363600Y-81622900D03*
D10*
X-231168600Y-80860900D03*
%TO.P,MX15,2,ROW*%
%TO.N,Net-(D15-Pad2)*%
X-214658600Y-78320900D03*
X-214658600Y-79844900D03*
D11*
X-219738600Y-79082900D03*
D12*
X-216436600Y-79082900D03*
%TD*%
D11*
%TO.P,MX14,1,COL*%
%TO.N,COL4*%
X-245138600Y-81622900D03*
D12*
X-248413600Y-81622900D03*
D10*
X-250218600Y-80860900D03*
X-250218600Y-82384900D03*
%TO.P,MX14,2,ROW*%
%TO.N,Net-(D14-Pad2)*%
X-233708600Y-78320900D03*
D11*
X-238788600Y-79082900D03*
D10*
X-233708600Y-79844900D03*
D12*
X-235486600Y-79082900D03*
%TD*%
D10*
%TO.P,MX53,1,COL*%
%TO.N,COL2*%
X-288318600Y-187159900D03*
D12*
X-286513600Y-186397900D03*
D10*
X-288318600Y-185635900D03*
D11*
X-283238600Y-186397900D03*
D12*
%TO.P,MX53,2,ROW*%
%TO.N,Net-(D53-Pad2)*%
X-273586600Y-183857900D03*
D10*
X-271808600Y-184619900D03*
X-271808600Y-183095900D03*
D11*
X-276888600Y-183857900D03*
%TD*%
D10*
%TO.P,MX40,1,COL*%
%TO.N,COL7*%
X-178781100Y-138010900D03*
D11*
X-173701100Y-138772900D03*
D10*
X-178781100Y-139534900D03*
D12*
X-176976100Y-138772900D03*
D11*
%TO.P,MX40,2,ROW*%
%TO.N,Net-(D40-Pad2)*%
X-167351100Y-136232900D03*
D10*
X-162271100Y-136994900D03*
X-162271100Y-135470900D03*
D12*
X-164049100Y-136232900D03*
%TD*%
%TO.P,MX66,1,COL*%
%TO.N,COL0*%
X-334138600Y-243547900D03*
D10*
X-335943600Y-244309900D03*
D11*
X-330863600Y-243547900D03*
D10*
X-335943600Y-242785900D03*
D11*
%TO.P,MX66,2,ROW*%
%TO.N,Net-(D66-Pad2)*%
X-324513600Y-241007900D03*
D10*
X-319433600Y-241769900D03*
X-319433600Y-240245900D03*
D12*
X-321211600Y-241007900D03*
%TD*%
D11*
%TO.P,MX10,1,COL*%
%TO.N,COL0*%
X-330863600Y-81622900D03*
D10*
X-335943600Y-80860900D03*
D12*
X-334138600Y-81622900D03*
D10*
X-335943600Y-82384900D03*
%TO.P,MX10,2,ROW*%
%TO.N,Net-(D10-Pad2)*%
X-319433600Y-78320900D03*
D12*
X-321211600Y-79082900D03*
D11*
X-324513600Y-79082900D03*
D10*
X-319433600Y-79844900D03*
%TD*%
%TO.P,MX21,1,COL*%
%TO.N,COL3*%
X-269268600Y-101434900D03*
D12*
X-267463600Y-100672900D03*
D10*
X-269268600Y-99910900D03*
D11*
X-264188600Y-100672900D03*
%TO.P,MX21,2,ROW*%
%TO.N,Net-(D21-Pad2)*%
X-257838600Y-98132900D03*
D12*
X-254536600Y-98132900D03*
D10*
X-252758600Y-98894900D03*
X-252758600Y-97370900D03*
%TD*%
%TO.P,MX62,1,COL*%
%TO.N,COL5*%
X-231168600Y-206209900D03*
D12*
X-229363600Y-205447900D03*
D10*
X-231168600Y-204685900D03*
D11*
X-226088600Y-205447900D03*
%TO.P,MX62,2,ROW*%
%TO.N,Net-(D62-Pad2)*%
X-219738600Y-202907900D03*
D12*
X-216436600Y-202907900D03*
D10*
X-214658600Y-202145900D03*
X-214658600Y-203669900D03*
%TD*%
D11*
%TO.P,MX32,1,COL*%
%TO.N,COL7*%
X-173701100Y-119722900D03*
D10*
X-178781100Y-118960900D03*
D12*
X-176976100Y-119722900D03*
D10*
X-178781100Y-120484900D03*
D11*
%TO.P,MX32,2,ROW*%
%TO.N,Net-(D32-Pad2)*%
X-167351100Y-117182900D03*
D10*
X-162271100Y-116420900D03*
D12*
X-164049100Y-117182900D03*
D10*
X-162271100Y-117944900D03*
%TD*%
%TO.P,MX56,1,COL*%
%TO.N,COL5*%
X-231168600Y-185635900D03*
X-231168600Y-187159900D03*
D12*
X-229363600Y-186397900D03*
D11*
X-226088600Y-186397900D03*
D10*
%TO.P,MX56,2,ROW*%
%TO.N,Net-(D56-Pad2)*%
X-214658600Y-184619900D03*
D12*
X-216436600Y-183857900D03*
D11*
X-219738600Y-183857900D03*
D10*
X-214658600Y-183095900D03*
%TD*%
%TO.P,MX38,1,COL*%
%TO.N,COL5*%
X-231168600Y-139534900D03*
D11*
X-226088600Y-138772900D03*
D10*
X-231168600Y-138010900D03*
D12*
X-229363600Y-138772900D03*
%TO.P,MX38,2,ROW*%
%TO.N,Net-(D38-Pad2)*%
X-216436600Y-136232900D03*
D10*
X-214658600Y-135470900D03*
X-214658600Y-136994900D03*
D11*
X-219738600Y-136232900D03*
%TD*%
%TO.P,MX44,1,COL*%
%TO.N,COL2*%
X-283238600Y-167347900D03*
D12*
X-286513600Y-167347900D03*
D10*
X-288318600Y-166585900D03*
X-288318600Y-168109900D03*
%TO.P,MX44,2,ROW*%
%TO.N,Net-(D44-Pad2)*%
X-271808600Y-165569900D03*
D11*
X-276888600Y-164807900D03*
D12*
X-273586600Y-164807900D03*
D10*
X-271808600Y-164045900D03*
%TD*%
D11*
%TO.P,MX74,1,COL*%
%TO.N,COL8*%
X-173701100Y-224497900D03*
D10*
X-178781100Y-223735900D03*
X-178781100Y-225259900D03*
D12*
X-176976100Y-224497900D03*
D10*
%TO.P,MX74,2,ROW*%
%TO.N,Net-(D74-Pad2)*%
X-162271100Y-222719900D03*
D12*
X-164049100Y-221957900D03*
D11*
X-167351100Y-221957900D03*
D10*
X-162271100Y-221195900D03*
%TD*%
%TO.P,MX28,1,COL*%
%TO.N,COL3*%
X-269268600Y-120484900D03*
X-269268600Y-118960900D03*
D11*
X-264188600Y-119722900D03*
D12*
X-267463600Y-119722900D03*
D10*
%TO.P,MX28,2,ROW*%
%TO.N,Net-(D28-Pad2)*%
X-252758600Y-116420900D03*
D11*
X-257838600Y-117182900D03*
D12*
X-254536600Y-117182900D03*
D10*
X-252758600Y-117944900D03*
%TD*%
%TO.P,MX30,1,COL*%
%TO.N,COL5*%
X-231168600Y-120484900D03*
D12*
X-229363600Y-119722900D03*
D10*
X-231168600Y-118960900D03*
D11*
X-226088600Y-119722900D03*
D12*
%TO.P,MX30,2,ROW*%
%TO.N,Net-(D30-Pad2)*%
X-216436600Y-117182900D03*
D10*
X-214658600Y-117944900D03*
D11*
X-219738600Y-117182900D03*
D10*
X-214658600Y-116420900D03*
%TD*%
%TO.P,MX63,1,COL*%
%TO.N,COL6*%
X-197831100Y-225259900D03*
D12*
X-196026100Y-224497900D03*
D10*
X-197831100Y-223735900D03*
D11*
X-192751100Y-224497900D03*
%TO.P,MX63,2,ROW*%
%TO.N,Net-(D63-Pad2)*%
X-186401100Y-221957900D03*
D10*
X-181321100Y-221195900D03*
D12*
X-183099100Y-221957900D03*
D10*
X-181321100Y-222719900D03*
%TD*%
%TO.P,MX60,1,COL*%
%TO.N,COL3*%
X-269268600Y-206209900D03*
X-269268600Y-204685900D03*
D12*
X-267463600Y-205447900D03*
D11*
X-264188600Y-205447900D03*
D10*
%TO.P,MX60,2,ROW*%
%TO.N,Net-(D60-Pad2)*%
X-252758600Y-203669900D03*
D11*
X-257838600Y-202907900D03*
D10*
X-252758600Y-202145900D03*
D12*
X-254536600Y-202907900D03*
%TD*%
D10*
%TO.P,MX45,1,COL*%
%TO.N,COL3*%
X-269268600Y-168109900D03*
X-269268600Y-166585900D03*
D12*
X-267463600Y-167347900D03*
D11*
X-264188600Y-167347900D03*
%TO.P,MX45,2,ROW*%
%TO.N,Net-(D45-Pad2)*%
X-257838600Y-164807900D03*
D10*
X-252758600Y-165569900D03*
D12*
X-254536600Y-164807900D03*
D10*
X-252758600Y-164045900D03*
%TD*%
%TO.P,MX64,1,COL*%
%TO.N,COL7*%
X-178781100Y-204685900D03*
D12*
X-176976100Y-205447900D03*
D11*
X-173701100Y-205447900D03*
D10*
X-178781100Y-206209900D03*
%TO.P,MX64,2,ROW*%
%TO.N,Net-(D64-Pad2)*%
X-162271100Y-202145900D03*
D11*
X-167351100Y-202907900D03*
D10*
X-162271100Y-203669900D03*
D12*
X-164049100Y-202907900D03*
%TD*%
%TO.P,MX26,1,COL*%
%TO.N,cOL1*%
X-315088600Y-119722900D03*
D10*
X-316893600Y-120484900D03*
X-316893600Y-118960900D03*
D11*
X-311813600Y-119722900D03*
D10*
%TO.P,MX26,2,ROW*%
%TO.N,Net-(D26-Pad2)*%
X-300383600Y-117944900D03*
D11*
X-305463600Y-117182900D03*
D12*
X-302161600Y-117182900D03*
D10*
X-300383600Y-116420900D03*
%TD*%
%TO.P,MX24,1,COL*%
%TO.N,COL7*%
X-178781100Y-99910900D03*
D12*
X-176976100Y-100672900D03*
D11*
X-173701100Y-100672900D03*
D10*
X-178781100Y-101434900D03*
D12*
%TO.P,MX24,2,ROW*%
%TO.N,Net-(D24-Pad2)*%
X-164049100Y-98132900D03*
D10*
X-162271100Y-98894900D03*
D11*
X-167351100Y-98132900D03*
D10*
X-162271100Y-97370900D03*
%TD*%
%TO.P,MX13,1,COL*%
%TO.N,COL3*%
X-269268600Y-82384900D03*
X-269268600Y-80860900D03*
D11*
X-264188600Y-81622900D03*
D12*
X-267463600Y-81622900D03*
D10*
%TO.P,MX13,2,ROW*%
%TO.N,Net-(D13-Pad2)*%
X-252758600Y-78320900D03*
D11*
X-257838600Y-79082900D03*
D12*
X-254536600Y-79082900D03*
D10*
X-252758600Y-79844900D03*
%TD*%
%TO.P,MX71,1,COL*%
%TO.N,COL5*%
X-240693600Y-242785900D03*
D12*
X-238888600Y-243547900D03*
D11*
X-235613600Y-243547900D03*
D10*
X-240693600Y-244309900D03*
D12*
%TO.P,MX71,2,ROW*%
%TO.N,Net-(D71-Pad2)*%
X-225961600Y-241007900D03*
D11*
X-229263600Y-241007900D03*
D10*
X-224183600Y-241769900D03*
X-224183600Y-240245900D03*
%TD*%
%TO.P,MX37,1,COL*%
%TO.N,COL4*%
X-250218600Y-138010900D03*
D12*
X-248413600Y-138772900D03*
D10*
X-250218600Y-139534900D03*
D11*
X-245138600Y-138772900D03*
D12*
%TO.P,MX37,2,ROW*%
%TO.N,Net-(D37-Pad2)*%
X-235486600Y-136232900D03*
D10*
X-233708600Y-135470900D03*
D11*
X-238788600Y-136232900D03*
D10*
X-233708600Y-136994900D03*
%TD*%
D12*
%TO.P,MX1,1,COL*%
%TO.N,COL0*%
X-334138600Y-53047900D03*
D11*
X-330863600Y-53047900D03*
D10*
X-335943600Y-53809900D03*
X-335943600Y-52285900D03*
D11*
%TO.P,MX1,2,ROW*%
%TO.N,Net-(D1-Pad2)*%
X-324513600Y-50507900D03*
D12*
X-321211600Y-50507900D03*
D10*
X-319433600Y-51269900D03*
X-319433600Y-49745900D03*
%TD*%
D11*
%TO.P,MX23,1,COL*%
%TO.N,COL5*%
X-226088600Y-100672900D03*
D10*
X-231168600Y-99910900D03*
D12*
X-229363600Y-100672900D03*
D10*
X-231168600Y-101434900D03*
D12*
%TO.P,MX23,2,ROW*%
%TO.N,Net-(D23-Pad2)*%
X-216436600Y-98132900D03*
D10*
X-214658600Y-98894900D03*
X-214658600Y-97370900D03*
D11*
X-219738600Y-98132900D03*
%TD*%
D12*
%TO.P,MX47,1,COL*%
%TO.N,COL5*%
X-229363600Y-167347900D03*
D10*
X-231168600Y-168109900D03*
X-231168600Y-166585900D03*
D11*
X-226088600Y-167347900D03*
D10*
%TO.P,MX47,2,ROW*%
%TO.N,Net-(D47-Pad2)*%
X-214658600Y-165569900D03*
D12*
X-216436600Y-164807900D03*
D11*
X-219738600Y-164807900D03*
D10*
X-214658600Y-164045900D03*
%TD*%
D12*
%TO.P,MX3,1,COL*%
%TO.N,COL2*%
X-296038600Y-53047900D03*
D10*
X-297843600Y-53809900D03*
X-297843600Y-52285900D03*
D11*
X-292763600Y-53047900D03*
D12*
%TO.P,MX3,2,ROW*%
%TO.N,Net-(D3-Pad2)*%
X-283111600Y-50507900D03*
D10*
X-281333600Y-49745900D03*
X-281333600Y-51269900D03*
D11*
X-286413600Y-50507900D03*
%TD*%
D12*
%TO.P,MX70,1,COL*%
%TO.N,COL4*%
X-248413600Y-224497900D03*
D11*
X-245138600Y-224497900D03*
D10*
X-250218600Y-223735900D03*
X-250218600Y-225259900D03*
D11*
%TO.P,MX70,2,ROW*%
%TO.N,Net-(D70-Pad2)*%
X-238788600Y-221957900D03*
D10*
X-233708600Y-221195900D03*
D12*
X-235486600Y-221957900D03*
D10*
X-233708600Y-222719900D03*
%TD*%
D12*
%TO.P,MX16,1,COL*%
%TO.N,COL6*%
X-200788600Y-81622900D03*
D10*
X-202593600Y-80860900D03*
X-202593600Y-82384900D03*
D11*
X-197513600Y-81622900D03*
D10*
%TO.P,MX16,2,ROW*%
%TO.N,Net-(D16-Pad2)*%
X-186083600Y-78320900D03*
D11*
X-191163600Y-79082900D03*
D10*
X-186083600Y-79844900D03*
D12*
X-187861600Y-79082900D03*
%TD*%
%TO.P,MX8,1,COL*%
%TO.N,COL7*%
X-179357300Y-53047900D03*
D10*
X-181162300Y-52285900D03*
X-181162300Y-53809900D03*
D11*
X-176082300Y-53047900D03*
D12*
%TO.P,MX8,2,ROW*%
%TO.N,Net-(D8-Pad2)*%
X-166430300Y-50507900D03*
D10*
X-164652300Y-49745900D03*
D11*
X-169732300Y-50507900D03*
D10*
X-164652300Y-51269900D03*
%TD*%
%TO.P,MX33,1,COL*%
%TO.N,COL0*%
X-335943600Y-139534900D03*
X-335943600Y-138010900D03*
D12*
X-334138600Y-138772900D03*
D11*
X-330863600Y-138772900D03*
D10*
%TO.P,MX33,2,ROW*%
%TO.N,Net-(D33-Pad2)*%
X-319433600Y-136994900D03*
D12*
X-321211600Y-136232900D03*
D11*
X-324513600Y-136232900D03*
D10*
X-319433600Y-135470900D03*
%TD*%
D11*
%TO.P,MX2,1,COL*%
%TO.N,cOL1*%
X-311813600Y-53047900D03*
D10*
X-316893600Y-52285900D03*
X-316893600Y-53809900D03*
D12*
X-315088600Y-53047900D03*
%TO.P,MX2,2,ROW*%
%TO.N,Net-(D2-Pad2)*%
X-302161600Y-50507900D03*
D11*
X-305463600Y-50507900D03*
D10*
X-300383600Y-49745900D03*
X-300383600Y-51269900D03*
%TD*%
D11*
%TO.P,MX27,1,COL*%
%TO.N,COL2*%
X-292763600Y-119722900D03*
D12*
X-296038600Y-119722900D03*
D10*
X-297843600Y-118960900D03*
X-297843600Y-120484900D03*
D11*
%TO.P,MX27,2,ROW*%
%TO.N,Net-(D27-Pad2)*%
X-286413600Y-117182900D03*
D10*
X-281333600Y-117944900D03*
X-281333600Y-116420900D03*
D12*
X-283111600Y-117182900D03*
%TD*%
D11*
%TO.P,MX31,1,COL*%
%TO.N,COL6*%
X-197513600Y-110197900D03*
D10*
X-202593600Y-110959900D03*
X-202593600Y-109435900D03*
D12*
X-200788600Y-110197900D03*
D10*
%TO.P,MX31,2,ROW*%
%TO.N,Net-(D31-Pad2)*%
X-186083600Y-108419900D03*
D12*
X-187861600Y-107657900D03*
D11*
X-191163600Y-107657900D03*
D10*
X-186083600Y-106895900D03*
%TD*%
%TO.P,MX50,1,COL*%
%TO.N,COL8*%
X-159731100Y-166585900D03*
X-159731100Y-168109900D03*
D11*
X-154651100Y-167347900D03*
D12*
X-157926100Y-167347900D03*
D10*
%TO.P,MX50,2,ROW*%
%TO.N,Net-(D50-Pad2)*%
X-143221100Y-165569900D03*
X-143221100Y-164045900D03*
D11*
X-148301100Y-164807900D03*
D12*
X-144999100Y-164807900D03*
%TD*%
D10*
%TO.P,MX41,1,COL*%
%TO.N,COL8*%
X-159731100Y-139534900D03*
X-159731100Y-138010900D03*
D12*
X-157926100Y-138772900D03*
D11*
X-154651100Y-138772900D03*
D12*
%TO.P,MX41,2,ROW*%
%TO.N,Net-(D41-Pad2)*%
X-144999100Y-136232900D03*
D10*
X-143221100Y-135470900D03*
X-143221100Y-136994900D03*
D11*
X-148301100Y-136232900D03*
%TD*%
D10*
%TO.P,MX59,1,COL*%
%TO.N,COL2*%
X-288318600Y-204685900D03*
D11*
X-283238600Y-205447900D03*
D10*
X-288318600Y-206209900D03*
D12*
X-286513600Y-205447900D03*
D10*
%TO.P,MX59,2,ROW*%
%TO.N,Net-(D59-Pad2)*%
X-271808600Y-203669900D03*
D11*
X-276888600Y-202907900D03*
D10*
X-271808600Y-202145900D03*
D12*
X-273586600Y-202907900D03*
%TD*%
D10*
%TO.P,MX65,1,COL*%
%TO.N,COL8*%
X-159731100Y-225259900D03*
D11*
X-154651100Y-224497900D03*
D12*
X-157926100Y-224497900D03*
D10*
X-159731100Y-223735900D03*
%TO.P,MX65,2,ROW*%
%TO.N,Net-(D65-Pad2)*%
X-143221100Y-222719900D03*
X-143221100Y-221195900D03*
D11*
X-148301100Y-221957900D03*
D12*
X-144999100Y-221957900D03*
%TD*%
%TO.P,MX48,1,COL*%
%TO.N,COL6*%
X-200788600Y-167347900D03*
D11*
X-197513600Y-167347900D03*
D10*
X-202593600Y-168109900D03*
X-202593600Y-166585900D03*
%TO.P,MX48,2,ROW*%
%TO.N,Net-(D48-Pad2)*%
X-186083600Y-165569900D03*
X-186083600Y-164045900D03*
D12*
X-187861600Y-164807900D03*
D11*
X-191163600Y-164807900D03*
%TD*%
D12*
%TO.P,MX58,1,COL*%
%TO.N,cOL1*%
X-310326100Y-214972900D03*
D11*
X-307051100Y-214972900D03*
D10*
X-312131100Y-214210900D03*
X-312131100Y-215734900D03*
D11*
%TO.P,MX58,2,ROW*%
%TO.N,Net-(D58-Pad2)*%
X-300701100Y-212432900D03*
D10*
X-295621100Y-211670900D03*
X-295621100Y-213194900D03*
D12*
X-297399100Y-212432900D03*
%TD*%
D11*
%TO.P,MX73,1,COL*%
%TO.N,COL7*%
X-173701100Y-243547900D03*
D10*
X-178781100Y-244309900D03*
D12*
X-176976100Y-243547900D03*
D10*
X-178781100Y-242785900D03*
D12*
%TO.P,MX73,2,ROW*%
%TO.N,Net-(D73-Pad2)*%
X-164049100Y-241007900D03*
D11*
X-167351100Y-241007900D03*
D10*
X-162271100Y-241769900D03*
X-162271100Y-240245900D03*
%TD*%
D11*
%TO.P,MX20,1,COL*%
%TO.N,COL2*%
X-292763600Y-100672900D03*
D10*
X-297843600Y-99910900D03*
D12*
X-296038600Y-100672900D03*
D10*
X-297843600Y-101434900D03*
D11*
%TO.P,MX20,2,ROW*%
%TO.N,Net-(D20-Pad2)*%
X-286413600Y-98132900D03*
D10*
X-281333600Y-98894900D03*
X-281333600Y-97370900D03*
D12*
X-283111600Y-98132900D03*
%TD*%
D11*
%TO.P,MX43,1,COL*%
%TO.N,cOL1*%
X-307051100Y-167347900D03*
D10*
X-312131100Y-168109900D03*
X-312131100Y-166585900D03*
D12*
X-310326100Y-167347900D03*
D10*
%TO.P,MX43,2,ROW*%
%TO.N,Net-(D43-Pad2)*%
X-295621100Y-165569900D03*
X-295621100Y-164045900D03*
D11*
X-300701100Y-164807900D03*
D12*
X-297399100Y-164807900D03*
%TD*%
D10*
%TO.P,MX34,1,COL*%
%TO.N,cOL1*%
X-316893600Y-138010900D03*
D11*
X-311813600Y-138772900D03*
D12*
X-315088600Y-138772900D03*
D10*
X-316893600Y-139534900D03*
D11*
%TO.P,MX34,2,ROW*%
%TO.N,Net-(D34-Pad2)*%
X-305463600Y-136232900D03*
D10*
X-300383600Y-136994900D03*
X-300383600Y-135470900D03*
D12*
X-302161600Y-136232900D03*
%TD*%
D10*
%TO.P,MX39,1,COL*%
%TO.N,COL6*%
X-202593600Y-139534900D03*
X-202593600Y-138010900D03*
D11*
X-197513600Y-138772900D03*
D12*
X-200788600Y-138772900D03*
D10*
%TO.P,MX39,2,ROW*%
%TO.N,Net-(D39-Pad2)*%
X-186083600Y-135470900D03*
D11*
X-191163600Y-136232900D03*
D12*
X-187861600Y-136232900D03*
D10*
X-186083600Y-136994900D03*
%TD*%
%TO.P,MX17,1,COL*%
%TO.N,COL7*%
X-178781100Y-80860900D03*
X-178781100Y-82384900D03*
D12*
X-176976100Y-81622900D03*
D11*
X-173701100Y-81622900D03*
D10*
%TO.P,MX17,2,ROW*%
%TO.N,Net-(D17-Pad2)*%
X-162271100Y-79844900D03*
D12*
X-164049100Y-79082900D03*
D10*
X-162271100Y-78320900D03*
D11*
X-167351100Y-79082900D03*
%TD*%
D12*
%TO.P,MX4,1,COL*%
%TO.N,COL3*%
X-267463600Y-53047900D03*
D11*
X-264188600Y-53047900D03*
D10*
X-269268600Y-52285900D03*
X-269268600Y-53809900D03*
%TO.P,MX4,2,ROW*%
%TO.N,Net-(D4-Pad2)*%
X-252758600Y-51269900D03*
D12*
X-254536600Y-50507900D03*
D10*
X-252758600Y-49745900D03*
D11*
X-257838600Y-50507900D03*
%TD*%
%TO.P,MX7,1,COL*%
%TO.N,COL6*%
X-197513600Y-53047900D03*
D10*
X-202593600Y-53809900D03*
D12*
X-200788600Y-53047900D03*
D10*
X-202593600Y-52285900D03*
D12*
%TO.P,MX7,2,ROW*%
%TO.N,Net-(D7-Pad2)*%
X-187861600Y-50507900D03*
D11*
X-191163600Y-50507900D03*
D10*
X-186083600Y-51269900D03*
X-186083600Y-49745900D03*
%TD*%
D11*
%TO.P,MX18,1,COL*%
%TO.N,COL0*%
X-330863600Y-100672900D03*
D10*
X-335943600Y-99910900D03*
X-335943600Y-101434900D03*
D12*
X-334138600Y-100672900D03*
D10*
%TO.P,MX18,2,ROW*%
%TO.N,Net-(D18-Pad2)*%
X-319433600Y-98894900D03*
D12*
X-321211600Y-98132900D03*
D10*
X-319433600Y-97370900D03*
D11*
X-324513600Y-98132900D03*
%TD*%
D12*
%TO.P,MX54,1,COL*%
%TO.N,COL3*%
X-267463600Y-186397900D03*
D11*
X-264188600Y-186397900D03*
D10*
X-269268600Y-185635900D03*
X-269268600Y-187159900D03*
D12*
%TO.P,MX54,2,ROW*%
%TO.N,Net-(D54-Pad2)*%
X-254536600Y-183857900D03*
D10*
X-252758600Y-184619900D03*
D11*
X-257838600Y-183857900D03*
D10*
X-252758600Y-183095900D03*
%TD*%
%TO.P,MX29,1,COL*%
%TO.N,COL4*%
X-250218600Y-118960900D03*
D11*
X-245138600Y-119722900D03*
D12*
X-248413600Y-119722900D03*
D10*
X-250218600Y-120484900D03*
D11*
%TO.P,MX29,2,ROW*%
%TO.N,Net-(D29-Pad2)*%
X-238788600Y-117182900D03*
D10*
X-233708600Y-117944900D03*
D12*
X-235486600Y-117182900D03*
D10*
X-233708600Y-116420900D03*
%TD*%
D13*
%TO.P,D24,1,K*%
%TO.N,ROW2*%
X-171566500Y-108204000D03*
%TO.P,D24,2,A*%
%TO.N,Net-(D24-Pad2)*%
X-168266500Y-108204000D03*
%TD*%
%TO.P,D53,1,K*%
%TO.N,ROW6*%
X-281104000Y-193929000D03*
%TO.P,D53,2,A*%
%TO.N,Net-(D53-Pad2)*%
X-277804000Y-193929000D03*
%TD*%
%TO.P,D29,1,K*%
%TO.N,ROW3*%
X-243004000Y-127254000D03*
%TO.P,D29,2,A*%
%TO.N,Net-(D29-Pad2)*%
X-239704000Y-127254000D03*
%TD*%
D14*
%TO.P,C5,1*%
%TO.N,+5V*%
X-208131200Y-200662500D03*
%TO.P,C5,2*%
%TO.N,GND*%
X-208131200Y-202562500D03*
%TD*%
D13*
%TO.P,D6,1,K*%
%TO.N,ROW0*%
X-223954000Y-60579000D03*
%TO.P,D6,2,A*%
%TO.N,Net-(D6-Pad2)*%
X-220654000Y-60579000D03*
%TD*%
D15*
%TO.P,C1,1*%
%TO.N,GND*%
X-202680000Y-210480000D03*
%TO.P,C1,2*%
%TO.N,Net-(C1-Pad2)*%
X-202680000Y-208580000D03*
%TD*%
D16*
%TO.P,Y1,1,1*%
%TO.N,Net-(C1-Pad2)*%
X-200641500Y-208700000D03*
%TO.P,Y1,2,2*%
%TO.N,GND*%
X-198441500Y-208700000D03*
%TO.P,Y1,3,3*%
%TO.N,Net-(C2-Pad2)*%
X-198441500Y-210400000D03*
%TO.P,Y1,4,4*%
%TO.N,GND*%
X-200641500Y-210400000D03*
%TD*%
D13*
%TO.P,D33,1,K*%
%TO.N,ROW4*%
X-328729000Y-146304000D03*
%TO.P,D33,2,A*%
%TO.N,Net-(D33-Pad2)*%
X-325429000Y-146304000D03*
%TD*%
%TO.P,D13,1,K*%
%TO.N,ROW1*%
X-262054000Y-89154000D03*
%TO.P,D13,2,A*%
%TO.N,Net-(D13-Pad2)*%
X-258754000Y-89154000D03*
%TD*%
%TO.P,D11,1,K*%
%TO.N,ROW1*%
X-309679000Y-89154000D03*
%TO.P,D11,2,A*%
%TO.N,Net-(D11-Pad2)*%
X-306379000Y-89154000D03*
%TD*%
%TO.P,D9,1,K*%
%TO.N,ROW0*%
X-152516500Y-60579000D03*
%TO.P,D9,2,A*%
%TO.N,Net-(D9-Pad2)*%
X-149216500Y-60579000D03*
%TD*%
%TO.P,D19,1,K*%
%TO.N,ROW2*%
X-309679000Y-108204000D03*
%TO.P,D19,2,A*%
%TO.N,Net-(D19-Pad2)*%
X-306379000Y-108204000D03*
%TD*%
%TO.P,D52,1,K*%
%TO.N,ROW6*%
X-304916500Y-198691500D03*
%TO.P,D52,2,A*%
%TO.N,Net-(D52-Pad2)*%
X-301616500Y-198691500D03*
%TD*%
D17*
%TO.P,C4,1*%
%TO.N,+5V*%
X-204786300Y-188060000D03*
%TO.P,C4,2*%
%TO.N,GND*%
X-202886300Y-188060000D03*
%TD*%
D18*
%TO.P,R3,1*%
%TO.N,+5V*%
X-186531200Y-206493700D03*
%TO.P,R3,2*%
%TO.N,Net-(R3-Pad2)*%
X-186531200Y-204668700D03*
%TD*%
D13*
%TO.P,D8,1,K*%
%TO.N,ROW0*%
X-173947700Y-60579000D03*
%TO.P,D8,2,A*%
%TO.N,Net-(D8-Pad2)*%
X-170647700Y-60579000D03*
%TD*%
%TO.P,D73,1,K*%
%TO.N,ROW8*%
X-171566500Y-251079000D03*
%TO.P,D73,2,A*%
%TO.N,Net-(D73-Pad2)*%
X-168266500Y-251079000D03*
%TD*%
%TO.P,D39,1,K*%
%TO.N,ROW4*%
X-195379000Y-146304000D03*
%TO.P,D39,2,A*%
%TO.N,Net-(D39-Pad2)*%
X-192079000Y-146304000D03*
%TD*%
%TO.P,D59,1,K*%
%TO.N,ROW7*%
X-281104000Y-212979000D03*
%TO.P,D59,2,A*%
%TO.N,Net-(D59-Pad2)*%
X-277804000Y-212979000D03*
%TD*%
%TO.P,D34,1,K*%
%TO.N,ROW4*%
X-309679000Y-146304000D03*
%TO.P,D34,2,A*%
%TO.N,Net-(D34-Pad2)*%
X-306379000Y-146304000D03*
%TD*%
%TO.P,D54,1,K*%
%TO.N,ROW6*%
X-262054000Y-193929000D03*
%TO.P,D54,2,A*%
%TO.N,Net-(D54-Pad2)*%
X-258754000Y-193929000D03*
%TD*%
%TO.P,D15,1,K*%
%TO.N,ROW1*%
X-223954000Y-89154000D03*
%TO.P,D15,2,A*%
%TO.N,Net-(D15-Pad2)*%
X-220654000Y-89154000D03*
%TD*%
%TO.P,D63,1,K*%
%TO.N,ROW7*%
X-190616500Y-232029000D03*
%TO.P,D63,2,A*%
%TO.N,Net-(D63-Pad2)*%
X-187316500Y-232029000D03*
%TD*%
%TO.P,D36,1,K*%
%TO.N,ROW4*%
X-262054000Y-146304000D03*
%TO.P,D36,2,A*%
%TO.N,Net-(D36-Pad2)*%
X-258754000Y-146304000D03*
%TD*%
%TO.P,D62,1,K*%
%TO.N,ROW7*%
X-223954000Y-212979000D03*
%TO.P,D62,2,A*%
%TO.N,Net-(D62-Pad2)*%
X-220654000Y-212979000D03*
%TD*%
D19*
%TO.P,USB1,1,GND*%
%TO.N,GND*%
X-206362500Y-52125000D03*
%TO.P,USB1,2,ID*%
%TO.N,unconnected-(USB1-Pad2)*%
X-207162500Y-52125000D03*
%TO.P,USB1,3,D+*%
%TO.N,D+*%
X-207962500Y-52125000D03*
%TO.P,USB1,4,D-*%
%TO.N,D-*%
X-208762500Y-52125000D03*
%TO.P,USB1,5,VBUS*%
%TO.N,VCC*%
X-209562500Y-52125000D03*
D20*
%TO.P,USB1,6,SHIELD*%
%TO.N,GND*%
X-204312500Y-47625000D03*
X-211612500Y-52125000D03*
X-211612500Y-47625000D03*
X-204312500Y-52125000D03*
%TD*%
D13*
%TO.P,D31,1,K*%
%TO.N,ROW3*%
X-195379000Y-117729000D03*
%TO.P,D31,2,A*%
%TO.N,Net-(D31-Pad2)*%
X-192079000Y-117729000D03*
%TD*%
%TO.P,D22,1,K*%
%TO.N,ROW2*%
X-243004000Y-108204000D03*
%TO.P,D22,2,A*%
%TO.N,Net-(D22-Pad2)*%
X-239704000Y-108204000D03*
%TD*%
%TO.P,D17,1,K*%
%TO.N,ROW1*%
X-171566500Y-89154000D03*
%TO.P,D17,2,A*%
%TO.N,Net-(D17-Pad2)*%
X-168266500Y-89154000D03*
%TD*%
%TO.P,D14,1,K*%
%TO.N,ROW1*%
X-243004000Y-89154000D03*
%TO.P,D14,2,A*%
%TO.N,Net-(D14-Pad2)*%
X-239704000Y-89154000D03*
%TD*%
%TO.P,D4,1,K*%
%TO.N,ROW0*%
X-262054000Y-60579000D03*
%TO.P,D4,2,A*%
%TO.N,Net-(D4-Pad2)*%
X-258754000Y-60579000D03*
%TD*%
D14*
%TO.P,C2,1*%
%TO.N,GND*%
X-195800000Y-208600000D03*
%TO.P,C2,2*%
%TO.N,Net-(C2-Pad2)*%
X-195800000Y-210500000D03*
%TD*%
D13*
%TO.P,D3,1,K*%
%TO.N,ROW0*%
X-290629000Y-60579000D03*
%TO.P,D3,2,A*%
%TO.N,Net-(D3-Pad2)*%
X-287329000Y-60579000D03*
%TD*%
%TO.P,D23,1,K*%
%TO.N,ROW2*%
X-223954000Y-108204000D03*
%TO.P,D23,2,A*%
%TO.N,Net-(D23-Pad2)*%
X-220654000Y-108204000D03*
%TD*%
%TO.P,D43,1,K*%
%TO.N,ROW5*%
X-304916500Y-174879000D03*
%TO.P,D43,2,A*%
%TO.N,Net-(D43-Pad2)*%
X-301616500Y-174879000D03*
%TD*%
%TO.P,D51,1,K*%
%TO.N,ROW6*%
X-328729000Y-198691500D03*
%TO.P,D51,2,A*%
%TO.N,Net-(D51-Pad2)*%
X-325429000Y-198691500D03*
%TD*%
%TO.P,D64,1,K*%
%TO.N,ROW7*%
X-171566500Y-212979000D03*
%TO.P,D64,2,A*%
%TO.N,Net-(D64-Pad2)*%
X-168266500Y-212979000D03*
%TD*%
%TO.P,D55,1,K*%
%TO.N,ROW6*%
X-243004000Y-193929000D03*
%TO.P,D55,2,A*%
%TO.N,Net-(D55-Pad2)*%
X-239704000Y-193929000D03*
%TD*%
%TO.P,D61,1,K*%
%TO.N,ROW7*%
X-243004000Y-212979000D03*
%TO.P,D61,2,A*%
%TO.N,Net-(D61-Pad2)*%
X-239704000Y-212979000D03*
%TD*%
%TO.P,D70,1,K*%
%TO.N,ROW8*%
X-243004000Y-232029000D03*
%TO.P,D70,2,A*%
%TO.N,Net-(D70-Pad2)*%
X-239704000Y-232029000D03*
%TD*%
%TO.P,D28,1,K*%
%TO.N,ROW3*%
X-262054000Y-127254000D03*
%TO.P,D28,2,A*%
%TO.N,Net-(D28-Pad2)*%
X-258754000Y-127254000D03*
%TD*%
%TO.P,D21,1,K*%
%TO.N,ROW2*%
X-262054000Y-108204000D03*
%TO.P,D21,2,A*%
%TO.N,Net-(D21-Pad2)*%
X-258754000Y-108204000D03*
%TD*%
%TO.P,D44,1,K*%
%TO.N,ROW5*%
X-281104000Y-174879000D03*
%TO.P,D44,2,A*%
%TO.N,Net-(D44-Pad2)*%
X-277804000Y-174879000D03*
%TD*%
%TO.P,D40,1,K*%
%TO.N,ROW4*%
X-171566500Y-146304000D03*
%TO.P,D40,2,A*%
%TO.N,Net-(D40-Pad2)*%
X-168266500Y-146304000D03*
%TD*%
%TO.P,D41,1,K*%
%TO.N,ROW4*%
X-152516500Y-146304000D03*
%TO.P,D41,2,A*%
%TO.N,Net-(D41-Pad2)*%
X-149216500Y-146304000D03*
%TD*%
%TO.P,D7,1,K*%
%TO.N,ROW0*%
X-195379000Y-60579000D03*
%TO.P,D7,2,A*%
%TO.N,Net-(D7-Pad2)*%
X-192079000Y-60579000D03*
%TD*%
%TO.P,D65,1,K*%
%TO.N,ROW7*%
X-152516500Y-232029000D03*
%TO.P,D65,2,A*%
%TO.N,Net-(D65-Pad2)*%
X-149216500Y-232029000D03*
%TD*%
%TO.P,D69,1,K*%
%TO.N,ROW8*%
X-262054000Y-232029000D03*
%TO.P,D69,2,A*%
%TO.N,Net-(D69-Pad2)*%
X-258754000Y-232029000D03*
%TD*%
%TO.P,D18,1,K*%
%TO.N,ROW2*%
X-328729000Y-108204000D03*
%TO.P,D18,2,A*%
%TO.N,Net-(D18-Pad2)*%
X-325429000Y-108204000D03*
%TD*%
%TO.P,D26,1,K*%
%TO.N,ROW3*%
X-309679000Y-127254000D03*
%TO.P,D26,2,A*%
%TO.N,Net-(D26-Pad2)*%
X-306379000Y-127254000D03*
%TD*%
D14*
%TO.P,C6,1*%
%TO.N,+5V*%
X-189875000Y-204631200D03*
%TO.P,C6,2*%
%TO.N,GND*%
X-189875000Y-206531200D03*
%TD*%
D13*
%TO.P,D71,1,K*%
%TO.N,ROW8*%
X-233479000Y-251079000D03*
%TO.P,D71,2,A*%
%TO.N,Net-(D71-Pad2)*%
X-230179000Y-251079000D03*
%TD*%
%TO.P,D47,1,K*%
%TO.N,ROW5*%
X-223954000Y-174879000D03*
%TO.P,D47,2,A*%
%TO.N,Net-(D47-Pad2)*%
X-220654000Y-174879000D03*
%TD*%
%TO.P,D25,1,K*%
%TO.N,ROW3*%
X-328729000Y-127254000D03*
%TO.P,D25,2,A*%
%TO.N,Net-(D25-Pad2)*%
X-325429000Y-127254000D03*
%TD*%
%TO.P,D5,1,K*%
%TO.N,ROW0*%
X-243004000Y-60579000D03*
%TO.P,D5,2,A*%
%TO.N,Net-(D5-Pad2)*%
X-239704000Y-60579000D03*
%TD*%
%TO.P,D20,1,K*%
%TO.N,ROW2*%
X-290629000Y-108204000D03*
%TO.P,D20,2,A*%
%TO.N,Net-(D20-Pad2)*%
X-287329000Y-108204000D03*
%TD*%
D21*
%TO.P,C7,1*%
%TO.N,+5V*%
X-194051200Y-188060000D03*
%TO.P,C7,2*%
%TO.N,GND*%
X-195951200Y-188060000D03*
%TD*%
D13*
%TO.P,D42,1,K*%
%TO.N,ROW5*%
X-328729000Y-174879000D03*
%TO.P,D42,2,A*%
%TO.N,Net-(D42-Pad2)*%
X-325429000Y-174879000D03*
%TD*%
D22*
%TO.P,F1,1*%
%TO.N,VCC*%
X-212344000Y-55937500D03*
%TO.P,F1,2*%
%TO.N,+5V*%
X-212344000Y-58737500D03*
%TD*%
D13*
%TO.P,D66,1,K*%
%TO.N,ROW8*%
X-328729000Y-251079000D03*
%TO.P,D66,2,A*%
%TO.N,Net-(D66-Pad2)*%
X-325429000Y-251079000D03*
%TD*%
%TO.P,D46,1,K*%
%TO.N,ROW5*%
X-243004000Y-174879000D03*
%TO.P,D46,2,A*%
%TO.N,Net-(D46-Pad2)*%
X-239704000Y-174879000D03*
%TD*%
%TO.P,D50,1,K*%
%TO.N,ROW5*%
X-152516500Y-174879000D03*
%TO.P,D50,2,A*%
%TO.N,Net-(D50-Pad2)*%
X-149216500Y-174879000D03*
%TD*%
%TO.P,D58,1,K*%
%TO.N,ROW7*%
X-304916500Y-222504000D03*
%TO.P,D58,2,A*%
%TO.N,Net-(D58-Pad2)*%
X-301616500Y-222504000D03*
%TD*%
%TO.P,D45,1,K*%
%TO.N,ROW5*%
X-262054000Y-174879000D03*
%TO.P,D45,2,A*%
%TO.N,Net-(D45-Pad2)*%
X-258754000Y-174879000D03*
%TD*%
%TO.P,D74,1,K*%
%TO.N,ROW8*%
X-171566500Y-232029000D03*
%TO.P,D74,2,A*%
%TO.N,Net-(D74-Pad2)*%
X-168266500Y-232029000D03*
%TD*%
%TO.P,D72,1,K*%
%TO.N,ROW8*%
X-223954000Y-232029000D03*
%TO.P,D72,2,A*%
%TO.N,Net-(D72-Pad2)*%
X-220654000Y-232029000D03*
%TD*%
D18*
%TO.P,R4,1*%
%TO.N,Net-(R4-Pad1)*%
X-208280000Y-192936500D03*
%TO.P,R4,2*%
%TO.N,GND*%
X-208280000Y-191111500D03*
%TD*%
D13*
%TO.P,D37,1,K*%
%TO.N,ROW4*%
X-243004000Y-146304000D03*
%TO.P,D37,2,A*%
%TO.N,Net-(D37-Pad2)*%
X-239704000Y-146304000D03*
%TD*%
%TO.P,D1,1,K*%
%TO.N,ROW0*%
X-328729000Y-60579000D03*
%TO.P,D1,2,A*%
%TO.N,Net-(D1-Pad2)*%
X-325429000Y-60579000D03*
%TD*%
%TO.P,D48,1,K*%
%TO.N,ROW5*%
X-195379000Y-174879000D03*
%TO.P,D48,2,A*%
%TO.N,Net-(D48-Pad2)*%
X-192079000Y-174879000D03*
%TD*%
D23*
%TO.P,U1,1,PE6*%
%TO.N,unconnected-(U1-Pad1)*%
X-193531200Y-192850000D03*
%TO.P,U1,2,UVCC*%
%TO.N,+5V*%
X-193531200Y-193650000D03*
%TO.P,U1,3,D-*%
%TO.N,P-*%
X-193531200Y-194450000D03*
%TO.P,U1,4,D+*%
%TO.N,P+*%
X-193531200Y-195250000D03*
%TO.P,U1,5,UGND*%
%TO.N,GND*%
X-193531200Y-196050000D03*
%TO.P,U1,6,UCAP*%
%TO.N,Net-(C3-Pad1)*%
X-193531200Y-196850000D03*
%TO.P,U1,7,VBUS*%
%TO.N,+5V*%
X-193531200Y-197650000D03*
%TO.P,U1,8,PB0*%
%TO.N,unconnected-(U1-Pad8)*%
X-193531200Y-198450000D03*
%TO.P,U1,9,PB1*%
%TO.N,unconnected-(U1-Pad9)*%
X-193531200Y-199250000D03*
%TO.P,U1,10,PB2*%
%TO.N,unconnected-(U1-Pad10)*%
X-193531200Y-200050000D03*
%TO.P,U1,11,PB3*%
%TO.N,unconnected-(U1-Pad11)*%
X-193531200Y-200850000D03*
D24*
%TO.P,U1,12,PB7*%
%TO.N,unconnected-(U1-Pad12)*%
X-195231200Y-202550000D03*
%TO.P,U1,13,~{RESET}*%
%TO.N,Net-(R3-Pad2)*%
X-196031200Y-202550000D03*
%TO.P,U1,14,VCC*%
%TO.N,+5V*%
X-196831200Y-202550000D03*
%TO.P,U1,15,GND*%
%TO.N,GND*%
X-197631200Y-202550000D03*
%TO.P,U1,16,XTAL2*%
%TO.N,Net-(C2-Pad2)*%
X-198431200Y-202550000D03*
%TO.P,U1,17,XTAL1*%
%TO.N,Net-(C1-Pad2)*%
X-199231200Y-202550000D03*
%TO.P,U1,18,PD0*%
%TO.N,unconnected-(U1-Pad18)*%
X-200031200Y-202550000D03*
%TO.P,U1,19,PD1*%
%TO.N,unconnected-(U1-Pad19)*%
X-200831200Y-202550000D03*
%TO.P,U1,20,PD2*%
%TO.N,unconnected-(U1-Pad20)*%
X-201631200Y-202550000D03*
%TO.P,U1,21,PD3*%
%TO.N,unconnected-(U1-Pad21)*%
X-202431200Y-202550000D03*
%TO.P,U1,22,PD5*%
%TO.N,unconnected-(U1-Pad22)*%
X-203231200Y-202550000D03*
D23*
%TO.P,U1,23,GND*%
%TO.N,GND*%
X-204931200Y-200850000D03*
%TO.P,U1,24,AVCC*%
%TO.N,+5V*%
X-204931200Y-200050000D03*
%TO.P,U1,25,PD4*%
%TO.N,unconnected-(U1-Pad25)*%
X-204931200Y-199250000D03*
%TO.P,U1,26,PD6*%
%TO.N,unconnected-(U1-Pad26)*%
X-204931200Y-198450000D03*
%TO.P,U1,27,PD7*%
%TO.N,unconnected-(U1-Pad27)*%
X-204931200Y-197650000D03*
%TO.P,U1,28,PB4*%
%TO.N,unconnected-(U1-Pad28)*%
X-204931200Y-196850000D03*
%TO.P,U1,29,PB5*%
%TO.N,unconnected-(U1-Pad29)*%
X-204931200Y-196050000D03*
%TO.P,U1,30,PB6*%
%TO.N,unconnected-(U1-Pad30)*%
X-204931200Y-195250000D03*
%TO.P,U1,31,PC6*%
%TO.N,unconnected-(U1-Pad31)*%
X-204931200Y-194450000D03*
%TO.P,U1,32,PC7*%
%TO.N,unconnected-(U1-Pad32)*%
X-204931200Y-193650000D03*
%TO.P,U1,33,~{HWB}/PE2*%
%TO.N,Net-(R4-Pad1)*%
X-204931200Y-192850000D03*
D24*
%TO.P,U1,34,VCC*%
%TO.N,+5V*%
X-203231200Y-191150000D03*
%TO.P,U1,35,GND*%
%TO.N,GND*%
X-202431200Y-191150000D03*
%TO.P,U1,36,PF7*%
%TO.N,unconnected-(U1-Pad36)*%
X-201631200Y-191150000D03*
%TO.P,U1,37,PF6*%
%TO.N,unconnected-(U1-Pad37)*%
X-200831200Y-191150000D03*
%TO.P,U1,38,PF5*%
%TO.N,unconnected-(U1-Pad38)*%
X-200031200Y-191150000D03*
%TO.P,U1,39,PF4*%
%TO.N,unconnected-(U1-Pad39)*%
X-199231200Y-191150000D03*
%TO.P,U1,40,PF1*%
%TO.N,unconnected-(U1-Pad40)*%
X-198431200Y-191150000D03*
%TO.P,U1,41,PF0*%
%TO.N,unconnected-(U1-Pad41)*%
X-197631200Y-191150000D03*
%TO.P,U1,42,AREF*%
%TO.N,unconnected-(U1-Pad42)*%
X-196831200Y-191150000D03*
%TO.P,U1,43,GND*%
%TO.N,GND*%
X-196031200Y-191150000D03*
%TO.P,U1,44,AVCC*%
%TO.N,+5V*%
X-195231200Y-191150000D03*
%TD*%
D13*
%TO.P,D30,1,K*%
%TO.N,ROW3*%
X-223954000Y-127254000D03*
%TO.P,D30,2,A*%
%TO.N,Net-(D30-Pad2)*%
X-220654000Y-127254000D03*
%TD*%
%TO.P,D56,1,K*%
%TO.N,ROW6*%
X-223954000Y-193929000D03*
%TO.P,D56,2,A*%
%TO.N,Net-(D56-Pad2)*%
X-220654000Y-193929000D03*
%TD*%
%TO.P,D49,1,K*%
%TO.N,ROW5*%
X-171566500Y-174879000D03*
%TO.P,D49,2,A*%
%TO.N,Net-(D49-Pad2)*%
X-168266500Y-174879000D03*
%TD*%
%TO.P,D27,1,K*%
%TO.N,ROW3*%
X-290629000Y-127254000D03*
%TO.P,D27,2,A*%
%TO.N,Net-(D27-Pad2)*%
X-287329000Y-127254000D03*
%TD*%
D25*
%TO.P,R2,1*%
%TO.N,D+*%
X-207370000Y-59200000D03*
%TO.P,R2,2*%
%TO.N,P+*%
X-207370000Y-61025000D03*
%TD*%
D13*
%TO.P,D2,1,K*%
%TO.N,ROW0*%
X-309679000Y-60579000D03*
%TO.P,D2,2,A*%
%TO.N,Net-(D2-Pad2)*%
X-306379000Y-60579000D03*
%TD*%
%TO.P,D38,1,K*%
%TO.N,ROW4*%
X-223954000Y-146304000D03*
%TO.P,D38,2,A*%
%TO.N,Net-(D38-Pad2)*%
X-220654000Y-146304000D03*
%TD*%
%TO.P,D32,1,K*%
%TO.N,ROW3*%
X-171566500Y-127254000D03*
%TO.P,D32,2,A*%
%TO.N,Net-(D32-Pad2)*%
X-168266500Y-127254000D03*
%TD*%
%TO.P,D67,1,K*%
%TO.N,ROW8*%
X-281104000Y-251079000D03*
%TO.P,D67,2,A*%
%TO.N,Net-(D67-Pad2)*%
X-277804000Y-251079000D03*
%TD*%
D17*
%TO.P,C3,1*%
%TO.N,Net-(C3-Pad1)*%
X-189068700Y-198437500D03*
%TO.P,C3,2*%
%TO.N,GND*%
X-187168700Y-198437500D03*
%TD*%
D25*
%TO.P,R1,1*%
%TO.N,D-*%
X-209300000Y-59220000D03*
%TO.P,R1,2*%
%TO.N,P-*%
X-209300000Y-61045000D03*
%TD*%
D26*
%TO.P,SW1,1,1*%
%TO.N,GND*%
X-188660000Y-214200000D03*
%TO.P,SW1,2,2*%
%TO.N,Net-(R3-Pad2)*%
X-182460000Y-210500000D03*
%TO.P,SW1,3*%
%TO.N,N/C*%
X-188660000Y-210500000D03*
%TO.P,SW1,4*%
X-182460000Y-214200000D03*
%TD*%
D13*
%TO.P,D12,1,K*%
%TO.N,ROW1*%
X-290629000Y-89154000D03*
%TO.P,D12,2,A*%
%TO.N,Net-(D12-Pad2)*%
X-287329000Y-89154000D03*
%TD*%
%TO.P,D10,1,K*%
%TO.N,ROW1*%
X-328729000Y-89154000D03*
%TO.P,D10,2,A*%
%TO.N,Net-(D10-Pad2)*%
X-325429000Y-89154000D03*
%TD*%
%TO.P,D60,1,K*%
%TO.N,ROW7*%
X-262054000Y-212979000D03*
%TO.P,D60,2,A*%
%TO.N,Net-(D60-Pad2)*%
X-258754000Y-212979000D03*
%TD*%
%TO.P,D35,1,K*%
%TO.N,ROW4*%
X-290629000Y-146304000D03*
%TO.P,D35,2,A*%
%TO.N,Net-(D35-Pad2)*%
X-287329000Y-146304000D03*
%TD*%
%TO.P,D57,1,K*%
%TO.N,ROW7*%
X-328729000Y-222504000D03*
%TO.P,D57,2,A*%
%TO.N,Net-(D57-Pad2)*%
X-325429000Y-222504000D03*
%TD*%
%TO.P,D16,1,K*%
%TO.N,ROW1*%
X-195379000Y-89154000D03*
%TO.P,D16,2,A*%
%TO.N,Net-(D16-Pad2)*%
X-192079000Y-89154000D03*
%TD*%
%TO.P,D68,1,K*%
%TO.N,ROW8*%
X-281104000Y-232029000D03*
%TO.P,D68,2,A*%
%TO.N,Net-(D68-Pad2)*%
X-277804000Y-232029000D03*
%TD*%
D27*
%TO.N,P+*%
X-196364000Y-85737100D03*
X-190005000Y-195250000D03*
%TO.N,P-*%
X-209901000Y-66175400D03*
X-209901000Y-180307000D03*
%TO.N,ROW0*%
X-202796000Y-64516000D03*
X-212946000Y-64516000D03*
%TO.N,+5V*%
X-209296000Y-200660000D03*
X-194051000Y-189481000D03*
X-188468000Y-204724000D03*
X-204724000Y-186436000D03*
X-192024000Y-197612000D03*
X-191200000Y-193370000D03*
X-210993000Y-65937400D03*
X-210993000Y-181228000D03*
%TO.N,GND*%
X-213874000Y-191112000D03*
%TD*%
D28*
%TO.N,Net-(R4-Pad1)*%
X-204931200Y-192850000D02*
X-204931000Y-192850000D01*
X-208194000Y-192850000D02*
X-204931200Y-192850000D01*
X-208280000Y-192936000D02*
X-208194000Y-192850000D01*
X-208280000Y-192936000D02*
X-208280000Y-192936500D01*
%TO.N,Net-(R3-Pad2)*%
X-184761000Y-204669000D02*
X-186531000Y-204669000D01*
X-182460000Y-206970000D02*
X-184761000Y-204669000D01*
X-182460000Y-210500000D02*
X-182460000Y-206970000D01*
X-196031000Y-203257000D02*
X-196031000Y-202550000D01*
X-195663000Y-203625000D02*
X-196031000Y-203257000D01*
X-187575000Y-203625000D02*
X-195663000Y-203625000D01*
X-187053000Y-204147000D02*
X-187575000Y-203625000D01*
X-187053000Y-204147000D02*
X-186792000Y-204408000D01*
X-186792000Y-204408000D02*
X-186531000Y-204669000D01*
X-186531000Y-204669000D02*
X-186792000Y-204408000D01*
X-186792000Y-204408000D02*
X-187053000Y-204147000D01*
X-186791900Y-204408000D02*
X-186531200Y-204668700D01*
X-186792000Y-204408000D02*
X-186791900Y-204408000D01*
X-196031200Y-202550000D02*
X-196031000Y-202550000D01*
%TO.N,P+*%
X-200698000Y-85737100D02*
X-196364000Y-85737100D01*
X-207370000Y-79065000D02*
X-200698000Y-85737100D01*
X-207370000Y-61025000D02*
X-207370000Y-79065000D01*
X-193531000Y-195250000D02*
X-190005000Y-195250000D01*
X-193531000Y-195250000D02*
X-193531200Y-195250000D01*
D29*
%TO.N,D+*%
X-208138000Y-58432500D02*
X-207370000Y-59200000D01*
X-208138000Y-53987500D02*
X-208138000Y-58432500D01*
X-207962000Y-53812500D02*
X-208138000Y-53987500D01*
X-207962000Y-52968700D02*
X-207962000Y-53812500D01*
D28*
X-207962000Y-52968700D02*
X-207962000Y-52968200D01*
D29*
X-207962000Y-52968200D02*
X-207962000Y-52968700D01*
X-207962000Y-52125000D02*
X-207962000Y-52546600D01*
X-207962000Y-52546600D02*
X-207962000Y-52968200D01*
D28*
X-207962000Y-52968200D02*
X-207962000Y-52546600D01*
X-207962000Y-52546600D02*
X-207962000Y-52125000D01*
X-207962500Y-52546100D02*
X-207962500Y-52125000D01*
X-207962000Y-52546600D02*
X-207962500Y-52546100D01*
%TO.N,P-*%
X-199449000Y-180307000D02*
X-209901000Y-180307000D01*
X-193177000Y-186579000D02*
X-199449000Y-180307000D01*
X-193177000Y-190796000D02*
X-193177000Y-186579000D01*
X-194606000Y-192225000D02*
X-193177000Y-190796000D01*
X-194606000Y-194450000D02*
X-194606000Y-192225000D01*
X-193531200Y-194450000D02*
X-194606000Y-194450000D01*
X-209300000Y-65574600D02*
X-209901000Y-66175400D01*
X-209300000Y-61045000D02*
X-209300000Y-65574600D01*
X-193531000Y-194450000D02*
X-193531200Y-194450000D01*
D29*
%TO.N,D-*%
X-208588000Y-58507500D02*
X-209300000Y-59220000D01*
X-208588000Y-53987500D02*
X-208588000Y-58507500D01*
X-208762000Y-53812500D02*
X-208588000Y-53987500D01*
X-208762000Y-53050500D02*
X-208762000Y-53812500D01*
D28*
X-208762000Y-53050500D02*
X-208762000Y-53050000D01*
D29*
X-208762000Y-52288600D02*
X-208762000Y-53050000D01*
X-208762000Y-53050000D02*
X-208762000Y-53050500D01*
D28*
X-208762000Y-53050000D02*
X-208762000Y-52288600D01*
X-208762000Y-52288600D02*
X-208762000Y-52206800D01*
X-208762000Y-52206800D02*
X-208762000Y-52125000D01*
X-208762500Y-52206300D02*
X-208762500Y-52125000D01*
X-208762000Y-52206800D02*
X-208762500Y-52206300D01*
%TO.N,COL8*%
X-154651100Y-53047900D02*
X-154651000Y-53047900D01*
X-157926100Y-53047900D02*
X-154651100Y-53047900D01*
X-159731000Y-53809900D02*
X-159350000Y-53428900D01*
X-158969000Y-53047900D02*
X-157926100Y-53047900D01*
X-159350000Y-53428900D02*
X-158969000Y-53047900D01*
X-159350100Y-53428900D02*
X-159731100Y-53809900D01*
X-159350000Y-53428900D02*
X-159350100Y-53428900D01*
X-178019000Y-224498000D02*
X-176976000Y-224498000D01*
X-178781000Y-225260000D02*
X-178019000Y-224498000D01*
X-176976000Y-224498000D02*
X-176976100Y-224497900D01*
X-158969000Y-167348000D02*
X-157926000Y-167348000D01*
X-159731000Y-168110000D02*
X-158969000Y-167348000D01*
X-157926000Y-167348000D02*
X-157926100Y-167347900D01*
X-154651200Y-138773000D02*
X-154651000Y-138773000D01*
X-154651200Y-138773000D02*
X-154651100Y-138772900D01*
X-157926000Y-224498000D02*
X-157926100Y-224497900D01*
X-157926000Y-224498000D02*
X-154651000Y-224498000D01*
X-154651000Y-224498000D02*
X-154651100Y-224497900D01*
X-158969000Y-224498000D02*
X-157926000Y-224498000D01*
X-159731000Y-223736000D02*
X-158969000Y-224498000D01*
X-159731000Y-223736000D02*
X-159731100Y-223735900D01*
X-158969000Y-138773000D02*
X-157926000Y-138773000D01*
X-159731000Y-138011000D02*
X-158969000Y-138773000D01*
X-157926000Y-138773000D02*
X-154651200Y-138773000D01*
X-157926000Y-138773000D02*
X-157926100Y-138772900D01*
X-159731100Y-138010900D02*
X-159731000Y-138011000D01*
X-157926000Y-167348000D02*
X-154651200Y-167348000D01*
X-154651200Y-167348000D02*
X-154651000Y-167348000D01*
X-154651200Y-167348000D02*
X-154651100Y-167347900D01*
X-159731100Y-168109900D02*
X-159731000Y-168110000D01*
X-176976000Y-224498000D02*
X-173701200Y-224498000D01*
X-173701200Y-224498000D02*
X-173701000Y-224498000D01*
X-173701200Y-224498000D02*
X-173701100Y-224497900D01*
X-178781100Y-225259900D02*
X-178781000Y-225260000D01*
%TO.N,COL7*%
X-178019000Y-138773000D02*
X-178781000Y-138011000D01*
X-178019000Y-138773000D02*
X-178781000Y-139535000D01*
X-176082300Y-53047900D02*
X-176082000Y-53047900D01*
X-173701100Y-81622900D02*
X-173701000Y-81622900D01*
X-176976100Y-81622900D02*
X-173701100Y-81622900D01*
X-178781000Y-82384900D02*
X-178400000Y-82003900D01*
X-178019000Y-81622900D02*
X-176976100Y-81622900D01*
X-178400000Y-82003900D02*
X-178019000Y-81622900D01*
X-178400100Y-82003900D02*
X-178781100Y-82384900D01*
X-178400000Y-82003900D02*
X-178400100Y-82003900D01*
X-181162000Y-53809900D02*
X-181162300Y-53809900D01*
X-173701200Y-167348000D02*
X-173701000Y-167348000D01*
X-173701200Y-167348000D02*
X-173701100Y-167347900D01*
X-178019000Y-138773000D02*
X-176976000Y-138773000D01*
X-176976000Y-138773000D02*
X-176976100Y-138772900D01*
X-178019000Y-119723000D02*
X-176976200Y-119723000D01*
X-178781000Y-120485000D02*
X-178019000Y-119723000D01*
X-176976200Y-119723000D02*
X-176976100Y-119722900D01*
X-178019000Y-205448000D02*
X-176976200Y-205448000D01*
X-178781000Y-206210000D02*
X-178019000Y-205448000D01*
X-176976200Y-205448000D02*
X-176976100Y-205447900D01*
X-178019000Y-100673000D02*
X-176976200Y-100673000D01*
X-178781000Y-101435000D02*
X-178019000Y-100673000D01*
X-176976200Y-100673000D02*
X-176976100Y-100672900D01*
X-178019000Y-243548000D02*
X-176976000Y-243548000D01*
X-178781000Y-242786000D02*
X-178019000Y-243548000D01*
X-176976000Y-243548000D02*
X-176976100Y-243547900D01*
X-176976000Y-243548000D02*
X-173701000Y-243548000D01*
X-173701000Y-243548000D02*
X-173701100Y-243547900D01*
X-178781100Y-242785900D02*
X-178781000Y-242786000D01*
X-177774000Y-53047900D02*
X-179357300Y-53047900D01*
X-179357000Y-53047900D02*
X-177774000Y-53047900D01*
X-180119000Y-53809900D02*
X-179357000Y-53047900D01*
X-181162000Y-53809900D02*
X-180119000Y-53809900D01*
X-177774000Y-53047900D02*
X-176082300Y-53047900D01*
X-176976200Y-100673000D02*
X-173701200Y-100673000D01*
X-173701200Y-100673000D02*
X-173701000Y-100673000D01*
X-173701200Y-100673000D02*
X-173701100Y-100672900D01*
X-178781100Y-101434900D02*
X-178781000Y-101435000D01*
X-176976200Y-205448000D02*
X-173701200Y-205448000D01*
X-173701200Y-205448000D02*
X-173701000Y-205448000D01*
X-173701200Y-205448000D02*
X-173701100Y-205447900D01*
X-178781100Y-206209900D02*
X-178781000Y-206210000D01*
X-176976200Y-119723000D02*
X-173701200Y-119723000D01*
X-173701200Y-119723000D02*
X-173701000Y-119723000D01*
X-173701200Y-119723000D02*
X-173701100Y-119722900D01*
X-178781100Y-120484900D02*
X-178781000Y-120485000D01*
X-176976000Y-138773000D02*
X-173701200Y-138773000D01*
X-173701200Y-138773000D02*
X-173701000Y-138773000D01*
X-173701200Y-138773000D02*
X-173701100Y-138772900D01*
X-178781100Y-139534900D02*
X-178781000Y-139535000D01*
X-178781100Y-138010900D02*
X-178781000Y-138011000D01*
X-178781100Y-168109900D02*
X-178781000Y-168110000D01*
X-176976100Y-167347900D02*
X-176976000Y-167348000D01*
X-177738000Y-168110000D02*
X-176976000Y-167348000D01*
X-178781000Y-168110000D02*
X-177738000Y-168110000D01*
X-176976000Y-167348000D02*
X-173701200Y-167348000D01*
%TO.N,COL6*%
X-200789000Y-81622900D02*
X-200788600Y-81622900D01*
X-201551000Y-82384900D02*
X-200789000Y-81622900D01*
X-202593600Y-82384900D02*
X-201551000Y-82384900D01*
X-202594000Y-82384900D02*
X-202593600Y-82384900D01*
X-200788600Y-53047900D02*
X-197514000Y-53047900D01*
X-197514000Y-53047900D02*
X-197513600Y-53047900D01*
X-200788600Y-81622900D02*
X-197514000Y-81622900D01*
X-197514000Y-81622900D02*
X-197513600Y-81622900D01*
X-226089000Y-224498000D02*
X-229363700Y-224498000D01*
X-229363700Y-224498000D02*
X-229363600Y-224497900D01*
X-192751200Y-224498000D02*
X-192751000Y-224498000D01*
X-192751200Y-224498000D02*
X-192751100Y-224497900D01*
X-200788500Y-110198000D02*
X-200788600Y-110197900D01*
X-202594000Y-166586000D02*
X-202593500Y-166586000D01*
X-202593500Y-166586000D02*
X-202593600Y-166585900D01*
X-200788500Y-138773000D02*
X-200788600Y-138772900D01*
X-202593600Y-52285900D02*
X-202593800Y-52286100D01*
X-202594000Y-52285900D02*
X-202593800Y-52286100D01*
X-201832000Y-53047900D02*
X-200788600Y-53047900D01*
X-202593800Y-52286100D02*
X-201832000Y-53047900D01*
X-200788500Y-138773000D02*
X-197514000Y-138773000D01*
X-197513700Y-138773000D02*
X-197513600Y-138772900D01*
X-197514000Y-138773000D02*
X-197513700Y-138773000D01*
X-202594000Y-138011000D02*
X-202593600Y-138011400D01*
X-201832000Y-138773000D02*
X-200788500Y-138773000D01*
X-202593600Y-138011400D02*
X-201832000Y-138773000D01*
X-202593600Y-138011400D02*
X-202593600Y-138010900D01*
X-200789000Y-167348000D02*
X-200788500Y-167348000D01*
X-201551000Y-166586000D02*
X-200789000Y-167348000D01*
X-202593500Y-166586000D02*
X-201551000Y-166586000D01*
X-200788500Y-167348000D02*
X-197514000Y-167348000D01*
X-200788500Y-167348000D02*
X-200788600Y-167347900D01*
X-197514000Y-167347900D02*
X-197514000Y-167348000D01*
X-197513600Y-167347900D02*
X-197514000Y-167347900D01*
X-200788500Y-110198000D02*
X-197514000Y-110198000D01*
X-197513600Y-110198000D02*
X-197513600Y-110197900D01*
X-197514000Y-110198000D02*
X-197513600Y-110198000D01*
X-202593600Y-109435900D02*
X-202593800Y-109436100D01*
X-202594000Y-109436000D02*
X-202593800Y-109436100D01*
X-201832000Y-110198000D02*
X-200788500Y-110198000D01*
X-202593800Y-109436100D02*
X-201832000Y-110198000D01*
X-196026000Y-224498000D02*
X-192751200Y-224498000D01*
X-196026000Y-224498000D02*
X-196026100Y-224497900D01*
X-197069000Y-224498000D02*
X-196026000Y-224498000D01*
X-197831000Y-223736000D02*
X-197069000Y-224498000D01*
X-197831000Y-223736000D02*
X-197831100Y-223735900D01*
X-226089000Y-224497900D02*
X-226089000Y-224498000D01*
X-226088600Y-224497900D02*
X-226089000Y-224497900D01*
X-231168600Y-225259600D02*
X-231169000Y-225260000D01*
X-230407000Y-224498000D02*
X-231168600Y-225259600D01*
X-229363700Y-224498000D02*
X-230407000Y-224498000D01*
X-231168600Y-225259600D02*
X-231168600Y-225259900D01*
%TO.N,COL5*%
X-229363600Y-81622900D02*
X-226089000Y-81622900D01*
X-226089000Y-81622900D02*
X-226088600Y-81622900D01*
X-226089000Y-53047900D02*
X-229363600Y-53047900D01*
X-226089000Y-53047900D02*
X-226088600Y-53047900D01*
X-229363500Y-205448000D02*
X-229363600Y-205447900D01*
X-229363500Y-186398000D02*
X-229363600Y-186397900D01*
X-229363500Y-138773000D02*
X-229363600Y-138772900D01*
X-229363500Y-119723000D02*
X-229363600Y-119722900D01*
X-238888700Y-243548000D02*
X-238888600Y-243547900D01*
X-229363700Y-100673000D02*
X-229363600Y-100672900D01*
X-231169000Y-166586000D02*
X-231168500Y-166586000D01*
X-231168500Y-166586000D02*
X-231168600Y-166585900D01*
X-226089000Y-167347900D02*
X-226089000Y-167348000D01*
X-226088600Y-167347900D02*
X-226089000Y-167347900D01*
X-229364000Y-167348000D02*
X-229363500Y-167348000D01*
X-230126000Y-166586000D02*
X-229364000Y-167348000D01*
X-231168500Y-166586000D02*
X-230126000Y-166586000D01*
X-229363500Y-167348000D02*
X-226089000Y-167348000D01*
X-229363500Y-167348000D02*
X-229363600Y-167347900D01*
X-231169000Y-101435000D02*
X-231168600Y-101434600D01*
X-230407000Y-100673000D02*
X-229363700Y-100673000D01*
X-231168600Y-101434600D02*
X-230407000Y-100673000D01*
X-231168600Y-101434600D02*
X-231168600Y-101434900D01*
X-229363700Y-100673000D02*
X-226089000Y-100673000D01*
X-226088700Y-100673000D02*
X-226088600Y-100672900D01*
X-226089000Y-100673000D02*
X-226088700Y-100673000D01*
X-240694000Y-244310000D02*
X-240693600Y-244309600D01*
X-239932000Y-243548000D02*
X-238888700Y-243548000D01*
X-240693600Y-244309600D02*
X-239932000Y-243548000D01*
X-240693600Y-244309600D02*
X-240693600Y-244309900D01*
X-238888700Y-243548000D02*
X-235614000Y-243548000D01*
X-235613700Y-243548000D02*
X-235613600Y-243547900D01*
X-235614000Y-243548000D02*
X-235613700Y-243548000D01*
X-226089000Y-119723000D02*
X-229363500Y-119723000D01*
X-226088700Y-119723000D02*
X-226088600Y-119722900D01*
X-226089000Y-119723000D02*
X-226088700Y-119723000D01*
X-226089000Y-138773000D02*
X-229363500Y-138773000D01*
X-226088600Y-138773000D02*
X-226088600Y-138772900D01*
X-226089000Y-138773000D02*
X-226088600Y-138773000D01*
X-231168600Y-138010900D02*
X-231168800Y-138011100D01*
X-230407000Y-138773000D02*
X-231168800Y-138011100D01*
X-229363500Y-138773000D02*
X-230407000Y-138773000D01*
X-231168800Y-138011100D02*
X-231169000Y-138011000D01*
X-231168600Y-118960900D02*
X-231168800Y-118961100D01*
X-230407000Y-119723000D02*
X-231168800Y-118961100D01*
X-229363500Y-119723000D02*
X-230407000Y-119723000D01*
X-231168800Y-118961100D02*
X-231169000Y-118961000D01*
X-231169000Y-80860900D02*
X-231168600Y-80861300D01*
X-230407000Y-81622900D02*
X-229363600Y-81622900D01*
X-231168600Y-80861300D02*
X-230407000Y-81622900D01*
X-231168600Y-80861300D02*
X-231168600Y-80860900D01*
X-231168600Y-187159600D02*
X-231169000Y-187160000D01*
X-230407000Y-186398000D02*
X-231168600Y-187159600D01*
X-229363500Y-186398000D02*
X-230407000Y-186398000D01*
X-231168600Y-187159600D02*
X-231168600Y-187159900D01*
X-226089000Y-186398000D02*
X-229363500Y-186398000D01*
X-226088700Y-186398000D02*
X-226088600Y-186397900D01*
X-226089000Y-186398000D02*
X-226088700Y-186398000D01*
X-229363500Y-205448000D02*
X-226089000Y-205448000D01*
X-226088700Y-205448000D02*
X-226088600Y-205447900D01*
X-226089000Y-205448000D02*
X-226088700Y-205448000D01*
X-231168600Y-204685900D02*
X-231168800Y-204686100D01*
X-231169000Y-204686000D02*
X-231168800Y-204686100D01*
X-230407000Y-205448000D02*
X-229363500Y-205448000D01*
X-231168800Y-204686100D02*
X-230407000Y-205448000D01*
X-231168600Y-52286300D02*
X-231169000Y-52285900D01*
X-230407000Y-53047900D02*
X-231168600Y-52286300D01*
X-229363600Y-53047900D02*
X-230407000Y-53047900D01*
X-231168600Y-52286300D02*
X-231168600Y-52285900D01*
%TO.N,COL4*%
X-248414000Y-81622900D02*
X-248413600Y-81622900D01*
X-249176000Y-82384900D02*
X-248414000Y-81622900D01*
X-250218600Y-82384900D02*
X-249176000Y-82384900D01*
X-250219000Y-99910900D02*
X-250218600Y-99910900D01*
X-250219000Y-82384900D02*
X-250218600Y-82384900D01*
X-248413600Y-81622900D02*
X-245139000Y-81622900D01*
X-245139000Y-81622900D02*
X-245138600Y-81622900D01*
X-248414000Y-100673000D02*
X-248413500Y-100673000D01*
X-249176000Y-99910900D02*
X-248414000Y-100673000D01*
X-250218600Y-99910900D02*
X-249176000Y-99910900D01*
X-248413500Y-100673000D02*
X-245139000Y-100673000D01*
X-248413500Y-100673000D02*
X-248413600Y-100672900D01*
X-248413600Y-53047900D02*
X-245139000Y-53047900D01*
X-245139000Y-53047900D02*
X-245138600Y-53047900D01*
X-250218600Y-206209600D02*
X-250219000Y-206210000D01*
X-250218600Y-206209600D02*
X-250218600Y-206209900D01*
X-250219000Y-166586000D02*
X-250218500Y-166586000D01*
X-250218500Y-166586000D02*
X-250218600Y-166585900D01*
X-248413500Y-186398000D02*
X-248413600Y-186397900D01*
X-248413500Y-138773000D02*
X-245139000Y-138773000D01*
X-248413500Y-138773000D02*
X-248413600Y-138772900D01*
X-250218500Y-225260000D02*
X-250219000Y-225260000D01*
X-250218500Y-225260000D02*
X-250218600Y-225259900D01*
X-250219000Y-120485000D02*
X-250218500Y-120485000D01*
X-249176000Y-120485000D02*
X-248414000Y-119723000D01*
X-250218500Y-120485000D02*
X-249176000Y-120485000D01*
X-250218500Y-120485000D02*
X-250218600Y-120484900D01*
X-248414000Y-119723000D02*
X-248413500Y-119723000D01*
X-248413500Y-119723000D02*
X-248413600Y-119722900D01*
X-248413500Y-119723000D02*
X-245139000Y-119723000D01*
X-245138700Y-119723000D02*
X-245138600Y-119722900D01*
X-245139000Y-119723000D02*
X-245138700Y-119723000D01*
X-250219000Y-118961000D02*
X-250218600Y-118961400D01*
X-249457000Y-119723000D02*
X-248414000Y-119723000D01*
X-250218600Y-118961400D02*
X-249457000Y-119723000D01*
X-250218600Y-118961400D02*
X-250218600Y-118960900D01*
X-249176000Y-225260000D02*
X-250218500Y-225260000D01*
X-248414000Y-224498000D02*
X-249176000Y-225260000D01*
X-248413500Y-224498000D02*
X-248414000Y-224498000D01*
X-248413500Y-224498000D02*
X-248413600Y-224497900D01*
X-245139000Y-224498000D02*
X-248413500Y-224498000D01*
X-245138700Y-224498000D02*
X-245138600Y-224497900D01*
X-245139000Y-224498000D02*
X-245138700Y-224498000D01*
X-249457000Y-205448000D02*
X-250218600Y-206209600D01*
X-248414000Y-205448000D02*
X-249457000Y-205448000D01*
X-248413700Y-205448000D02*
X-248413600Y-205447900D01*
X-248414000Y-205448000D02*
X-248413700Y-205448000D01*
X-245139000Y-138772900D02*
X-245139000Y-138773000D01*
X-245138600Y-138772900D02*
X-245139000Y-138772900D01*
X-250219000Y-139535000D02*
X-250218600Y-139534600D01*
X-249457000Y-138773000D02*
X-248413500Y-138773000D01*
X-250218600Y-139534600D02*
X-249457000Y-138773000D01*
X-250218600Y-139534600D02*
X-250218600Y-139534900D01*
X-245139000Y-100672900D02*
X-245139000Y-100673000D01*
X-245138600Y-100672900D02*
X-245139000Y-100672900D01*
X-248413500Y-186398000D02*
X-245139000Y-186398000D01*
X-245138600Y-186398000D02*
X-245138600Y-186397900D01*
X-245139000Y-186398000D02*
X-245138600Y-186398000D01*
X-250218600Y-185635900D02*
X-250218800Y-185636100D01*
X-250219000Y-185636000D02*
X-250218800Y-185636100D01*
X-249457000Y-186398000D02*
X-248413500Y-186398000D01*
X-250218800Y-185636100D02*
X-249457000Y-186398000D01*
X-245139000Y-167347900D02*
X-245139000Y-167348000D01*
X-245138600Y-167347900D02*
X-245139000Y-167347900D01*
X-248414000Y-167348000D02*
X-248413500Y-167348000D01*
X-249176000Y-166586000D02*
X-248414000Y-167348000D01*
X-250218500Y-166586000D02*
X-249176000Y-166586000D01*
X-248413500Y-167348000D02*
X-245139000Y-167348000D01*
X-248413500Y-167348000D02*
X-248413600Y-167347900D01*
X-250219000Y-52285900D02*
X-250218600Y-52286300D01*
X-249457000Y-53047900D02*
X-248413600Y-53047900D01*
X-250218600Y-52286300D02*
X-249457000Y-53047900D01*
X-250218600Y-52286300D02*
X-250218600Y-52285900D01*
%TO.N,COL3*%
X-267464000Y-53047900D02*
X-267463600Y-53047900D01*
X-268226000Y-53809900D02*
X-267464000Y-53047900D01*
X-269268600Y-53809900D02*
X-268226000Y-53809900D01*
X-269269000Y-53809900D02*
X-269268600Y-53809900D01*
X-267463600Y-53047900D02*
X-264189000Y-53047900D01*
X-264189000Y-53047900D02*
X-264188600Y-53047900D01*
X-267463600Y-81622900D02*
X-264189000Y-81622900D01*
X-264189000Y-81622900D02*
X-264188600Y-81622900D01*
X-267463500Y-224498000D02*
X-267463600Y-224497900D01*
X-269269000Y-139535000D02*
X-269268500Y-139535000D01*
X-269268500Y-139535000D02*
X-269268600Y-139534900D01*
X-267463500Y-100673000D02*
X-264189000Y-100673000D01*
X-267463500Y-100673000D02*
X-267463600Y-100672900D01*
X-267463500Y-119723000D02*
X-267463600Y-119722900D01*
X-267463500Y-205448000D02*
X-267463600Y-205447900D01*
X-267463500Y-167348000D02*
X-267463600Y-167347900D01*
X-269269000Y-187160000D02*
X-269268500Y-187160000D01*
X-268226000Y-187160000D02*
X-267464000Y-186398000D01*
X-269268500Y-187160000D02*
X-268226000Y-187160000D01*
X-269268500Y-187160000D02*
X-269268600Y-187159900D01*
X-269269000Y-185636000D02*
X-269268500Y-185636000D01*
X-268226000Y-185636000D02*
X-267464000Y-186398000D01*
X-269268500Y-185636000D02*
X-268226000Y-185636000D01*
X-269268500Y-185636000D02*
X-269268600Y-185635900D01*
X-267464000Y-186398000D02*
X-267463500Y-186398000D01*
X-267463500Y-186398000D02*
X-267463600Y-186397900D01*
X-267463500Y-186398000D02*
X-264189000Y-186398000D01*
X-264188700Y-186398000D02*
X-264188600Y-186397900D01*
X-264189000Y-186398000D02*
X-264188700Y-186398000D01*
X-269269000Y-80860900D02*
X-269268600Y-80861300D01*
X-268507000Y-81622900D02*
X-267463600Y-81622900D01*
X-269268600Y-80861300D02*
X-268507000Y-81622900D01*
X-269268600Y-80861300D02*
X-269268600Y-80860900D01*
X-267463500Y-167348000D02*
X-264189000Y-167348000D01*
X-264188700Y-167348000D02*
X-264188600Y-167347900D01*
X-264189000Y-167348000D02*
X-264188700Y-167348000D01*
X-269268600Y-166585900D02*
X-269268800Y-166586100D01*
X-269269000Y-166586000D02*
X-269268800Y-166586100D01*
X-268507000Y-167348000D02*
X-267463500Y-167348000D01*
X-269268800Y-166586100D02*
X-268507000Y-167348000D01*
X-267463500Y-205448000D02*
X-264189000Y-205448000D01*
X-264188700Y-205448000D02*
X-264188600Y-205447900D01*
X-264189000Y-205448000D02*
X-264188700Y-205448000D01*
X-269268600Y-204685900D02*
X-269268800Y-204686100D01*
X-269269000Y-204686000D02*
X-269268800Y-204686100D01*
X-268507000Y-205448000D02*
X-267463500Y-205448000D01*
X-269268800Y-204686100D02*
X-268507000Y-205448000D01*
X-267463500Y-119723000D02*
X-264189000Y-119723000D01*
X-264188700Y-119723000D02*
X-264188600Y-119722900D01*
X-264189000Y-119723000D02*
X-264188700Y-119723000D01*
X-269269000Y-118961000D02*
X-269268600Y-118961400D01*
X-268507000Y-119723000D02*
X-267463500Y-119723000D01*
X-269268600Y-118961400D02*
X-268507000Y-119723000D01*
X-269268600Y-118961400D02*
X-269268600Y-118960900D01*
X-269268600Y-99910900D02*
X-269268800Y-99911100D01*
X-269269000Y-99910900D02*
X-269268800Y-99911100D01*
X-268507000Y-100673000D02*
X-267463500Y-100673000D01*
X-269268800Y-99911100D02*
X-268507000Y-100673000D01*
X-267464000Y-138773000D02*
X-267463500Y-138773000D01*
X-268226000Y-139535000D02*
X-267464000Y-138773000D01*
X-269268500Y-139535000D02*
X-268226000Y-139535000D01*
X-267463500Y-138773000D02*
X-267463600Y-138772900D01*
X-267463500Y-138773000D02*
X-264189000Y-138773000D01*
X-264188700Y-138773000D02*
X-264188600Y-138772900D01*
X-264189000Y-138773000D02*
X-264188700Y-138773000D01*
X-269268600Y-225259600D02*
X-269269000Y-225260000D01*
X-268507000Y-224498000D02*
X-269268600Y-225259600D01*
X-267463500Y-224498000D02*
X-268507000Y-224498000D01*
X-269268600Y-225259600D02*
X-269268600Y-225259900D01*
X-264189000Y-100672900D02*
X-264189000Y-100673000D01*
X-264188600Y-100672900D02*
X-264189000Y-100672900D01*
X-264189000Y-224498000D02*
X-267463500Y-224498000D01*
X-264188700Y-224498000D02*
X-264188600Y-224497900D01*
X-264189000Y-224498000D02*
X-264188700Y-224498000D01*
%TO.N,COL2*%
X-296039000Y-53047900D02*
X-296038600Y-53047900D01*
X-296801000Y-52285900D02*
X-296039000Y-53047900D01*
X-297843600Y-52285900D02*
X-296801000Y-52285900D01*
X-297844000Y-52285900D02*
X-297843600Y-52285900D01*
X-296038600Y-53047900D02*
X-292764000Y-53047900D01*
X-292764000Y-53047900D02*
X-292763600Y-53047900D01*
X-296038600Y-81622900D02*
X-292764000Y-81622900D01*
X-292764000Y-81622900D02*
X-292763600Y-81622900D01*
X-296038500Y-138773000D02*
X-297082000Y-138773000D01*
X-292764000Y-138773000D02*
X-296038500Y-138773000D01*
X-296038500Y-138773000D02*
X-296038600Y-138772900D01*
X-286513500Y-224498000D02*
X-286513600Y-224497900D01*
X-286513500Y-186398000D02*
X-283239000Y-186398000D01*
X-286513500Y-186398000D02*
X-286513600Y-186397900D01*
X-288319000Y-168110000D02*
X-288318500Y-168110000D01*
X-288318500Y-168110000D02*
X-288318600Y-168109900D01*
X-297844000Y-120485000D02*
X-297843500Y-120485000D01*
X-296801000Y-120485000D02*
X-296039000Y-119723000D01*
X-297843500Y-120485000D02*
X-296801000Y-120485000D01*
X-297843500Y-120485000D02*
X-297843600Y-120484900D01*
X-287557000Y-205448000D02*
X-286513500Y-205448000D01*
X-286513500Y-205448000D02*
X-286513600Y-205447900D01*
X-297844000Y-101435000D02*
X-297843500Y-101435000D01*
X-296801000Y-101435000D02*
X-296039000Y-100673000D01*
X-297843500Y-101435000D02*
X-296801000Y-101435000D01*
X-297843500Y-101435000D02*
X-297843600Y-101434900D01*
X-296039000Y-100673000D02*
X-296038500Y-100673000D01*
X-296038500Y-100673000D02*
X-292764000Y-100673000D01*
X-296038500Y-100673000D02*
X-296038600Y-100672900D01*
X-297843600Y-99910900D02*
X-297843800Y-99911100D01*
X-297844000Y-99910900D02*
X-297843800Y-99911100D01*
X-297082000Y-100673000D02*
X-296039000Y-100673000D01*
X-297843800Y-99911100D02*
X-297082000Y-100673000D01*
X-292764000Y-100672900D02*
X-292764000Y-100673000D01*
X-292763600Y-100672900D02*
X-292764000Y-100672900D01*
X-288318600Y-206209600D02*
X-288319000Y-206210000D01*
X-287557000Y-205448000D02*
X-288318600Y-206209600D01*
X-288318600Y-206209600D02*
X-288318600Y-206209900D01*
X-286513500Y-205448000D02*
X-283239000Y-205448000D01*
X-283238700Y-205448000D02*
X-283238600Y-205447900D01*
X-283239000Y-205448000D02*
X-283238700Y-205448000D01*
X-288318600Y-204686400D02*
X-288319000Y-204686000D01*
X-287557000Y-205448000D02*
X-288318600Y-204686400D01*
X-288318600Y-204686400D02*
X-288318600Y-204685900D01*
X-297844000Y-118961000D02*
X-297843500Y-118961000D01*
X-296801000Y-118961000D02*
X-296039000Y-119723000D01*
X-297843500Y-118961000D02*
X-296801000Y-118961000D01*
X-297843500Y-118961000D02*
X-297843600Y-118960900D01*
X-296039000Y-119723000D02*
X-296038500Y-119723000D01*
X-296038500Y-119723000D02*
X-296038600Y-119722900D01*
X-296038500Y-119723000D02*
X-292764000Y-119723000D01*
X-292763700Y-119723000D02*
X-292763600Y-119722900D01*
X-292764000Y-119723000D02*
X-292763700Y-119723000D01*
X-286514000Y-167348000D02*
X-286513500Y-167348000D01*
X-287276000Y-168110000D02*
X-286514000Y-167348000D01*
X-288318500Y-168110000D02*
X-287276000Y-168110000D01*
X-286513500Y-167348000D02*
X-286513600Y-167347900D01*
X-286513500Y-167348000D02*
X-283239000Y-167348000D01*
X-283238700Y-167348000D02*
X-283238600Y-167347900D01*
X-283239000Y-167348000D02*
X-283238700Y-167348000D01*
X-283239000Y-186397900D02*
X-283239000Y-186398000D01*
X-283238600Y-186397900D02*
X-283239000Y-186397900D01*
X-288319000Y-185636000D02*
X-288318600Y-185636400D01*
X-287557000Y-186398000D02*
X-286513500Y-186398000D01*
X-288318600Y-185636400D02*
X-287557000Y-186398000D01*
X-288318600Y-185636400D02*
X-288318600Y-185635900D01*
X-288318600Y-225259600D02*
X-288319000Y-225260000D01*
X-287557000Y-224498000D02*
X-288318600Y-225259600D01*
X-286513500Y-224498000D02*
X-287557000Y-224498000D01*
X-288318600Y-225259600D02*
X-288318600Y-225259900D01*
X-283239000Y-224498000D02*
X-286513500Y-224498000D01*
X-283238700Y-224498000D02*
X-283238600Y-224497900D01*
X-283239000Y-224498000D02*
X-283238700Y-224498000D01*
X-297844000Y-80860900D02*
X-297843600Y-80861300D01*
X-297082000Y-81622900D02*
X-296038600Y-81622900D01*
X-297843600Y-80861300D02*
X-297082000Y-81622900D01*
X-297843600Y-80861300D02*
X-297843600Y-80860900D01*
X-297843600Y-139534600D02*
X-297844000Y-139535000D01*
X-297082000Y-138773000D02*
X-297843600Y-139534600D01*
X-297843600Y-139534600D02*
X-297843600Y-139534900D01*
X-297843600Y-138010900D02*
X-297843800Y-138011100D01*
X-297082000Y-138773000D02*
X-297843800Y-138011100D01*
X-297843800Y-138011100D02*
X-297844000Y-138011000D01*
X-292764000Y-138772900D02*
X-292764000Y-138773000D01*
X-292763600Y-138772900D02*
X-292764000Y-138772900D01*
%TO.N,cOL1*%
X-315088600Y-53047900D02*
X-311814000Y-53047900D01*
X-311814000Y-53047900D02*
X-311813600Y-53047900D01*
X-311814000Y-81622900D02*
X-315088600Y-81622900D01*
X-311814000Y-81622900D02*
X-311813600Y-81622900D01*
X-316894000Y-101435000D02*
X-316893500Y-101435000D01*
X-315851000Y-101435000D02*
X-315089000Y-100673000D01*
X-316893500Y-101435000D02*
X-315851000Y-101435000D01*
X-316893500Y-101435000D02*
X-316893600Y-101434900D01*
X-288319000Y-244310000D02*
X-288318500Y-244310000D01*
X-288318500Y-244310000D02*
X-288318600Y-244309900D01*
X-307051500Y-191160000D02*
X-307051000Y-191160000D01*
X-307051500Y-191160000D02*
X-307051100Y-191160400D01*
X-316894000Y-118961000D02*
X-316893500Y-118961000D01*
X-316893500Y-118961000D02*
X-316893600Y-118960900D01*
X-307051000Y-214973000D02*
X-307051200Y-214973000D01*
X-307051200Y-214973000D02*
X-307051100Y-214972900D01*
X-311369000Y-167348000D02*
X-310326000Y-167348000D01*
X-312131000Y-166586000D02*
X-311369000Y-167348000D01*
X-310326000Y-167348000D02*
X-310326100Y-167347900D01*
X-315088700Y-138773000D02*
X-315088600Y-138772900D01*
X-316893600Y-139534600D02*
X-316894000Y-139535000D01*
X-316132000Y-138773000D02*
X-316893600Y-139534600D01*
X-315088700Y-138773000D02*
X-316132000Y-138773000D01*
X-316893600Y-139534600D02*
X-316893600Y-139534900D01*
X-311814000Y-138773000D02*
X-315088700Y-138773000D01*
X-311813700Y-138773000D02*
X-311813600Y-138772900D01*
X-311814000Y-138773000D02*
X-311813700Y-138773000D01*
X-310326000Y-167348000D02*
X-307051000Y-167348000D01*
X-307051000Y-167348000D02*
X-307051100Y-167347900D01*
X-312131100Y-166585900D02*
X-312131000Y-166586000D01*
X-312131100Y-215734900D02*
X-312131000Y-215735000D01*
X-311088000Y-215735000D02*
X-312131000Y-215735000D01*
X-310326000Y-214973000D02*
X-311088000Y-215735000D01*
X-307051200Y-214973000D02*
X-310326000Y-214973000D01*
X-310326000Y-214973000D02*
X-310326100Y-214972900D01*
X-316893600Y-53809900D02*
X-316893800Y-53809700D01*
X-316894000Y-53809900D02*
X-316893800Y-53809700D01*
X-316132000Y-53047900D02*
X-315088600Y-53047900D01*
X-316893800Y-53809700D02*
X-316132000Y-53047900D01*
X-311814000Y-119722900D02*
X-311814000Y-119723000D01*
X-311813600Y-119722900D02*
X-311814000Y-119722900D01*
X-315089000Y-119723000D02*
X-315088500Y-119723000D01*
X-315851000Y-118961000D02*
X-315089000Y-119723000D01*
X-316893500Y-118961000D02*
X-315851000Y-118961000D01*
X-315088500Y-119723000D02*
X-311814000Y-119723000D01*
X-315088500Y-119723000D02*
X-315088600Y-119722900D01*
X-310326500Y-191160000D02*
X-307051500Y-191160000D01*
X-310326500Y-191160000D02*
X-310326100Y-191160400D01*
X-311369000Y-191160000D02*
X-310326500Y-191160000D01*
X-312131000Y-191922000D02*
X-311369000Y-191160000D01*
X-312131100Y-191922100D02*
X-312131100Y-191922400D01*
X-312131000Y-191922000D02*
X-312131100Y-191922100D01*
X-286514000Y-243548000D02*
X-286513500Y-243548000D01*
X-287276000Y-244310000D02*
X-286514000Y-243548000D01*
X-288318500Y-244310000D02*
X-287276000Y-244310000D01*
X-286513500Y-243548000D02*
X-283239000Y-243548000D01*
X-286513500Y-243548000D02*
X-286513600Y-243547900D01*
X-283239000Y-243547900D02*
X-283239000Y-243548000D01*
X-283238600Y-243547900D02*
X-283239000Y-243547900D01*
X-315089000Y-100673000D02*
X-315088500Y-100673000D01*
X-315088500Y-100673000D02*
X-311814000Y-100673000D01*
X-315088500Y-100673000D02*
X-315088600Y-100672900D01*
X-316893600Y-99910900D02*
X-316893800Y-99911100D01*
X-316894000Y-99910900D02*
X-316893800Y-99911100D01*
X-316132000Y-100673000D02*
X-315089000Y-100673000D01*
X-316893800Y-99911100D02*
X-316132000Y-100673000D01*
X-316893600Y-82384500D02*
X-316894000Y-82384900D01*
X-316132000Y-81622900D02*
X-316893600Y-82384500D01*
X-315088600Y-81622900D02*
X-316132000Y-81622900D01*
X-316893600Y-82384500D02*
X-316893600Y-82384900D01*
X-311814000Y-100672900D02*
X-311814000Y-100673000D01*
X-311813600Y-100672900D02*
X-311814000Y-100672900D01*
%TO.N,COL0*%
X-334139000Y-53047900D02*
X-334138600Y-53047900D01*
X-334901000Y-52285900D02*
X-334139000Y-53047900D01*
X-335943600Y-52285900D02*
X-334901000Y-52285900D01*
X-335944000Y-52285900D02*
X-335943600Y-52285900D01*
X-334138600Y-53047900D02*
X-330864000Y-53047900D01*
X-330864000Y-53047900D02*
X-330863600Y-53047900D01*
X-334138600Y-81622900D02*
X-330864000Y-81622900D01*
X-330864000Y-81622900D02*
X-330863600Y-81622900D01*
X-335944000Y-118961000D02*
X-335943500Y-118961000D01*
X-334901000Y-118961000D02*
X-334139000Y-119723000D01*
X-335943500Y-118961000D02*
X-334901000Y-118961000D01*
X-335943500Y-118961000D02*
X-335943600Y-118960900D01*
X-335944000Y-190398000D02*
X-335943200Y-190398000D01*
X-335943200Y-190398000D02*
X-335943600Y-190398400D01*
X-334138700Y-214973000D02*
X-334138600Y-214972900D01*
X-334138500Y-167348000D02*
X-334138600Y-167347900D01*
X-335944000Y-242786000D02*
X-335943500Y-242786000D01*
X-335943500Y-242786000D02*
X-335943600Y-242785900D01*
X-334138500Y-138773000D02*
X-334138600Y-138772900D01*
X-335182000Y-100673000D02*
X-334138500Y-100673000D01*
X-334138500Y-100673000D02*
X-330864000Y-100673000D01*
X-334138500Y-100673000D02*
X-334138600Y-100672900D01*
X-335943600Y-101434600D02*
X-335944000Y-101435000D01*
X-335182000Y-100673000D02*
X-335943600Y-101434600D01*
X-335943600Y-101434600D02*
X-335943600Y-101434900D01*
X-335943600Y-99910900D02*
X-335943800Y-99911100D01*
X-335182000Y-100673000D02*
X-335943800Y-99911100D01*
X-335943800Y-99911100D02*
X-335944000Y-99910900D01*
X-334138500Y-138773000D02*
X-330864000Y-138773000D01*
X-330863700Y-138773000D02*
X-330863600Y-138772900D01*
X-330864000Y-138773000D02*
X-330863700Y-138773000D01*
X-335943600Y-138010900D02*
X-335943800Y-138011100D01*
X-335944000Y-138011000D02*
X-335943800Y-138011100D01*
X-335182000Y-138773000D02*
X-334138500Y-138773000D01*
X-335943800Y-138011100D02*
X-335182000Y-138773000D01*
X-335943600Y-82384900D02*
X-335943800Y-82384700D01*
X-335944000Y-82384900D02*
X-335943800Y-82384700D01*
X-335182000Y-81622900D02*
X-334138600Y-81622900D01*
X-335943800Y-82384700D02*
X-335182000Y-81622900D01*
X-334139000Y-243548000D02*
X-334138500Y-243548000D01*
X-334901000Y-242786000D02*
X-334139000Y-243548000D01*
X-335943500Y-242786000D02*
X-334901000Y-242786000D01*
X-334138500Y-243548000D02*
X-330864000Y-243548000D01*
X-334138500Y-243548000D02*
X-334138600Y-243547900D01*
X-330864000Y-243547900D02*
X-330864000Y-243548000D01*
X-330863600Y-243547900D02*
X-330864000Y-243547900D01*
X-334138500Y-167348000D02*
X-330864000Y-167348000D01*
X-330863600Y-167348000D02*
X-330863600Y-167347900D01*
X-330864000Y-167348000D02*
X-330863600Y-167348000D01*
X-335943600Y-166585900D02*
X-335943800Y-166586100D01*
X-335944000Y-166586000D02*
X-335943800Y-166586100D01*
X-335182000Y-167348000D02*
X-334138500Y-167348000D01*
X-335943800Y-166586100D02*
X-335182000Y-167348000D01*
X-335944000Y-215735000D02*
X-335943600Y-215734600D01*
X-335182000Y-214973000D02*
X-334138700Y-214973000D01*
X-335943600Y-215734600D02*
X-335182000Y-214973000D01*
X-335943600Y-215734600D02*
X-335943600Y-215734900D01*
X-334138700Y-214973000D02*
X-330864000Y-214973000D01*
X-330863700Y-214973000D02*
X-330863600Y-214972900D01*
X-330864000Y-214973000D02*
X-330863700Y-214973000D01*
X-334139000Y-191160000D02*
X-334138200Y-191160000D01*
X-334901000Y-190398000D02*
X-334139000Y-191160000D01*
X-335943200Y-190398000D02*
X-334901000Y-190398000D01*
X-334138200Y-191160000D02*
X-330864000Y-191160000D01*
X-334138200Y-191160000D02*
X-334138600Y-191160400D01*
X-330863900Y-191160000D02*
X-330864000Y-191160000D01*
X-330863900Y-191160100D02*
X-330863900Y-191160000D01*
X-330863600Y-191160400D02*
X-330863900Y-191160100D01*
X-335944000Y-120485000D02*
X-335943500Y-120485000D01*
X-334901000Y-120485000D02*
X-334139000Y-119723000D01*
X-335943500Y-120485000D02*
X-334901000Y-120485000D01*
X-335943500Y-120485000D02*
X-335943600Y-120484900D01*
X-334139000Y-119723000D02*
X-334138500Y-119723000D01*
X-334138500Y-119723000D02*
X-334138600Y-119722900D01*
X-334138500Y-119723000D02*
X-330864000Y-119723000D01*
X-330863700Y-119723000D02*
X-330863600Y-119722900D01*
X-330864000Y-119723000D02*
X-330863700Y-119723000D01*
X-330864000Y-100672900D02*
X-330864000Y-100673000D01*
X-330863600Y-100672900D02*
X-330864000Y-100672900D01*
%TO.N,VCC*%
X-211918000Y-55937500D02*
X-212344000Y-55937500D01*
D30*
X-209562000Y-53156000D02*
X-209562000Y-52898200D01*
X-212344000Y-55937500D02*
X-209562000Y-53156000D01*
X-209562000Y-52898200D02*
X-209562000Y-52640500D01*
X-209562500Y-52897700D02*
X-209562500Y-52125000D01*
X-209562000Y-52898200D02*
X-209562500Y-52897700D01*
D28*
%TO.N,Net-(D74-Pad2)*%
X-167351000Y-231114000D02*
X-168266000Y-232029000D01*
X-167351000Y-224010000D02*
X-167351000Y-231114000D01*
X-167351000Y-222984000D02*
X-167351000Y-224010000D01*
X-167351000Y-224010000D02*
X-167351000Y-222984000D01*
X-164049200Y-221958000D02*
X-164049100Y-221957900D01*
X-168266500Y-232029000D02*
X-168266000Y-232029000D01*
X-166624100Y-221957900D02*
X-166624000Y-221958000D01*
X-167351100Y-221957900D02*
X-166624100Y-221957900D01*
X-166624000Y-222257000D02*
X-166624000Y-221958000D01*
X-167351000Y-222984000D02*
X-166624000Y-222257000D01*
X-166624000Y-221958000D02*
X-164049200Y-221958000D01*
X-163033000Y-221958000D02*
X-162271100Y-221196100D01*
X-164049200Y-221958000D02*
X-163033000Y-221958000D01*
X-162271100Y-221196100D02*
X-162271000Y-221196000D01*
X-162271100Y-221196100D02*
X-162271100Y-221195900D01*
%TO.N,Net-(D73-Pad2)*%
X-167351000Y-250164000D02*
X-168266000Y-251079000D01*
X-167351000Y-243060000D02*
X-167351000Y-250164000D01*
X-167351000Y-242034000D02*
X-167351000Y-243060000D01*
X-167351000Y-243060000D02*
X-167351000Y-242034000D01*
X-162271000Y-240246000D02*
X-162271200Y-240246000D01*
X-162271200Y-240246000D02*
X-162271100Y-240245900D01*
X-168266500Y-251079000D02*
X-168266000Y-251079000D01*
X-164049000Y-241008000D02*
X-164049200Y-241008000D01*
X-163287000Y-240246000D02*
X-164049000Y-241008000D01*
X-162271200Y-240246000D02*
X-163287000Y-240246000D01*
X-164049200Y-241008000D02*
X-164049100Y-241007900D01*
X-166624100Y-241007900D02*
X-166624000Y-241008000D01*
X-167351100Y-241007900D02*
X-166624100Y-241007900D01*
X-164049200Y-241008000D02*
X-166624000Y-241008000D01*
X-166624000Y-241307000D02*
X-167351000Y-242034000D01*
X-166624000Y-241008000D02*
X-166624000Y-241307000D01*
%TO.N,Net-(D72-Pad2)*%
X-219739000Y-221958000D02*
X-219739000Y-224010000D01*
X-219739000Y-231114000D02*
X-220654000Y-232029000D01*
X-219739000Y-224010000D02*
X-219739000Y-231114000D01*
X-219739000Y-224010000D02*
X-219739000Y-221958000D01*
X-216436700Y-221958000D02*
X-216436600Y-221957900D01*
X-219739000Y-221958000D02*
X-219738500Y-221958000D01*
X-219738500Y-221958000D02*
X-216436700Y-221958000D01*
X-219738500Y-221958000D02*
X-219738600Y-221957900D01*
X-215421000Y-221958000D02*
X-215040000Y-221577000D01*
X-216436700Y-221958000D02*
X-215421000Y-221958000D01*
X-215040000Y-221577000D02*
X-214659000Y-221196000D01*
X-215039700Y-221577000D02*
X-214658600Y-221195900D01*
X-215040000Y-221577000D02*
X-215039700Y-221577000D01*
%TO.N,Net-(D71-Pad2)*%
X-229264000Y-241008000D02*
X-229264000Y-243060000D01*
X-229264000Y-250164000D02*
X-230179000Y-251079000D01*
X-229264000Y-243060000D02*
X-229264000Y-250164000D01*
X-229264000Y-243060000D02*
X-229264000Y-241008000D01*
X-229264000Y-241008000D02*
X-229263500Y-241008000D01*
X-229263500Y-241008000D02*
X-229263600Y-241007900D01*
X-224183900Y-240245900D02*
X-224184000Y-240246000D01*
X-224183600Y-240245900D02*
X-224183900Y-240245900D01*
X-225962000Y-241008000D02*
X-225961600Y-241007600D01*
X-229263500Y-241008000D02*
X-225962000Y-241008000D01*
X-225200000Y-240246000D02*
X-224184000Y-240246000D01*
X-225961600Y-241007600D02*
X-225200000Y-240246000D01*
X-225961600Y-241007600D02*
X-225961600Y-241007900D01*
%TO.N,Net-(D70-Pad2)*%
X-238789000Y-221958000D02*
X-238789000Y-224010000D01*
X-238789000Y-231114000D02*
X-239704000Y-232029000D01*
X-238789000Y-224010000D02*
X-238789000Y-231114000D01*
X-238789000Y-224010000D02*
X-238789000Y-221958000D01*
X-234471000Y-221958000D02*
X-235486700Y-221958000D01*
X-233709000Y-222720000D02*
X-234471000Y-221958000D01*
X-235486700Y-221958000D02*
X-235486600Y-221957900D01*
X-238788500Y-221958000D02*
X-238789000Y-221958000D01*
X-235486700Y-221958000D02*
X-238788500Y-221958000D01*
X-238788500Y-221958000D02*
X-238788600Y-221957900D01*
X-233708900Y-222719900D02*
X-233709000Y-222720000D01*
X-233708600Y-222719900D02*
X-233708900Y-222719900D01*
%TO.N,Net-(D69-Pad2)*%
X-257839000Y-221958000D02*
X-257839000Y-224010000D01*
X-257839000Y-231114000D02*
X-258754000Y-232029000D01*
X-257839000Y-224010000D02*
X-257839000Y-231114000D01*
X-257839000Y-224010000D02*
X-257839000Y-221958000D01*
X-253521000Y-221958000D02*
X-254536700Y-221958000D01*
X-252759000Y-221196000D02*
X-253521000Y-221958000D01*
X-254536700Y-221958000D02*
X-254536600Y-221957900D01*
X-257838500Y-221958000D02*
X-257839000Y-221958000D01*
X-254536700Y-221958000D02*
X-257838500Y-221958000D01*
X-257838500Y-221958000D02*
X-257838600Y-221957900D01*
X-252758900Y-221195900D02*
X-252759000Y-221196000D01*
X-252758600Y-221195900D02*
X-252758900Y-221195900D01*
%TO.N,Net-(D68-Pad2)*%
X-276889000Y-221958000D02*
X-276889000Y-224010000D01*
X-276889000Y-231114000D02*
X-277804000Y-232029000D01*
X-276889000Y-224010000D02*
X-276889000Y-231114000D01*
X-276889000Y-224010000D02*
X-276889000Y-221958000D01*
X-276889000Y-221958000D02*
X-276888500Y-221958000D01*
X-276888500Y-221958000D02*
X-276888600Y-221957900D01*
X-276888500Y-221958000D02*
X-273586700Y-221958000D01*
X-273586700Y-221958000D02*
X-273586600Y-221957900D01*
X-272571000Y-221958000D02*
X-272190000Y-222339000D01*
X-273586700Y-221958000D02*
X-272571000Y-221958000D01*
X-272190000Y-222339000D02*
X-271809000Y-222720000D01*
X-272189500Y-222339000D02*
X-271808600Y-222719900D01*
X-272190000Y-222339000D02*
X-272189500Y-222339000D01*
%TO.N,Net-(D67-Pad2)*%
X-276889000Y-241008000D02*
X-276889000Y-243060000D01*
X-276889000Y-250164000D02*
X-277804000Y-251079000D01*
X-276889000Y-243060000D02*
X-276889000Y-250164000D01*
X-276889000Y-243060000D02*
X-276889000Y-241008000D01*
X-276888500Y-241008000D02*
X-276889000Y-241008000D01*
X-276888500Y-241008000D02*
X-276888600Y-241007900D01*
X-271808900Y-240245900D02*
X-271809000Y-240246000D01*
X-271808600Y-240245900D02*
X-271808900Y-240245900D01*
X-273586700Y-241007800D02*
X-273586700Y-241007700D01*
X-273586600Y-241007900D02*
X-273586700Y-241007800D01*
X-272825000Y-240246000D02*
X-273586700Y-241007700D01*
X-271809000Y-240246000D02*
X-272825000Y-240246000D01*
X-273587000Y-241008000D02*
X-276888500Y-241008000D01*
X-273586700Y-241007700D02*
X-273587000Y-241008000D01*
%TO.N,Net-(D66-Pad2)*%
X-324514000Y-241008000D02*
X-324514000Y-243060000D01*
X-324514000Y-250164000D02*
X-325429000Y-251079000D01*
X-324514000Y-243060000D02*
X-324514000Y-250164000D01*
X-324514000Y-243060000D02*
X-324514000Y-241008000D01*
X-320196000Y-241008000D02*
X-321211700Y-241008000D01*
X-319434000Y-240246000D02*
X-320196000Y-241008000D01*
X-321211700Y-241008000D02*
X-321211600Y-241007900D01*
X-324513500Y-241008000D02*
X-324514000Y-241008000D01*
X-321211700Y-241008000D02*
X-324513500Y-241008000D01*
X-324513500Y-241008000D02*
X-324513600Y-241007900D01*
X-319433900Y-240245900D02*
X-319434000Y-240246000D01*
X-319433600Y-240245900D02*
X-319433900Y-240245900D01*
%TO.N,ROW8*%
X-223012000Y-235712000D02*
X-189484000Y-235712000D01*
X-261112000Y-235712000D02*
X-251968000Y-235712000D01*
X-288544000Y-235712000D02*
X-279908000Y-235712000D01*
X-307340000Y-254508000D02*
X-288544000Y-235712000D01*
X-236601000Y-251079000D02*
X-233479000Y-251079000D01*
X-251968000Y-235712000D02*
X-236601000Y-251079000D01*
X-262054000Y-234770000D02*
X-261112000Y-235712000D01*
X-262054000Y-232029000D02*
X-262054000Y-234770000D01*
X-281104000Y-234516000D02*
X-279908000Y-235712000D01*
X-281104000Y-232029000D02*
X-281104000Y-234516000D01*
X-327660000Y-254508000D02*
X-307340000Y-254508000D01*
X-328729000Y-253439000D02*
X-327660000Y-254508000D01*
X-328729000Y-251079000D02*
X-328729000Y-253439000D01*
X-223954000Y-234770000D02*
X-223012000Y-235712000D01*
X-223954000Y-232029000D02*
X-223954000Y-234770000D01*
X-279908000Y-235712000D02*
X-278892000Y-235712000D01*
X-243004000Y-235024000D02*
X-243004000Y-232029000D01*
X-242316000Y-235712000D02*
X-243004000Y-235024000D01*
X-240284000Y-235712000D02*
X-242316000Y-235712000D01*
X-281104000Y-252656000D02*
X-281104000Y-251079000D01*
X-282956000Y-254508000D02*
X-281104000Y-252656000D01*
X-307340000Y-254508000D02*
X-282956000Y-254508000D01*
X-279908000Y-235712000D02*
X-278892000Y-235712000D01*
X-278892000Y-235712000D02*
X-261112000Y-235712000D01*
X-251968000Y-235712000D02*
X-242316000Y-235712000D01*
X-242316000Y-235712000D02*
X-240284000Y-235712000D01*
X-240284000Y-235712000D02*
X-223012000Y-235712000D01*
X-174117000Y-251079000D02*
X-171566500Y-251079000D01*
X-189484000Y-235712000D02*
X-174117000Y-251079000D01*
X-171566500Y-251079000D02*
X-171566000Y-251079000D01*
X-171566000Y-234050000D02*
X-171566000Y-233545000D01*
X-173228000Y-235712000D02*
X-171566000Y-234050000D01*
X-189484000Y-235712000D02*
X-173228000Y-235712000D01*
X-171566000Y-233545000D02*
X-171566000Y-233040000D01*
X-171566500Y-233544500D02*
X-171566500Y-232029000D01*
X-171566000Y-233545000D02*
X-171566500Y-233544500D01*
%TO.N,Net-(D65-Pad2)*%
X-148301000Y-231114000D02*
X-149216000Y-232029000D01*
X-148301000Y-224010000D02*
X-148301000Y-231114000D01*
X-148301000Y-222984000D02*
X-148301000Y-224010000D01*
X-148301000Y-224010000D02*
X-148301000Y-222984000D01*
X-144999200Y-221958000D02*
X-144999100Y-221957900D01*
X-149216500Y-232029000D02*
X-149216000Y-232029000D01*
X-143221000Y-221196000D02*
X-143221100Y-221196100D01*
X-143983000Y-221958000D02*
X-144999200Y-221958000D01*
X-143221100Y-221196100D02*
X-143983000Y-221958000D01*
X-143221100Y-221196100D02*
X-143221100Y-221195900D01*
X-147574100Y-221957900D02*
X-147574000Y-221958000D01*
X-148301100Y-221957900D02*
X-147574100Y-221957900D01*
X-144999200Y-221958000D02*
X-147574000Y-221958000D01*
X-147574000Y-222257000D02*
X-148301000Y-222984000D01*
X-147574000Y-221958000D02*
X-147574000Y-222257000D01*
%TO.N,Net-(D64-Pad2)*%
X-167522000Y-212235000D02*
X-167894000Y-212607000D01*
X-167522000Y-204879000D02*
X-167522000Y-212235000D01*
X-166536000Y-203894000D02*
X-167522000Y-204879000D01*
X-164542000Y-203894000D02*
X-164049000Y-203401000D01*
X-166536000Y-203894000D02*
X-164542000Y-203894000D01*
X-162540000Y-203401000D02*
X-162271100Y-203669900D01*
X-164049000Y-203401000D02*
X-162540000Y-203401000D01*
X-162271100Y-203669900D02*
X-162271000Y-203670000D01*
X-165551000Y-202908000D02*
X-166044000Y-203401000D01*
X-166044000Y-203401000D02*
X-166536000Y-203894000D01*
X-164049000Y-203401000D02*
X-164049000Y-203154500D01*
X-164049000Y-203154500D02*
X-164049000Y-202908000D01*
X-164049100Y-203154400D02*
X-164049100Y-202907900D01*
X-164049000Y-203154500D02*
X-164049100Y-203154400D01*
X-168266000Y-212979000D02*
X-167894000Y-212607000D01*
X-168266500Y-212979000D02*
X-168266000Y-212979000D01*
X-166858000Y-203401000D02*
X-167351000Y-202908000D01*
X-166044000Y-203401000D02*
X-166858000Y-203401000D01*
X-167351000Y-202908000D02*
X-167351100Y-202907900D01*
%TO.N,Net-(D63-Pad2)*%
X-186401000Y-221958000D02*
X-186401000Y-224010000D01*
X-186401000Y-231114000D02*
X-187316000Y-232029000D01*
X-186401000Y-224010000D02*
X-186401000Y-231114000D01*
X-186401000Y-224010000D02*
X-186401000Y-221958000D01*
X-181321000Y-222720000D02*
X-181321100Y-222719900D01*
X-182083000Y-221958000D02*
X-183099200Y-221958000D01*
X-181321100Y-222719900D02*
X-182083000Y-221958000D01*
X-183099200Y-221958000D02*
X-183099100Y-221957900D01*
X-187316500Y-232029000D02*
X-187316000Y-232029000D01*
X-183099200Y-221958000D02*
X-186401000Y-221958000D01*
X-186401000Y-221958000D02*
X-186401100Y-221957900D01*
%TO.N,Net-(D62-Pad2)*%
X-219739000Y-202908000D02*
X-219739000Y-204960000D01*
X-219739000Y-212064000D02*
X-220654000Y-212979000D01*
X-219739000Y-204960000D02*
X-219739000Y-212064000D01*
X-219739000Y-204960000D02*
X-219739000Y-202908000D01*
X-219738500Y-202908000D02*
X-219739000Y-202908000D01*
X-219738500Y-202908000D02*
X-219738600Y-202907900D01*
X-214658900Y-203669900D02*
X-214659000Y-203670000D01*
X-214658600Y-203669900D02*
X-214658900Y-203669900D01*
X-216436600Y-202907900D02*
X-216436800Y-202908100D01*
X-215675000Y-203670000D02*
X-216436800Y-202908100D01*
X-214659000Y-203670000D02*
X-215675000Y-203670000D01*
X-216437000Y-202908000D02*
X-219738500Y-202908000D01*
X-216436800Y-202908100D02*
X-216437000Y-202908000D01*
%TO.N,Net-(D61-Pad2)*%
X-238789000Y-202908000D02*
X-238789000Y-204960000D01*
X-238789000Y-212064000D02*
X-239704000Y-212979000D01*
X-238789000Y-204960000D02*
X-238789000Y-212064000D01*
X-238789000Y-204960000D02*
X-238789000Y-202908000D01*
X-238789000Y-202908000D02*
X-238788500Y-202908000D01*
X-238788500Y-202908000D02*
X-238788600Y-202907900D01*
X-233708900Y-203669900D02*
X-233709000Y-203670000D01*
X-233708600Y-203669900D02*
X-233708900Y-203669900D01*
X-238788500Y-202908000D02*
X-237137700Y-202908000D01*
X-234725000Y-203670000D02*
X-233709000Y-203670000D01*
X-235487000Y-202908000D02*
X-234725000Y-203670000D01*
X-237137700Y-202908000D02*
X-235487000Y-202908000D01*
X-235486700Y-202908000D02*
X-235486600Y-202907900D01*
X-237137700Y-202908000D02*
X-235486700Y-202908000D01*
%TO.N,Net-(D60-Pad2)*%
X-257839000Y-202908000D02*
X-257839000Y-204960000D01*
X-257839000Y-212064000D02*
X-258754000Y-212979000D01*
X-257839000Y-204960000D02*
X-257839000Y-212064000D01*
X-257839000Y-204960000D02*
X-257839000Y-202908000D01*
X-254536700Y-202908000D02*
X-254536600Y-202907900D01*
X-257839000Y-202908000D02*
X-257838500Y-202908000D01*
X-257838500Y-202908000D02*
X-254536700Y-202908000D01*
X-257838500Y-202908000D02*
X-257838600Y-202907900D01*
X-253521000Y-202908000D02*
X-253140000Y-202527000D01*
X-254536700Y-202908000D02*
X-253521000Y-202908000D01*
X-253140000Y-202527000D02*
X-252759000Y-202146000D01*
X-253139700Y-202527000D02*
X-252758600Y-202145900D01*
X-253140000Y-202527000D02*
X-253139700Y-202527000D01*
%TO.N,Net-(D59-Pad2)*%
X-276889000Y-202908000D02*
X-276889000Y-204960000D01*
X-276889000Y-212064000D02*
X-277804000Y-212979000D01*
X-276889000Y-204960000D02*
X-276889000Y-212064000D01*
X-276889000Y-204960000D02*
X-276889000Y-202908000D01*
X-273586700Y-202908000D02*
X-273586600Y-202907900D01*
X-276889000Y-202908000D02*
X-276888500Y-202908000D01*
X-276888500Y-202908000D02*
X-273586700Y-202908000D01*
X-276888500Y-202908000D02*
X-276888600Y-202907900D01*
X-272571000Y-202908000D02*
X-272190000Y-202527000D01*
X-273586700Y-202908000D02*
X-272571000Y-202908000D01*
X-272190000Y-202527000D02*
X-271809000Y-202146000D01*
X-272189700Y-202527000D02*
X-271808600Y-202145900D01*
X-272190000Y-202527000D02*
X-272189700Y-202527000D01*
%TO.N,Net-(D58-Pad2)*%
X-300701000Y-212433000D02*
X-300701000Y-214485000D01*
X-300701000Y-221589000D02*
X-301616000Y-222504000D01*
X-300701000Y-214485000D02*
X-300701000Y-221589000D01*
X-300701000Y-214485000D02*
X-300701000Y-212433000D01*
X-295621000Y-213195000D02*
X-295621100Y-213194900D01*
X-296383000Y-212433000D02*
X-297399200Y-212433000D01*
X-295621100Y-213194900D02*
X-296383000Y-212433000D01*
X-297399200Y-212433000D02*
X-297399100Y-212432900D01*
X-301616500Y-222504000D02*
X-301616000Y-222504000D01*
X-297399200Y-212433000D02*
X-300701000Y-212433000D01*
X-300701000Y-212433000D02*
X-300701100Y-212432900D01*
%TO.N,Net-(D57-Pad2)*%
X-324514000Y-212433000D02*
X-324514000Y-214485000D01*
X-324514000Y-221589000D02*
X-325429000Y-222504000D01*
X-324514000Y-214485000D02*
X-324514000Y-221589000D01*
X-324514000Y-214485000D02*
X-324514000Y-212433000D01*
X-321211700Y-212433000D02*
X-321211600Y-212432900D01*
X-324514000Y-212433000D02*
X-324513500Y-212433000D01*
X-324513500Y-212433000D02*
X-321211700Y-212433000D01*
X-324513500Y-212433000D02*
X-324513600Y-212432900D01*
X-320196000Y-212433000D02*
X-319815000Y-212052000D01*
X-321211700Y-212433000D02*
X-320196000Y-212433000D01*
X-319815000Y-212052000D02*
X-319434000Y-211671000D01*
X-319814700Y-212052000D02*
X-319433600Y-211670900D01*
X-319815000Y-212052000D02*
X-319814700Y-212052000D01*
%TO.N,ROW7*%
X-241808000Y-216916000D02*
X-223012000Y-216916000D01*
X-199644000Y-228092000D02*
X-199644000Y-216916000D01*
X-195707000Y-232029000D02*
X-199644000Y-228092000D01*
X-190616500Y-232029000D02*
X-195707000Y-232029000D01*
X-261112000Y-216916000D02*
X-241808000Y-216916000D01*
X-223012000Y-216916000D02*
X-199644000Y-216916000D01*
X-170688000Y-216916000D02*
X-161036000Y-216916000D01*
X-281104000Y-215720000D02*
X-279908000Y-216916000D01*
X-281104000Y-212979000D02*
X-281104000Y-215720000D01*
X-223954000Y-215974000D02*
X-223012000Y-216916000D01*
X-223954000Y-212979000D02*
X-223954000Y-215974000D01*
X-262054000Y-215974000D02*
X-261112000Y-216916000D01*
X-262054000Y-212979000D02*
X-262054000Y-215974000D01*
X-161036000Y-216916000D02*
X-142240000Y-216916000D01*
X-199644000Y-216916000D02*
X-170688000Y-216916000D01*
X-327152000Y-226568000D02*
X-303276000Y-226568000D01*
X-328729000Y-224991000D02*
X-327152000Y-226568000D01*
X-328729000Y-222504000D02*
X-328729000Y-224991000D01*
X-243004000Y-215720000D02*
X-241808000Y-216916000D01*
X-243004000Y-212979000D02*
X-243004000Y-215720000D01*
X-287528000Y-216916000D02*
X-279908000Y-216916000D01*
X-297180000Y-226568000D02*
X-287528000Y-216916000D01*
X-303276000Y-226568000D02*
X-297180000Y-226568000D01*
X-279908000Y-216916000D02*
X-261112000Y-216916000D01*
X-161036000Y-229616000D02*
X-161036000Y-216916000D01*
X-158623000Y-232029000D02*
X-161036000Y-229616000D01*
X-152516500Y-232029000D02*
X-158623000Y-232029000D01*
X-152516000Y-232029000D02*
X-152516500Y-232029000D01*
X-190616000Y-232029000D02*
X-190616500Y-232029000D01*
X-304916000Y-224928000D02*
X-304916000Y-224322000D01*
X-303276000Y-226568000D02*
X-304916000Y-224928000D01*
X-304916000Y-224322000D02*
X-304916000Y-223716000D01*
X-304916500Y-224321500D02*
X-304916500Y-222504000D01*
X-304916000Y-224322000D02*
X-304916500Y-224321500D01*
X-171566000Y-216038000D02*
X-171566000Y-215273000D01*
X-170688000Y-216916000D02*
X-171566000Y-216038000D01*
X-171566000Y-215273000D02*
X-171566000Y-214508000D01*
X-171566500Y-215272500D02*
X-171566500Y-212979000D01*
X-171566000Y-215273000D02*
X-171566500Y-215272500D01*
%TO.N,Net-(D56-Pad2)*%
X-219739000Y-183858000D02*
X-219739000Y-185910000D01*
X-219739000Y-193014000D02*
X-220654000Y-193929000D01*
X-219739000Y-185910000D02*
X-219739000Y-193014000D01*
X-219739000Y-185910000D02*
X-219739000Y-183858000D01*
X-219739000Y-183858000D02*
X-219738500Y-183858000D01*
X-219738500Y-183858000D02*
X-219738600Y-183857900D01*
X-219738500Y-183858000D02*
X-216436700Y-183858000D01*
X-216436700Y-183858000D02*
X-216436600Y-183857900D01*
X-215421000Y-183858000D02*
X-215040000Y-183477000D01*
X-216436700Y-183858000D02*
X-215421000Y-183858000D01*
X-215040000Y-183477000D02*
X-214659000Y-183096000D01*
X-215039700Y-183477000D02*
X-214658600Y-183095900D01*
X-215040000Y-183477000D02*
X-215039700Y-183477000D01*
%TO.N,Net-(D55-Pad2)*%
X-238789000Y-183858000D02*
X-238789000Y-185351000D01*
X-238789000Y-193014000D02*
X-239704000Y-193929000D01*
X-238789000Y-185351000D02*
X-238789000Y-193014000D01*
X-238789000Y-185351000D02*
X-238789000Y-183858000D01*
X-238788500Y-183858000D02*
X-238789000Y-183858000D01*
X-238788500Y-183858000D02*
X-238788600Y-183857900D01*
X-233708700Y-184620000D02*
X-233708600Y-184619900D01*
X-233709000Y-184620000D02*
X-233708700Y-184620000D01*
X-235487000Y-183858000D02*
X-237137700Y-183858000D01*
X-234725000Y-184620000D02*
X-235487000Y-183858000D01*
X-233709000Y-184620000D02*
X-234725000Y-184620000D01*
X-237137700Y-183858000D02*
X-238788500Y-183858000D01*
X-235486700Y-183858000D02*
X-235486600Y-183857900D01*
X-237137700Y-183858000D02*
X-235486700Y-183858000D01*
%TO.N,Net-(D54-Pad2)*%
X-257839000Y-183858000D02*
X-257839000Y-185910000D01*
X-257839000Y-193014000D02*
X-258754000Y-193929000D01*
X-257839000Y-185910000D02*
X-257839000Y-193014000D01*
X-257839000Y-185910000D02*
X-257839000Y-183858000D01*
X-257838500Y-183858000D02*
X-257839000Y-183858000D01*
X-257838500Y-183858000D02*
X-257838600Y-183857900D01*
X-254537000Y-183858000D02*
X-257838500Y-183858000D01*
X-254536600Y-183857600D02*
X-254537000Y-183858000D01*
X-253775000Y-183096000D02*
X-254536600Y-183857600D01*
X-252759000Y-183096000D02*
X-253775000Y-183096000D01*
X-254536600Y-183857600D02*
X-254536600Y-183857900D01*
X-252758900Y-183095900D02*
X-252759000Y-183096000D01*
X-252758600Y-183095900D02*
X-252758900Y-183095900D01*
%TO.N,Net-(D53-Pad2)*%
X-276889000Y-183858000D02*
X-276889000Y-185351000D01*
X-276889000Y-193014000D02*
X-277804000Y-193929000D01*
X-276889000Y-185351000D02*
X-276889000Y-193014000D01*
X-276889000Y-185351000D02*
X-276889000Y-183858000D01*
X-276888500Y-183858000D02*
X-276889000Y-183858000D01*
X-276888500Y-183858000D02*
X-276888600Y-183857900D01*
X-273587000Y-183858000D02*
X-276888500Y-183858000D01*
X-273586600Y-183857600D02*
X-273587000Y-183858000D01*
X-272825000Y-183096000D02*
X-273586600Y-183857600D01*
X-271809000Y-183096000D02*
X-272825000Y-183096000D01*
X-273586600Y-183857600D02*
X-273586600Y-183857900D01*
X-271808900Y-183095900D02*
X-271809000Y-183096000D01*
X-271808600Y-183095900D02*
X-271808900Y-183095900D01*
%TO.N,Net-(D52-Pad2)*%
X-300701000Y-197776000D02*
X-301616000Y-198692000D01*
X-300701000Y-190113000D02*
X-300701000Y-197776000D01*
X-300701000Y-189367000D02*
X-300701000Y-190113000D01*
X-300701000Y-190113000D02*
X-300701000Y-189367000D01*
X-297018500Y-189001000D02*
X-297399100Y-188620400D01*
X-297018000Y-189001000D02*
X-297018500Y-189001000D01*
X-301616500Y-198691500D02*
X-301616000Y-198692000D01*
X-300701100Y-188620400D02*
X-299974000Y-188620400D01*
X-299974000Y-188620000D02*
X-299974000Y-188620400D01*
X-297399000Y-188620000D02*
X-299974000Y-188620000D01*
X-297018000Y-189001000D02*
X-297399000Y-188620000D01*
X-299974000Y-188640000D02*
X-300701000Y-189367000D01*
X-299974000Y-188620400D02*
X-299974000Y-188640000D01*
X-295621100Y-189382400D02*
X-295621100Y-189382000D01*
X-295621000Y-189382000D02*
X-295621100Y-189382000D01*
X-296637000Y-189382000D02*
X-297018000Y-189001000D01*
X-295621100Y-189382000D02*
X-296637000Y-189382000D01*
%TO.N,Net-(D51-Pad2)*%
X-324514000Y-190673000D02*
X-324514000Y-190672000D01*
X-324514000Y-190672000D02*
X-324514000Y-190673000D01*
X-324514000Y-188620000D02*
X-324514000Y-189646000D01*
X-324514000Y-189646000D02*
X-324514000Y-190672000D01*
X-324514000Y-190672000D02*
X-324514000Y-189646000D01*
X-324514000Y-189646000D02*
X-324514000Y-188620000D01*
X-324513600Y-189645600D02*
X-324513600Y-188620400D01*
X-324514000Y-189646000D02*
X-324513600Y-189645600D01*
X-325429000Y-198691500D02*
X-325428800Y-198691700D01*
X-324514000Y-197776000D02*
X-325428800Y-198691700D01*
X-324514000Y-190673000D02*
X-324514000Y-197776000D01*
X-325428800Y-198691700D02*
X-325429000Y-198692000D01*
X-321211600Y-188620400D02*
X-321211600Y-188620000D01*
X-324514000Y-188620000D02*
X-321211600Y-188620000D01*
X-320196000Y-188620000D02*
X-319434000Y-189382000D01*
X-321211600Y-188620000D02*
X-320196000Y-188620000D01*
X-319434000Y-189382000D02*
X-319433600Y-189382400D01*
%TO.N,ROW6*%
X-261112000Y-197612000D02*
X-241808000Y-197612000D01*
X-281104000Y-196416000D02*
X-279908000Y-197612000D01*
X-281104000Y-193929000D02*
X-281104000Y-196416000D01*
X-241808000Y-197612000D02*
X-222504000Y-197612000D01*
X-223954000Y-196162000D02*
X-222504000Y-197612000D01*
X-223954000Y-193929000D02*
X-223954000Y-196162000D01*
X-243004000Y-196416000D02*
X-241808000Y-197612000D01*
X-243004000Y-193929000D02*
X-243004000Y-196416000D01*
X-222504000Y-197612000D02*
X-213360000Y-197612000D01*
X-262054000Y-196670000D02*
X-261112000Y-197612000D01*
X-262054000Y-193929000D02*
X-262054000Y-196670000D01*
X-288544000Y-197612000D02*
X-279908000Y-197612000D01*
X-293624000Y-202692000D02*
X-288544000Y-197612000D01*
X-303276000Y-202692000D02*
X-293624000Y-202692000D01*
X-279908000Y-197612000D02*
X-261112000Y-197612000D01*
X-327152000Y-202692000D02*
X-303276000Y-202692000D01*
X-328729000Y-201115000D02*
X-327152000Y-202692000D01*
X-328729000Y-198692000D02*
X-328729000Y-201115000D01*
X-328729000Y-198692000D02*
X-328729000Y-198691500D01*
X-304916000Y-201052000D02*
X-304916000Y-200462000D01*
X-303276000Y-202692000D02*
X-304916000Y-201052000D01*
X-304916000Y-200462000D02*
X-304916000Y-199872000D01*
X-304916500Y-200461500D02*
X-304916500Y-198691500D01*
X-304916000Y-200462000D02*
X-304916500Y-200461500D01*
%TO.N,Net-(D50-Pad2)*%
X-148301000Y-173964000D02*
X-149216000Y-174879000D01*
X-148301000Y-166860000D02*
X-148301000Y-173964000D01*
X-148301000Y-165834000D02*
X-148301000Y-166860000D01*
X-148301000Y-166860000D02*
X-148301000Y-165834000D01*
X-144999200Y-164808000D02*
X-144999100Y-164807900D01*
X-149216500Y-174879000D02*
X-149216000Y-174879000D01*
X-143221000Y-164046000D02*
X-143221100Y-164046100D01*
X-143983000Y-164808000D02*
X-144999200Y-164808000D01*
X-143221100Y-164046100D02*
X-143983000Y-164808000D01*
X-143221100Y-164046100D02*
X-143221100Y-164045900D01*
X-147574100Y-164807900D02*
X-147574000Y-164808000D01*
X-148301100Y-164807900D02*
X-147574100Y-164807900D01*
X-144999200Y-164808000D02*
X-147574000Y-164808000D01*
X-147574000Y-165107000D02*
X-148301000Y-165834000D01*
X-147574000Y-164808000D02*
X-147574000Y-165107000D01*
%TO.N,Net-(D49-Pad2)*%
X-167351000Y-173964000D02*
X-168266000Y-174879000D01*
X-167351000Y-166860000D02*
X-167351000Y-173964000D01*
X-167351000Y-165834000D02*
X-167351000Y-166860000D01*
X-167351000Y-166860000D02*
X-167351000Y-165834000D01*
X-164049200Y-164808000D02*
X-164049100Y-164807900D01*
X-168266500Y-174879000D02*
X-168266000Y-174879000D01*
X-162271000Y-164046000D02*
X-162271100Y-164046100D01*
X-163033000Y-164808000D02*
X-164049200Y-164808000D01*
X-162271100Y-164046100D02*
X-163033000Y-164808000D01*
X-162271100Y-164046100D02*
X-162271100Y-164045900D01*
X-166624100Y-164807900D02*
X-166624000Y-164808000D01*
X-167351100Y-164807900D02*
X-166624100Y-164807900D01*
X-164049200Y-164808000D02*
X-166624000Y-164808000D01*
X-166624000Y-165107000D02*
X-167351000Y-165834000D01*
X-166624000Y-164808000D02*
X-166624000Y-165107000D01*
%TO.N,Net-(D48-Pad2)*%
X-191164000Y-164808000D02*
X-191164000Y-166301000D01*
X-191164000Y-173964000D02*
X-192079000Y-174879000D01*
X-191164000Y-166301000D02*
X-191164000Y-173964000D01*
X-191164000Y-166301000D02*
X-191164000Y-164808000D01*
X-191164000Y-164808000D02*
X-191163500Y-164808000D01*
X-191163500Y-164808000D02*
X-191163600Y-164807900D01*
X-191163500Y-164808000D02*
X-187861700Y-164808000D01*
X-187861700Y-164808000D02*
X-187861600Y-164807900D01*
X-186846000Y-164808000D02*
X-186465000Y-164427000D01*
X-187861700Y-164808000D02*
X-186846000Y-164808000D01*
X-186465000Y-164427000D02*
X-186084000Y-164046000D01*
X-186464700Y-164427000D02*
X-186083600Y-164045900D01*
X-186465000Y-164427000D02*
X-186464700Y-164427000D01*
%TO.N,Net-(D47-Pad2)*%
X-219739000Y-164808000D02*
X-219739000Y-166860000D01*
X-219739000Y-173964000D02*
X-220654000Y-174879000D01*
X-219739000Y-166860000D02*
X-219739000Y-173964000D01*
X-219739000Y-166860000D02*
X-219739000Y-164808000D01*
X-219739000Y-164808000D02*
X-219738500Y-164808000D01*
X-219738500Y-164808000D02*
X-219738600Y-164807900D01*
X-219738500Y-164808000D02*
X-216436700Y-164808000D01*
X-216436700Y-164808000D02*
X-216436600Y-164807900D01*
X-215421000Y-164808000D02*
X-215040000Y-164427000D01*
X-216436700Y-164808000D02*
X-215421000Y-164808000D01*
X-215040000Y-164427000D02*
X-214659000Y-164046000D01*
X-215039700Y-164427000D02*
X-214658600Y-164045900D01*
X-215040000Y-164427000D02*
X-215039700Y-164427000D01*
%TO.N,Net-(D46-Pad2)*%
X-238789000Y-164808000D02*
X-238789000Y-166301000D01*
X-238789000Y-173964000D02*
X-239704000Y-174879000D01*
X-238789000Y-166301000D02*
X-238789000Y-173964000D01*
X-238789000Y-166301000D02*
X-238789000Y-164808000D01*
X-238789000Y-164808000D02*
X-238788500Y-164808000D01*
X-238788500Y-164808000D02*
X-238788600Y-164807900D01*
X-238788500Y-164808000D02*
X-235486700Y-164808000D01*
X-235486700Y-164808000D02*
X-235486600Y-164807900D01*
X-234471000Y-164808000D02*
X-234090000Y-164427000D01*
X-235486700Y-164808000D02*
X-234471000Y-164808000D01*
X-234090000Y-164427000D02*
X-233709000Y-164046000D01*
X-234089700Y-164427000D02*
X-233708600Y-164045900D01*
X-234090000Y-164427000D02*
X-234089700Y-164427000D01*
%TO.N,Net-(D45-Pad2)*%
X-257839000Y-164808000D02*
X-257839000Y-166860000D01*
X-257839000Y-173964000D02*
X-258754000Y-174879000D01*
X-257839000Y-166860000D02*
X-257839000Y-173964000D01*
X-257839000Y-166860000D02*
X-257839000Y-164808000D01*
X-253521000Y-164808000D02*
X-254536700Y-164808000D01*
X-252759000Y-164046000D02*
X-253521000Y-164808000D01*
X-254536700Y-164808000D02*
X-254536600Y-164807900D01*
X-257838500Y-164808000D02*
X-257839000Y-164808000D01*
X-254536700Y-164808000D02*
X-257838500Y-164808000D01*
X-257838500Y-164808000D02*
X-257838600Y-164807900D01*
X-252758900Y-164045900D02*
X-252759000Y-164046000D01*
X-252758600Y-164045900D02*
X-252758900Y-164045900D01*
%TO.N,Net-(D44-Pad2)*%
X-276889000Y-164808000D02*
X-276889000Y-166860000D01*
X-276889000Y-173964000D02*
X-277804000Y-174879000D01*
X-276889000Y-166860000D02*
X-276889000Y-173964000D01*
X-276889000Y-166860000D02*
X-276889000Y-164808000D01*
X-273586700Y-164808000D02*
X-273586600Y-164807900D01*
X-276889000Y-164808000D02*
X-276888500Y-164808000D01*
X-276888500Y-164808000D02*
X-273586700Y-164808000D01*
X-276888500Y-164808000D02*
X-276888600Y-164807900D01*
X-272571000Y-164808000D02*
X-272190000Y-164427000D01*
X-273586700Y-164808000D02*
X-272571000Y-164808000D01*
X-272190000Y-164427000D02*
X-271809000Y-164046000D01*
X-272189700Y-164427000D02*
X-271808600Y-164045900D01*
X-272190000Y-164427000D02*
X-272189700Y-164427000D01*
%TO.N,Net-(D43-Pad2)*%
X-300701000Y-173964000D02*
X-301616000Y-174879000D01*
X-300701000Y-166860000D02*
X-300701000Y-173964000D01*
X-300701000Y-165834000D02*
X-300701000Y-166860000D01*
X-300701000Y-166860000D02*
X-300701000Y-165834000D01*
X-297399200Y-164808000D02*
X-297399100Y-164807900D01*
X-301616500Y-174879000D02*
X-301616000Y-174879000D01*
X-295621000Y-164046000D02*
X-295621100Y-164046100D01*
X-296383000Y-164808000D02*
X-297399200Y-164808000D01*
X-295621100Y-164046100D02*
X-296383000Y-164808000D01*
X-295621100Y-164046100D02*
X-295621100Y-164045900D01*
X-299974100Y-164807900D02*
X-299974000Y-164808000D01*
X-300701100Y-164807900D02*
X-299974100Y-164807900D01*
X-297399200Y-164808000D02*
X-299974000Y-164808000D01*
X-299974000Y-165107000D02*
X-300701000Y-165834000D01*
X-299974000Y-164808000D02*
X-299974000Y-165107000D01*
%TO.N,Net-(D42-Pad2)*%
X-324514000Y-164808000D02*
X-324514000Y-166860000D01*
X-324514000Y-173964000D02*
X-325429000Y-174879000D01*
X-324514000Y-166860000D02*
X-324514000Y-173964000D01*
X-324514000Y-166860000D02*
X-324514000Y-164808000D01*
X-320196000Y-164808000D02*
X-321211700Y-164808000D01*
X-319434000Y-164046000D02*
X-320196000Y-164808000D01*
X-321211700Y-164808000D02*
X-321211600Y-164807900D01*
X-324513500Y-164808000D02*
X-324514000Y-164808000D01*
X-321211700Y-164808000D02*
X-324513500Y-164808000D01*
X-324513500Y-164808000D02*
X-324513600Y-164807900D01*
X-319433900Y-164045900D02*
X-319434000Y-164046000D01*
X-319433600Y-164045900D02*
X-319433900Y-164045900D01*
%TO.N,ROW5*%
X-241808000Y-178816000D02*
X-222504000Y-178816000D01*
X-195379000Y-177493000D02*
X-194056000Y-178816000D01*
X-195379000Y-174879000D02*
X-195379000Y-177493000D01*
X-328729000Y-177239000D02*
X-327152000Y-178816000D01*
X-328729000Y-174879000D02*
X-328729000Y-177239000D01*
X-243004000Y-177620000D02*
X-241808000Y-178816000D01*
X-243004000Y-174879000D02*
X-243004000Y-177620000D01*
X-262054000Y-177874000D02*
X-261112000Y-178816000D01*
X-262054000Y-174879000D02*
X-262054000Y-177874000D01*
X-223954000Y-177366000D02*
X-222504000Y-178816000D01*
X-223954000Y-174879000D02*
X-223954000Y-177366000D01*
X-261112000Y-178816000D02*
X-241808000Y-178816000D01*
X-281104000Y-177620000D02*
X-279908000Y-178816000D01*
X-281104000Y-174879000D02*
X-281104000Y-177620000D01*
X-171566000Y-177430000D02*
X-171566000Y-176154000D01*
X-170180000Y-178816000D02*
X-171566000Y-177430000D01*
X-170180000Y-178816000D02*
X-194056000Y-178816000D01*
X-194056000Y-178816000D02*
X-222504000Y-178816000D01*
X-303784000Y-178816000D02*
X-279908000Y-178816000D01*
X-279908000Y-178816000D02*
X-261112000Y-178816000D01*
X-328676000Y-178816000D02*
X-327152000Y-178816000D01*
X-327152000Y-178816000D02*
X-303784000Y-178816000D01*
X-152516000Y-177408000D02*
X-152516000Y-176776000D01*
X-153924000Y-178816000D02*
X-152516000Y-177408000D01*
X-170180000Y-178816000D02*
X-153924000Y-178816000D01*
X-152516000Y-176776000D02*
X-152516000Y-176144000D01*
X-152516500Y-176775500D02*
X-152516500Y-174879000D01*
X-152516000Y-176776000D02*
X-152516500Y-176775500D01*
X-171566500Y-176153500D02*
X-171566000Y-176154000D01*
X-171566500Y-174879000D02*
X-171566500Y-176153500D01*
X-304916000Y-177684000D02*
X-304916000Y-176983000D01*
X-303784000Y-178816000D02*
X-304916000Y-177684000D01*
X-304916000Y-176983000D02*
X-304916000Y-176282000D01*
X-304916500Y-176982500D02*
X-304916500Y-174879000D01*
X-304916000Y-176983000D02*
X-304916500Y-176982500D01*
%TO.N,Net-(D41-Pad2)*%
X-148301000Y-145389000D02*
X-149216000Y-146304000D01*
X-148301000Y-137726000D02*
X-148301000Y-145389000D01*
X-148301000Y-136980000D02*
X-148301000Y-137726000D01*
X-148301000Y-137726000D02*
X-148301000Y-136980000D01*
X-143221000Y-136995000D02*
X-143221200Y-136995000D01*
X-143221200Y-136995000D02*
X-143221100Y-136994900D01*
X-149216500Y-146304000D02*
X-149216000Y-146304000D01*
X-147574100Y-136232900D02*
X-147574000Y-136233000D01*
X-148301100Y-136232900D02*
X-147574100Y-136232900D01*
X-147574000Y-136253000D02*
X-148301000Y-136980000D01*
X-147574000Y-136233000D02*
X-147574000Y-136253000D01*
X-144999000Y-136233000D02*
X-144999200Y-136233000D01*
X-144237000Y-136995000D02*
X-144999000Y-136233000D01*
X-143221200Y-136995000D02*
X-144237000Y-136995000D01*
X-144999200Y-136233000D02*
X-147574000Y-136233000D01*
X-144999200Y-136233000D02*
X-144999100Y-136232900D01*
%TO.N,Net-(D40-Pad2)*%
X-167351000Y-136233000D02*
X-167351000Y-138285000D01*
X-167351000Y-145389000D02*
X-168266000Y-146304000D01*
X-167351000Y-138285000D02*
X-167351000Y-145389000D01*
X-167351000Y-138285000D02*
X-167351000Y-136233000D01*
X-164049200Y-136233000D02*
X-164049100Y-136232900D01*
X-168266500Y-146304000D02*
X-168266000Y-146304000D01*
X-162271000Y-135471000D02*
X-162271100Y-135471100D01*
X-163033000Y-136233000D02*
X-164049200Y-136233000D01*
X-162271100Y-135471100D02*
X-163033000Y-136233000D01*
X-162271100Y-135471100D02*
X-162271100Y-135470900D01*
X-164049200Y-136233000D02*
X-167351000Y-136233000D01*
X-167351000Y-136233000D02*
X-167351100Y-136232900D01*
%TO.N,Net-(D39-Pad2)*%
X-191164000Y-136233000D02*
X-191164000Y-138285000D01*
X-191164000Y-145389000D02*
X-192079000Y-146304000D01*
X-191164000Y-138285000D02*
X-191164000Y-145389000D01*
X-191164000Y-138285000D02*
X-191164000Y-136233000D01*
X-187861700Y-136233000D02*
X-187861600Y-136232900D01*
X-191164000Y-136233000D02*
X-191163500Y-136233000D01*
X-191163500Y-136233000D02*
X-187861700Y-136233000D01*
X-191163500Y-136233000D02*
X-191163600Y-136232900D01*
X-186846000Y-136233000D02*
X-186465000Y-136614000D01*
X-187861700Y-136233000D02*
X-186846000Y-136233000D01*
X-186465000Y-136614000D02*
X-186084000Y-136995000D01*
X-186464500Y-136614000D02*
X-186083600Y-136994900D01*
X-186465000Y-136614000D02*
X-186464500Y-136614000D01*
%TO.N,Net-(D38-Pad2)*%
X-219739000Y-136233000D02*
X-219739000Y-137726000D01*
X-219739000Y-145389000D02*
X-220654000Y-146304000D01*
X-219739000Y-137726000D02*
X-219739000Y-145389000D01*
X-219739000Y-137726000D02*
X-219739000Y-136233000D01*
X-219738500Y-136233000D02*
X-219739000Y-136233000D01*
X-219738500Y-136233000D02*
X-219738600Y-136232900D01*
X-214658700Y-136995000D02*
X-214658600Y-136994900D01*
X-214659000Y-136995000D02*
X-214658700Y-136995000D01*
X-216437000Y-136233000D02*
X-218087700Y-136233000D01*
X-215675000Y-136995000D02*
X-216437000Y-136233000D01*
X-214659000Y-136995000D02*
X-215675000Y-136995000D01*
X-218087700Y-136233000D02*
X-219738500Y-136233000D01*
X-216436700Y-136233000D02*
X-216436600Y-136232900D01*
X-218087700Y-136233000D02*
X-216436700Y-136233000D01*
%TO.N,Net-(D37-Pad2)*%
X-238789000Y-136233000D02*
X-238789000Y-138285000D01*
X-238789000Y-145389000D02*
X-239704000Y-146304000D01*
X-238789000Y-138285000D02*
X-238789000Y-145389000D01*
X-238789000Y-138285000D02*
X-238789000Y-136233000D01*
X-238788500Y-136233000D02*
X-238789000Y-136233000D01*
X-238788500Y-136233000D02*
X-238788600Y-136232900D01*
X-233708700Y-136995000D02*
X-233708600Y-136994900D01*
X-233709000Y-136995000D02*
X-233708700Y-136995000D01*
X-235487000Y-136233000D02*
X-237137700Y-136233000D01*
X-234725000Y-136995000D02*
X-235487000Y-136233000D01*
X-233709000Y-136995000D02*
X-234725000Y-136995000D01*
X-237137700Y-136233000D02*
X-238788500Y-136233000D01*
X-235486700Y-136233000D02*
X-235486600Y-136232900D01*
X-237137700Y-136233000D02*
X-235486700Y-136233000D01*
%TO.N,Net-(D36-Pad2)*%
X-257839000Y-136233000D02*
X-257839000Y-137726000D01*
X-257839000Y-145389000D02*
X-258754000Y-146304000D01*
X-257839000Y-137726000D02*
X-257839000Y-145389000D01*
X-257839000Y-137726000D02*
X-257839000Y-136233000D01*
X-257838500Y-136233000D02*
X-257839000Y-136233000D01*
X-257838500Y-136233000D02*
X-257838600Y-136232900D01*
X-254537000Y-136233000D02*
X-257838500Y-136233000D01*
X-254536600Y-136232600D02*
X-254537000Y-136233000D01*
X-253775000Y-135471000D02*
X-254536600Y-136232600D01*
X-252759000Y-135471000D02*
X-253775000Y-135471000D01*
X-254536600Y-136232600D02*
X-254536600Y-136232900D01*
X-252758900Y-135470900D02*
X-252759000Y-135471000D01*
X-252758600Y-135470900D02*
X-252758900Y-135470900D01*
%TO.N,Net-(D35-Pad2)*%
X-286414000Y-136233000D02*
X-286414000Y-137726000D01*
X-286414000Y-145389000D02*
X-287329000Y-146304000D01*
X-286414000Y-137726000D02*
X-286414000Y-145389000D01*
X-286414000Y-137726000D02*
X-286414000Y-136233000D01*
X-286414000Y-136233000D02*
X-286413500Y-136233000D01*
X-286413500Y-136233000D02*
X-286413600Y-136232900D01*
X-286413500Y-136233000D02*
X-283111700Y-136233000D01*
X-283111700Y-136233000D02*
X-283111600Y-136232900D01*
X-282096000Y-136233000D02*
X-281715000Y-135852000D01*
X-283111700Y-136233000D02*
X-282096000Y-136233000D01*
X-281715000Y-135852000D02*
X-281334000Y-135471000D01*
X-281714700Y-135852000D02*
X-281333600Y-135470900D01*
X-281715000Y-135852000D02*
X-281714700Y-135852000D01*
%TO.N,Net-(D34-Pad2)*%
X-305464000Y-136233000D02*
X-305464000Y-138285000D01*
X-305464000Y-145389000D02*
X-306379000Y-146304000D01*
X-305464000Y-138285000D02*
X-305464000Y-145389000D01*
X-305464000Y-138285000D02*
X-305464000Y-136233000D01*
X-301146000Y-136233000D02*
X-302161700Y-136233000D01*
X-300384000Y-135471000D02*
X-301146000Y-136233000D01*
X-302161700Y-136233000D02*
X-302161600Y-136232900D01*
X-305463500Y-136233000D02*
X-305464000Y-136233000D01*
X-302161700Y-136233000D02*
X-305463500Y-136233000D01*
X-305463500Y-136233000D02*
X-305463600Y-136232900D01*
X-300383900Y-135470900D02*
X-300384000Y-135471000D01*
X-300383600Y-135470900D02*
X-300383900Y-135470900D01*
%TO.N,Net-(D33-Pad2)*%
X-324514000Y-136233000D02*
X-324514000Y-138285000D01*
X-324514000Y-145389000D02*
X-325429000Y-146304000D01*
X-324514000Y-138285000D02*
X-324514000Y-145389000D01*
X-324514000Y-138285000D02*
X-324514000Y-136233000D01*
X-324514000Y-136233000D02*
X-324513500Y-136233000D01*
X-324513500Y-136233000D02*
X-324513600Y-136232900D01*
X-324513500Y-136233000D02*
X-321211700Y-136233000D01*
X-321211700Y-136233000D02*
X-321211600Y-136232900D01*
X-320196000Y-136233000D02*
X-319815000Y-135852000D01*
X-321211700Y-136233000D02*
X-320196000Y-136233000D01*
X-319815000Y-135852000D02*
X-319434000Y-135471000D01*
X-319814700Y-135852000D02*
X-319433600Y-135470900D01*
X-319815000Y-135852000D02*
X-319814700Y-135852000D01*
%TO.N,ROW4*%
X-289560000Y-149860000D02*
X-261112000Y-149860000D01*
X-262054000Y-148918000D02*
X-261112000Y-149860000D01*
X-262054000Y-146304000D02*
X-262054000Y-148918000D01*
X-195379000Y-149045000D02*
X-194564000Y-149860000D01*
X-195379000Y-146304000D02*
X-195379000Y-149045000D01*
X-223954000Y-148918000D02*
X-223012000Y-149860000D01*
X-223954000Y-146304000D02*
X-223954000Y-148918000D01*
X-309679000Y-148537000D02*
X-308356000Y-149860000D01*
X-309679000Y-146304000D02*
X-309679000Y-148537000D01*
X-261112000Y-149860000D02*
X-241808000Y-149860000D01*
X-290629000Y-148791000D02*
X-289560000Y-149860000D01*
X-290629000Y-146304000D02*
X-290629000Y-148791000D01*
X-243004000Y-148664000D02*
X-241808000Y-149860000D01*
X-243004000Y-146304000D02*
X-243004000Y-148664000D01*
X-328729000Y-148791000D02*
X-327660000Y-149860000D01*
X-328729000Y-146304000D02*
X-328729000Y-148791000D01*
X-327660000Y-149860000D02*
X-327152000Y-149860000D01*
X-194564000Y-149860000D02*
X-170688000Y-149860000D01*
X-170688000Y-149860000D02*
X-170180000Y-149860000D01*
X-170688000Y-149860000D02*
X-170180000Y-149860000D01*
X-327152000Y-149860000D02*
X-308356000Y-149860000D01*
X-308356000Y-149860000D02*
X-289560000Y-149860000D01*
X-328168000Y-149860000D02*
X-327660000Y-149860000D01*
X-327660000Y-149860000D02*
X-327152000Y-149860000D01*
X-241808000Y-149860000D02*
X-223012000Y-149860000D01*
X-223012000Y-149860000D02*
X-194564000Y-149860000D01*
X-152516000Y-148452000D02*
X-152516000Y-147915000D01*
X-153924000Y-149860000D02*
X-152516000Y-148452000D01*
X-170180000Y-149860000D02*
X-153924000Y-149860000D01*
X-152516000Y-147915000D02*
X-152516000Y-147378000D01*
X-152516500Y-147914500D02*
X-152516500Y-146304000D01*
X-152516000Y-147915000D02*
X-152516500Y-147914500D01*
X-171566000Y-148982000D02*
X-171566000Y-148312500D01*
X-170688000Y-149860000D02*
X-171566000Y-148982000D01*
X-171566000Y-148312500D02*
X-171566000Y-147643000D01*
X-171566500Y-148312000D02*
X-171566500Y-146304000D01*
X-171566000Y-148312500D02*
X-171566500Y-148312000D01*
%TO.N,Net-(D32-Pad2)*%
X-167351000Y-117183000D02*
X-167351000Y-119235000D01*
X-167351000Y-126339000D02*
X-168266000Y-127254000D01*
X-167351000Y-119235000D02*
X-167351000Y-126339000D01*
X-167351000Y-119235000D02*
X-167351000Y-117183000D01*
X-162271000Y-117945000D02*
X-162271100Y-117944900D01*
X-163033000Y-117183000D02*
X-164049200Y-117183000D01*
X-162271100Y-117944900D02*
X-163033000Y-117183000D01*
X-164049200Y-117183000D02*
X-164049100Y-117182900D01*
X-168266500Y-127254000D02*
X-168266000Y-127254000D01*
X-164049200Y-117183000D02*
X-167351000Y-117183000D01*
X-167351000Y-117183000D02*
X-167351100Y-117182900D01*
%TO.N,Net-(D31-Pad2)*%
X-191164000Y-107658000D02*
X-191164000Y-109710000D01*
X-191164000Y-116814000D02*
X-192079000Y-117729000D01*
X-191164000Y-109710000D02*
X-191164000Y-116814000D01*
X-191164000Y-109710000D02*
X-191164000Y-107658000D01*
X-191164000Y-107658000D02*
X-191163500Y-107658000D01*
X-191163500Y-107658000D02*
X-191163600Y-107657900D01*
X-191163500Y-107658000D02*
X-187861700Y-107658000D01*
X-187861700Y-107658000D02*
X-187861600Y-107657900D01*
X-186846000Y-107658000D02*
X-186465000Y-107277000D01*
X-187861700Y-107658000D02*
X-186846000Y-107658000D01*
X-186465000Y-107277000D02*
X-186084000Y-106896000D01*
X-186464700Y-107277000D02*
X-186083600Y-106895900D01*
X-186465000Y-107277000D02*
X-186464700Y-107277000D01*
%TO.N,Net-(D30-Pad2)*%
X-219739000Y-117183000D02*
X-219739000Y-119235000D01*
X-219739000Y-126339000D02*
X-220654000Y-127254000D01*
X-219739000Y-119235000D02*
X-219739000Y-126339000D01*
X-219739000Y-119235000D02*
X-219739000Y-117183000D01*
X-219738500Y-117183000D02*
X-219739000Y-117183000D01*
X-219738500Y-117183000D02*
X-219738600Y-117182900D01*
X-216437000Y-117183000D02*
X-219738500Y-117183000D01*
X-216436600Y-117182600D02*
X-216437000Y-117183000D01*
X-215675000Y-116421000D02*
X-216436600Y-117182600D01*
X-214659000Y-116421000D02*
X-215675000Y-116421000D01*
X-216436600Y-117182600D02*
X-216436600Y-117182900D01*
X-214658900Y-116420900D02*
X-214659000Y-116421000D01*
X-214658600Y-116420900D02*
X-214658900Y-116420900D01*
%TO.N,Net-(D29-Pad2)*%
X-238789000Y-117183000D02*
X-238789000Y-119235000D01*
X-238789000Y-126339000D02*
X-239704000Y-127254000D01*
X-238789000Y-119235000D02*
X-238789000Y-126339000D01*
X-238789000Y-119235000D02*
X-238789000Y-117183000D01*
X-234471000Y-117183000D02*
X-235486700Y-117183000D01*
X-233709000Y-116421000D02*
X-234471000Y-117183000D01*
X-235486700Y-117183000D02*
X-235486600Y-117182900D01*
X-238788500Y-117183000D02*
X-238789000Y-117183000D01*
X-235486700Y-117183000D02*
X-238788500Y-117183000D01*
X-238788500Y-117183000D02*
X-238788600Y-117182900D01*
X-233708900Y-116420900D02*
X-233709000Y-116421000D01*
X-233708600Y-116420900D02*
X-233708900Y-116420900D01*
%TO.N,Net-(D28-Pad2)*%
X-257839000Y-117183000D02*
X-257839000Y-119235000D01*
X-257839000Y-126339000D02*
X-258754000Y-127254000D01*
X-257839000Y-119235000D02*
X-257839000Y-126339000D01*
X-257839000Y-119235000D02*
X-257839000Y-117183000D01*
X-254536700Y-117183000D02*
X-254536600Y-117182900D01*
X-257839000Y-117183000D02*
X-257838500Y-117183000D01*
X-257838500Y-117183000D02*
X-254536700Y-117183000D01*
X-257838500Y-117183000D02*
X-257838600Y-117182900D01*
X-253521000Y-117183000D02*
X-253140000Y-117564000D01*
X-254536700Y-117183000D02*
X-253521000Y-117183000D01*
X-253140000Y-117564000D02*
X-252759000Y-117945000D01*
X-253139500Y-117564000D02*
X-252758600Y-117944900D01*
X-253140000Y-117564000D02*
X-253139500Y-117564000D01*
%TO.N,Net-(D27-Pad2)*%
X-286414000Y-117183000D02*
X-286414000Y-119235000D01*
X-286414000Y-126339000D02*
X-287329000Y-127254000D01*
X-286414000Y-119235000D02*
X-286414000Y-126339000D01*
X-286414000Y-119235000D02*
X-286414000Y-117183000D01*
X-282096000Y-117183000D02*
X-283111700Y-117183000D01*
X-281334000Y-116421000D02*
X-282096000Y-117183000D01*
X-283111700Y-117183000D02*
X-283111600Y-117182900D01*
X-286413500Y-117183000D02*
X-286414000Y-117183000D01*
X-283111700Y-117183000D02*
X-286413500Y-117183000D01*
X-286413500Y-117183000D02*
X-286413600Y-117182900D01*
X-281333900Y-116420900D02*
X-281334000Y-116421000D01*
X-281333600Y-116420900D02*
X-281333900Y-116420900D01*
%TO.N,Net-(D26-Pad2)*%
X-305464000Y-117183000D02*
X-305464000Y-119235000D01*
X-305464000Y-126339000D02*
X-306379000Y-127254000D01*
X-305464000Y-119235000D02*
X-305464000Y-126339000D01*
X-305464000Y-119235000D02*
X-305464000Y-117183000D01*
X-302161700Y-117183000D02*
X-302161600Y-117182900D01*
X-305464000Y-117183000D02*
X-305463500Y-117183000D01*
X-305463500Y-117183000D02*
X-302161700Y-117183000D01*
X-305463500Y-117183000D02*
X-305463600Y-117182900D01*
X-301146000Y-117183000D02*
X-300765000Y-116802000D01*
X-302161700Y-117183000D02*
X-301146000Y-117183000D01*
X-300765000Y-116802000D02*
X-300384000Y-116421000D01*
X-300764700Y-116802000D02*
X-300383600Y-116420900D01*
X-300765000Y-116802000D02*
X-300764700Y-116802000D01*
%TO.N,Net-(D25-Pad2)*%
X-324514000Y-117183000D02*
X-324514000Y-119235000D01*
X-324514000Y-126339000D02*
X-325429000Y-127254000D01*
X-324514000Y-119235000D02*
X-324514000Y-126339000D01*
X-324514000Y-119235000D02*
X-324514000Y-117183000D01*
X-321211700Y-117183000D02*
X-321211600Y-117182900D01*
X-324514000Y-117183000D02*
X-324513500Y-117183000D01*
X-324513500Y-117183000D02*
X-321211700Y-117183000D01*
X-324513500Y-117183000D02*
X-324513600Y-117182900D01*
X-320196000Y-117183000D02*
X-319815000Y-117564000D01*
X-321211700Y-117183000D02*
X-320196000Y-117183000D01*
X-319815000Y-117564000D02*
X-319434000Y-117945000D01*
X-319814500Y-117564000D02*
X-319433600Y-117944900D01*
X-319815000Y-117564000D02*
X-319814500Y-117564000D01*
%TO.N,ROW3*%
X-307848000Y-131064000D02*
X-289052000Y-131064000D01*
X-260604000Y-131064000D02*
X-260096000Y-131064000D01*
X-327152000Y-131064000D02*
X-326136000Y-131064000D01*
X-290629000Y-129487000D02*
X-289052000Y-131064000D01*
X-290629000Y-127254000D02*
X-290629000Y-129487000D01*
X-328729000Y-129487000D02*
X-327152000Y-131064000D01*
X-328729000Y-127254000D02*
X-328729000Y-129487000D01*
X-195379000Y-130721000D02*
X-195379000Y-117729000D01*
X-195036000Y-131064000D02*
X-195379000Y-130721000D01*
X-223954000Y-129614000D02*
X-222504000Y-131064000D01*
X-223954000Y-127254000D02*
X-223954000Y-129614000D01*
X-243004000Y-129868000D02*
X-241808000Y-131064000D01*
X-243004000Y-127254000D02*
X-243004000Y-129868000D01*
X-262054000Y-129614000D02*
X-260604000Y-131064000D01*
X-262054000Y-127254000D02*
X-262054000Y-129614000D01*
X-309679000Y-129233000D02*
X-307848000Y-131064000D01*
X-309679000Y-127254000D02*
X-309679000Y-129233000D01*
X-260096000Y-131064000D02*
X-241808000Y-131064000D01*
X-241808000Y-131064000D02*
X-222504000Y-131064000D01*
X-222504000Y-131064000D02*
X-195036000Y-131064000D01*
X-328676000Y-131064000D02*
X-327152000Y-131064000D01*
X-327152000Y-131064000D02*
X-326136000Y-131064000D01*
X-326136000Y-131064000D02*
X-307848000Y-131064000D01*
X-289052000Y-131064000D02*
X-260604000Y-131064000D01*
X-260604000Y-131064000D02*
X-260096000Y-131064000D01*
X-171566000Y-129910000D02*
X-171566000Y-129246000D01*
X-172720000Y-131064000D02*
X-171566000Y-129910000D01*
X-195036000Y-131064000D02*
X-172720000Y-131064000D01*
X-171566000Y-129246000D02*
X-171566000Y-128582000D01*
X-171566500Y-129245500D02*
X-171566500Y-127254000D01*
X-171566000Y-129246000D02*
X-171566500Y-129245500D01*
%TO.N,Net-(D24-Pad2)*%
X-164049000Y-98132900D02*
X-164049100Y-98132900D01*
X-163287000Y-97370900D02*
X-164049000Y-98132900D01*
X-162271100Y-97370900D02*
X-163287000Y-97370900D01*
X-162271000Y-97370900D02*
X-162271100Y-97370900D01*
X-165700000Y-98132900D02*
X-167351100Y-98132900D01*
X-164049100Y-98132900D02*
X-165700000Y-98132900D01*
X-167522000Y-107460000D02*
X-168266000Y-108204000D01*
X-167522000Y-98304000D02*
X-167522000Y-107460000D01*
X-167351000Y-98132900D02*
X-167522000Y-98304000D01*
X-165700000Y-98132900D02*
X-167351000Y-98132900D01*
X-168266500Y-108204000D02*
X-168266000Y-108204000D01*
%TO.N,Net-(D23-Pad2)*%
X-219739000Y-107289000D02*
X-220654000Y-108204000D01*
X-219739000Y-99625900D02*
X-219739000Y-107289000D01*
X-219739000Y-99625500D02*
X-219739000Y-98132900D01*
X-219739000Y-99625900D02*
X-219739000Y-99625500D01*
X-219738600Y-98132900D02*
X-219739000Y-98132900D01*
X-219739000Y-98132900D02*
X-219739000Y-99625500D01*
X-219739000Y-99625500D02*
X-219739000Y-99625900D01*
X-214659000Y-97370900D02*
X-214658600Y-97370900D01*
X-218087800Y-98132900D02*
X-216436600Y-98132900D01*
X-216437000Y-98132900D02*
X-218087800Y-98132900D01*
X-215675000Y-97370900D02*
X-216437000Y-98132900D01*
X-214659000Y-97370900D02*
X-215675000Y-97370900D01*
X-218087800Y-98132900D02*
X-219738600Y-98132900D01*
%TO.N,Net-(D22-Pad2)*%
X-238789000Y-98132900D02*
X-238789000Y-100185000D01*
X-238789000Y-107289000D02*
X-239704000Y-108204000D01*
X-238789000Y-100185000D02*
X-238789000Y-107289000D01*
X-238789000Y-100185000D02*
X-238789000Y-98132900D01*
X-238788600Y-98132900D02*
X-238789000Y-98132900D01*
X-235486600Y-98132900D02*
X-238788600Y-98132900D01*
X-233709000Y-97370900D02*
X-234090000Y-97751900D01*
X-234471000Y-98132900D02*
X-235486600Y-98132900D01*
X-234090000Y-97751900D02*
X-234471000Y-98132900D01*
X-234089600Y-97751900D02*
X-233708600Y-97370900D01*
X-234090000Y-97751900D02*
X-234089600Y-97751900D01*
%TO.N,Net-(D21-Pad2)*%
X-257839000Y-98132900D02*
X-257839000Y-100185000D01*
X-257839000Y-107289000D02*
X-258754000Y-108204000D01*
X-257839000Y-100185000D02*
X-257839000Y-107289000D01*
X-257839000Y-100185000D02*
X-257839000Y-98132900D01*
X-257838600Y-98132900D02*
X-257839000Y-98132900D01*
X-252759000Y-97370900D02*
X-252758600Y-97370900D01*
X-256187800Y-98132900D02*
X-254536600Y-98132900D01*
X-254537000Y-98132900D02*
X-256187800Y-98132900D01*
X-253775000Y-97370900D02*
X-254537000Y-98132900D01*
X-252759000Y-97370900D02*
X-253775000Y-97370900D01*
X-256187800Y-98132900D02*
X-257838600Y-98132900D01*
%TO.N,Net-(D20-Pad2)*%
X-286414000Y-98132900D02*
X-286414000Y-100185000D01*
X-286414000Y-107289000D02*
X-287329000Y-108204000D01*
X-286414000Y-100185000D02*
X-286414000Y-107289000D01*
X-286414000Y-100185000D02*
X-286414000Y-98132900D01*
X-286413600Y-98132900D02*
X-286414000Y-98132900D01*
X-283111600Y-98132900D02*
X-286413600Y-98132900D01*
X-281334000Y-97370900D02*
X-281715000Y-97751900D01*
X-282096000Y-98132900D02*
X-283111600Y-98132900D01*
X-281715000Y-97751900D02*
X-282096000Y-98132900D01*
X-281714600Y-97751900D02*
X-281333600Y-97370900D01*
X-281715000Y-97751900D02*
X-281714600Y-97751900D01*
%TO.N,Net-(D19-Pad2)*%
X-305464000Y-98132900D02*
X-305464000Y-100185000D01*
X-305464000Y-107289000D02*
X-306379000Y-108204000D01*
X-305464000Y-100185000D02*
X-305464000Y-107289000D01*
X-305464000Y-100185000D02*
X-305464000Y-98132900D01*
X-305464000Y-98132900D02*
X-305463600Y-98132900D01*
X-300384000Y-98894900D02*
X-300383600Y-98894900D01*
X-303812800Y-98132900D02*
X-302161600Y-98132900D01*
X-302162000Y-98132900D02*
X-303812800Y-98132900D01*
X-301400000Y-98894900D02*
X-302162000Y-98132900D01*
X-300384000Y-98894900D02*
X-301400000Y-98894900D01*
X-303812800Y-98132900D02*
X-305463600Y-98132900D01*
%TO.N,Net-(D18-Pad2)*%
X-324514000Y-107289000D02*
X-325429000Y-108204000D01*
X-324514000Y-99625900D02*
X-324514000Y-107289000D01*
X-324514000Y-99625500D02*
X-324514000Y-98132900D01*
X-324514000Y-99625900D02*
X-324514000Y-99625500D01*
X-324514000Y-98132900D02*
X-324513600Y-98132900D01*
X-324513600Y-98132900D02*
X-321211600Y-98132900D01*
X-324514000Y-98132900D02*
X-324514000Y-99625500D01*
X-324514000Y-99625500D02*
X-324514000Y-99625900D01*
X-320196000Y-98132900D02*
X-319815000Y-97751900D01*
X-321211600Y-98132900D02*
X-320196000Y-98132900D01*
X-319815000Y-97751900D02*
X-319434000Y-97370900D01*
X-319814600Y-97751900D02*
X-319433600Y-97370900D01*
X-319815000Y-97751900D02*
X-319814600Y-97751900D01*
%TO.N,ROW2*%
X-328729000Y-110183000D02*
X-326644000Y-112268000D01*
X-328729000Y-108204000D02*
X-328729000Y-110183000D01*
X-262054000Y-110818000D02*
X-260604000Y-112268000D01*
X-262054000Y-108204000D02*
X-262054000Y-110818000D01*
X-328676000Y-112268000D02*
X-326644000Y-112268000D01*
X-309679000Y-110437000D02*
X-307848000Y-112268000D01*
X-309679000Y-108204000D02*
X-309679000Y-110437000D01*
X-223954000Y-110310000D02*
X-221996000Y-112268000D01*
X-223954000Y-108204000D02*
X-223954000Y-110310000D01*
X-243004000Y-110564000D02*
X-241300000Y-112268000D01*
X-243004000Y-108204000D02*
X-243004000Y-110564000D01*
X-290629000Y-110691000D02*
X-289052000Y-112268000D01*
X-290629000Y-108204000D02*
X-290629000Y-110691000D01*
X-213868000Y-112268000D02*
X-221996000Y-112268000D01*
X-203200000Y-101092000D02*
X-213868000Y-112268000D01*
X-184150000Y-101092000D02*
X-203200000Y-101092000D01*
X-177902000Y-107798000D02*
X-184150000Y-101092000D01*
X-177495000Y-108204000D02*
X-177902000Y-107798000D01*
X-171566500Y-108204000D02*
X-177495000Y-108204000D01*
X-171566000Y-108204000D02*
X-171566500Y-108204000D01*
X-241300000Y-112268000D02*
X-221996000Y-112268000D01*
X-289052000Y-112268000D02*
X-260604000Y-112268000D01*
X-260604000Y-112268000D02*
X-241300000Y-112268000D01*
X-326644000Y-112268000D02*
X-307848000Y-112268000D01*
X-307848000Y-112268000D02*
X-289052000Y-112268000D01*
%TO.N,Net-(D17-Pad2)*%
X-167351000Y-88238600D02*
X-168266000Y-89154000D01*
X-167351000Y-80575900D02*
X-167351000Y-88238600D01*
X-167351000Y-80575900D02*
X-167351000Y-80575800D01*
X-167351000Y-80575800D02*
X-167351000Y-79829400D01*
X-167351000Y-79829400D02*
X-167351000Y-80575800D01*
X-167351000Y-80575800D02*
X-167351000Y-80575900D01*
X-163033000Y-79082900D02*
X-162271100Y-78321000D01*
X-164049100Y-79082900D02*
X-163033000Y-79082900D01*
X-162271100Y-78321000D02*
X-162271000Y-78320900D01*
X-162271100Y-78321000D02*
X-162271100Y-78320900D01*
X-168266500Y-89154000D02*
X-168266000Y-89154000D01*
X-167351100Y-79082900D02*
X-166624000Y-79082900D01*
X-166624000Y-79102600D02*
X-166624000Y-79082900D01*
X-167351000Y-79829400D02*
X-166624000Y-79102600D01*
X-166624000Y-79082900D02*
X-164049100Y-79082900D01*
%TO.N,Net-(D16-Pad2)*%
X-191164000Y-88238600D02*
X-192079000Y-89154000D01*
X-191164000Y-81135400D02*
X-191164000Y-88238600D01*
X-191164000Y-81135000D02*
X-191164000Y-79082900D01*
X-191164000Y-81135400D02*
X-191164000Y-81135000D01*
X-191164000Y-79082900D02*
X-191163600Y-79082900D01*
X-191164000Y-79082900D02*
X-191164000Y-81135000D01*
X-191164000Y-81135000D02*
X-191164000Y-81135400D01*
X-187861600Y-79082900D02*
X-191163600Y-79082900D01*
X-186084000Y-79844900D02*
X-186465000Y-79463900D01*
X-186846000Y-79082900D02*
X-187861600Y-79082900D01*
X-186465000Y-79463900D02*
X-186846000Y-79082900D01*
X-186464600Y-79463900D02*
X-186083600Y-79844900D01*
X-186465000Y-79463900D02*
X-186464600Y-79463900D01*
%TO.N,Net-(D15-Pad2)*%
X-219739000Y-88238600D02*
X-220654000Y-89154000D01*
X-219739000Y-81135400D02*
X-219739000Y-88238600D01*
X-219739000Y-81135000D02*
X-219739000Y-79082900D01*
X-219739000Y-81135400D02*
X-219739000Y-81135000D01*
X-219739000Y-79082900D02*
X-219738600Y-79082900D01*
X-219739000Y-79082900D02*
X-219739000Y-81135000D01*
X-219739000Y-81135000D02*
X-219739000Y-81135400D01*
X-216436600Y-79082900D02*
X-219738600Y-79082900D01*
X-214659000Y-79844900D02*
X-215040000Y-79463900D01*
X-215421000Y-79082900D02*
X-216436600Y-79082900D01*
X-215040000Y-79463900D02*
X-215421000Y-79082900D01*
X-215039600Y-79463900D02*
X-214658600Y-79844900D01*
X-215040000Y-79463900D02*
X-215039600Y-79463900D01*
%TO.N,Net-(D14-Pad2)*%
X-238789000Y-88238600D02*
X-239704000Y-89154000D01*
X-238789000Y-81135400D02*
X-238789000Y-88238600D01*
X-238789000Y-81135000D02*
X-238789000Y-79082900D01*
X-238789000Y-81135400D02*
X-238789000Y-81135000D01*
X-238789000Y-79082900D02*
X-238788600Y-79082900D01*
X-238789000Y-79082900D02*
X-238789000Y-81135000D01*
X-238789000Y-81135000D02*
X-238789000Y-81135400D01*
X-235486600Y-79082900D02*
X-238788600Y-79082900D01*
X-233709000Y-79844900D02*
X-234090000Y-79463900D01*
X-234471000Y-79082900D02*
X-235486600Y-79082900D01*
X-234090000Y-79463900D02*
X-234471000Y-79082900D01*
X-234089600Y-79463900D02*
X-233708600Y-79844900D01*
X-234090000Y-79463900D02*
X-234089600Y-79463900D01*
%TO.N,Net-(D13-Pad2)*%
X-257839000Y-88238600D02*
X-258754000Y-89154000D01*
X-257839000Y-81135400D02*
X-257839000Y-88238600D01*
X-257839000Y-81135000D02*
X-257839000Y-79082900D01*
X-257839000Y-81135400D02*
X-257839000Y-81135000D01*
X-257839000Y-79082900D02*
X-257838600Y-79082900D01*
X-257839000Y-79082900D02*
X-257839000Y-81135000D01*
X-257839000Y-81135000D02*
X-257839000Y-81135400D01*
X-254536600Y-79082900D02*
X-257838600Y-79082900D01*
X-252759000Y-79844900D02*
X-253140000Y-79463900D01*
X-253521000Y-79082900D02*
X-254536600Y-79082900D01*
X-253140000Y-79463900D02*
X-253521000Y-79082900D01*
X-253139600Y-79463900D02*
X-252758600Y-79844900D01*
X-253140000Y-79463900D02*
X-253139600Y-79463900D01*
%TO.N,Net-(D12-Pad2)*%
X-286414000Y-88238600D02*
X-287329000Y-89154000D01*
X-286414000Y-81135400D02*
X-286414000Y-88238600D01*
X-286414000Y-81135000D02*
X-286414000Y-79082900D01*
X-286414000Y-81135400D02*
X-286414000Y-81135000D01*
X-286414000Y-79082900D02*
X-286413600Y-79082900D01*
X-286414000Y-79082900D02*
X-286414000Y-81135000D01*
X-286414000Y-81135000D02*
X-286414000Y-81135400D01*
X-283111600Y-79082900D02*
X-286413600Y-79082900D01*
X-281334000Y-78320900D02*
X-281715000Y-78701900D01*
X-282096000Y-79082900D02*
X-283111600Y-79082900D01*
X-281715000Y-78701900D02*
X-282096000Y-79082900D01*
X-281714600Y-78701900D02*
X-281333600Y-78320900D01*
X-281715000Y-78701900D02*
X-281714600Y-78701900D01*
%TO.N,Net-(D11-Pad2)*%
X-305464000Y-88238600D02*
X-306379000Y-89154000D01*
X-305464000Y-81135400D02*
X-305464000Y-88238600D01*
X-305464000Y-81135000D02*
X-305464000Y-79082900D01*
X-305464000Y-81135400D02*
X-305464000Y-81135000D01*
X-305463600Y-79082900D02*
X-305464000Y-79082900D01*
X-305464000Y-79082900D02*
X-305464000Y-81135000D01*
X-305464000Y-81135000D02*
X-305464000Y-81135400D01*
X-300384000Y-79844900D02*
X-300383600Y-79844900D01*
X-303812800Y-79082900D02*
X-302161600Y-79082900D01*
X-302162000Y-79082900D02*
X-303812800Y-79082900D01*
X-301400000Y-79844900D02*
X-302162000Y-79082900D01*
X-300384000Y-79844900D02*
X-301400000Y-79844900D01*
X-303812800Y-79082900D02*
X-305463600Y-79082900D01*
%TO.N,Net-(D10-Pad2)*%
X-324514000Y-88238600D02*
X-325429000Y-89154000D01*
X-324514000Y-81135400D02*
X-324514000Y-88238600D01*
X-324514000Y-81135000D02*
X-324514000Y-79082900D01*
X-324514000Y-81135400D02*
X-324514000Y-81135000D01*
X-324514000Y-79082900D02*
X-324513600Y-79082900D01*
X-324513600Y-79082900D02*
X-321211600Y-79082900D01*
X-324514000Y-79082900D02*
X-324514000Y-81135000D01*
X-324514000Y-81135000D02*
X-324514000Y-81135400D01*
X-320196000Y-79082900D02*
X-319815000Y-79463900D01*
X-321211600Y-79082900D02*
X-320196000Y-79082900D01*
X-319815000Y-79463900D02*
X-319434000Y-79844900D01*
X-319814600Y-79463900D02*
X-319433600Y-79844900D01*
X-319815000Y-79463900D02*
X-319814600Y-79463900D01*
%TO.N,ROW1*%
X-308356000Y-92964000D02*
X-289052000Y-92964000D01*
X-290629000Y-91387000D02*
X-289052000Y-92964000D01*
X-290629000Y-89154000D02*
X-290629000Y-91387000D01*
X-260604000Y-92964000D02*
X-241808000Y-92964000D01*
X-262054000Y-91514000D02*
X-260604000Y-92964000D01*
X-262054000Y-89154000D02*
X-262054000Y-91514000D01*
X-309679000Y-91641000D02*
X-308356000Y-92964000D01*
X-309679000Y-89154000D02*
X-309679000Y-91641000D01*
X-327152000Y-92964000D02*
X-308356000Y-92964000D01*
X-328729000Y-91387000D02*
X-327152000Y-92964000D01*
X-328729000Y-89154000D02*
X-328729000Y-91387000D01*
X-195379000Y-91641000D02*
X-194056000Y-92964000D01*
X-195379000Y-89154000D02*
X-195379000Y-91641000D01*
X-223954000Y-91514000D02*
X-222504000Y-92964000D01*
X-223954000Y-89154000D02*
X-223954000Y-91514000D01*
X-243004000Y-91768000D02*
X-241808000Y-92964000D01*
X-243004000Y-89154000D02*
X-243004000Y-91768000D01*
X-289052000Y-92964000D02*
X-260604000Y-92964000D01*
X-241808000Y-92964000D02*
X-222504000Y-92964000D01*
X-222504000Y-92964000D02*
X-194056000Y-92964000D01*
X-171566000Y-91810500D02*
X-171566000Y-91146300D01*
X-172720000Y-92964000D02*
X-171566000Y-91810500D01*
X-194056000Y-92964000D02*
X-172720000Y-92964000D01*
X-171566000Y-91146300D02*
X-171566000Y-90482200D01*
X-171566500Y-91145800D02*
X-171566500Y-89154000D01*
X-171566000Y-91146300D02*
X-171566500Y-91145800D01*
%TO.N,Net-(D9-Pad2)*%
X-148301000Y-59663600D02*
X-149216000Y-60579000D01*
X-148301000Y-52000900D02*
X-148301000Y-59663600D01*
X-148301000Y-52000900D02*
X-148301000Y-52000800D01*
X-148301000Y-52000800D02*
X-148301000Y-51254400D01*
X-148301000Y-51254400D02*
X-148301000Y-52000800D01*
X-148301000Y-52000800D02*
X-148301000Y-52000900D01*
X-143983000Y-50507900D02*
X-143221100Y-51269800D01*
X-144999100Y-50507900D02*
X-143983000Y-50507900D01*
X-143221100Y-51269800D02*
X-143221000Y-51269900D01*
X-143221100Y-51269800D02*
X-143221100Y-51269900D01*
X-149216500Y-60579000D02*
X-149216000Y-60579000D01*
X-148301100Y-50507900D02*
X-147574000Y-50507900D01*
X-147574000Y-50527600D02*
X-147574000Y-50507900D01*
X-148301000Y-51254400D02*
X-147574000Y-50527600D01*
X-147574000Y-50507900D02*
X-144999100Y-50507900D01*
%TO.N,Net-(D8-Pad2)*%
X-169732000Y-52560400D02*
X-169732000Y-52560100D01*
X-169732000Y-59663600D02*
X-170648000Y-60578900D01*
X-169732000Y-52560400D02*
X-169732000Y-59663600D01*
X-164652000Y-51269900D02*
X-164652300Y-51269900D01*
X-166430000Y-50507900D02*
X-166430300Y-50507900D01*
X-165668000Y-51269900D02*
X-166430000Y-50507900D01*
X-164652300Y-51269900D02*
X-165668000Y-51269900D01*
X-169732000Y-52560100D02*
X-169732000Y-51534100D01*
X-169732000Y-51534100D02*
X-169732000Y-52560100D01*
X-169732000Y-52560100D02*
X-169732000Y-52560400D01*
X-170647800Y-60578900D02*
X-170647700Y-60579000D01*
X-170648000Y-60578900D02*
X-170647800Y-60578900D01*
X-169732300Y-50507900D02*
X-169005000Y-50507900D01*
X-166430300Y-50507900D02*
X-169005000Y-50507900D01*
X-169005000Y-50807500D02*
X-169732000Y-51534100D01*
X-169005000Y-50507900D02*
X-169005000Y-50807500D01*
%TO.N,Net-(D7-Pad2)*%
X-191164000Y-59663600D02*
X-192079000Y-60579000D01*
X-191164000Y-52560400D02*
X-191164000Y-59663600D01*
X-191164000Y-52560000D02*
X-191164000Y-50507900D01*
X-191164000Y-52560400D02*
X-191164000Y-52560000D01*
X-191164000Y-50507900D02*
X-191163600Y-50507900D01*
X-191164000Y-50507900D02*
X-191164000Y-52560000D01*
X-191164000Y-52560000D02*
X-191164000Y-52560400D01*
X-186084000Y-49745900D02*
X-186083600Y-49745900D01*
X-189512800Y-50507900D02*
X-187861600Y-50507900D01*
X-187862000Y-50507900D02*
X-189512800Y-50507900D01*
X-187100000Y-49745900D02*
X-187862000Y-50507900D01*
X-186084000Y-49745900D02*
X-187100000Y-49745900D01*
X-189512800Y-50507900D02*
X-191163600Y-50507900D01*
%TO.N,Net-(D6-Pad2)*%
X-219739000Y-59663600D02*
X-220654000Y-60579000D01*
X-219739000Y-52000900D02*
X-219739000Y-59663600D01*
X-219739000Y-52000500D02*
X-219739000Y-50507900D01*
X-219739000Y-52000900D02*
X-219739000Y-52000500D01*
X-219739000Y-50507900D02*
X-219738600Y-50507900D01*
X-219738600Y-50507900D02*
X-216436600Y-50507900D01*
X-219739000Y-50507900D02*
X-219739000Y-52000500D01*
X-219739000Y-52000500D02*
X-219739000Y-52000900D01*
X-215421000Y-50507900D02*
X-215040000Y-50126900D01*
X-216436600Y-50507900D02*
X-215421000Y-50507900D01*
X-215040000Y-50126900D02*
X-214659000Y-49745900D01*
X-215039600Y-50126900D02*
X-214658600Y-49745900D01*
X-215040000Y-50126900D02*
X-215039600Y-50126900D01*
%TO.N,Net-(D5-Pad2)*%
X-238789000Y-59663600D02*
X-239704000Y-60579000D01*
X-238789000Y-52000900D02*
X-238789000Y-59663600D01*
X-238789000Y-52000500D02*
X-238789000Y-50507900D01*
X-238789000Y-52000900D02*
X-238789000Y-52000500D01*
X-238789000Y-50507900D02*
X-238788600Y-50507900D01*
X-238788600Y-50507900D02*
X-235486600Y-50507900D01*
X-238789000Y-50507900D02*
X-238789000Y-52000500D01*
X-238789000Y-52000500D02*
X-238789000Y-52000900D01*
X-234471000Y-50507900D02*
X-234090000Y-50126900D01*
X-235486600Y-50507900D02*
X-234471000Y-50507900D01*
X-234090000Y-50126900D02*
X-233709000Y-49745900D01*
X-234089600Y-50126900D02*
X-233708600Y-49745900D01*
X-234090000Y-50126900D02*
X-234089600Y-50126900D01*
%TO.N,Net-(D4-Pad2)*%
X-257839000Y-59663600D02*
X-258754000Y-60579000D01*
X-257839000Y-52000900D02*
X-257839000Y-59663600D01*
X-257839000Y-52000500D02*
X-257839000Y-50507900D01*
X-257839000Y-52000900D02*
X-257839000Y-52000500D01*
X-257839000Y-50507900D02*
X-257838600Y-50507900D01*
X-257838600Y-50507900D02*
X-254536600Y-50507900D01*
X-257839000Y-50507900D02*
X-257839000Y-52000500D01*
X-257839000Y-52000500D02*
X-257839000Y-52000900D01*
X-253521000Y-50507900D02*
X-253140000Y-50126900D01*
X-254536600Y-50507900D02*
X-253521000Y-50507900D01*
X-253140000Y-50126900D02*
X-252759000Y-49745900D01*
X-253139600Y-50126900D02*
X-252758600Y-49745900D01*
X-253140000Y-50126900D02*
X-253139600Y-50126900D01*
%TO.N,Net-(D3-Pad2)*%
X-286414000Y-59663600D02*
X-287329000Y-60579000D01*
X-286414000Y-52000900D02*
X-286414000Y-59663600D01*
X-286414000Y-52000500D02*
X-286414000Y-50507900D01*
X-286414000Y-52000900D02*
X-286414000Y-52000500D01*
X-286413600Y-50507900D02*
X-286414000Y-50507900D01*
X-286414000Y-50507900D02*
X-286414000Y-52000500D01*
X-286414000Y-52000500D02*
X-286414000Y-52000900D01*
X-281334000Y-51269900D02*
X-281333600Y-51269900D01*
X-284762800Y-50507900D02*
X-283111600Y-50507900D01*
X-283112000Y-50507900D02*
X-284762800Y-50507900D01*
X-282350000Y-51269900D02*
X-283112000Y-50507900D01*
X-281334000Y-51269900D02*
X-282350000Y-51269900D01*
X-284762800Y-50507900D02*
X-286413600Y-50507900D01*
%TO.N,Net-(D2-Pad2)*%
X-305464000Y-59663600D02*
X-306379000Y-60579000D01*
X-305464000Y-52560400D02*
X-305464000Y-59663600D01*
X-305464000Y-52560000D02*
X-305464000Y-50507900D01*
X-305464000Y-52560400D02*
X-305464000Y-52560000D01*
X-305464000Y-50507900D02*
X-305463600Y-50507900D01*
X-305464000Y-50507900D02*
X-305464000Y-52560000D01*
X-305464000Y-52560000D02*
X-305464000Y-52560400D01*
X-300384000Y-51269900D02*
X-300383600Y-51269900D01*
X-303812800Y-50507900D02*
X-302161600Y-50507900D01*
X-302162000Y-50507900D02*
X-303812800Y-50507900D01*
X-301400000Y-51269900D02*
X-302162000Y-50507900D01*
X-300384000Y-51269900D02*
X-301400000Y-51269900D01*
X-303812800Y-50507900D02*
X-305463600Y-50507900D01*
%TO.N,Net-(D1-Pad2)*%
X-324485000Y-50482500D02*
X-324485000Y-52547700D01*
X-324514000Y-50507900D02*
X-324513600Y-50507900D01*
X-324514000Y-52519100D02*
X-324514000Y-50507900D01*
X-324485000Y-52547700D02*
X-324514000Y-52519100D01*
X-324485000Y-59638200D02*
X-324485000Y-52547700D01*
X-325400000Y-60553600D02*
X-324485000Y-59638200D01*
X-325425000Y-60579000D02*
X-325400000Y-60553600D01*
X-325429000Y-60579000D02*
X-325425000Y-60579000D01*
X-319434000Y-49745900D02*
X-319433600Y-49745900D01*
X-322862800Y-50507900D02*
X-321211600Y-50507900D01*
X-321212000Y-50507900D02*
X-322862800Y-50507900D01*
X-320450000Y-49745900D02*
X-321212000Y-50507900D01*
X-319434000Y-49745900D02*
X-320450000Y-49745900D01*
X-322862800Y-50507900D02*
X-324513600Y-50507900D01*
%TO.N,ROW0*%
X-260604000Y-64516000D02*
X-241808000Y-64516000D01*
X-289052000Y-64516000D02*
X-260604000Y-64516000D01*
X-222504000Y-64516000D02*
X-212946000Y-64516000D01*
X-290629000Y-62939000D02*
X-289052000Y-64516000D01*
X-290629000Y-60579000D02*
X-290629000Y-62939000D01*
X-202796000Y-64516000D02*
X-194056000Y-64516000D01*
X-308356000Y-64516000D02*
X-289052000Y-64516000D01*
X-194056000Y-64516000D02*
X-172720000Y-64516000D01*
X-327660000Y-64516000D02*
X-308356000Y-64516000D01*
X-241808000Y-64516000D02*
X-222504000Y-64516000D01*
X-309679000Y-63193000D02*
X-308356000Y-64516000D01*
X-309679000Y-60579000D02*
X-309679000Y-63193000D01*
X-223954000Y-63066000D02*
X-222504000Y-64516000D01*
X-223954000Y-60579000D02*
X-223954000Y-63066000D01*
X-195379000Y-63193000D02*
X-194056000Y-64516000D01*
X-195379000Y-60579000D02*
X-195379000Y-63193000D01*
X-243004000Y-63320000D02*
X-241808000Y-64516000D01*
X-243004000Y-60579000D02*
X-243004000Y-63320000D01*
X-262054000Y-63066000D02*
X-260604000Y-64516000D01*
X-262054000Y-60579000D02*
X-262054000Y-63066000D01*
X-173948000Y-63288200D02*
X-173948000Y-61933600D01*
X-172720000Y-64516000D02*
X-173948000Y-63288200D01*
X-152516000Y-63108500D02*
X-152516000Y-62476100D01*
X-153924000Y-64516000D02*
X-152516000Y-63108500D01*
X-172720000Y-64516000D02*
X-153924000Y-64516000D01*
X-152516000Y-62476100D02*
X-152516000Y-61843700D01*
X-152516500Y-62475600D02*
X-152516500Y-60579000D01*
X-152516000Y-62476100D02*
X-152516500Y-62475600D01*
X-328729000Y-60579000D02*
X-328729000Y-62363000D01*
X-328729000Y-62363000D02*
X-328729000Y-63447000D01*
X-327660000Y-63432000D02*
X-327660000Y-64516000D01*
X-328729000Y-62363000D02*
X-327660000Y-63432000D01*
X-173947700Y-61933300D02*
X-173948000Y-61933600D01*
X-173947700Y-60579000D02*
X-173947700Y-61933300D01*
D30*
%TO.N,+5V*%
X-194051000Y-189970000D02*
X-194641000Y-190560000D01*
X-194051000Y-189481000D02*
X-194051000Y-189970000D01*
X-209932000Y-181228000D02*
X-210993000Y-181228000D01*
X-204724000Y-186436000D02*
X-209932000Y-181228000D01*
X-210216000Y-65160000D02*
X-210993000Y-65937400D01*
X-210200000Y-65160000D02*
X-210216000Y-65160000D01*
X-210200000Y-64120000D02*
X-210200000Y-65160000D01*
X-212344000Y-61976000D02*
X-210200000Y-64120000D01*
X-212344000Y-58737500D02*
X-212344000Y-61976000D01*
X-204786000Y-186498000D02*
X-204786000Y-187279000D01*
X-204724000Y-186436000D02*
X-204786000Y-186498000D01*
X-204786000Y-187279000D02*
X-204786000Y-188060000D01*
X-204786000Y-187279000D02*
X-204786000Y-188060000D01*
X-189875000Y-204631000D02*
X-188561000Y-204631000D01*
D28*
X-188561000Y-204631000D02*
X-188468000Y-204724000D01*
D30*
X-207519000Y-200050000D02*
X-208131000Y-200662000D01*
X-204931200Y-200050000D02*
X-207519000Y-200050000D01*
X-209294000Y-200662000D02*
X-209296000Y-200660000D01*
X-208132000Y-200662000D02*
X-209294000Y-200662000D01*
X-204931000Y-200050000D02*
X-204931200Y-200050000D01*
D28*
X-195750000Y-204631000D02*
X-189875000Y-204631000D01*
X-196831000Y-203550000D02*
X-195750000Y-204631000D01*
X-196831000Y-203050000D02*
X-196831000Y-203550000D01*
X-189875000Y-204631000D02*
X-188561000Y-204631000D01*
D30*
X-194051000Y-189481000D02*
X-194051000Y-188060000D01*
X-194051000Y-187961000D02*
X-194051000Y-186441000D01*
X-196831000Y-203050000D02*
X-196831000Y-202800000D01*
X-196831000Y-202800000D02*
X-196831000Y-202550000D01*
D28*
X-196831000Y-202550000D02*
X-196831000Y-202800000D01*
X-196831000Y-202800000D02*
X-196831000Y-203050000D01*
D30*
X-196831200Y-202799800D02*
X-196831200Y-202550000D01*
X-196831000Y-202800000D02*
X-196831200Y-202799800D01*
X-195231000Y-191150000D02*
X-194641000Y-190560000D01*
X-195231200Y-191150000D02*
X-195231000Y-191150000D01*
X-203231000Y-191149800D02*
X-203231000Y-190332000D01*
X-203231200Y-191150000D02*
X-203231000Y-191149800D01*
D28*
X-192062000Y-197650000D02*
X-192024000Y-197612000D01*
X-193531000Y-197650000D02*
X-192062000Y-197650000D01*
D30*
X-193531000Y-197650000D02*
X-193531200Y-197650000D01*
X-191480000Y-193650000D02*
X-191200000Y-193370000D01*
X-193531000Y-193650000D02*
X-191480000Y-193650000D01*
X-193531000Y-193650000D02*
X-193531200Y-193650000D01*
X-194051000Y-188060000D02*
X-194051000Y-188010500D01*
X-194051000Y-188010500D02*
X-194051000Y-187961000D01*
X-194051000Y-187961000D02*
X-194051000Y-188010500D01*
X-194051000Y-188010500D02*
X-194051000Y-188060000D01*
X-194051200Y-188010700D02*
X-194051200Y-188060000D01*
X-194051000Y-188010500D02*
X-194051200Y-188010700D01*
X-203231000Y-189515000D02*
X-203231000Y-190332000D01*
X-203200000Y-189484000D02*
X-203231000Y-189515000D01*
X-204624000Y-188060000D02*
X-203200000Y-189484000D01*
X-204786000Y-188060000D02*
X-204624000Y-188060000D01*
X-204786000Y-188060000D02*
X-204786300Y-188060000D01*
X-189875000Y-204631200D02*
X-189875000Y-204631000D01*
X-186531200Y-206493700D02*
X-186531200Y-206494000D01*
D28*
X-186698000Y-206494000D02*
X-186531200Y-206494000D01*
X-188468000Y-204724000D02*
X-186698000Y-206494000D01*
X-186531200Y-206494000D02*
X-186531000Y-206494000D01*
D30*
X-208132000Y-200662000D02*
X-208131500Y-200662000D01*
X-208131500Y-200662000D02*
X-208131000Y-200662000D01*
X-208131000Y-200662000D02*
X-208131500Y-200662000D01*
X-208131500Y-200662000D02*
X-208132000Y-200662000D01*
X-208131200Y-200662300D02*
X-208131200Y-200662500D01*
X-208131500Y-200662000D02*
X-208131200Y-200662300D01*
D28*
%TO.N,Net-(C3-Pad1)*%
X-193531000Y-196850000D02*
X-193531200Y-196850000D01*
X-189068700Y-198437500D02*
X-189069100Y-198437900D01*
X-189069000Y-198438000D02*
X-189069100Y-198437900D01*
X-190656000Y-196850000D02*
X-193531000Y-196850000D01*
X-189069100Y-198437900D02*
X-190656000Y-196850000D01*
%TO.N,Net-(C2-Pad2)*%
X-195900000Y-210400000D02*
X-196915000Y-210400000D01*
X-195800000Y-210500000D02*
X-195900000Y-210400000D01*
X-196915000Y-210400000D02*
X-197930000Y-210400000D01*
X-196915000Y-210400000D02*
X-197930000Y-210400000D01*
X-197930000Y-210400000D02*
X-198441500Y-210400000D01*
X-198441500Y-210400000D02*
X-198442000Y-210400000D01*
X-198431000Y-206445000D02*
X-198431000Y-205471500D01*
X-197192000Y-207684000D02*
X-198431000Y-206445000D01*
X-197192000Y-209662000D02*
X-197192000Y-207684000D01*
X-197930000Y-210400000D02*
X-197192000Y-209662000D01*
X-198431000Y-205471500D02*
X-198431000Y-204498000D01*
X-198431200Y-205471300D02*
X-198431200Y-202550000D01*
X-198431000Y-205471500D02*
X-198431200Y-205471300D01*
%TO.N,Net-(C1-Pad2)*%
X-202580000Y-208680000D02*
X-202680000Y-208580000D01*
X-199136000Y-202645000D02*
X-199184000Y-202598000D01*
X-199136000Y-203200000D02*
X-199136000Y-202645000D01*
X-199231000Y-207290000D02*
X-200642000Y-208700000D01*
X-199231000Y-202550000D02*
X-199231000Y-207290000D01*
X-200762000Y-208580000D02*
X-202680000Y-208580000D01*
X-200702000Y-208640000D02*
X-200762000Y-208580000D01*
X-199184000Y-202598000D02*
X-199207500Y-202574000D01*
X-199207500Y-202574000D02*
X-199231000Y-202550000D01*
X-199184000Y-202598000D02*
X-199207500Y-202574000D01*
X-199207500Y-202574000D02*
X-199231000Y-202550000D01*
X-199231200Y-202550300D02*
X-199231200Y-202550000D01*
X-199207500Y-202574000D02*
X-199231200Y-202550300D01*
X-200702000Y-208640000D02*
X-200672000Y-208670000D01*
X-200672000Y-208670000D02*
X-200642000Y-208700000D01*
X-200642000Y-208700000D02*
X-200672000Y-208670000D01*
X-200672000Y-208670000D02*
X-200702000Y-208640000D01*
X-200671500Y-208670000D02*
X-200641500Y-208700000D01*
X-200672000Y-208670000D02*
X-200671500Y-208670000D01*
D30*
%TO.N,GND*%
X-197631000Y-205121000D02*
X-197631000Y-205748000D01*
X-202580000Y-210380000D02*
X-202680000Y-210480000D01*
X-200722000Y-210480000D02*
X-200642000Y-210400000D01*
X-202680000Y-210480000D02*
X-200722000Y-210480000D01*
D28*
X-189556000Y-196050000D02*
X-193531000Y-196050000D01*
X-187169000Y-198438000D02*
X-189556000Y-196050000D01*
D30*
X-196088000Y-194564000D02*
X-194602000Y-196050000D01*
X-196088000Y-194056000D02*
X-196088000Y-194564000D01*
X-187106000Y-198500000D02*
X-187169000Y-198438000D01*
X-185770000Y-198500000D02*
X-187106000Y-198500000D01*
X-200656000Y-194056000D02*
X-196088000Y-194056000D01*
X-202182000Y-192530000D02*
X-200656000Y-194056000D01*
X-199442000Y-211600000D02*
X-200642000Y-210400000D01*
X-195020000Y-211600000D02*
X-199442000Y-211600000D01*
X-194684000Y-211264000D02*
X-195020000Y-211600000D01*
X-194684000Y-209716000D02*
X-194684000Y-211264000D01*
X-195800000Y-208600000D02*
X-194684000Y-209716000D01*
X-198342000Y-208600000D02*
X-198442000Y-208700000D01*
X-207962000Y-47625000D02*
X-211612000Y-47625000D01*
X-196031000Y-193999000D02*
X-196088000Y-194056000D01*
X-196031000Y-191150000D02*
X-196031000Y-193999000D01*
X-195991000Y-191110000D02*
X-196031000Y-191150000D01*
X-195991000Y-191110000D02*
X-196031000Y-191150000D01*
X-202431000Y-190398000D02*
X-202431000Y-191150000D01*
X-195951000Y-191070000D02*
X-195991000Y-191110000D01*
X-195951000Y-189165000D02*
X-195951000Y-191070000D01*
X-195951000Y-189165000D02*
X-195951000Y-189164000D01*
D28*
X-191285000Y-205121000D02*
X-189875000Y-206531000D01*
X-197631000Y-205121000D02*
X-191285000Y-205121000D01*
X-189885000Y-212975000D02*
X-188660000Y-214200000D01*
X-189885000Y-206541000D02*
X-189885000Y-212975000D01*
X-189880000Y-206536000D02*
X-189885000Y-206541000D01*
D30*
X-207962000Y-47625000D02*
X-211612000Y-47625000D01*
X-194602000Y-196050000D02*
X-193956100Y-196050000D01*
X-193956100Y-196050000D02*
X-194602000Y-196050000D01*
X-193956100Y-196050000D02*
X-193531200Y-196050000D01*
X-193531200Y-196050000D02*
X-193531000Y-196050000D01*
X-193531000Y-196050000D02*
X-193531200Y-196050000D01*
X-193531200Y-196050000D02*
X-193956100Y-196050000D01*
X-204312000Y-47625000D02*
X-204312500Y-47625000D01*
X-204312000Y-52125000D02*
X-204312000Y-47625000D01*
X-204312500Y-52125000D02*
X-204312000Y-52125000D01*
X-204312500Y-47625000D02*
X-207962000Y-47625000D01*
X-197631000Y-202070000D02*
X-197631000Y-202310000D01*
X-197631000Y-202310000D02*
X-197631000Y-202550000D01*
X-197631200Y-202310200D02*
X-197631200Y-202550000D01*
X-197631000Y-202310000D02*
X-197631200Y-202310200D01*
X-197631000Y-202310000D02*
X-197631000Y-202550000D01*
X-197631000Y-202550000D02*
X-197631000Y-205121000D01*
X-197631000Y-202070000D02*
X-197631000Y-202310000D01*
D28*
X-200641500Y-210400000D02*
X-200642000Y-210400000D01*
D30*
X-187169000Y-198437800D02*
X-187169000Y-198438000D01*
X-187168700Y-198437500D02*
X-187169000Y-198437800D01*
X-196031200Y-191150000D02*
X-196031000Y-191150000D01*
X-202431200Y-191150000D02*
X-202431000Y-191150000D01*
X-202431000Y-190398000D02*
X-202431000Y-191150000D01*
X-202431000Y-192281000D02*
X-202182000Y-192530000D01*
X-202431000Y-191150000D02*
X-202431000Y-192281000D01*
X-189880000Y-206536000D02*
X-189877500Y-206533500D01*
X-189877500Y-206533500D02*
X-189875000Y-206531000D01*
D28*
X-189875000Y-206531000D02*
X-189877500Y-206533500D01*
X-189877500Y-206533500D02*
X-189880000Y-206536000D01*
D30*
X-189877300Y-206533500D02*
X-189875000Y-206531200D01*
X-189877500Y-206533500D02*
X-189877300Y-206533500D01*
X-195951000Y-189164000D02*
X-195951000Y-188612000D01*
X-195951200Y-188611800D02*
X-195951200Y-188060000D01*
X-195951000Y-188612000D02*
X-195951200Y-188611800D01*
X-195951000Y-188612000D02*
X-195951000Y-189164000D01*
X-195951000Y-189164000D02*
X-195951000Y-189165000D01*
X-208280000Y-191111500D02*
X-208280000Y-191112000D01*
X-205076000Y-191112000D02*
X-208280000Y-191112000D01*
X-203657000Y-192530000D02*
X-205076000Y-191112000D01*
X-202182000Y-192530000D02*
X-203657000Y-192530000D01*
X-208280000Y-191112000D02*
X-213874000Y-191112000D01*
X-202886000Y-188060000D02*
X-202658000Y-188288000D01*
X-202772500Y-188174000D02*
X-202886000Y-188060000D01*
X-202886300Y-188060200D02*
X-202886300Y-188060000D01*
X-202772500Y-188174000D02*
X-202886300Y-188060200D01*
X-202431000Y-188515000D02*
X-202658000Y-188288000D01*
X-202431000Y-190398000D02*
X-202431000Y-188515000D01*
X-202659000Y-188288000D02*
X-202772500Y-188174000D01*
X-202658000Y-188288000D02*
X-202659000Y-188288000D01*
X-206419000Y-200850000D02*
X-204931200Y-200850000D01*
X-208131000Y-202562000D02*
X-206419000Y-200850000D01*
X-208131200Y-202562200D02*
X-208131200Y-202562500D01*
X-208131000Y-202562000D02*
X-208131200Y-202562200D01*
X-211612500Y-47625000D02*
X-211612000Y-47625000D01*
X-206362000Y-52125000D02*
X-204312500Y-52125000D01*
X-206362000Y-52125000D02*
X-206362500Y-52125000D01*
X-211612000Y-47625000D02*
X-211612000Y-48750000D01*
X-211612000Y-48750000D02*
X-211612000Y-49875000D01*
X-211612500Y-48750500D02*
X-211612500Y-52125000D01*
X-211612000Y-48750000D02*
X-211612500Y-48750500D01*
X-199462000Y-200850000D02*
X-197631000Y-199019000D01*
X-204931200Y-200850000D02*
X-199462000Y-200850000D01*
X-197631000Y-199019000D02*
X-197631000Y-202070000D01*
X-194662000Y-196050000D02*
X-197172000Y-198560000D01*
X-194602000Y-196050000D02*
X-194662000Y-196050000D01*
X-197172000Y-198560000D02*
X-197631000Y-199019000D01*
D28*
X-200328000Y-210400000D02*
X-200641500Y-210400000D01*
X-198628000Y-208700000D02*
X-200328000Y-210400000D01*
X-198442000Y-208700000D02*
X-198628000Y-208700000D01*
D30*
X-198442000Y-208700000D02*
X-198441500Y-208700000D01*
%TD*%
M02*
